G04*
G04 #@! TF.GenerationSoftware,Altium Limited,Altium Designer,21.0.8 (223)*
G04*
G04 Layer_Physical_Order=1*
G04 Layer_Color=255*
%FSLAX25Y25*%
%MOIN*%
G70*
G04*
G04 #@! TF.SameCoordinates,D91FEFE4-16E7-4BF4-AD38-342E90C75360*
G04*
G04*
G04 #@! TF.FilePolarity,Positive*
G04*
G01*
G75*
%ADD11C,0.00984*%
%ADD12C,0.01000*%
%ADD16C,0.01181*%
%ADD18R,0.03937X0.09843*%
%ADD19R,0.05709X0.02165*%
%ADD20R,0.02165X0.05709*%
%ADD21R,0.03543X0.02756*%
%ADD22R,0.02756X0.03543*%
%ADD23R,0.05906X0.05906*%
%ADD33C,0.15748*%
%ADD34C,0.01968*%
%ADD35C,0.31496*%
%ADD36C,0.05906*%
%ADD37R,0.05906X0.05906*%
%ADD38C,0.03150*%
D11*
X59941Y-32126D02*
X65374D01*
X31776Y-35276D02*
X44500Y-48000D01*
X26673Y-35276D02*
X31776D01*
D12*
X26650Y-51000D02*
X26673Y-51024D01*
X22000Y-50414D02*
X22586Y-51000D01*
X22000Y-50414D02*
Y-48500D01*
X22586Y-51000D02*
X26650D01*
X22626Y-47874D02*
X26673D01*
X22000Y-48500D02*
X22626Y-47874D01*
X14000Y-88500D02*
X40500D01*
X42500Y-86500D01*
Y-78000D01*
X44000Y-76500D01*
X53500Y-68500D02*
Y-65890D01*
X59941Y-28976D02*
Y-25032D01*
X53500Y-72000D02*
X56000D01*
X28500Y-74000D02*
X29500Y-73000D01*
X33500Y-30000D02*
X35433Y-28067D01*
X27500Y-24000D02*
X31650D01*
X17500Y-35000D02*
X18500Y-34000D01*
X17500Y-38890D02*
Y-35000D01*
X12500Y-87000D02*
X14000Y-88500D01*
X12500Y-87000D02*
Y-78500D01*
X7500Y-73500D02*
X12500Y-78500D01*
X44000Y-76500D02*
X59500D01*
X61032Y-74968D01*
Y-63532D01*
X56000Y-72000D02*
X57500Y-70500D01*
X29500Y-73000D02*
X32390D01*
X61000Y-63500D02*
Y-60000D01*
X57634Y-56634D02*
X61000Y-60000D01*
X54331Y-56634D02*
X57634D01*
X35433Y-28067D02*
Y-23366D01*
X31650Y-24000D02*
X32283Y-23366D01*
X26673Y-53827D02*
Y-51024D01*
X48031Y-61032D02*
Y-56634D01*
X48000Y-72110D02*
Y-70000D01*
X53000Y-69000D02*
X53500Y-68500D01*
X49000Y-69000D02*
X53000D01*
X48000Y-70000D02*
X49000Y-69000D01*
X48031Y-61032D02*
X49000Y-62000D01*
X52000D01*
X53500Y-63500D01*
Y-65890D02*
Y-63500D01*
D16*
X50000Y-86500D02*
Y-81500D01*
X43307Y-93193D02*
X50000Y-86500D01*
X43307Y-110236D02*
Y-93193D01*
X38610Y-66500D02*
Y-66000D01*
Y-66500D02*
X41000D01*
X38610Y-68890D02*
Y-66500D01*
X41000D02*
X41732Y-65768D01*
X38000Y-69500D02*
X38610Y-68890D01*
X28000Y-69500D02*
X38000D01*
X41732Y-65768D02*
Y-56634D01*
X38788Y-72822D02*
X41068D01*
X38610Y-73000D02*
X38788Y-72822D01*
X41068D02*
X48000Y-65890D01*
X54000Y-21500D02*
X62500D01*
X54000Y-33000D02*
Y-21500D01*
X19500Y-57500D02*
X32390D01*
Y-66000D02*
Y-57500D01*
Y-66500D02*
Y-66000D01*
X69000Y-73000D02*
Y-51110D01*
X60500Y-81500D02*
X69000Y-73000D01*
X50000Y-81500D02*
X60500D01*
X7500Y-51000D02*
Y-45000D01*
X2500Y-56000D02*
X7500Y-51000D01*
X2500Y-80500D02*
Y-56000D01*
Y-80500D02*
X5500Y-83500D01*
X7500D01*
X25000Y-80000D02*
Y-72500D01*
X21500Y-83500D02*
X25000Y-80000D01*
X17500Y-83500D02*
X21500D01*
X25000Y-72500D02*
X28000Y-69500D01*
X38610Y-80390D02*
Y-73000D01*
X62500Y-21500D02*
X70000Y-29000D01*
Y-34000D02*
Y-29000D01*
Y-34000D02*
X79000Y-43000D01*
X54000Y-50000D02*
Y-33000D01*
X45000D02*
X54000D01*
X43291Y-31291D02*
X45000Y-33000D01*
X40291Y-31291D02*
X43291D01*
X79000Y-45000D02*
Y-43000D01*
X52500Y-51500D02*
X54000Y-50000D01*
X44882Y-51500D02*
X52500D01*
X44882Y-56634D02*
Y-51500D01*
X33500D02*
X44882D01*
X32390Y-57500D02*
Y-56740D01*
X17500Y-55500D02*
X19500Y-57500D01*
X17500Y-55500D02*
Y-45110D01*
X17390Y-45000D02*
X17500Y-45110D01*
X7500Y-45000D02*
X17390D01*
X32283Y-56634D02*
Y-52716D01*
X33500Y-51500D01*
X26673Y-41575D02*
X30075D01*
X32500Y-44000D01*
X35500Y-48000D02*
Y-42000D01*
X31925Y-38425D02*
X35500Y-42000D01*
X26673Y-38425D02*
X31925D01*
X59941Y-44724D02*
X68835D01*
X37500Y-81500D02*
X38610Y-80390D01*
X32000Y-81500D02*
X37500D01*
X32283Y-56634D02*
X32390Y-56740D01*
X68835Y-44724D02*
X69000Y-44890D01*
D18*
X48500Y-6000D02*
D03*
X38500D02*
D03*
D19*
X26673Y-51024D02*
D03*
Y-47874D02*
D03*
Y-44724D02*
D03*
Y-41575D02*
D03*
Y-38425D02*
D03*
Y-35276D02*
D03*
Y-32126D02*
D03*
Y-28976D02*
D03*
X59941D02*
D03*
Y-32126D02*
D03*
Y-35276D02*
D03*
Y-38425D02*
D03*
Y-41575D02*
D03*
Y-44724D02*
D03*
Y-47874D02*
D03*
Y-51024D02*
D03*
D20*
X32283Y-23366D02*
D03*
X35433D02*
D03*
X38583D02*
D03*
X41732D02*
D03*
X44882D02*
D03*
X48031D02*
D03*
X51181D02*
D03*
X54331D02*
D03*
Y-56634D02*
D03*
X51181D02*
D03*
X48031D02*
D03*
X44882D02*
D03*
X41732D02*
D03*
X38583D02*
D03*
X35433D02*
D03*
X32283D02*
D03*
D21*
X48000Y-72110D02*
D03*
Y-65890D02*
D03*
X53500D02*
D03*
Y-72110D02*
D03*
X69000Y-44890D02*
D03*
Y-51110D02*
D03*
X17500Y-38890D02*
D03*
Y-45110D02*
D03*
D22*
X32390Y-66000D02*
D03*
X38610D02*
D03*
X38610Y-73000D02*
D03*
X32390D02*
D03*
D23*
X50000Y-81500D02*
D03*
X32000D02*
D03*
D33*
X11811Y-300500D02*
G03*
X74803Y-300500I31496J423D01*
G01*
Y-98425D01*
X11811Y-300500D02*
Y-98425D01*
D34*
X45000Y-18000D02*
X65000D01*
X27000D02*
X45000D01*
X44882Y-18118D02*
X45000Y-18000D01*
X44882Y-23366D02*
Y-18118D01*
X48000Y-14000D02*
X66000D01*
X27000D02*
X48000D01*
X66000D02*
X77000Y-25000D01*
X16000D02*
X27000Y-14000D01*
X48031Y-28500D02*
Y-23366D01*
X74500Y-30500D02*
X79000Y-35000D01*
X74500Y-30500D02*
Y-27500D01*
X65000Y-18000D02*
X74500Y-27500D01*
X10000Y-35000D02*
X27000Y-18000D01*
X7500Y-35000D02*
X10000D01*
X7500Y-25000D02*
X16000D01*
X77000D02*
X79000D01*
D35*
X43307Y-299000D02*
Y-110236D01*
D36*
X7500Y-63500D02*
D03*
X17500D02*
D03*
X7500Y-73500D02*
D03*
X17500D02*
D03*
X7500Y-83500D02*
D03*
Y-35000D02*
D03*
Y-25000D02*
D03*
Y-15000D02*
D03*
X79000Y-35000D02*
D03*
Y-25000D02*
D03*
Y-15000D02*
D03*
D37*
X17500Y-83500D02*
D03*
X7500Y-45000D02*
D03*
X79000D02*
D03*
D38*
X38500Y-7000D02*
D03*
X48500D02*
D03*
X18500Y-34000D02*
D03*
X57500Y-70500D02*
D03*
X74803Y-93500D02*
D03*
X11811D02*
D03*
X28532Y-74032D02*
D03*
X61032Y-63532D02*
D03*
X33531Y-30031D02*
D03*
X27531Y-24032D02*
D03*
X65405Y-32157D02*
D03*
X60031Y-25032D02*
D03*
X26705Y-53858D02*
D03*
X40291Y-31291D02*
D03*
X48000Y-14000D02*
D03*
X48031Y-28500D02*
D03*
X32500Y-44000D02*
D03*
X44500Y-48000D02*
D03*
X35500D02*
D03*
M02*
