G04*
G04 #@! TF.GenerationSoftware,Altium Limited,Altium Designer,21.0.8 (223)*
G04*
G04 Layer_Color=32896*
%FSLAX25Y25*%
%MOIN*%
G70*
G04*
G04 #@! TF.SameCoordinates,D91FEFE4-16E7-4BF4-AD38-342E90C75360*
G04*
G04*
G04 #@! TF.FilePolarity,Positive*
G04*
G01*
G75*
%ADD11C,0.00984*%
%ADD13C,0.00787*%
%ADD14C,0.00800*%
%ADD16C,0.01181*%
%ADD17C,0.00591*%
G36*
X70281Y-56724D02*
X69920D01*
Y-56904D01*
X69559D01*
Y-57085D01*
X69379D01*
Y-57265D01*
X69019D01*
Y-57445D01*
X68658D01*
Y-57625D01*
X68297D01*
Y-57806D01*
X68117D01*
Y-57986D01*
X67756D01*
Y-58166D01*
X67396D01*
Y-58347D01*
X67035D01*
Y-58527D01*
X66855D01*
Y-58707D01*
X66494D01*
Y-58887D01*
X66134D01*
Y-59068D01*
X65953D01*
Y-59248D01*
X65593D01*
Y-59428D01*
X65232D01*
Y-59609D01*
X64872D01*
Y-59789D01*
X64691D01*
Y-59969D01*
X64331D01*
Y-60150D01*
X63970D01*
Y-60330D01*
X63609D01*
Y-60510D01*
X63429D01*
Y-60690D01*
X63249D01*
Y-65739D01*
X62888D01*
Y-65919D01*
X62708D01*
Y-66099D01*
X62348D01*
Y-66280D01*
X61987D01*
Y-66460D01*
X61807D01*
Y-66640D01*
X61446D01*
Y-66821D01*
X61085D01*
Y-67001D01*
X60725D01*
Y-67181D01*
X60545D01*
Y-67361D01*
X60184D01*
Y-67542D01*
X59823D01*
Y-67722D01*
X59463D01*
Y-67902D01*
X59282D01*
Y-68083D01*
X58922D01*
Y-68263D01*
X58741D01*
Y-76737D01*
X59102D01*
Y-76917D01*
X59463D01*
Y-77098D01*
X59823D01*
Y-77278D01*
X60004D01*
Y-77458D01*
X60364D01*
Y-77639D01*
X60725D01*
Y-77819D01*
X61085D01*
Y-77999D01*
X61266D01*
Y-78179D01*
X61626D01*
Y-78360D01*
X61987D01*
Y-78540D01*
X62167D01*
Y-78720D01*
X62528D01*
Y-78901D01*
X62888D01*
Y-79081D01*
X63249D01*
Y-79261D01*
X63429D01*
Y-79441D01*
X63790D01*
Y-79622D01*
X64150D01*
Y-79802D01*
X64511D01*
Y-79982D01*
X64691D01*
Y-80163D01*
X65052D01*
Y-80343D01*
X65412D01*
Y-80523D01*
X65773D01*
Y-80704D01*
X65953D01*
Y-80523D01*
X66314D01*
Y-80343D01*
X66494D01*
Y-80163D01*
X66855D01*
Y-79982D01*
X67216D01*
Y-79802D01*
X67396D01*
Y-79622D01*
X67756D01*
Y-79441D01*
X68117D01*
Y-79261D01*
X68478D01*
Y-79081D01*
X68658D01*
Y-78901D01*
X69019D01*
Y-78720D01*
X69379D01*
Y-78540D01*
X69740D01*
Y-78360D01*
X69920D01*
Y-78179D01*
X70281D01*
Y-77999D01*
X70461D01*
Y-78179D01*
X70821D01*
Y-78360D01*
X71002D01*
Y-78540D01*
X71362D01*
Y-78720D01*
X71723D01*
Y-78901D01*
X72084D01*
Y-79081D01*
X72264D01*
Y-79261D01*
X72624D01*
Y-79441D01*
X72985D01*
Y-79622D01*
X73346D01*
Y-79802D01*
X73526D01*
Y-79982D01*
X73887D01*
Y-80163D01*
X74247D01*
Y-80343D01*
X74608D01*
Y-80523D01*
X74788D01*
Y-80704D01*
X74968D01*
Y-80523D01*
X75329D01*
Y-80343D01*
X75690D01*
Y-80163D01*
X76050D01*
Y-79982D01*
X76230D01*
Y-79802D01*
X76591D01*
Y-79622D01*
X76952D01*
Y-79441D01*
X77312D01*
Y-79261D01*
X77492D01*
Y-79081D01*
X77853D01*
Y-78901D01*
X78214D01*
Y-78720D01*
X78574D01*
Y-78540D01*
X78755D01*
Y-78360D01*
X79115D01*
Y-78179D01*
X79476D01*
Y-77999D01*
X79656D01*
Y-77819D01*
X80017D01*
Y-77639D01*
X80377D01*
Y-77458D01*
X80738D01*
Y-77278D01*
X80918D01*
Y-77098D01*
X81279D01*
Y-76917D01*
X81639D01*
Y-76737D01*
X82000D01*
Y-68263D01*
X81820D01*
Y-68083D01*
X81459D01*
Y-67902D01*
X81279D01*
Y-67722D01*
X80918D01*
Y-67542D01*
X80558D01*
Y-67361D01*
X80197D01*
Y-67181D01*
X80017D01*
Y-67001D01*
X79656D01*
Y-66821D01*
X79295D01*
Y-66640D01*
X78935D01*
Y-66460D01*
X78755D01*
Y-66280D01*
X78394D01*
Y-66099D01*
X78033D01*
Y-65919D01*
X77853D01*
Y-65739D01*
X77492D01*
Y-60690D01*
X77312D01*
Y-60510D01*
X76952D01*
Y-60330D01*
X76771D01*
Y-60150D01*
X76411D01*
Y-59969D01*
X76050D01*
Y-59789D01*
X75870D01*
Y-59609D01*
X75509D01*
Y-59428D01*
X75149D01*
Y-59248D01*
X74788D01*
Y-59068D01*
X74608D01*
Y-58887D01*
X74247D01*
Y-58707D01*
X73887D01*
Y-58527D01*
X73526D01*
Y-58347D01*
X73346D01*
Y-58166D01*
X72985D01*
Y-57986D01*
X72624D01*
Y-57806D01*
X72264D01*
Y-57625D01*
X72084D01*
Y-57445D01*
X71723D01*
Y-57265D01*
X71362D01*
Y-57085D01*
X71002D01*
Y-56904D01*
X70821D01*
Y-56724D01*
X70461D01*
Y-56544D01*
X70281D01*
Y-56724D01*
D02*
G37*
G36*
X80877Y-84322D02*
X80996Y-84330D01*
X81106Y-84343D01*
X81205Y-84355D01*
X81250Y-84363D01*
X81287Y-84367D01*
X81323Y-84376D01*
X81352Y-84380D01*
X81377Y-84384D01*
X81393Y-84388D01*
X81406Y-84392D01*
X81410D01*
X81524Y-84421D01*
X81627Y-84445D01*
X81709Y-84470D01*
X81779Y-84495D01*
X81836Y-84511D01*
X81873Y-84527D01*
X81897Y-84535D01*
X81906Y-84540D01*
Y-85323D01*
X81832D01*
X81754Y-85273D01*
X81676Y-85228D01*
X81602Y-85187D01*
X81533Y-85155D01*
X81471Y-85130D01*
X81426Y-85110D01*
X81410Y-85101D01*
X81397Y-85097D01*
X81389Y-85093D01*
X81385D01*
X81295Y-85064D01*
X81213Y-85040D01*
X81135Y-85023D01*
X81065Y-85015D01*
X81008Y-85007D01*
X80963Y-85003D01*
X80926D01*
X80823Y-85007D01*
X80733Y-85023D01*
X80655Y-85044D01*
X80594Y-85069D01*
X80545Y-85097D01*
X80508Y-85118D01*
X80487Y-85134D01*
X80479Y-85138D01*
X80426Y-85192D01*
X80389Y-85253D01*
X80360Y-85315D01*
X80344Y-85372D01*
X80331Y-85429D01*
X80327Y-85470D01*
X80323Y-85487D01*
Y-85499D01*
Y-85507D01*
Y-85511D01*
X80327Y-85585D01*
X80344Y-85659D01*
X80360Y-85729D01*
X80385Y-85790D01*
X80405Y-85843D01*
X80426Y-85880D01*
X80434Y-85897D01*
X80442Y-85909D01*
X80446Y-85913D01*
Y-85917D01*
X80499Y-85995D01*
X80561Y-86077D01*
X80626Y-86159D01*
X80692Y-86237D01*
X80754Y-86303D01*
X80782Y-86331D01*
X80807Y-86356D01*
X80823Y-86372D01*
X80840Y-86389D01*
X80848Y-86397D01*
X80852Y-86401D01*
X80930Y-86475D01*
X81012Y-86549D01*
X81098Y-86626D01*
X81180Y-86696D01*
X81254Y-86758D01*
X81283Y-86782D01*
X81311Y-86803D01*
X81332Y-86823D01*
X81352Y-86836D01*
X81360Y-86844D01*
X81365Y-86848D01*
X81483Y-86942D01*
X81598Y-87032D01*
X81705Y-87114D01*
X81803Y-87188D01*
X81844Y-87221D01*
X81881Y-87250D01*
X81918Y-87274D01*
X81947Y-87295D01*
X81967Y-87311D01*
X81988Y-87323D01*
X81996Y-87332D01*
X82000Y-87336D01*
Y-87918D01*
X79228D01*
Y-87242D01*
X80815D01*
X80774Y-87213D01*
X80729Y-87176D01*
X80680Y-87139D01*
X80626Y-87102D01*
X80581Y-87065D01*
X80545Y-87037D01*
X80516Y-87020D01*
X80512Y-87012D01*
X80508D01*
X80426Y-86946D01*
X80348Y-86885D01*
X80274Y-86819D01*
X80208Y-86766D01*
X80151Y-86717D01*
X80110Y-86676D01*
X80093Y-86663D01*
X80081Y-86651D01*
X80077Y-86647D01*
X80073Y-86643D01*
X80011Y-86581D01*
X79950Y-86524D01*
X79897Y-86467D01*
X79848Y-86409D01*
X79761Y-86307D01*
X79688Y-86212D01*
X79659Y-86171D01*
X79630Y-86134D01*
X79610Y-86102D01*
X79593Y-86077D01*
X79577Y-86053D01*
X79569Y-86036D01*
X79561Y-86028D01*
Y-86024D01*
X79503Y-85909D01*
X79462Y-85798D01*
X79433Y-85688D01*
X79413Y-85593D01*
X79405Y-85548D01*
X79401Y-85507D01*
X79396Y-85474D01*
Y-85446D01*
X79392Y-85421D01*
Y-85405D01*
Y-85392D01*
Y-85388D01*
X79396Y-85294D01*
X79409Y-85208D01*
X79425Y-85126D01*
X79446Y-85048D01*
X79474Y-84978D01*
X79503Y-84913D01*
X79536Y-84855D01*
X79565Y-84802D01*
X79597Y-84753D01*
X79630Y-84712D01*
X79659Y-84679D01*
X79688Y-84650D01*
X79708Y-84626D01*
X79725Y-84609D01*
X79737Y-84601D01*
X79741Y-84597D01*
X79811Y-84548D01*
X79884Y-84507D01*
X79962Y-84466D01*
X80044Y-84437D01*
X80130Y-84408D01*
X80212Y-84388D01*
X80376Y-84351D01*
X80454Y-84343D01*
X80524Y-84335D01*
X80590Y-84326D01*
X80643Y-84322D01*
X80688Y-84318D01*
X80754D01*
X80877Y-84322D01*
D02*
G37*
G36*
X73972D02*
X74091Y-84330D01*
X74202Y-84343D01*
X74300Y-84355D01*
X74345Y-84363D01*
X74382Y-84367D01*
X74419Y-84376D01*
X74448Y-84380D01*
X74472Y-84384D01*
X74489Y-84388D01*
X74501Y-84392D01*
X74505D01*
X74620Y-84421D01*
X74722Y-84445D01*
X74805Y-84470D01*
X74874Y-84495D01*
X74932Y-84511D01*
X74968Y-84527D01*
X74993Y-84535D01*
X75001Y-84540D01*
Y-85323D01*
X74928D01*
X74850Y-85273D01*
X74772Y-85228D01*
X74698Y-85187D01*
X74628Y-85155D01*
X74567Y-85130D01*
X74522Y-85110D01*
X74505Y-85101D01*
X74493Y-85097D01*
X74485Y-85093D01*
X74481D01*
X74390Y-85064D01*
X74308Y-85040D01*
X74230Y-85023D01*
X74161Y-85015D01*
X74103Y-85007D01*
X74058Y-85003D01*
X74021D01*
X73919Y-85007D01*
X73829Y-85023D01*
X73751Y-85044D01*
X73689Y-85069D01*
X73640Y-85097D01*
X73603Y-85118D01*
X73583Y-85134D01*
X73575Y-85138D01*
X73521Y-85192D01*
X73484Y-85253D01*
X73456Y-85315D01*
X73439Y-85372D01*
X73427Y-85429D01*
X73423Y-85470D01*
X73419Y-85487D01*
Y-85499D01*
Y-85507D01*
Y-85511D01*
X73423Y-85585D01*
X73439Y-85659D01*
X73456Y-85729D01*
X73480Y-85790D01*
X73501Y-85843D01*
X73521Y-85880D01*
X73529Y-85897D01*
X73538Y-85909D01*
X73542Y-85913D01*
Y-85917D01*
X73595Y-85995D01*
X73656Y-86077D01*
X73722Y-86159D01*
X73788Y-86237D01*
X73849Y-86303D01*
X73878Y-86331D01*
X73902Y-86356D01*
X73919Y-86372D01*
X73935Y-86389D01*
X73944Y-86397D01*
X73948Y-86401D01*
X74025Y-86475D01*
X74107Y-86549D01*
X74194Y-86626D01*
X74276Y-86696D01*
X74349Y-86758D01*
X74378Y-86782D01*
X74407Y-86803D01*
X74427Y-86823D01*
X74448Y-86836D01*
X74456Y-86844D01*
X74460Y-86848D01*
X74579Y-86942D01*
X74694Y-87032D01*
X74800Y-87114D01*
X74899Y-87188D01*
X74940Y-87221D01*
X74977Y-87250D01*
X75014Y-87274D01*
X75042Y-87295D01*
X75063Y-87311D01*
X75083Y-87323D01*
X75091Y-87332D01*
X75096Y-87336D01*
Y-87918D01*
X72324D01*
Y-87242D01*
X73911D01*
X73870Y-87213D01*
X73825Y-87176D01*
X73775Y-87139D01*
X73722Y-87102D01*
X73677Y-87065D01*
X73640Y-87037D01*
X73611Y-87020D01*
X73607Y-87012D01*
X73603D01*
X73521Y-86946D01*
X73443Y-86885D01*
X73369Y-86819D01*
X73304Y-86766D01*
X73247Y-86717D01*
X73206Y-86676D01*
X73189Y-86663D01*
X73177Y-86651D01*
X73173Y-86647D01*
X73169Y-86643D01*
X73107Y-86581D01*
X73046Y-86524D01*
X72992Y-86467D01*
X72943Y-86409D01*
X72857Y-86307D01*
X72783Y-86212D01*
X72755Y-86171D01*
X72726Y-86134D01*
X72705Y-86102D01*
X72689Y-86077D01*
X72672Y-86053D01*
X72664Y-86036D01*
X72656Y-86028D01*
Y-86024D01*
X72599Y-85909D01*
X72558Y-85798D01*
X72529Y-85688D01*
X72509Y-85593D01*
X72500Y-85548D01*
X72496Y-85507D01*
X72492Y-85474D01*
Y-85446D01*
X72488Y-85421D01*
Y-85405D01*
Y-85392D01*
Y-85388D01*
X72492Y-85294D01*
X72504Y-85208D01*
X72521Y-85126D01*
X72541Y-85048D01*
X72570Y-84978D01*
X72599Y-84913D01*
X72632Y-84855D01*
X72660Y-84802D01*
X72693Y-84753D01*
X72726Y-84712D01*
X72755Y-84679D01*
X72783Y-84650D01*
X72804Y-84626D01*
X72820Y-84609D01*
X72832Y-84601D01*
X72837Y-84597D01*
X72906Y-84548D01*
X72980Y-84507D01*
X73058Y-84466D01*
X73140Y-84437D01*
X73226Y-84408D01*
X73308Y-84388D01*
X73472Y-84351D01*
X73550Y-84343D01*
X73620Y-84335D01*
X73685Y-84326D01*
X73738Y-84322D01*
X73784Y-84318D01*
X73849D01*
X73972Y-84322D01*
D02*
G37*
G36*
X68367Y-86692D02*
X66559D01*
Y-86007D01*
X68367D01*
Y-86692D01*
D02*
G37*
G36*
X57384Y-85183D02*
X57494Y-85192D01*
X57593Y-85204D01*
X57679Y-85220D01*
X57720Y-85228D01*
X57753Y-85237D01*
X57785Y-85241D01*
X57810Y-85249D01*
X57831Y-85253D01*
X57847Y-85257D01*
X57855Y-85261D01*
X57859D01*
X57962Y-85294D01*
X58056Y-85331D01*
X58142Y-85372D01*
X58212Y-85413D01*
X58273Y-85450D01*
X58298Y-85466D01*
X58318Y-85479D01*
X58335Y-85491D01*
X58347Y-85499D01*
X58351Y-85507D01*
X58355D01*
X58433Y-85577D01*
X58503Y-85651D01*
X58564Y-85725D01*
X58614Y-85798D01*
X58655Y-85860D01*
X58667Y-85884D01*
X58679Y-85909D01*
X58692Y-85930D01*
X58700Y-85942D01*
X58704Y-85950D01*
Y-85954D01*
X58745Y-86061D01*
X58773Y-86167D01*
X58798Y-86278D01*
X58810Y-86376D01*
X58815Y-86422D01*
X58819Y-86467D01*
X58823Y-86503D01*
Y-86536D01*
X58827Y-86561D01*
Y-86581D01*
Y-86594D01*
Y-86598D01*
X58823Y-86725D01*
X58810Y-86844D01*
X58790Y-86950D01*
X58782Y-86996D01*
X58769Y-87041D01*
X58757Y-87077D01*
X58749Y-87114D01*
X58737Y-87143D01*
X58728Y-87168D01*
X58724Y-87188D01*
X58716Y-87205D01*
X58712Y-87213D01*
Y-87217D01*
X58663Y-87311D01*
X58614Y-87397D01*
X58556Y-87471D01*
X58503Y-87533D01*
X58458Y-87582D01*
X58421Y-87619D01*
X58392Y-87643D01*
X58388Y-87647D01*
X58384Y-87651D01*
X58302Y-87713D01*
X58216Y-87762D01*
X58134Y-87807D01*
X58052Y-87844D01*
X57986Y-87869D01*
X57958Y-87881D01*
X57933Y-87889D01*
X57912Y-87897D01*
X57896Y-87902D01*
X57888Y-87906D01*
X57884D01*
X57773Y-87934D01*
X57662Y-87955D01*
X57556Y-87967D01*
X57457Y-87975D01*
X57412Y-87980D01*
X57375Y-87984D01*
X57339D01*
X57306Y-87988D01*
X57248D01*
X57150Y-87984D01*
X57060Y-87980D01*
X56978Y-87971D01*
X56908Y-87959D01*
X56846Y-87947D01*
X56822Y-87943D01*
X56801Y-87938D01*
X56785Y-87934D01*
X56773D01*
X56769Y-87930D01*
X56765D01*
X56682Y-87910D01*
X56605Y-87885D01*
X56531Y-87861D01*
X56469Y-87836D01*
X56416Y-87815D01*
X56375Y-87799D01*
X56359Y-87791D01*
X56346Y-87787D01*
X56342Y-87783D01*
X56338D01*
Y-87053D01*
X56461D01*
X56502Y-87094D01*
X56539Y-87127D01*
X56555Y-87139D01*
X56564Y-87151D01*
X56572Y-87155D01*
X56576Y-87160D01*
X56625Y-87196D01*
X56670Y-87225D01*
X56687Y-87242D01*
X56703Y-87250D01*
X56711Y-87254D01*
X56715Y-87258D01*
X56748Y-87274D01*
X56785Y-87291D01*
X56855Y-87319D01*
X56888Y-87328D01*
X56912Y-87336D01*
X56928Y-87344D01*
X56933D01*
X57031Y-87365D01*
X57080Y-87369D01*
X57125Y-87373D01*
X57162Y-87377D01*
X57220D01*
X57281Y-87373D01*
X57343Y-87369D01*
X57449Y-87344D01*
X57543Y-87315D01*
X57617Y-87278D01*
X57650Y-87258D01*
X57679Y-87242D01*
X57703Y-87225D01*
X57720Y-87209D01*
X57736Y-87196D01*
X57749Y-87188D01*
X57753Y-87184D01*
X57757Y-87180D01*
X57789Y-87139D01*
X57818Y-87098D01*
X57863Y-87004D01*
X57896Y-86909D01*
X57917Y-86815D01*
X57933Y-86729D01*
X57937Y-86692D01*
Y-86659D01*
X57941Y-86635D01*
Y-86614D01*
Y-86602D01*
Y-86598D01*
X57937Y-86528D01*
X57933Y-86467D01*
X57912Y-86348D01*
X57900Y-86294D01*
X57884Y-86245D01*
X57867Y-86204D01*
X57851Y-86163D01*
X57835Y-86126D01*
X57818Y-86098D01*
X57802Y-86069D01*
X57789Y-86048D01*
X57777Y-86028D01*
X57769Y-86016D01*
X57761Y-86011D01*
Y-86007D01*
X57724Y-85970D01*
X57687Y-85934D01*
X57642Y-85905D01*
X57601Y-85880D01*
X57515Y-85843D01*
X57429Y-85819D01*
X57355Y-85802D01*
X57322Y-85798D01*
X57293Y-85794D01*
X57269Y-85790D01*
X57179D01*
X57129Y-85794D01*
X57080Y-85802D01*
X57043Y-85807D01*
X57011Y-85815D01*
X56986Y-85823D01*
X56969Y-85827D01*
X56965D01*
X56883Y-85856D01*
X56846Y-85868D01*
X56814Y-85880D01*
X56789Y-85893D01*
X56769Y-85905D01*
X56756Y-85909D01*
X56752Y-85913D01*
X56682Y-85954D01*
X56654Y-85970D01*
X56629Y-85987D01*
X56609Y-86003D01*
X56592Y-86016D01*
X56584Y-86020D01*
X56580Y-86024D01*
X56531Y-86065D01*
X56494Y-86093D01*
X56469Y-86114D01*
X56465Y-86122D01*
X56338D01*
Y-85396D01*
X56416Y-85360D01*
X56490Y-85331D01*
X56564Y-85302D01*
X56629Y-85282D01*
X56687Y-85265D01*
X56728Y-85253D01*
X56744Y-85245D01*
X56756D01*
X56765Y-85241D01*
X56769D01*
X56855Y-85220D01*
X56945Y-85204D01*
X57027Y-85196D01*
X57105Y-85187D01*
X57174Y-85183D01*
X57203Y-85179D01*
X57273D01*
X57384Y-85183D01*
D02*
G37*
G36*
X60672Y-85175D02*
X60795Y-85187D01*
X60905Y-85208D01*
X61012Y-85233D01*
X61111Y-85261D01*
X61205Y-85294D01*
X61287Y-85327D01*
X61361Y-85364D01*
X61426Y-85401D01*
X61488Y-85433D01*
X61537Y-85466D01*
X61578Y-85495D01*
X61611Y-85519D01*
X61631Y-85540D01*
X61648Y-85552D01*
X61652Y-85556D01*
X61721Y-85630D01*
X61783Y-85712D01*
X61836Y-85794D01*
X61885Y-85880D01*
X61922Y-85970D01*
X61955Y-86057D01*
X61984Y-86143D01*
X62004Y-86225D01*
X62021Y-86303D01*
X62033Y-86372D01*
X62041Y-86438D01*
X62045Y-86491D01*
X62049Y-86536D01*
X62054Y-86573D01*
Y-86594D01*
Y-86602D01*
X62049Y-86725D01*
X62033Y-86840D01*
X62012Y-86946D01*
X61988Y-87045D01*
X61955Y-87135D01*
X61918Y-87221D01*
X61881Y-87299D01*
X61840Y-87369D01*
X61799Y-87430D01*
X61762Y-87483D01*
X61725Y-87529D01*
X61693Y-87565D01*
X61668Y-87594D01*
X61643Y-87615D01*
X61631Y-87627D01*
X61627Y-87631D01*
X61541Y-87692D01*
X61451Y-87750D01*
X61357Y-87795D01*
X61254Y-87836D01*
X61156Y-87873D01*
X61053Y-87902D01*
X60951Y-87922D01*
X60852Y-87943D01*
X60762Y-87959D01*
X60676Y-87967D01*
X60598Y-87975D01*
X60532Y-87984D01*
X60479D01*
X60438Y-87988D01*
X60401D01*
X60286Y-87984D01*
X60180Y-87980D01*
X60085Y-87971D01*
X59999Y-87959D01*
X59967Y-87955D01*
X59934Y-87951D01*
X59905Y-87947D01*
X59881Y-87943D01*
X59860Y-87938D01*
X59848D01*
X59839Y-87934D01*
X59835D01*
X59737Y-87914D01*
X59639Y-87889D01*
X59548Y-87861D01*
X59462Y-87832D01*
X59393Y-87807D01*
X59360Y-87799D01*
X59335Y-87791D01*
X59315Y-87783D01*
X59298Y-87774D01*
X59290Y-87770D01*
X59286D01*
Y-87082D01*
X59384D01*
X59442Y-87123D01*
X59507Y-87164D01*
X59573Y-87200D01*
X59639Y-87229D01*
X59696Y-87258D01*
X59741Y-87278D01*
X59758Y-87287D01*
X59770Y-87291D01*
X59778Y-87295D01*
X59782D01*
X59876Y-87328D01*
X59971Y-87352D01*
X60061Y-87369D01*
X60139Y-87381D01*
X60208Y-87389D01*
X60237D01*
X60262Y-87393D01*
X60385D01*
X60459Y-87385D01*
X60524Y-87377D01*
X60590Y-87369D01*
X60647Y-87356D01*
X60701Y-87340D01*
X60746Y-87328D01*
X60791Y-87311D01*
X60828Y-87295D01*
X60860Y-87283D01*
X60889Y-87266D01*
X60914Y-87254D01*
X60930Y-87246D01*
X60942Y-87237D01*
X60951Y-87229D01*
X60955D01*
X60992Y-87196D01*
X61028Y-87160D01*
X61057Y-87123D01*
X61082Y-87082D01*
X61123Y-87000D01*
X61151Y-86922D01*
X61172Y-86852D01*
X61176Y-86819D01*
X61184Y-86795D01*
Y-86770D01*
X61188Y-86754D01*
Y-86745D01*
Y-86741D01*
X59237D01*
Y-86446D01*
X59241Y-86335D01*
X59249Y-86229D01*
X59266Y-86130D01*
X59286Y-86040D01*
X59315Y-85954D01*
X59339Y-85876D01*
X59372Y-85807D01*
X59401Y-85745D01*
X59430Y-85688D01*
X59462Y-85638D01*
X59487Y-85597D01*
X59512Y-85565D01*
X59536Y-85536D01*
X59553Y-85519D01*
X59561Y-85507D01*
X59565Y-85503D01*
X59630Y-85446D01*
X59700Y-85392D01*
X59778Y-85347D01*
X59856Y-85310D01*
X59938Y-85278D01*
X60020Y-85253D01*
X60098Y-85228D01*
X60176Y-85212D01*
X60254Y-85200D01*
X60319Y-85187D01*
X60385Y-85179D01*
X60438Y-85175D01*
X60483D01*
X60516Y-85171D01*
X60545D01*
X60672Y-85175D01*
D02*
G37*
G36*
X65846Y-87918D02*
X64604D01*
X64452Y-87914D01*
X64313Y-87910D01*
X64247Y-87902D01*
X64186Y-87897D01*
X64132Y-87893D01*
X64079Y-87885D01*
X64034Y-87881D01*
X63993Y-87877D01*
X63960Y-87869D01*
X63927Y-87865D01*
X63907Y-87861D01*
X63886D01*
X63878Y-87857D01*
X63874D01*
X63759Y-87828D01*
X63652Y-87795D01*
X63558Y-87762D01*
X63472Y-87725D01*
X63435Y-87709D01*
X63402Y-87692D01*
X63374Y-87676D01*
X63349Y-87664D01*
X63329Y-87656D01*
X63316Y-87647D01*
X63308Y-87639D01*
X63304D01*
X63243Y-87598D01*
X63181Y-87553D01*
X63070Y-87459D01*
X62972Y-87356D01*
X62890Y-87262D01*
X62853Y-87217D01*
X62824Y-87176D01*
X62796Y-87139D01*
X62775Y-87106D01*
X62759Y-87077D01*
X62742Y-87057D01*
X62738Y-87045D01*
X62734Y-87041D01*
X62693Y-86967D01*
X62660Y-86889D01*
X62628Y-86815D01*
X62603Y-86737D01*
X62562Y-86590D01*
X62550Y-86520D01*
X62537Y-86450D01*
X62529Y-86389D01*
X62521Y-86331D01*
X62517Y-86282D01*
X62513Y-86237D01*
X62509Y-86204D01*
Y-86176D01*
Y-86159D01*
Y-86155D01*
X62513Y-86061D01*
X62517Y-85970D01*
X62529Y-85884D01*
X62541Y-85798D01*
X62558Y-85720D01*
X62574Y-85647D01*
X62595Y-85581D01*
X62615Y-85519D01*
X62636Y-85462D01*
X62656Y-85413D01*
X62673Y-85368D01*
X62689Y-85331D01*
X62701Y-85302D01*
X62714Y-85282D01*
X62718Y-85269D01*
X62722Y-85265D01*
X62808Y-85130D01*
X62898Y-85011D01*
X62947Y-84958D01*
X62997Y-84909D01*
X63042Y-84864D01*
X63087Y-84822D01*
X63128Y-84786D01*
X63169Y-84753D01*
X63206Y-84728D01*
X63234Y-84704D01*
X63259Y-84687D01*
X63279Y-84675D01*
X63292Y-84667D01*
X63296Y-84663D01*
X63378Y-84618D01*
X63468Y-84576D01*
X63558Y-84540D01*
X63640Y-84511D01*
X63714Y-84486D01*
X63747Y-84478D01*
X63771Y-84470D01*
X63796Y-84466D01*
X63812Y-84462D01*
X63821Y-84458D01*
X63825D01*
X63948Y-84433D01*
X64071Y-84417D01*
X64198Y-84400D01*
X64313Y-84392D01*
X64366Y-84388D01*
X64456D01*
X64493Y-84384D01*
X65846D01*
Y-87918D01*
D02*
G37*
G36*
X77400Y-84314D02*
X77531Y-84326D01*
X77646Y-84347D01*
X77695Y-84359D01*
X77744Y-84367D01*
X77785Y-84380D01*
X77822Y-84392D01*
X77855Y-84400D01*
X77884Y-84408D01*
X77904Y-84417D01*
X77921Y-84425D01*
X77929Y-84429D01*
X77933D01*
X78031Y-84478D01*
X78121Y-84531D01*
X78199Y-84589D01*
X78261Y-84646D01*
X78314Y-84695D01*
X78351Y-84741D01*
X78367Y-84757D01*
X78376Y-84765D01*
X78380Y-84773D01*
X78384Y-84777D01*
X78445Y-84868D01*
X78499Y-84966D01*
X78544Y-85060D01*
X78581Y-85150D01*
X78605Y-85233D01*
X78618Y-85265D01*
X78626Y-85294D01*
X78634Y-85319D01*
X78638Y-85335D01*
X78642Y-85347D01*
Y-85351D01*
X78667Y-85483D01*
X78687Y-85618D01*
X78699Y-85753D01*
X78712Y-85880D01*
Y-85934D01*
X78716Y-85987D01*
Y-86032D01*
X78720Y-86073D01*
Y-86106D01*
Y-86130D01*
Y-86147D01*
Y-86151D01*
X78716Y-86315D01*
X78708Y-86462D01*
X78704Y-86532D01*
X78695Y-86598D01*
X78687Y-86659D01*
X78679Y-86717D01*
X78675Y-86766D01*
X78667Y-86811D01*
X78658Y-86852D01*
X78654Y-86885D01*
X78650Y-86909D01*
X78646Y-86930D01*
X78642Y-86942D01*
Y-86946D01*
X78609Y-87069D01*
X78568Y-87180D01*
X78527Y-87278D01*
X78486Y-87365D01*
X78470Y-87401D01*
X78449Y-87434D01*
X78433Y-87459D01*
X78421Y-87483D01*
X78408Y-87500D01*
X78400Y-87512D01*
X78392Y-87520D01*
Y-87524D01*
X78322Y-87606D01*
X78244Y-87676D01*
X78171Y-87738D01*
X78097Y-87787D01*
X78035Y-87828D01*
X78007Y-87844D01*
X77982Y-87857D01*
X77966Y-87865D01*
X77949Y-87873D01*
X77941Y-87877D01*
X77937D01*
X77826Y-87914D01*
X77711Y-87943D01*
X77601Y-87963D01*
X77494Y-87975D01*
X77445Y-87984D01*
X77400D01*
X77363Y-87988D01*
X77326Y-87992D01*
X77260D01*
X77117Y-87988D01*
X76986Y-87975D01*
X76924Y-87963D01*
X76871Y-87955D01*
X76818Y-87947D01*
X76772Y-87934D01*
X76727Y-87922D01*
X76691Y-87914D01*
X76658Y-87902D01*
X76633Y-87893D01*
X76613Y-87889D01*
X76596Y-87881D01*
X76588Y-87877D01*
X76584D01*
X76486Y-87828D01*
X76399Y-87770D01*
X76322Y-87713D01*
X76256Y-87660D01*
X76203Y-87606D01*
X76166Y-87565D01*
X76149Y-87549D01*
X76141Y-87537D01*
X76133Y-87533D01*
Y-87529D01*
X76076Y-87438D01*
X76022Y-87344D01*
X75981Y-87246D01*
X75944Y-87155D01*
X75916Y-87073D01*
X75907Y-87041D01*
X75899Y-87008D01*
X75891Y-86983D01*
X75887Y-86967D01*
X75883Y-86954D01*
Y-86950D01*
X75854Y-86815D01*
X75834Y-86676D01*
X75821Y-86540D01*
X75817Y-86479D01*
X75809Y-86417D01*
Y-86364D01*
X75805Y-86311D01*
Y-86266D01*
X75801Y-86225D01*
Y-86196D01*
Y-86171D01*
Y-86155D01*
Y-86151D01*
X75805Y-85987D01*
X75813Y-85839D01*
X75821Y-85770D01*
X75825Y-85704D01*
X75834Y-85647D01*
X75842Y-85589D01*
X75850Y-85540D01*
X75858Y-85495D01*
X75862Y-85458D01*
X75871Y-85425D01*
X75875Y-85396D01*
X75879Y-85380D01*
X75883Y-85368D01*
Y-85364D01*
X75916Y-85241D01*
X75957Y-85130D01*
X75998Y-85032D01*
X76039Y-84950D01*
X76055Y-84913D01*
X76076Y-84880D01*
X76092Y-84855D01*
X76104Y-84831D01*
X76117Y-84814D01*
X76125Y-84802D01*
X76129Y-84794D01*
X76133Y-84790D01*
X76203Y-84708D01*
X76276Y-84634D01*
X76354Y-84572D01*
X76424Y-84523D01*
X76490Y-84482D01*
X76514Y-84466D01*
X76539Y-84453D01*
X76559Y-84445D01*
X76572Y-84437D01*
X76580Y-84433D01*
X76584D01*
X76691Y-84392D01*
X76805Y-84363D01*
X76920Y-84339D01*
X77027Y-84326D01*
X77072Y-84318D01*
X77117D01*
X77158Y-84314D01*
X77195Y-84310D01*
X77260D01*
X77400Y-84314D01*
D02*
G37*
G36*
X70495D02*
X70627Y-84326D01*
X70741Y-84347D01*
X70791Y-84359D01*
X70840Y-84367D01*
X70881Y-84380D01*
X70918Y-84392D01*
X70951Y-84400D01*
X70979Y-84408D01*
X71000Y-84417D01*
X71016Y-84425D01*
X71024Y-84429D01*
X71028D01*
X71127Y-84478D01*
X71217Y-84531D01*
X71295Y-84589D01*
X71356Y-84646D01*
X71410Y-84695D01*
X71447Y-84741D01*
X71463Y-84757D01*
X71471Y-84765D01*
X71475Y-84773D01*
X71479Y-84777D01*
X71541Y-84868D01*
X71594Y-84966D01*
X71639Y-85060D01*
X71676Y-85150D01*
X71701Y-85233D01*
X71713Y-85265D01*
X71721Y-85294D01*
X71729Y-85319D01*
X71734Y-85335D01*
X71738Y-85347D01*
Y-85351D01*
X71762Y-85483D01*
X71783Y-85618D01*
X71795Y-85753D01*
X71807Y-85880D01*
Y-85934D01*
X71811Y-85987D01*
Y-86032D01*
X71816Y-86073D01*
Y-86106D01*
Y-86130D01*
Y-86147D01*
Y-86151D01*
X71811Y-86315D01*
X71803Y-86462D01*
X71799Y-86532D01*
X71791Y-86598D01*
X71783Y-86659D01*
X71775Y-86717D01*
X71771Y-86766D01*
X71762Y-86811D01*
X71754Y-86852D01*
X71750Y-86885D01*
X71746Y-86909D01*
X71742Y-86930D01*
X71738Y-86942D01*
Y-86946D01*
X71705Y-87069D01*
X71664Y-87180D01*
X71623Y-87278D01*
X71582Y-87365D01*
X71566Y-87401D01*
X71545Y-87434D01*
X71529Y-87459D01*
X71516Y-87483D01*
X71504Y-87500D01*
X71496Y-87512D01*
X71488Y-87520D01*
Y-87524D01*
X71418Y-87606D01*
X71340Y-87676D01*
X71266Y-87738D01*
X71192Y-87787D01*
X71131Y-87828D01*
X71102Y-87844D01*
X71078Y-87857D01*
X71061Y-87865D01*
X71045Y-87873D01*
X71037Y-87877D01*
X71033D01*
X70922Y-87914D01*
X70807Y-87943D01*
X70696Y-87963D01*
X70590Y-87975D01*
X70540Y-87984D01*
X70495D01*
X70459Y-87988D01*
X70422Y-87992D01*
X70356D01*
X70213Y-87988D01*
X70081Y-87975D01*
X70020Y-87963D01*
X69967Y-87955D01*
X69913Y-87947D01*
X69868Y-87934D01*
X69823Y-87922D01*
X69786Y-87914D01*
X69753Y-87902D01*
X69729Y-87893D01*
X69708Y-87889D01*
X69692Y-87881D01*
X69684Y-87877D01*
X69679D01*
X69581Y-87828D01*
X69495Y-87770D01*
X69417Y-87713D01*
X69352Y-87660D01*
X69298Y-87606D01*
X69261Y-87565D01*
X69245Y-87549D01*
X69237Y-87537D01*
X69229Y-87533D01*
Y-87529D01*
X69171Y-87438D01*
X69118Y-87344D01*
X69077Y-87246D01*
X69040Y-87155D01*
X69011Y-87073D01*
X69003Y-87041D01*
X68995Y-87008D01*
X68987Y-86983D01*
X68982Y-86967D01*
X68978Y-86954D01*
Y-86950D01*
X68950Y-86815D01*
X68929Y-86676D01*
X68917Y-86540D01*
X68913Y-86479D01*
X68905Y-86417D01*
Y-86364D01*
X68901Y-86311D01*
Y-86266D01*
X68896Y-86225D01*
Y-86196D01*
Y-86171D01*
Y-86155D01*
Y-86151D01*
X68901Y-85987D01*
X68909Y-85839D01*
X68917Y-85770D01*
X68921Y-85704D01*
X68929Y-85647D01*
X68937Y-85589D01*
X68946Y-85540D01*
X68954Y-85495D01*
X68958Y-85458D01*
X68966Y-85425D01*
X68970Y-85396D01*
X68974Y-85380D01*
X68978Y-85368D01*
Y-85364D01*
X69011Y-85241D01*
X69052Y-85130D01*
X69093Y-85032D01*
X69134Y-84950D01*
X69151Y-84913D01*
X69171Y-84880D01*
X69187Y-84855D01*
X69200Y-84831D01*
X69212Y-84814D01*
X69220Y-84802D01*
X69224Y-84794D01*
X69229Y-84790D01*
X69298Y-84708D01*
X69372Y-84634D01*
X69450Y-84572D01*
X69520Y-84523D01*
X69585Y-84482D01*
X69610Y-84466D01*
X69634Y-84453D01*
X69655Y-84445D01*
X69667Y-84437D01*
X69675Y-84433D01*
X69679D01*
X69786Y-84392D01*
X69901Y-84363D01*
X70016Y-84339D01*
X70122Y-84326D01*
X70167Y-84318D01*
X70213D01*
X70253Y-84314D01*
X70290Y-84310D01*
X70356D01*
X70495Y-84314D01*
D02*
G37*
G36*
X46441Y-91376D02*
X45535D01*
Y-90728D01*
X46441D01*
Y-91376D01*
D02*
G37*
G36*
X32316Y-91683D02*
X32398Y-91696D01*
X32476Y-91712D01*
X32542Y-91728D01*
X32595Y-91745D01*
X32636Y-91761D01*
X32652Y-91769D01*
X32665Y-91773D01*
X32669Y-91778D01*
X32673D01*
X32747Y-91819D01*
X32825Y-91860D01*
X32894Y-91905D01*
X32956Y-91950D01*
X33013Y-91987D01*
X33054Y-92019D01*
X33071Y-92032D01*
X33083Y-92040D01*
X33087Y-92044D01*
X33091Y-92048D01*
Y-91753D01*
X33948D01*
Y-94418D01*
X33091D01*
Y-92528D01*
X33017Y-92487D01*
X32985Y-92471D01*
X32952Y-92454D01*
X32923Y-92442D01*
X32903Y-92430D01*
X32886Y-92425D01*
X32882Y-92421D01*
X32837Y-92405D01*
X32792Y-92388D01*
X32751Y-92380D01*
X32714Y-92376D01*
X32681Y-92372D01*
X32656Y-92368D01*
X32583D01*
X32533Y-92376D01*
X32493Y-92380D01*
X32456Y-92388D01*
X32431Y-92397D01*
X32410Y-92401D01*
X32398Y-92409D01*
X32394D01*
X32337Y-92446D01*
X32296Y-92487D01*
X32283Y-92503D01*
X32271Y-92520D01*
X32263Y-92528D01*
Y-92532D01*
X32251Y-92565D01*
X32238Y-92602D01*
X32222Y-92676D01*
X32218Y-92708D01*
X32214Y-92733D01*
Y-92749D01*
Y-92757D01*
X32210Y-92811D01*
X32206Y-92864D01*
Y-92922D01*
X32201Y-92971D01*
Y-93016D01*
Y-93053D01*
Y-93077D01*
Y-93081D01*
Y-93085D01*
Y-94418D01*
X31345D01*
Y-92528D01*
X31291Y-92499D01*
X31246Y-92471D01*
X31205Y-92450D01*
X31168Y-92434D01*
X31139Y-92421D01*
X31115Y-92413D01*
X31103Y-92405D01*
X31098D01*
X31021Y-92384D01*
X30988Y-92376D01*
X30955Y-92372D01*
X30930Y-92368D01*
X30832D01*
X30783Y-92376D01*
X30742Y-92380D01*
X30705Y-92388D01*
X30680Y-92397D01*
X30660Y-92401D01*
X30648Y-92409D01*
X30643D01*
X30615Y-92425D01*
X30586Y-92446D01*
X30566Y-92466D01*
X30549Y-92487D01*
X30533Y-92503D01*
X30525Y-92520D01*
X30516Y-92528D01*
Y-92532D01*
X30504Y-92565D01*
X30492Y-92602D01*
X30475Y-92676D01*
X30471Y-92704D01*
X30467Y-92729D01*
Y-92749D01*
Y-92753D01*
X30463Y-92807D01*
X30459Y-92864D01*
Y-92917D01*
X30455Y-92971D01*
Y-93016D01*
Y-93053D01*
Y-93077D01*
Y-93081D01*
Y-93085D01*
Y-94418D01*
X29598D01*
Y-92684D01*
X29602Y-92593D01*
X29606Y-92511D01*
X29618Y-92434D01*
X29635Y-92364D01*
X29651Y-92298D01*
X29668Y-92237D01*
X29688Y-92179D01*
X29709Y-92130D01*
X29733Y-92085D01*
X29754Y-92048D01*
X29770Y-92015D01*
X29787Y-91991D01*
X29803Y-91970D01*
X29815Y-91954D01*
X29819Y-91946D01*
X29823Y-91942D01*
X29869Y-91896D01*
X29918Y-91856D01*
X29967Y-91819D01*
X30020Y-91790D01*
X30073Y-91765D01*
X30131Y-91745D01*
X30237Y-91712D01*
X30287Y-91700D01*
X30332Y-91691D01*
X30373Y-91687D01*
X30410Y-91683D01*
X30438Y-91679D01*
X30479D01*
X30566Y-91683D01*
X30652Y-91700D01*
X30729Y-91720D01*
X30799Y-91741D01*
X30861Y-91765D01*
X30889Y-91778D01*
X30910Y-91786D01*
X30926Y-91794D01*
X30939Y-91802D01*
X30947Y-91806D01*
X30951D01*
X31041Y-91856D01*
X31131Y-91909D01*
X31213Y-91966D01*
X31291Y-92019D01*
X31353Y-92069D01*
X31381Y-92089D01*
X31402Y-92106D01*
X31422Y-92122D01*
X31435Y-92134D01*
X31443Y-92138D01*
X31447Y-92142D01*
X31492Y-92065D01*
X31545Y-91995D01*
X31599Y-91933D01*
X31648Y-91884D01*
X31693Y-91847D01*
X31730Y-91819D01*
X31754Y-91802D01*
X31759Y-91798D01*
X31763D01*
X31841Y-91757D01*
X31918Y-91728D01*
X31996Y-91708D01*
X32070Y-91696D01*
X32132Y-91683D01*
X32160D01*
X32181Y-91679D01*
X32226D01*
X32316Y-91683D01*
D02*
G37*
G36*
X77539Y-91687D02*
X77646Y-91696D01*
X77736Y-91704D01*
X77777Y-91708D01*
X77814Y-91712D01*
X77847Y-91716D01*
X77875Y-91720D01*
X77900Y-91724D01*
X77916D01*
X77925Y-91728D01*
X77929D01*
X78035Y-91745D01*
X78126Y-91761D01*
X78199Y-91778D01*
X78261Y-91790D01*
X78306Y-91798D01*
X78339Y-91806D01*
X78355Y-91815D01*
X78363D01*
Y-92454D01*
X78285D01*
X78240Y-92438D01*
X78187Y-92421D01*
X78134Y-92401D01*
X78076Y-92384D01*
X78027Y-92368D01*
X77982Y-92356D01*
X77966Y-92352D01*
X77957Y-92348D01*
X77949Y-92343D01*
X77945D01*
X77859Y-92319D01*
X77773Y-92298D01*
X77699Y-92286D01*
X77629Y-92274D01*
X77572Y-92270D01*
X77531Y-92265D01*
X77494D01*
X77371Y-92270D01*
X77264Y-92278D01*
X77174Y-92294D01*
X77100Y-92307D01*
X77068Y-92315D01*
X77039Y-92323D01*
X77018Y-92331D01*
X76998Y-92339D01*
X76986Y-92343D01*
X76973Y-92348D01*
X76965Y-92352D01*
X76932Y-92368D01*
X76904Y-92388D01*
X76863Y-92434D01*
X76830Y-92483D01*
X76805Y-92532D01*
X76793Y-92581D01*
X76789Y-92618D01*
X76785Y-92634D01*
Y-92647D01*
Y-92651D01*
Y-92655D01*
Y-92667D01*
X76924Y-92676D01*
X77060Y-92688D01*
X77183Y-92700D01*
X77240Y-92704D01*
X77289Y-92712D01*
X77338Y-92716D01*
X77383Y-92721D01*
X77420Y-92725D01*
X77453Y-92729D01*
X77478Y-92733D01*
X77498D01*
X77510Y-92737D01*
X77515D01*
X77642Y-92757D01*
X77752Y-92778D01*
X77855Y-92807D01*
X77937Y-92831D01*
X77974Y-92839D01*
X78007Y-92852D01*
X78035Y-92864D01*
X78060Y-92872D01*
X78076Y-92876D01*
X78089Y-92885D01*
X78097Y-92889D01*
X78101D01*
X78183Y-92930D01*
X78257Y-92979D01*
X78322Y-93028D01*
X78376Y-93073D01*
X78417Y-93114D01*
X78445Y-93151D01*
X78462Y-93172D01*
X78470Y-93176D01*
Y-93180D01*
X78511Y-93254D01*
X78544Y-93331D01*
X78564Y-93409D01*
X78581Y-93487D01*
X78589Y-93553D01*
X78593Y-93582D01*
Y-93606D01*
X78597Y-93627D01*
Y-93643D01*
Y-93651D01*
Y-93655D01*
X78593Y-93721D01*
X78585Y-93787D01*
X78572Y-93844D01*
X78556Y-93901D01*
X78515Y-94004D01*
X78495Y-94049D01*
X78470Y-94090D01*
X78445Y-94127D01*
X78425Y-94160D01*
X78400Y-94188D01*
X78384Y-94213D01*
X78367Y-94229D01*
X78355Y-94242D01*
X78347Y-94250D01*
X78343Y-94254D01*
X78294Y-94295D01*
X78244Y-94332D01*
X78191Y-94361D01*
X78138Y-94389D01*
X78084Y-94410D01*
X78031Y-94430D01*
X77929Y-94459D01*
X77884Y-94467D01*
X77843Y-94475D01*
X77802Y-94480D01*
X77769Y-94484D01*
X77744Y-94488D01*
X77650D01*
X77592Y-94484D01*
X77543Y-94480D01*
X77498Y-94471D01*
X77461Y-94467D01*
X77437Y-94463D01*
X77416Y-94459D01*
X77412D01*
X77314Y-94434D01*
X77273Y-94422D01*
X77232Y-94410D01*
X77199Y-94397D01*
X77174Y-94389D01*
X77158Y-94381D01*
X77154D01*
X77084Y-94344D01*
X77051Y-94324D01*
X77023Y-94303D01*
X76998Y-94287D01*
X76977Y-94274D01*
X76965Y-94266D01*
X76961Y-94262D01*
X76891Y-94213D01*
X76863Y-94192D01*
X76838Y-94172D01*
X76818Y-94160D01*
X76801Y-94147D01*
X76793Y-94143D01*
X76789Y-94139D01*
Y-94418D01*
X75940D01*
Y-92610D01*
X75944Y-92524D01*
X75953Y-92442D01*
X75969Y-92368D01*
X75989Y-92298D01*
X76014Y-92233D01*
X76043Y-92175D01*
X76071Y-92122D01*
X76100Y-92077D01*
X76133Y-92036D01*
X76162Y-92003D01*
X76190Y-91970D01*
X76215Y-91946D01*
X76235Y-91929D01*
X76252Y-91917D01*
X76260Y-91909D01*
X76264Y-91905D01*
X76330Y-91864D01*
X76403Y-91831D01*
X76481Y-91798D01*
X76563Y-91773D01*
X76740Y-91733D01*
X76912Y-91708D01*
X76994Y-91700D01*
X77068Y-91691D01*
X77137Y-91687D01*
X77199Y-91683D01*
X77248Y-91679D01*
X77433D01*
X77539Y-91687D01*
D02*
G37*
G36*
X71410D02*
X71516Y-91696D01*
X71606Y-91704D01*
X71648Y-91708D01*
X71684Y-91712D01*
X71717Y-91716D01*
X71746Y-91720D01*
X71771Y-91724D01*
X71787D01*
X71795Y-91728D01*
X71799D01*
X71906Y-91745D01*
X71996Y-91761D01*
X72070Y-91778D01*
X72131Y-91790D01*
X72176Y-91798D01*
X72209Y-91806D01*
X72226Y-91815D01*
X72234D01*
Y-92454D01*
X72156D01*
X72111Y-92438D01*
X72057Y-92421D01*
X72004Y-92401D01*
X71947Y-92384D01*
X71898Y-92368D01*
X71852Y-92356D01*
X71836Y-92352D01*
X71828Y-92348D01*
X71820Y-92343D01*
X71816D01*
X71729Y-92319D01*
X71643Y-92298D01*
X71570Y-92286D01*
X71500Y-92274D01*
X71443Y-92270D01*
X71402Y-92265D01*
X71365D01*
X71242Y-92270D01*
X71135Y-92278D01*
X71045Y-92294D01*
X70971Y-92307D01*
X70938Y-92315D01*
X70910Y-92323D01*
X70889Y-92331D01*
X70868Y-92339D01*
X70856Y-92343D01*
X70844Y-92348D01*
X70836Y-92352D01*
X70803Y-92368D01*
X70774Y-92388D01*
X70733Y-92434D01*
X70700Y-92483D01*
X70676Y-92532D01*
X70663Y-92581D01*
X70659Y-92618D01*
X70655Y-92634D01*
Y-92647D01*
Y-92651D01*
Y-92655D01*
Y-92667D01*
X70795Y-92676D01*
X70930Y-92688D01*
X71053Y-92700D01*
X71110Y-92704D01*
X71160Y-92712D01*
X71209Y-92716D01*
X71254Y-92721D01*
X71291Y-92725D01*
X71324Y-92729D01*
X71348Y-92733D01*
X71369D01*
X71381Y-92737D01*
X71385D01*
X71512Y-92757D01*
X71623Y-92778D01*
X71725Y-92807D01*
X71807Y-92831D01*
X71844Y-92839D01*
X71877Y-92852D01*
X71906Y-92864D01*
X71930Y-92872D01*
X71947Y-92876D01*
X71959Y-92885D01*
X71967Y-92889D01*
X71971D01*
X72053Y-92930D01*
X72127Y-92979D01*
X72193Y-93028D01*
X72246Y-93073D01*
X72287Y-93114D01*
X72316Y-93151D01*
X72332Y-93172D01*
X72340Y-93176D01*
Y-93180D01*
X72381Y-93254D01*
X72414Y-93331D01*
X72435Y-93409D01*
X72451Y-93487D01*
X72459Y-93553D01*
X72463Y-93582D01*
Y-93606D01*
X72467Y-93627D01*
Y-93643D01*
Y-93651D01*
Y-93655D01*
X72463Y-93721D01*
X72455Y-93787D01*
X72443Y-93844D01*
X72426Y-93901D01*
X72386Y-94004D01*
X72365Y-94049D01*
X72340Y-94090D01*
X72316Y-94127D01*
X72295Y-94160D01*
X72271Y-94188D01*
X72254Y-94213D01*
X72238Y-94229D01*
X72226Y-94242D01*
X72217Y-94250D01*
X72213Y-94254D01*
X72164Y-94295D01*
X72115Y-94332D01*
X72062Y-94361D01*
X72008Y-94389D01*
X71955Y-94410D01*
X71902Y-94430D01*
X71799Y-94459D01*
X71754Y-94467D01*
X71713Y-94475D01*
X71672Y-94480D01*
X71639Y-94484D01*
X71615Y-94488D01*
X71520D01*
X71463Y-94484D01*
X71414Y-94480D01*
X71369Y-94471D01*
X71332Y-94467D01*
X71307Y-94463D01*
X71287Y-94459D01*
X71283D01*
X71184Y-94434D01*
X71143Y-94422D01*
X71102Y-94410D01*
X71069Y-94397D01*
X71045Y-94389D01*
X71028Y-94381D01*
X71024D01*
X70955Y-94344D01*
X70922Y-94324D01*
X70893Y-94303D01*
X70868Y-94287D01*
X70848Y-94274D01*
X70836Y-94266D01*
X70832Y-94262D01*
X70762Y-94213D01*
X70733Y-94192D01*
X70709Y-94172D01*
X70688Y-94160D01*
X70672Y-94147D01*
X70663Y-94143D01*
X70659Y-94139D01*
Y-94418D01*
X69811D01*
Y-92610D01*
X69815Y-92524D01*
X69823Y-92442D01*
X69839Y-92368D01*
X69860Y-92298D01*
X69885Y-92233D01*
X69913Y-92175D01*
X69942Y-92122D01*
X69971Y-92077D01*
X70003Y-92036D01*
X70032Y-92003D01*
X70061Y-91970D01*
X70085Y-91946D01*
X70106Y-91929D01*
X70122Y-91917D01*
X70130Y-91909D01*
X70135Y-91905D01*
X70200Y-91864D01*
X70274Y-91831D01*
X70352Y-91798D01*
X70434Y-91773D01*
X70610Y-91733D01*
X70782Y-91708D01*
X70864Y-91700D01*
X70938Y-91691D01*
X71008Y-91687D01*
X71069Y-91683D01*
X71119Y-91679D01*
X71303D01*
X71410Y-91687D01*
D02*
G37*
G36*
X64415D02*
X64522Y-91696D01*
X64612Y-91704D01*
X64653Y-91708D01*
X64690Y-91712D01*
X64723Y-91716D01*
X64751Y-91720D01*
X64776Y-91724D01*
X64792D01*
X64801Y-91728D01*
X64805D01*
X64911Y-91745D01*
X65001Y-91761D01*
X65075Y-91778D01*
X65137Y-91790D01*
X65182Y-91798D01*
X65215Y-91806D01*
X65231Y-91815D01*
X65239D01*
Y-92454D01*
X65161D01*
X65116Y-92438D01*
X65063Y-92421D01*
X65010Y-92401D01*
X64952Y-92384D01*
X64903Y-92368D01*
X64858Y-92356D01*
X64842Y-92352D01*
X64833Y-92348D01*
X64825Y-92343D01*
X64821D01*
X64735Y-92319D01*
X64649Y-92298D01*
X64575Y-92286D01*
X64505Y-92274D01*
X64448Y-92270D01*
X64407Y-92265D01*
X64370D01*
X64247Y-92270D01*
X64140Y-92278D01*
X64050Y-92294D01*
X63976Y-92307D01*
X63944Y-92315D01*
X63915Y-92323D01*
X63894Y-92331D01*
X63874Y-92339D01*
X63862Y-92343D01*
X63849Y-92348D01*
X63841Y-92352D01*
X63808Y-92368D01*
X63780Y-92388D01*
X63739Y-92434D01*
X63706Y-92483D01*
X63681Y-92532D01*
X63669Y-92581D01*
X63665Y-92618D01*
X63661Y-92634D01*
Y-92647D01*
Y-92651D01*
Y-92655D01*
Y-92667D01*
X63800Y-92676D01*
X63935Y-92688D01*
X64058Y-92700D01*
X64116Y-92704D01*
X64165Y-92712D01*
X64214Y-92716D01*
X64259Y-92721D01*
X64296Y-92725D01*
X64329Y-92729D01*
X64354Y-92733D01*
X64374D01*
X64386Y-92737D01*
X64390D01*
X64518Y-92757D01*
X64628Y-92778D01*
X64731Y-92807D01*
X64813Y-92831D01*
X64850Y-92839D01*
X64882Y-92852D01*
X64911Y-92864D01*
X64936Y-92872D01*
X64952Y-92876D01*
X64964Y-92885D01*
X64973Y-92889D01*
X64977D01*
X65059Y-92930D01*
X65133Y-92979D01*
X65198Y-93028D01*
X65251Y-93073D01*
X65293Y-93114D01*
X65321Y-93151D01*
X65338Y-93172D01*
X65346Y-93176D01*
Y-93180D01*
X65387Y-93254D01*
X65420Y-93331D01*
X65440Y-93409D01*
X65456Y-93487D01*
X65465Y-93553D01*
X65469Y-93582D01*
Y-93606D01*
X65473Y-93627D01*
Y-93643D01*
Y-93651D01*
Y-93655D01*
X65469Y-93721D01*
X65461Y-93787D01*
X65448Y-93844D01*
X65432Y-93901D01*
X65391Y-94004D01*
X65370Y-94049D01*
X65346Y-94090D01*
X65321Y-94127D01*
X65301Y-94160D01*
X65276Y-94188D01*
X65260Y-94213D01*
X65243Y-94229D01*
X65231Y-94242D01*
X65223Y-94250D01*
X65219Y-94254D01*
X65170Y-94295D01*
X65120Y-94332D01*
X65067Y-94361D01*
X65014Y-94389D01*
X64960Y-94410D01*
X64907Y-94430D01*
X64805Y-94459D01*
X64759Y-94467D01*
X64719Y-94475D01*
X64678Y-94480D01*
X64645Y-94484D01*
X64620Y-94488D01*
X64526D01*
X64468Y-94484D01*
X64419Y-94480D01*
X64374Y-94471D01*
X64337Y-94467D01*
X64313Y-94463D01*
X64292Y-94459D01*
X64288D01*
X64190Y-94434D01*
X64149Y-94422D01*
X64108Y-94410D01*
X64075Y-94397D01*
X64050Y-94389D01*
X64034Y-94381D01*
X64030D01*
X63960Y-94344D01*
X63927Y-94324D01*
X63898Y-94303D01*
X63874Y-94287D01*
X63853Y-94274D01*
X63841Y-94266D01*
X63837Y-94262D01*
X63767Y-94213D01*
X63739Y-94192D01*
X63714Y-94172D01*
X63693Y-94160D01*
X63677Y-94147D01*
X63669Y-94143D01*
X63665Y-94139D01*
Y-94418D01*
X62816D01*
Y-92610D01*
X62820Y-92524D01*
X62828Y-92442D01*
X62845Y-92368D01*
X62865Y-92298D01*
X62890Y-92233D01*
X62919Y-92175D01*
X62947Y-92122D01*
X62976Y-92077D01*
X63009Y-92036D01*
X63038Y-92003D01*
X63066Y-91970D01*
X63091Y-91946D01*
X63111Y-91929D01*
X63128Y-91917D01*
X63136Y-91909D01*
X63140Y-91905D01*
X63206Y-91864D01*
X63279Y-91831D01*
X63357Y-91798D01*
X63439Y-91773D01*
X63616Y-91733D01*
X63788Y-91708D01*
X63870Y-91700D01*
X63944Y-91691D01*
X64013Y-91687D01*
X64075Y-91683D01*
X64124Y-91679D01*
X64309D01*
X64415Y-91687D01*
D02*
G37*
G36*
X58753D02*
X58860Y-91696D01*
X58950Y-91704D01*
X58991Y-91708D01*
X59028Y-91712D01*
X59061Y-91716D01*
X59089Y-91720D01*
X59114Y-91724D01*
X59130D01*
X59138Y-91728D01*
X59143D01*
X59249Y-91745D01*
X59339Y-91761D01*
X59413Y-91778D01*
X59475Y-91790D01*
X59520Y-91798D01*
X59553Y-91806D01*
X59569Y-91815D01*
X59577D01*
Y-92454D01*
X59499D01*
X59454Y-92438D01*
X59401Y-92421D01*
X59347Y-92401D01*
X59290Y-92384D01*
X59241Y-92368D01*
X59196Y-92356D01*
X59179Y-92352D01*
X59171Y-92348D01*
X59163Y-92343D01*
X59159D01*
X59073Y-92319D01*
X58987Y-92298D01*
X58913Y-92286D01*
X58843Y-92274D01*
X58786Y-92270D01*
X58745Y-92265D01*
X58708D01*
X58585Y-92270D01*
X58478Y-92278D01*
X58388Y-92294D01*
X58314Y-92307D01*
X58281Y-92315D01*
X58253Y-92323D01*
X58232Y-92331D01*
X58212Y-92339D01*
X58200Y-92343D01*
X58187Y-92348D01*
X58179Y-92352D01*
X58146Y-92368D01*
X58118Y-92388D01*
X58077Y-92434D01*
X58044Y-92483D01*
X58019Y-92532D01*
X58007Y-92581D01*
X58003Y-92618D01*
X57999Y-92634D01*
Y-92647D01*
Y-92651D01*
Y-92655D01*
Y-92667D01*
X58138Y-92676D01*
X58273Y-92688D01*
X58396Y-92700D01*
X58454Y-92704D01*
X58503Y-92712D01*
X58552Y-92716D01*
X58597Y-92721D01*
X58634Y-92725D01*
X58667Y-92729D01*
X58692Y-92733D01*
X58712D01*
X58724Y-92737D01*
X58728D01*
X58855Y-92757D01*
X58966Y-92778D01*
X59069Y-92807D01*
X59151Y-92831D01*
X59188Y-92839D01*
X59220Y-92852D01*
X59249Y-92864D01*
X59274Y-92872D01*
X59290Y-92876D01*
X59302Y-92885D01*
X59311Y-92889D01*
X59315D01*
X59397Y-92930D01*
X59470Y-92979D01*
X59536Y-93028D01*
X59589Y-93073D01*
X59630Y-93114D01*
X59659Y-93151D01*
X59676Y-93172D01*
X59684Y-93176D01*
Y-93180D01*
X59725Y-93254D01*
X59758Y-93331D01*
X59778Y-93409D01*
X59794Y-93487D01*
X59803Y-93553D01*
X59807Y-93582D01*
Y-93606D01*
X59811Y-93627D01*
Y-93643D01*
Y-93651D01*
Y-93655D01*
X59807Y-93721D01*
X59799Y-93787D01*
X59786Y-93844D01*
X59770Y-93901D01*
X59729Y-94004D01*
X59708Y-94049D01*
X59684Y-94090D01*
X59659Y-94127D01*
X59639Y-94160D01*
X59614Y-94188D01*
X59598Y-94213D01*
X59581Y-94229D01*
X59569Y-94242D01*
X59561Y-94250D01*
X59557Y-94254D01*
X59507Y-94295D01*
X59458Y-94332D01*
X59405Y-94361D01*
X59352Y-94389D01*
X59298Y-94410D01*
X59245Y-94430D01*
X59143Y-94459D01*
X59097Y-94467D01*
X59056Y-94475D01*
X59015Y-94480D01*
X58983Y-94484D01*
X58958Y-94488D01*
X58864D01*
X58806Y-94484D01*
X58757Y-94480D01*
X58712Y-94471D01*
X58675Y-94467D01*
X58650Y-94463D01*
X58630Y-94459D01*
X58626D01*
X58527Y-94434D01*
X58486Y-94422D01*
X58446Y-94410D01*
X58413Y-94397D01*
X58388Y-94389D01*
X58372Y-94381D01*
X58368D01*
X58298Y-94344D01*
X58265Y-94324D01*
X58236Y-94303D01*
X58212Y-94287D01*
X58191Y-94274D01*
X58179Y-94266D01*
X58175Y-94262D01*
X58105Y-94213D01*
X58077Y-94192D01*
X58052Y-94172D01*
X58031Y-94160D01*
X58015Y-94147D01*
X58007Y-94143D01*
X58003Y-94139D01*
Y-94418D01*
X57154D01*
Y-92610D01*
X57158Y-92524D01*
X57166Y-92442D01*
X57183Y-92368D01*
X57203Y-92298D01*
X57228Y-92233D01*
X57257Y-92175D01*
X57285Y-92122D01*
X57314Y-92077D01*
X57347Y-92036D01*
X57375Y-92003D01*
X57404Y-91970D01*
X57429Y-91946D01*
X57449Y-91929D01*
X57466Y-91917D01*
X57474Y-91909D01*
X57478Y-91905D01*
X57543Y-91864D01*
X57617Y-91831D01*
X57695Y-91798D01*
X57777Y-91773D01*
X57954Y-91733D01*
X58126Y-91708D01*
X58208Y-91700D01*
X58281Y-91691D01*
X58351Y-91687D01*
X58413Y-91683D01*
X58462Y-91679D01*
X58646D01*
X58753Y-91687D01*
D02*
G37*
G36*
X68978Y-94418D02*
X68068D01*
Y-93266D01*
X67859Y-93003D01*
X66801Y-94418D01*
X65678D01*
X67133Y-92520D01*
X65748Y-90884D01*
X66805D01*
X68068Y-92487D01*
Y-90884D01*
X68978D01*
Y-94418D01*
D02*
G37*
G36*
X48884Y-94418D02*
X47917D01*
X46888Y-91753D01*
X47773D01*
X48388Y-93594D01*
X49007Y-91753D01*
X49905D01*
X48884Y-94418D01*
D02*
G37*
G36*
X43505Y-91683D02*
X43616Y-91691D01*
X43714Y-91704D01*
X43800Y-91720D01*
X43841Y-91728D01*
X43874Y-91737D01*
X43907Y-91741D01*
X43931Y-91749D01*
X43952Y-91753D01*
X43968Y-91757D01*
X43977Y-91761D01*
X43981D01*
X44083Y-91794D01*
X44177Y-91831D01*
X44264Y-91872D01*
X44333Y-91913D01*
X44395Y-91950D01*
X44419Y-91966D01*
X44440Y-91979D01*
X44456Y-91991D01*
X44469Y-91999D01*
X44473Y-92007D01*
X44477D01*
X44555Y-92077D01*
X44624Y-92151D01*
X44686Y-92225D01*
X44735Y-92298D01*
X44776Y-92360D01*
X44788Y-92384D01*
X44801Y-92409D01*
X44813Y-92430D01*
X44821Y-92442D01*
X44825Y-92450D01*
Y-92454D01*
X44866Y-92561D01*
X44895Y-92667D01*
X44920Y-92778D01*
X44932Y-92876D01*
X44936Y-92922D01*
X44940Y-92967D01*
X44944Y-93003D01*
Y-93036D01*
X44948Y-93061D01*
Y-93081D01*
Y-93094D01*
Y-93098D01*
X44944Y-93225D01*
X44932Y-93344D01*
X44911Y-93450D01*
X44903Y-93496D01*
X44891Y-93541D01*
X44879Y-93577D01*
X44870Y-93614D01*
X44858Y-93643D01*
X44850Y-93668D01*
X44846Y-93688D01*
X44838Y-93705D01*
X44833Y-93713D01*
Y-93717D01*
X44784Y-93811D01*
X44735Y-93897D01*
X44678Y-93971D01*
X44624Y-94033D01*
X44579Y-94082D01*
X44542Y-94119D01*
X44514Y-94143D01*
X44510Y-94147D01*
X44506Y-94152D01*
X44423Y-94213D01*
X44337Y-94262D01*
X44255Y-94307D01*
X44173Y-94344D01*
X44108Y-94369D01*
X44079Y-94381D01*
X44054Y-94389D01*
X44034Y-94397D01*
X44018Y-94402D01*
X44009Y-94406D01*
X44005D01*
X43895Y-94434D01*
X43784Y-94455D01*
X43677Y-94467D01*
X43579Y-94475D01*
X43534Y-94480D01*
X43497Y-94484D01*
X43460D01*
X43427Y-94488D01*
X43370D01*
X43271Y-94484D01*
X43181Y-94480D01*
X43099Y-94471D01*
X43029Y-94459D01*
X42968Y-94447D01*
X42943Y-94443D01*
X42923Y-94438D01*
X42906Y-94434D01*
X42894D01*
X42890Y-94430D01*
X42886D01*
X42804Y-94410D01*
X42726Y-94385D01*
X42652Y-94361D01*
X42591Y-94336D01*
X42538Y-94315D01*
X42496Y-94299D01*
X42480Y-94291D01*
X42468Y-94287D01*
X42464Y-94283D01*
X42460D01*
Y-93553D01*
X42583D01*
X42624Y-93594D01*
X42660Y-93627D01*
X42677Y-93639D01*
X42685Y-93651D01*
X42693Y-93655D01*
X42697Y-93660D01*
X42747Y-93696D01*
X42792Y-93725D01*
X42808Y-93742D01*
X42825Y-93750D01*
X42833Y-93754D01*
X42837Y-93758D01*
X42870Y-93774D01*
X42906Y-93791D01*
X42976Y-93819D01*
X43009Y-93828D01*
X43034Y-93836D01*
X43050Y-93844D01*
X43054D01*
X43152Y-93865D01*
X43202Y-93869D01*
X43247Y-93873D01*
X43284Y-93877D01*
X43341D01*
X43403Y-93873D01*
X43464Y-93869D01*
X43571Y-93844D01*
X43665Y-93815D01*
X43739Y-93778D01*
X43772Y-93758D01*
X43800Y-93742D01*
X43825Y-93725D01*
X43841Y-93709D01*
X43858Y-93696D01*
X43870Y-93688D01*
X43874Y-93684D01*
X43878Y-93680D01*
X43911Y-93639D01*
X43940Y-93598D01*
X43985Y-93504D01*
X44018Y-93409D01*
X44038Y-93315D01*
X44054Y-93229D01*
X44059Y-93192D01*
Y-93159D01*
X44063Y-93135D01*
Y-93114D01*
Y-93102D01*
Y-93098D01*
X44059Y-93028D01*
X44054Y-92967D01*
X44034Y-92848D01*
X44022Y-92794D01*
X44005Y-92745D01*
X43989Y-92704D01*
X43973Y-92663D01*
X43956Y-92626D01*
X43940Y-92598D01*
X43923Y-92569D01*
X43911Y-92548D01*
X43899Y-92528D01*
X43891Y-92516D01*
X43882Y-92511D01*
Y-92507D01*
X43845Y-92471D01*
X43808Y-92434D01*
X43763Y-92405D01*
X43722Y-92380D01*
X43636Y-92343D01*
X43550Y-92319D01*
X43476Y-92302D01*
X43444Y-92298D01*
X43415Y-92294D01*
X43390Y-92290D01*
X43300D01*
X43251Y-92294D01*
X43202Y-92302D01*
X43165Y-92307D01*
X43132Y-92315D01*
X43107Y-92323D01*
X43091Y-92327D01*
X43087D01*
X43005Y-92356D01*
X42968Y-92368D01*
X42935Y-92380D01*
X42911Y-92393D01*
X42890Y-92405D01*
X42878Y-92409D01*
X42874Y-92413D01*
X42804Y-92454D01*
X42775Y-92471D01*
X42751Y-92487D01*
X42730Y-92503D01*
X42714Y-92516D01*
X42706Y-92520D01*
X42702Y-92524D01*
X42652Y-92565D01*
X42615Y-92593D01*
X42591Y-92614D01*
X42587Y-92622D01*
X42460D01*
Y-91896D01*
X42538Y-91860D01*
X42611Y-91831D01*
X42685Y-91802D01*
X42751Y-91782D01*
X42808Y-91765D01*
X42849Y-91753D01*
X42865Y-91745D01*
X42878D01*
X42886Y-91741D01*
X42890D01*
X42976Y-91720D01*
X43066Y-91704D01*
X43148Y-91696D01*
X43226Y-91687D01*
X43296Y-91683D01*
X43325Y-91679D01*
X43394D01*
X43505Y-91683D01*
D02*
G37*
G36*
X38893D02*
X39003Y-91691D01*
X39102Y-91704D01*
X39188Y-91720D01*
X39229Y-91728D01*
X39262Y-91737D01*
X39294Y-91741D01*
X39319Y-91749D01*
X39340Y-91753D01*
X39356Y-91757D01*
X39364Y-91761D01*
X39368D01*
X39471Y-91794D01*
X39565Y-91831D01*
X39651Y-91872D01*
X39721Y-91913D01*
X39782Y-91950D01*
X39807Y-91966D01*
X39827Y-91979D01*
X39844Y-91991D01*
X39856Y-91999D01*
X39860Y-92007D01*
X39864D01*
X39942Y-92077D01*
X40012Y-92151D01*
X40073Y-92225D01*
X40123Y-92298D01*
X40164Y-92360D01*
X40176Y-92384D01*
X40188Y-92409D01*
X40200Y-92430D01*
X40209Y-92442D01*
X40213Y-92450D01*
Y-92454D01*
X40254Y-92561D01*
X40282Y-92667D01*
X40307Y-92778D01*
X40319Y-92876D01*
X40323Y-92922D01*
X40328Y-92967D01*
X40332Y-93003D01*
Y-93036D01*
X40336Y-93061D01*
Y-93081D01*
Y-93094D01*
Y-93098D01*
X40332Y-93225D01*
X40319Y-93344D01*
X40299Y-93450D01*
X40291Y-93496D01*
X40278Y-93541D01*
X40266Y-93577D01*
X40258Y-93614D01*
X40246Y-93643D01*
X40237Y-93668D01*
X40233Y-93688D01*
X40225Y-93705D01*
X40221Y-93713D01*
Y-93717D01*
X40172Y-93811D01*
X40123Y-93897D01*
X40065Y-93971D01*
X40012Y-94033D01*
X39967Y-94082D01*
X39930Y-94119D01*
X39901Y-94143D01*
X39897Y-94147D01*
X39893Y-94152D01*
X39811Y-94213D01*
X39725Y-94262D01*
X39643Y-94307D01*
X39561Y-94344D01*
X39495Y-94369D01*
X39467Y-94381D01*
X39442Y-94389D01*
X39421Y-94397D01*
X39405Y-94402D01*
X39397Y-94406D01*
X39393D01*
X39282Y-94434D01*
X39171Y-94455D01*
X39065Y-94467D01*
X38966Y-94475D01*
X38921Y-94480D01*
X38884Y-94484D01*
X38848D01*
X38815Y-94488D01*
X38757D01*
X38659Y-94484D01*
X38569Y-94480D01*
X38487Y-94471D01*
X38417Y-94459D01*
X38355Y-94447D01*
X38331Y-94443D01*
X38310Y-94438D01*
X38294Y-94434D01*
X38282D01*
X38278Y-94430D01*
X38274D01*
X38192Y-94410D01*
X38114Y-94385D01*
X38040Y-94361D01*
X37978Y-94336D01*
X37925Y-94315D01*
X37884Y-94299D01*
X37868Y-94291D01*
X37855Y-94287D01*
X37851Y-94283D01*
X37847D01*
Y-93553D01*
X37970D01*
X38011Y-93594D01*
X38048Y-93627D01*
X38064Y-93639D01*
X38073Y-93651D01*
X38081Y-93655D01*
X38085Y-93660D01*
X38134Y-93696D01*
X38179Y-93725D01*
X38196Y-93742D01*
X38212Y-93750D01*
X38220Y-93754D01*
X38224Y-93758D01*
X38257Y-93774D01*
X38294Y-93791D01*
X38364Y-93819D01*
X38396Y-93828D01*
X38421Y-93836D01*
X38438Y-93844D01*
X38442D01*
X38540Y-93865D01*
X38589Y-93869D01*
X38634Y-93873D01*
X38671Y-93877D01*
X38729D01*
X38790Y-93873D01*
X38852Y-93869D01*
X38958Y-93844D01*
X39053Y-93815D01*
X39126Y-93778D01*
X39159Y-93758D01*
X39188Y-93742D01*
X39212Y-93725D01*
X39229Y-93709D01*
X39245Y-93696D01*
X39257Y-93688D01*
X39262Y-93684D01*
X39266Y-93680D01*
X39298Y-93639D01*
X39327Y-93598D01*
X39372Y-93504D01*
X39405Y-93409D01*
X39426Y-93315D01*
X39442Y-93229D01*
X39446Y-93192D01*
Y-93159D01*
X39450Y-93135D01*
Y-93114D01*
Y-93102D01*
Y-93098D01*
X39446Y-93028D01*
X39442Y-92967D01*
X39421Y-92848D01*
X39409Y-92794D01*
X39393Y-92745D01*
X39376Y-92704D01*
X39360Y-92663D01*
X39344Y-92626D01*
X39327Y-92598D01*
X39311Y-92569D01*
X39298Y-92548D01*
X39286Y-92528D01*
X39278Y-92516D01*
X39270Y-92511D01*
Y-92507D01*
X39233Y-92471D01*
X39196Y-92434D01*
X39151Y-92405D01*
X39110Y-92380D01*
X39024Y-92343D01*
X38938Y-92319D01*
X38864Y-92302D01*
X38831Y-92298D01*
X38802Y-92294D01*
X38778Y-92290D01*
X38688D01*
X38638Y-92294D01*
X38589Y-92302D01*
X38552Y-92307D01*
X38519Y-92315D01*
X38495Y-92323D01*
X38478Y-92327D01*
X38474D01*
X38392Y-92356D01*
X38355Y-92368D01*
X38323Y-92380D01*
X38298Y-92393D01*
X38278Y-92405D01*
X38265Y-92409D01*
X38261Y-92413D01*
X38192Y-92454D01*
X38163Y-92471D01*
X38138Y-92487D01*
X38118Y-92503D01*
X38101Y-92516D01*
X38093Y-92520D01*
X38089Y-92524D01*
X38040Y-92565D01*
X38003Y-92593D01*
X37978Y-92614D01*
X37974Y-92622D01*
X37847D01*
Y-91896D01*
X37925Y-91860D01*
X37999Y-91831D01*
X38073Y-91802D01*
X38138Y-91782D01*
X38196Y-91765D01*
X38237Y-91753D01*
X38253Y-91745D01*
X38265D01*
X38274Y-91741D01*
X38278D01*
X38364Y-91720D01*
X38454Y-91704D01*
X38536Y-91696D01*
X38614Y-91687D01*
X38684Y-91683D01*
X38712Y-91679D01*
X38782D01*
X38893Y-91683D01*
D02*
G37*
G36*
X60373Y-91749D02*
X60438Y-91757D01*
X60504Y-91769D01*
X60561Y-91786D01*
X60614Y-91802D01*
X60651Y-91815D01*
X60668Y-91819D01*
X60680Y-91823D01*
X60684Y-91827D01*
X60688D01*
X60770Y-91864D01*
X60852Y-91909D01*
X60934Y-91962D01*
X61012Y-92015D01*
X61078Y-92065D01*
X61106Y-92089D01*
X61131Y-92106D01*
X61147Y-92122D01*
X61164Y-92134D01*
X61172Y-92142D01*
X61176Y-92147D01*
Y-91753D01*
X62033D01*
Y-94418D01*
X61176D01*
Y-92639D01*
X61119Y-92618D01*
X61061Y-92602D01*
X61012Y-92585D01*
X60967Y-92577D01*
X60930Y-92569D01*
X60901Y-92561D01*
X60885Y-92557D01*
X60877D01*
X60766Y-92540D01*
X60713Y-92536D01*
X60664D01*
X60623Y-92532D01*
X60491D01*
X60426Y-92536D01*
X60397Y-92540D01*
X60377D01*
X60360Y-92544D01*
X60356D01*
X60315Y-92548D01*
X60278Y-92553D01*
X60245Y-92557D01*
X60221Y-92561D01*
X60204Y-92565D01*
X60188D01*
X60184Y-92569D01*
X60102D01*
Y-91757D01*
X60139Y-91753D01*
X60172D01*
X60196Y-91749D01*
X60204D01*
X60245Y-91745D01*
X60307D01*
X60373Y-91749D01*
D02*
G37*
G36*
X54706Y-91683D02*
X54792Y-91696D01*
X54874Y-91712D01*
X54944Y-91728D01*
X55001Y-91745D01*
X55042Y-91761D01*
X55059Y-91769D01*
X55071Y-91773D01*
X55075Y-91778D01*
X55079D01*
X55157Y-91815D01*
X55235Y-91860D01*
X55309Y-91905D01*
X55375Y-91950D01*
X55432Y-91987D01*
X55477Y-92019D01*
X55493Y-92032D01*
X55506Y-92040D01*
X55510Y-92044D01*
X55514Y-92048D01*
Y-91753D01*
X56371D01*
Y-94418D01*
X55514D01*
Y-92528D01*
X55461Y-92499D01*
X55416Y-92475D01*
X55370Y-92454D01*
X55334Y-92438D01*
X55301Y-92425D01*
X55276Y-92417D01*
X55260Y-92409D01*
X55256D01*
X55170Y-92384D01*
X55129Y-92376D01*
X55096Y-92372D01*
X55063Y-92368D01*
X54965D01*
X54911Y-92376D01*
X54870Y-92380D01*
X54833Y-92388D01*
X54805Y-92397D01*
X54784Y-92401D01*
X54772Y-92409D01*
X54768D01*
X54735Y-92425D01*
X54706Y-92446D01*
X54682Y-92466D01*
X54661Y-92491D01*
X54645Y-92507D01*
X54633Y-92524D01*
X54628Y-92536D01*
X54624Y-92540D01*
X54612Y-92573D01*
X54600Y-92606D01*
X54583Y-92684D01*
X54579Y-92721D01*
X54575Y-92749D01*
X54571Y-92766D01*
Y-92774D01*
X54559Y-92893D01*
X54555Y-92946D01*
Y-92995D01*
X54550Y-93036D01*
Y-93069D01*
Y-93090D01*
Y-93098D01*
Y-94418D01*
X53694D01*
Y-92684D01*
X53698Y-92593D01*
X53706Y-92507D01*
X53718Y-92430D01*
X53730Y-92356D01*
X53751Y-92286D01*
X53772Y-92225D01*
X53792Y-92171D01*
X53817Y-92122D01*
X53841Y-92077D01*
X53862Y-92040D01*
X53882Y-92007D01*
X53903Y-91979D01*
X53915Y-91958D01*
X53927Y-91946D01*
X53935Y-91938D01*
X53940Y-91933D01*
X53989Y-91888D01*
X54038Y-91851D01*
X54091Y-91815D01*
X54145Y-91786D01*
X54202Y-91761D01*
X54259Y-91741D01*
X54366Y-91712D01*
X54415Y-91700D01*
X54464Y-91691D01*
X54505Y-91687D01*
X54542Y-91683D01*
X54571Y-91679D01*
X54612D01*
X54706Y-91683D01*
D02*
G37*
G36*
X46416Y-94418D02*
X45559D01*
Y-91753D01*
X46416D01*
Y-94418D01*
D02*
G37*
G36*
X41865D02*
X40979D01*
Y-93487D01*
X41865D01*
Y-94418D01*
D02*
G37*
G36*
X80528Y-90826D02*
X80647Y-90835D01*
X80762Y-90851D01*
X80872Y-90872D01*
X80971Y-90896D01*
X81065Y-90921D01*
X81151Y-90949D01*
X81229Y-90978D01*
X81299Y-91011D01*
X81360Y-91040D01*
X81414Y-91064D01*
X81455Y-91089D01*
X81492Y-91109D01*
X81516Y-91126D01*
X81533Y-91134D01*
X81537Y-91138D01*
X81615Y-91199D01*
X81684Y-91261D01*
X81742Y-91327D01*
X81791Y-91396D01*
X81836Y-91462D01*
X81873Y-91527D01*
X81902Y-91593D01*
X81922Y-91655D01*
X81943Y-91716D01*
X81955Y-91769D01*
X81967Y-91819D01*
X81971Y-91860D01*
X81975Y-91892D01*
X81980Y-91921D01*
Y-91938D01*
Y-91942D01*
X81975Y-92007D01*
X81971Y-92073D01*
X81951Y-92196D01*
X81918Y-92298D01*
X81902Y-92348D01*
X81881Y-92388D01*
X81865Y-92430D01*
X81848Y-92462D01*
X81832Y-92491D01*
X81815Y-92516D01*
X81803Y-92536D01*
X81795Y-92548D01*
X81787Y-92557D01*
Y-92561D01*
X81746Y-92606D01*
X81701Y-92647D01*
X81602Y-92725D01*
X81496Y-92790D01*
X81389Y-92848D01*
X81340Y-92872D01*
X81295Y-92893D01*
X81254Y-92909D01*
X81217Y-92926D01*
X81184Y-92934D01*
X81164Y-92942D01*
X81147Y-92950D01*
X81143D01*
X80996Y-92995D01*
X80926Y-93012D01*
X80864Y-93028D01*
X80811Y-93040D01*
X80766Y-93049D01*
X80749Y-93053D01*
X80737Y-93057D01*
X80729D01*
X80647Y-93073D01*
X80569Y-93090D01*
X80495Y-93102D01*
X80434Y-93118D01*
X80380Y-93131D01*
X80339Y-93139D01*
X80327Y-93143D01*
X80315D01*
X80311Y-93147D01*
X80307D01*
X80241Y-93163D01*
X80184Y-93184D01*
X80134Y-93204D01*
X80093Y-93225D01*
X80061Y-93245D01*
X80036Y-93262D01*
X80024Y-93270D01*
X80020Y-93274D01*
X79987Y-93307D01*
X79962Y-93340D01*
X79942Y-93377D01*
X79930Y-93405D01*
X79921Y-93434D01*
X79917Y-93454D01*
Y-93471D01*
Y-93475D01*
X79921Y-93520D01*
X79930Y-93557D01*
X79938Y-93590D01*
X79950Y-93619D01*
X79966Y-93639D01*
X79975Y-93655D01*
X79983Y-93664D01*
X79987Y-93668D01*
X80040Y-93709D01*
X80098Y-93742D01*
X80122Y-93754D01*
X80143Y-93762D01*
X80155Y-93770D01*
X80159D01*
X80192Y-93783D01*
X80229Y-93795D01*
X80303Y-93807D01*
X80331Y-93815D01*
X80356D01*
X80376Y-93819D01*
X80380D01*
X80430Y-93823D01*
X80471Y-93828D01*
X80508D01*
X80540Y-93832D01*
X80598D01*
X80721Y-93828D01*
X80840Y-93811D01*
X80954Y-93795D01*
X81057Y-93770D01*
X81102Y-93762D01*
X81143Y-93750D01*
X81180Y-93742D01*
X81209Y-93729D01*
X81237Y-93725D01*
X81254Y-93717D01*
X81266Y-93713D01*
X81270D01*
X81397Y-93664D01*
X81516Y-93606D01*
X81623Y-93549D01*
X81717Y-93491D01*
X81758Y-93467D01*
X81795Y-93442D01*
X81824Y-93422D01*
X81852Y-93401D01*
X81873Y-93385D01*
X81889Y-93372D01*
X81897Y-93368D01*
X81902Y-93364D01*
X82000D01*
Y-94213D01*
X81893Y-94254D01*
X81787Y-94295D01*
X81684Y-94328D01*
X81590Y-94357D01*
X81549Y-94369D01*
X81512Y-94377D01*
X81475Y-94389D01*
X81446Y-94397D01*
X81426Y-94402D01*
X81406Y-94406D01*
X81397Y-94410D01*
X81393D01*
X81266Y-94434D01*
X81135Y-94451D01*
X81008Y-94467D01*
X80885Y-94475D01*
X80831D01*
X80782Y-94480D01*
X80737D01*
X80700Y-94484D01*
X80626D01*
X80487Y-94480D01*
X80356Y-94471D01*
X80233Y-94455D01*
X80118Y-94434D01*
X80007Y-94410D01*
X79909Y-94381D01*
X79819Y-94352D01*
X79737Y-94320D01*
X79663Y-94291D01*
X79602Y-94262D01*
X79548Y-94234D01*
X79503Y-94209D01*
X79466Y-94188D01*
X79442Y-94172D01*
X79425Y-94164D01*
X79421Y-94160D01*
X79343Y-94094D01*
X79273Y-94029D01*
X79216Y-93959D01*
X79167Y-93889D01*
X79122Y-93819D01*
X79085Y-93746D01*
X79056Y-93680D01*
X79032Y-93610D01*
X79015Y-93549D01*
X79003Y-93491D01*
X78991Y-93442D01*
X78987Y-93397D01*
X78982Y-93360D01*
X78978Y-93336D01*
Y-93315D01*
Y-93311D01*
X78982Y-93245D01*
X78987Y-93180D01*
X79007Y-93065D01*
X79040Y-92962D01*
X79056Y-92917D01*
X79077Y-92876D01*
X79093Y-92839D01*
X79114Y-92807D01*
X79130Y-92782D01*
X79142Y-92757D01*
X79159Y-92741D01*
X79167Y-92729D01*
X79171Y-92721D01*
X79175Y-92716D01*
X79212Y-92676D01*
X79257Y-92634D01*
X79351Y-92565D01*
X79450Y-92503D01*
X79548Y-92450D01*
X79634Y-92409D01*
X79675Y-92393D01*
X79708Y-92380D01*
X79737Y-92368D01*
X79757Y-92360D01*
X79770Y-92356D01*
X79774D01*
X79848Y-92331D01*
X79921Y-92311D01*
X79987Y-92294D01*
X80044Y-92278D01*
X80089Y-92270D01*
X80126Y-92261D01*
X80151Y-92253D01*
X80159D01*
X80294Y-92225D01*
X80356Y-92208D01*
X80413Y-92196D01*
X80462Y-92188D01*
X80499Y-92179D01*
X80524Y-92171D01*
X80532D01*
X80585Y-92159D01*
X80635Y-92147D01*
X80680Y-92134D01*
X80721Y-92122D01*
X80791Y-92102D01*
X80844Y-92081D01*
X80885Y-92061D01*
X80914Y-92048D01*
X80930Y-92040D01*
X80934Y-92036D01*
X80971Y-92007D01*
X80996Y-91970D01*
X81016Y-91938D01*
X81028Y-91901D01*
X81037Y-91872D01*
X81041Y-91847D01*
Y-91827D01*
Y-91823D01*
X81037Y-91790D01*
X81028Y-91757D01*
X81020Y-91728D01*
X81008Y-91704D01*
X80996Y-91687D01*
X80983Y-91671D01*
X80979Y-91663D01*
X80975Y-91659D01*
X80922Y-91610D01*
X80868Y-91577D01*
X80848Y-91564D01*
X80831Y-91556D01*
X80819Y-91548D01*
X80815D01*
X80737Y-91523D01*
X80704Y-91511D01*
X80672Y-91503D01*
X80643Y-91499D01*
X80622Y-91495D01*
X80606Y-91491D01*
X80602D01*
X80516Y-91482D01*
X80479Y-91478D01*
X80442Y-91474D01*
X80372D01*
X80253Y-91478D01*
X80139Y-91491D01*
X80032Y-91511D01*
X79934Y-91532D01*
X79893Y-91544D01*
X79856Y-91552D01*
X79823Y-91560D01*
X79794Y-91573D01*
X79770Y-91577D01*
X79753Y-91585D01*
X79745Y-91589D01*
X79741D01*
X79630Y-91634D01*
X79528Y-91683D01*
X79438Y-91728D01*
X79360Y-91773D01*
X79298Y-91815D01*
X79273Y-91831D01*
X79253Y-91843D01*
X79237Y-91856D01*
X79224Y-91864D01*
X79220Y-91872D01*
X79118D01*
Y-91060D01*
X79216Y-91023D01*
X79315Y-90990D01*
X79417Y-90962D01*
X79507Y-90937D01*
X79552Y-90929D01*
X79589Y-90917D01*
X79626Y-90908D01*
X79655Y-90904D01*
X79679Y-90900D01*
X79696Y-90896D01*
X79708Y-90892D01*
X79712D01*
X79839Y-90867D01*
X79962Y-90851D01*
X80081Y-90839D01*
X80184Y-90830D01*
X80229Y-90826D01*
X80274D01*
X80311Y-90822D01*
X80401D01*
X80528Y-90826D01*
D02*
G37*
G36*
X74079Y-91683D02*
X74190Y-91691D01*
X74292Y-91704D01*
X74386Y-91720D01*
X74476Y-91741D01*
X74559Y-91761D01*
X74632Y-91786D01*
X74698Y-91806D01*
X74759Y-91831D01*
X74813Y-91856D01*
X74858Y-91876D01*
X74895Y-91896D01*
X74923Y-91913D01*
X74944Y-91925D01*
X74956Y-91933D01*
X74960Y-91938D01*
X75022Y-91987D01*
X75079Y-92036D01*
X75128Y-92089D01*
X75169Y-92142D01*
X75202Y-92200D01*
X75231Y-92253D01*
X75256Y-92302D01*
X75276Y-92352D01*
X75292Y-92401D01*
X75301Y-92442D01*
X75309Y-92479D01*
X75317Y-92511D01*
Y-92540D01*
X75321Y-92561D01*
Y-92573D01*
Y-92577D01*
X75313Y-92684D01*
X75292Y-92782D01*
X75268Y-92868D01*
X75235Y-92938D01*
X75202Y-92999D01*
X75190Y-93020D01*
X75178Y-93040D01*
X75165Y-93057D01*
X75157Y-93069D01*
X75149Y-93073D01*
Y-93077D01*
X75112Y-93114D01*
X75075Y-93147D01*
X74989Y-93208D01*
X74899Y-93258D01*
X74813Y-93299D01*
X74731Y-93331D01*
X74698Y-93344D01*
X74669Y-93356D01*
X74641Y-93364D01*
X74624Y-93368D01*
X74612Y-93372D01*
X74608D01*
X74505Y-93397D01*
X74456Y-93405D01*
X74411Y-93414D01*
X74374Y-93422D01*
X74345Y-93430D01*
X74325Y-93434D01*
X74317D01*
X74259Y-93442D01*
X74206Y-93450D01*
X74161Y-93459D01*
X74124Y-93467D01*
X74095Y-93471D01*
X74075Y-93475D01*
X74062Y-93479D01*
X74058D01*
X73989Y-93496D01*
X73931Y-93508D01*
X73886Y-93524D01*
X73849Y-93537D01*
X73821Y-93549D01*
X73800Y-93557D01*
X73792Y-93561D01*
X73788Y-93565D01*
X73763Y-93582D01*
X73747Y-93602D01*
X73730Y-93627D01*
X73722Y-93651D01*
X73718Y-93672D01*
X73714Y-93688D01*
Y-93700D01*
Y-93705D01*
X73718Y-93742D01*
X73734Y-93774D01*
X73751Y-93803D01*
X73775Y-93828D01*
X73796Y-93844D01*
X73816Y-93856D01*
X73833Y-93865D01*
X73837Y-93869D01*
X73886Y-93885D01*
X73944Y-93897D01*
X74009Y-93910D01*
X74067Y-93914D01*
X74124Y-93918D01*
X74169Y-93922D01*
X74280D01*
X74349Y-93918D01*
X74407Y-93910D01*
X74464Y-93901D01*
X74509Y-93897D01*
X74542Y-93889D01*
X74563Y-93885D01*
X74571D01*
X74632Y-93869D01*
X74690Y-93856D01*
X74739Y-93840D01*
X74784Y-93823D01*
X74821Y-93811D01*
X74845Y-93799D01*
X74866Y-93795D01*
X74870Y-93791D01*
X74923Y-93766D01*
X74973Y-93746D01*
X75014Y-93729D01*
X75050Y-93709D01*
X75075Y-93696D01*
X75096Y-93684D01*
X75108Y-93680D01*
X75112Y-93676D01*
X75169Y-93639D01*
X75214Y-93606D01*
X75231Y-93594D01*
X75243Y-93586D01*
X75251Y-93577D01*
X75333D01*
Y-94279D01*
X75264Y-94307D01*
X75190Y-94336D01*
X75112Y-94361D01*
X75038Y-94381D01*
X74973Y-94402D01*
X74944Y-94410D01*
X74923Y-94414D01*
X74903Y-94418D01*
X74887Y-94422D01*
X74878Y-94426D01*
X74874D01*
X74764Y-94447D01*
X74649Y-94463D01*
X74542Y-94475D01*
X74440Y-94484D01*
X74395Y-94488D01*
X74317D01*
X74288Y-94492D01*
X74226D01*
X74107Y-94488D01*
X73997Y-94480D01*
X73894Y-94467D01*
X73796Y-94451D01*
X73706Y-94434D01*
X73624Y-94414D01*
X73546Y-94389D01*
X73480Y-94365D01*
X73419Y-94344D01*
X73365Y-94320D01*
X73320Y-94299D01*
X73279Y-94279D01*
X73251Y-94266D01*
X73230Y-94254D01*
X73218Y-94246D01*
X73214Y-94242D01*
X73148Y-94192D01*
X73091Y-94139D01*
X73041Y-94086D01*
X72996Y-94029D01*
X72964Y-93975D01*
X72931Y-93918D01*
X72906Y-93865D01*
X72886Y-93811D01*
X72873Y-93762D01*
X72861Y-93717D01*
X72853Y-93676D01*
X72845Y-93643D01*
Y-93614D01*
X72841Y-93590D01*
Y-93577D01*
Y-93573D01*
X72849Y-93475D01*
X72865Y-93381D01*
X72894Y-93303D01*
X72923Y-93233D01*
X72951Y-93180D01*
X72980Y-93139D01*
X72988Y-93126D01*
X72996Y-93114D01*
X73005Y-93110D01*
Y-93106D01*
X73037Y-93073D01*
X73070Y-93040D01*
X73148Y-92983D01*
X73230Y-92934D01*
X73312Y-92897D01*
X73386Y-92864D01*
X73419Y-92852D01*
X73447Y-92844D01*
X73468Y-92835D01*
X73484Y-92831D01*
X73497Y-92827D01*
X73501D01*
X73611Y-92803D01*
X73665Y-92790D01*
X73710Y-92782D01*
X73747Y-92774D01*
X73779Y-92770D01*
X73796Y-92766D01*
X73804D01*
X73861Y-92757D01*
X73911Y-92745D01*
X73960Y-92737D01*
X74001Y-92729D01*
X74034Y-92721D01*
X74062Y-92716D01*
X74079Y-92712D01*
X74083D01*
X74165Y-92692D01*
X74230Y-92676D01*
X74284Y-92659D01*
X74325Y-92643D01*
X74353Y-92630D01*
X74374Y-92622D01*
X74382Y-92618D01*
X74386Y-92614D01*
X74407Y-92593D01*
X74423Y-92569D01*
X74431Y-92548D01*
X74440Y-92524D01*
X74444Y-92503D01*
X74448Y-92487D01*
Y-92475D01*
Y-92471D01*
X74444Y-92434D01*
X74427Y-92401D01*
X74403Y-92372D01*
X74378Y-92348D01*
X74353Y-92331D01*
X74329Y-92319D01*
X74313Y-92311D01*
X74308Y-92307D01*
X74255Y-92286D01*
X74194Y-92274D01*
X74136Y-92261D01*
X74083Y-92257D01*
X74034Y-92253D01*
X73993Y-92249D01*
X73960D01*
X73866Y-92253D01*
X73775Y-92261D01*
X73693Y-92278D01*
X73620Y-92290D01*
X73558Y-92307D01*
X73533Y-92315D01*
X73509Y-92323D01*
X73492Y-92327D01*
X73480Y-92331D01*
X73472Y-92335D01*
X73468D01*
X73378Y-92368D01*
X73300Y-92401D01*
X73226Y-92438D01*
X73160Y-92471D01*
X73107Y-92499D01*
X73066Y-92524D01*
X73041Y-92540D01*
X73037Y-92544D01*
X72960D01*
Y-91872D01*
X73021Y-91847D01*
X73091Y-91823D01*
X73164Y-91798D01*
X73234Y-91782D01*
X73296Y-91765D01*
X73320Y-91757D01*
X73345Y-91753D01*
X73365Y-91745D01*
X73378D01*
X73386Y-91741D01*
X73390D01*
X73492Y-91720D01*
X73595Y-91704D01*
X73693Y-91696D01*
X73779Y-91687D01*
X73821Y-91683D01*
X73853D01*
X73886Y-91679D01*
X73964D01*
X74079Y-91683D01*
D02*
G37*
G36*
X51771Y-91675D02*
X51885Y-91687D01*
X52000Y-91704D01*
X52103Y-91728D01*
X52197Y-91757D01*
X52287Y-91790D01*
X52365Y-91823D01*
X52439Y-91860D01*
X52505Y-91896D01*
X52558Y-91929D01*
X52607Y-91962D01*
X52648Y-91991D01*
X52677Y-92011D01*
X52701Y-92032D01*
X52714Y-92044D01*
X52718Y-92048D01*
X52788Y-92122D01*
X52845Y-92200D01*
X52898Y-92286D01*
X52939Y-92368D01*
X52976Y-92458D01*
X53009Y-92544D01*
X53034Y-92626D01*
X53054Y-92708D01*
X53070Y-92786D01*
X53083Y-92860D01*
X53091Y-92926D01*
X53095Y-92979D01*
X53099Y-93024D01*
X53103Y-93061D01*
Y-93081D01*
Y-93090D01*
X53099Y-93208D01*
X53087Y-93323D01*
X53066Y-93430D01*
X53042Y-93528D01*
X53013Y-93619D01*
X52984Y-93705D01*
X52947Y-93783D01*
X52911Y-93852D01*
X52878Y-93914D01*
X52841Y-93967D01*
X52812Y-94016D01*
X52779Y-94053D01*
X52759Y-94082D01*
X52738Y-94106D01*
X52726Y-94119D01*
X52722Y-94123D01*
X52648Y-94188D01*
X52566Y-94246D01*
X52480Y-94299D01*
X52394Y-94340D01*
X52304Y-94377D01*
X52214Y-94410D01*
X52123Y-94434D01*
X52041Y-94451D01*
X51959Y-94467D01*
X51885Y-94480D01*
X51816Y-94488D01*
X51758Y-94496D01*
X51709D01*
X51672Y-94500D01*
X51644D01*
X51516Y-94496D01*
X51398Y-94484D01*
X51287Y-94463D01*
X51184Y-94443D01*
X51086Y-94414D01*
X51000Y-94381D01*
X50918Y-94348D01*
X50848Y-94311D01*
X50783Y-94274D01*
X50725Y-94242D01*
X50680Y-94209D01*
X50639Y-94180D01*
X50610Y-94156D01*
X50586Y-94139D01*
X50573Y-94127D01*
X50569Y-94123D01*
X50500Y-94049D01*
X50442Y-93971D01*
X50389Y-93889D01*
X50348Y-93803D01*
X50311Y-93717D01*
X50278Y-93631D01*
X50254Y-93545D01*
X50233Y-93463D01*
X50217Y-93389D01*
X50204Y-93315D01*
X50196Y-93254D01*
X50188Y-93196D01*
Y-93151D01*
X50184Y-93118D01*
Y-93098D01*
Y-93090D01*
X50188Y-92971D01*
X50200Y-92856D01*
X50221Y-92749D01*
X50241Y-92651D01*
X50274Y-92557D01*
X50303Y-92475D01*
X50340Y-92397D01*
X50373Y-92323D01*
X50410Y-92261D01*
X50446Y-92208D01*
X50475Y-92159D01*
X50504Y-92122D01*
X50528Y-92093D01*
X50549Y-92069D01*
X50561Y-92056D01*
X50565Y-92052D01*
X50639Y-91987D01*
X50721Y-91925D01*
X50807Y-91876D01*
X50893Y-91831D01*
X50984Y-91794D01*
X51074Y-91765D01*
X51164Y-91741D01*
X51246Y-91720D01*
X51328Y-91704D01*
X51402Y-91691D01*
X51471Y-91683D01*
X51529Y-91675D01*
X51578D01*
X51611Y-91671D01*
X51644D01*
X51771Y-91675D01*
D02*
G37*
G36*
X36146D02*
X36260Y-91687D01*
X36375Y-91704D01*
X36478Y-91728D01*
X36572Y-91757D01*
X36662Y-91790D01*
X36740Y-91823D01*
X36814Y-91860D01*
X36880Y-91896D01*
X36933Y-91929D01*
X36982Y-91962D01*
X37023Y-91991D01*
X37052Y-92011D01*
X37076Y-92032D01*
X37089Y-92044D01*
X37093Y-92048D01*
X37162Y-92122D01*
X37220Y-92200D01*
X37273Y-92286D01*
X37314Y-92368D01*
X37351Y-92458D01*
X37384Y-92544D01*
X37408Y-92626D01*
X37429Y-92708D01*
X37445Y-92786D01*
X37458Y-92860D01*
X37466Y-92926D01*
X37470Y-92979D01*
X37474Y-93024D01*
X37478Y-93061D01*
Y-93081D01*
Y-93090D01*
X37474Y-93208D01*
X37462Y-93323D01*
X37441Y-93430D01*
X37417Y-93528D01*
X37388Y-93619D01*
X37359Y-93705D01*
X37322Y-93783D01*
X37285Y-93852D01*
X37253Y-93914D01*
X37216Y-93967D01*
X37187Y-94016D01*
X37154Y-94053D01*
X37134Y-94082D01*
X37113Y-94106D01*
X37101Y-94119D01*
X37097Y-94123D01*
X37023Y-94188D01*
X36941Y-94246D01*
X36855Y-94299D01*
X36769Y-94340D01*
X36679Y-94377D01*
X36588Y-94410D01*
X36498Y-94434D01*
X36416Y-94451D01*
X36334Y-94467D01*
X36260Y-94480D01*
X36191Y-94488D01*
X36133Y-94496D01*
X36084D01*
X36047Y-94500D01*
X36018D01*
X35891Y-94496D01*
X35772Y-94484D01*
X35662Y-94463D01*
X35559Y-94443D01*
X35461Y-94414D01*
X35375Y-94381D01*
X35293Y-94348D01*
X35223Y-94311D01*
X35157Y-94274D01*
X35100Y-94242D01*
X35055Y-94209D01*
X35014Y-94180D01*
X34985Y-94156D01*
X34961Y-94139D01*
X34948Y-94127D01*
X34944Y-94123D01*
X34875Y-94049D01*
X34817Y-93971D01*
X34764Y-93889D01*
X34723Y-93803D01*
X34686Y-93717D01*
X34653Y-93631D01*
X34629Y-93545D01*
X34608Y-93463D01*
X34592Y-93389D01*
X34579Y-93315D01*
X34571Y-93254D01*
X34563Y-93196D01*
Y-93151D01*
X34559Y-93118D01*
Y-93098D01*
Y-93090D01*
X34563Y-92971D01*
X34575Y-92856D01*
X34596Y-92749D01*
X34616Y-92651D01*
X34649Y-92557D01*
X34678Y-92475D01*
X34715Y-92397D01*
X34747Y-92323D01*
X34784Y-92261D01*
X34821Y-92208D01*
X34850Y-92159D01*
X34879Y-92122D01*
X34903Y-92093D01*
X34924Y-92069D01*
X34936Y-92056D01*
X34940Y-92052D01*
X35014Y-91987D01*
X35096Y-91925D01*
X35182Y-91876D01*
X35268Y-91831D01*
X35358Y-91794D01*
X35449Y-91765D01*
X35539Y-91741D01*
X35621Y-91720D01*
X35703Y-91704D01*
X35777Y-91691D01*
X35846Y-91683D01*
X35904Y-91675D01*
X35953D01*
X35986Y-91671D01*
X36018D01*
X36146Y-91675D01*
D02*
G37*
%LPC*%
G36*
X69920Y-59428D02*
X70641D01*
Y-59609D01*
X71002D01*
Y-59789D01*
X71362D01*
Y-59969D01*
X71543D01*
Y-60150D01*
X71903D01*
Y-60330D01*
X72264D01*
Y-60510D01*
X72624D01*
Y-60690D01*
X72805D01*
Y-60871D01*
X73165D01*
Y-61051D01*
X73526D01*
Y-61231D01*
X73887D01*
Y-61412D01*
X74067D01*
Y-61592D01*
X74427D01*
Y-61772D01*
X74788D01*
Y-61953D01*
X74968D01*
Y-62133D01*
X75149D01*
Y-62313D01*
Y-62493D01*
Y-62674D01*
Y-62854D01*
Y-63034D01*
Y-63215D01*
Y-63395D01*
Y-63575D01*
Y-63756D01*
Y-63936D01*
Y-64116D01*
Y-64296D01*
X74968D01*
Y-64116D01*
X74608D01*
Y-63936D01*
X74247D01*
Y-63756D01*
X74067D01*
Y-63575D01*
X73706D01*
Y-63395D01*
X73346D01*
Y-63215D01*
X72985D01*
Y-63034D01*
X72805D01*
Y-62854D01*
X72444D01*
Y-62674D01*
X72084D01*
Y-62493D01*
X71723D01*
Y-62313D01*
X71543D01*
Y-62133D01*
X71182D01*
Y-61953D01*
X70821D01*
Y-61772D01*
X70641D01*
Y-61592D01*
X70100D01*
Y-61772D01*
X69920D01*
Y-61953D01*
X69559D01*
Y-62133D01*
X69199D01*
Y-62313D01*
X68838D01*
Y-62493D01*
X68658D01*
Y-62674D01*
X68297D01*
Y-62854D01*
X67937D01*
Y-63034D01*
X67756D01*
Y-63215D01*
X67396D01*
Y-63395D01*
X67035D01*
Y-63575D01*
X66675D01*
Y-63756D01*
X66494D01*
Y-63936D01*
X66134D01*
Y-64116D01*
X65773D01*
Y-64296D01*
X65593D01*
Y-64116D01*
Y-63936D01*
Y-63756D01*
Y-63575D01*
Y-63395D01*
Y-63215D01*
Y-63034D01*
Y-62854D01*
Y-62674D01*
Y-62493D01*
Y-62313D01*
Y-62133D01*
Y-61953D01*
X65953D01*
Y-61772D01*
X66314D01*
Y-61592D01*
X66675D01*
Y-61412D01*
X66855D01*
Y-61231D01*
X67216D01*
Y-61051D01*
X67576D01*
Y-60871D01*
X67756D01*
Y-60690D01*
X68117D01*
Y-60510D01*
X68478D01*
Y-60330D01*
X68838D01*
Y-60150D01*
X69019D01*
Y-59969D01*
X69379D01*
Y-59789D01*
X69740D01*
Y-59609D01*
X69920D01*
Y-59428D01*
D02*
G37*
G36*
X70100Y-64296D02*
X70641D01*
Y-64477D01*
X71002D01*
Y-64657D01*
X71362D01*
Y-64837D01*
X71543D01*
Y-65018D01*
X71903D01*
Y-65198D01*
X72264D01*
Y-65378D01*
X72624D01*
Y-65558D01*
X72805D01*
Y-65739D01*
X73165D01*
Y-65919D01*
X73526D01*
Y-66099D01*
X73887D01*
Y-66280D01*
X74067D01*
Y-66460D01*
X74427D01*
Y-66640D01*
X74788D01*
Y-66821D01*
X75149D01*
Y-67001D01*
Y-67181D01*
Y-67361D01*
Y-67542D01*
Y-67722D01*
Y-67902D01*
Y-68083D01*
Y-68263D01*
Y-68443D01*
X74968D01*
Y-68624D01*
X74788D01*
Y-68804D01*
X74427D01*
Y-68984D01*
X74067D01*
Y-69165D01*
X73887D01*
Y-69345D01*
X73526D01*
Y-69525D01*
X73165D01*
Y-69705D01*
X72805D01*
Y-69886D01*
X72624D01*
Y-70066D01*
X72264D01*
Y-70246D01*
X71903D01*
Y-70427D01*
X71543D01*
Y-70607D01*
X71362D01*
Y-70787D01*
X71002D01*
Y-70968D01*
X70641D01*
Y-71148D01*
X70461D01*
Y-71328D01*
X70100D01*
Y-71508D01*
X69740D01*
Y-71689D01*
X69379D01*
Y-71869D01*
X69199D01*
Y-72049D01*
X69379D01*
Y-72230D01*
X69740D01*
Y-72410D01*
X70100D01*
Y-72590D01*
X70821D01*
Y-72410D01*
X71182D01*
Y-72230D01*
X71362D01*
Y-72049D01*
X71723D01*
Y-71869D01*
X72084D01*
Y-71689D01*
X72264D01*
Y-71508D01*
X72624D01*
Y-71328D01*
X72985D01*
Y-71148D01*
X73346D01*
Y-70968D01*
X73526D01*
Y-70787D01*
X73887D01*
Y-70607D01*
X74247D01*
Y-70427D01*
X74427D01*
Y-70246D01*
X74788D01*
Y-70066D01*
X75149D01*
Y-70246D01*
Y-70427D01*
Y-70607D01*
Y-70787D01*
Y-70968D01*
Y-71148D01*
Y-71328D01*
Y-71508D01*
Y-71689D01*
Y-71869D01*
Y-72049D01*
Y-72230D01*
Y-72410D01*
Y-72590D01*
X74968D01*
Y-72770D01*
X74608D01*
Y-72951D01*
X74427D01*
Y-73131D01*
X74067D01*
Y-73311D01*
X73706D01*
Y-73492D01*
X73526D01*
Y-73672D01*
X73165D01*
Y-73852D01*
X72805D01*
Y-74033D01*
X72444D01*
Y-74213D01*
X72264D01*
Y-74393D01*
X71903D01*
Y-74573D01*
X71543D01*
Y-74754D01*
X71362D01*
Y-74934D01*
X71002D01*
Y-75114D01*
X70641D01*
Y-75295D01*
X70281D01*
Y-75114D01*
X69920D01*
Y-74934D01*
X69559D01*
Y-74754D01*
X69199D01*
Y-74573D01*
X69019D01*
Y-74393D01*
X68658D01*
Y-74213D01*
X68297D01*
Y-74033D01*
X67937D01*
Y-73852D01*
X67756D01*
Y-73672D01*
X67396D01*
Y-73492D01*
X67035D01*
Y-73311D01*
X66675D01*
Y-73131D01*
X66494D01*
Y-72951D01*
X66134D01*
Y-72770D01*
X65773D01*
Y-72590D01*
X65593D01*
Y-72410D01*
Y-72230D01*
Y-72049D01*
Y-71869D01*
Y-71689D01*
Y-71508D01*
Y-71328D01*
Y-71148D01*
X65773D01*
Y-70968D01*
X65953D01*
Y-70787D01*
X66314D01*
Y-70607D01*
X66675D01*
Y-70427D01*
X67035D01*
Y-70246D01*
X67216D01*
Y-70066D01*
X67576D01*
Y-69886D01*
X67937D01*
Y-69705D01*
X68117D01*
Y-69525D01*
X68478D01*
Y-69345D01*
X68838D01*
Y-69165D01*
X69199D01*
Y-68984D01*
X69379D01*
Y-68804D01*
X69740D01*
Y-68624D01*
X70100D01*
Y-68443D01*
X70461D01*
Y-68263D01*
X70641D01*
Y-68083D01*
X71002D01*
Y-67902D01*
X71362D01*
Y-67722D01*
X71543D01*
Y-67542D01*
Y-67361D01*
X71182D01*
Y-67181D01*
X70821D01*
Y-67001D01*
X70461D01*
Y-66821D01*
X70281D01*
Y-67001D01*
X69920D01*
Y-67181D01*
X69740D01*
Y-67361D01*
X69379D01*
Y-67542D01*
X69019D01*
Y-67722D01*
X68658D01*
Y-67902D01*
X68478D01*
Y-68083D01*
X68117D01*
Y-68263D01*
X67756D01*
Y-68443D01*
X67576D01*
Y-68624D01*
X67216D01*
Y-68804D01*
X66855D01*
Y-68984D01*
X66494D01*
Y-69165D01*
X66314D01*
Y-69345D01*
X65953D01*
Y-69525D01*
X65593D01*
Y-69345D01*
Y-69165D01*
Y-68984D01*
Y-68804D01*
Y-68624D01*
Y-68443D01*
Y-68263D01*
Y-68083D01*
Y-67902D01*
Y-67722D01*
Y-67542D01*
Y-67361D01*
Y-67181D01*
Y-67001D01*
X65773D01*
Y-66821D01*
X66134D01*
Y-66640D01*
X66314D01*
Y-66460D01*
X66675D01*
Y-66280D01*
X67035D01*
Y-66099D01*
X67396D01*
Y-65919D01*
X67576D01*
Y-65739D01*
X67937D01*
Y-65558D01*
X68297D01*
Y-65378D01*
X68478D01*
Y-65198D01*
X68838D01*
Y-65018D01*
X69199D01*
Y-64837D01*
X69559D01*
Y-64657D01*
X69740D01*
Y-64477D01*
X70100D01*
Y-64296D01*
D02*
G37*
G36*
X63069Y-68443D02*
X63249D01*
Y-68624D01*
Y-68804D01*
Y-68984D01*
Y-69165D01*
Y-69345D01*
Y-69525D01*
Y-69705D01*
Y-69886D01*
Y-70066D01*
Y-70246D01*
Y-70427D01*
Y-70607D01*
Y-70787D01*
Y-70968D01*
Y-71148D01*
Y-71328D01*
Y-71508D01*
Y-71689D01*
Y-71869D01*
Y-72049D01*
Y-72230D01*
Y-72410D01*
Y-72590D01*
Y-72770D01*
Y-72951D01*
Y-73131D01*
Y-73311D01*
Y-73492D01*
Y-73672D01*
Y-73852D01*
Y-74033D01*
X63609D01*
Y-74213D01*
X63790D01*
Y-74393D01*
X64150D01*
Y-74573D01*
X64511D01*
Y-74754D01*
X64691D01*
Y-74934D01*
X65052D01*
Y-75114D01*
X65412D01*
Y-75295D01*
X65773D01*
Y-75475D01*
X66134D01*
Y-75655D01*
X66314D01*
Y-75836D01*
X66675D01*
Y-76016D01*
X67035D01*
Y-76196D01*
X67396D01*
Y-76376D01*
X67576D01*
Y-76557D01*
X67937D01*
Y-76737D01*
X67756D01*
Y-76917D01*
X67396D01*
Y-77098D01*
X67035D01*
Y-77278D01*
X66855D01*
Y-77458D01*
X66494D01*
Y-77639D01*
X66134D01*
Y-77819D01*
X65412D01*
Y-77639D01*
X65232D01*
Y-77458D01*
X64872D01*
Y-77278D01*
X64511D01*
Y-77098D01*
X64150D01*
Y-76917D01*
X63970D01*
Y-76737D01*
X63609D01*
Y-76557D01*
X63249D01*
Y-76376D01*
X62888D01*
Y-76196D01*
X62708D01*
Y-76016D01*
X62348D01*
Y-75836D01*
X61987D01*
Y-75655D01*
X61626D01*
Y-75475D01*
X61446D01*
Y-75295D01*
X61085D01*
Y-75114D01*
Y-74934D01*
Y-74754D01*
Y-74573D01*
Y-74393D01*
Y-74213D01*
Y-74033D01*
Y-73852D01*
Y-73672D01*
Y-73492D01*
Y-73311D01*
Y-73131D01*
Y-72951D01*
Y-72770D01*
Y-72590D01*
Y-72410D01*
Y-72230D01*
Y-72049D01*
Y-71869D01*
Y-71689D01*
Y-71508D01*
Y-71328D01*
Y-71148D01*
Y-70968D01*
Y-70787D01*
Y-70607D01*
Y-70427D01*
Y-70246D01*
Y-70066D01*
Y-69886D01*
Y-69705D01*
X61266D01*
Y-69525D01*
X61446D01*
Y-69345D01*
X61807D01*
Y-69165D01*
X62167D01*
Y-68984D01*
X62528D01*
Y-68804D01*
X62708D01*
Y-68624D01*
X63069D01*
Y-68443D01*
D02*
G37*
G36*
X77492D02*
X77673D01*
Y-68624D01*
X78033D01*
Y-68804D01*
X78394D01*
Y-68984D01*
X78574D01*
Y-69165D01*
X78935D01*
Y-69345D01*
X79295D01*
Y-69525D01*
X79656D01*
Y-69705D01*
Y-69886D01*
Y-70066D01*
Y-70246D01*
Y-70427D01*
Y-70607D01*
Y-70787D01*
Y-70968D01*
Y-71148D01*
Y-71328D01*
Y-71508D01*
Y-71689D01*
Y-71869D01*
Y-72049D01*
Y-72230D01*
Y-72410D01*
Y-72590D01*
Y-72770D01*
Y-72951D01*
Y-73131D01*
Y-73311D01*
Y-73492D01*
Y-73672D01*
Y-73852D01*
Y-74033D01*
Y-74213D01*
Y-74393D01*
Y-74573D01*
Y-74754D01*
Y-74934D01*
Y-75114D01*
Y-75295D01*
X79295D01*
Y-75475D01*
X78935D01*
Y-75655D01*
X78755D01*
Y-75836D01*
X78394D01*
Y-76016D01*
X78033D01*
Y-76196D01*
X77853D01*
Y-76376D01*
X77492D01*
Y-76557D01*
X77132D01*
Y-76737D01*
X76771D01*
Y-76917D01*
X76591D01*
Y-77098D01*
X76230D01*
Y-77278D01*
X75870D01*
Y-77458D01*
X75509D01*
Y-77639D01*
X75329D01*
Y-77819D01*
X74608D01*
Y-77639D01*
X74247D01*
Y-77458D01*
X74067D01*
Y-77278D01*
X73706D01*
Y-77098D01*
X73346D01*
Y-76917D01*
X72985D01*
Y-76737D01*
X72805D01*
Y-76557D01*
X73165D01*
Y-76376D01*
X73346D01*
Y-76196D01*
X73706D01*
Y-76016D01*
X74067D01*
Y-75836D01*
X74427D01*
Y-75655D01*
X74608D01*
Y-75475D01*
X74968D01*
Y-75295D01*
X75329D01*
Y-75114D01*
X75690D01*
Y-74934D01*
X75870D01*
Y-74754D01*
X76230D01*
Y-74573D01*
X76591D01*
Y-74393D01*
X76952D01*
Y-74213D01*
X77132D01*
Y-74033D01*
X77492D01*
Y-73852D01*
Y-73672D01*
Y-73492D01*
Y-73311D01*
Y-73131D01*
Y-72951D01*
Y-72770D01*
Y-72590D01*
Y-72410D01*
Y-72230D01*
Y-72049D01*
Y-71869D01*
Y-71689D01*
Y-71508D01*
Y-71328D01*
Y-71148D01*
Y-70968D01*
Y-70787D01*
Y-70607D01*
Y-70427D01*
Y-70246D01*
Y-70066D01*
Y-69886D01*
Y-69705D01*
Y-69525D01*
Y-69345D01*
Y-69165D01*
Y-68984D01*
Y-68804D01*
Y-68624D01*
Y-68443D01*
D02*
G37*
G36*
X60651Y-85704D02*
X60610D01*
X60516Y-85708D01*
X60438Y-85725D01*
X60368Y-85745D01*
X60315Y-85770D01*
X60274Y-85798D01*
X60245Y-85819D01*
X60225Y-85835D01*
X60221Y-85839D01*
X60180Y-85897D01*
X60147Y-85958D01*
X60122Y-86024D01*
X60106Y-86089D01*
X60094Y-86151D01*
X60090Y-86196D01*
X60085Y-86216D01*
Y-86229D01*
Y-86237D01*
Y-86241D01*
X61193D01*
X61180Y-86143D01*
X61156Y-86061D01*
X61127Y-85991D01*
X61098Y-85934D01*
X61065Y-85888D01*
X61041Y-85860D01*
X61024Y-85839D01*
X61016Y-85835D01*
X60955Y-85790D01*
X60885Y-85757D01*
X60819Y-85737D01*
X60754Y-85720D01*
X60696Y-85712D01*
X60651Y-85704D01*
D02*
G37*
G36*
X64936Y-85044D02*
X64608D01*
X64518Y-85048D01*
X64440Y-85052D01*
X64378Y-85056D01*
X64333Y-85064D01*
X64300Y-85069D01*
X64280Y-85073D01*
X64272D01*
X64165Y-85097D01*
X64116Y-85114D01*
X64071Y-85126D01*
X64038Y-85142D01*
X64009Y-85150D01*
X63989Y-85159D01*
X63985Y-85163D01*
X63890Y-85220D01*
X63804Y-85282D01*
X63739Y-85347D01*
X63681Y-85409D01*
X63636Y-85466D01*
X63607Y-85511D01*
X63595Y-85528D01*
X63587Y-85540D01*
X63583Y-85548D01*
Y-85552D01*
X63542Y-85647D01*
X63509Y-85749D01*
X63489Y-85848D01*
X63472Y-85942D01*
X63468Y-85983D01*
X63464Y-86024D01*
X63460Y-86057D01*
X63456Y-86089D01*
Y-86114D01*
Y-86130D01*
Y-86143D01*
Y-86147D01*
X63460Y-86274D01*
X63472Y-86385D01*
X63493Y-86487D01*
X63513Y-86569D01*
X63525Y-86606D01*
X63538Y-86639D01*
X63546Y-86668D01*
X63554Y-86692D01*
X63562Y-86708D01*
X63570Y-86721D01*
X63575Y-86729D01*
Y-86733D01*
X63624Y-86819D01*
X63681Y-86893D01*
X63739Y-86959D01*
X63800Y-87012D01*
X63853Y-87057D01*
X63898Y-87090D01*
X63915Y-87098D01*
X63927Y-87106D01*
X63935Y-87114D01*
X63939D01*
X63993Y-87143D01*
X64046Y-87164D01*
X64095Y-87184D01*
X64140Y-87196D01*
X64177Y-87209D01*
X64210Y-87217D01*
X64227Y-87221D01*
X64235D01*
X64300Y-87229D01*
X64374Y-87237D01*
X64452Y-87242D01*
X64530Y-87246D01*
X64600Y-87250D01*
X64936D01*
Y-85044D01*
D02*
G37*
G36*
X77289Y-84962D02*
X77260D01*
X77207Y-84966D01*
X77162Y-84974D01*
X77117Y-84987D01*
X77076Y-85003D01*
X77002Y-85048D01*
X76945Y-85097D01*
X76900Y-85150D01*
X76871Y-85192D01*
X76859Y-85212D01*
X76850Y-85224D01*
X76846Y-85233D01*
Y-85237D01*
X76826Y-85290D01*
X76805Y-85351D01*
X76789Y-85421D01*
X76772Y-85495D01*
X76752Y-85647D01*
X76736Y-85794D01*
X76731Y-85868D01*
X76727Y-85934D01*
X76723Y-85995D01*
X76719Y-86044D01*
Y-86089D01*
Y-86122D01*
Y-86143D01*
Y-86151D01*
Y-86266D01*
X76723Y-86372D01*
X76731Y-86471D01*
X76740Y-86561D01*
X76748Y-86643D01*
X76760Y-86721D01*
X76772Y-86786D01*
X76785Y-86848D01*
X76797Y-86897D01*
X76809Y-86942D01*
X76822Y-86979D01*
X76830Y-87012D01*
X76838Y-87037D01*
X76846Y-87053D01*
X76850Y-87061D01*
Y-87065D01*
X76875Y-87114D01*
X76904Y-87155D01*
X76937Y-87192D01*
X76969Y-87225D01*
X77002Y-87250D01*
X77035Y-87274D01*
X77105Y-87307D01*
X77166Y-87323D01*
X77215Y-87336D01*
X77232Y-87340D01*
X77260D01*
X77314Y-87336D01*
X77359Y-87328D01*
X77404Y-87315D01*
X77445Y-87295D01*
X77519Y-87254D01*
X77576Y-87200D01*
X77617Y-87151D01*
X77650Y-87106D01*
X77662Y-87090D01*
X77666Y-87077D01*
X77675Y-87069D01*
Y-87065D01*
X77695Y-87008D01*
X77715Y-86946D01*
X77732Y-86877D01*
X77748Y-86807D01*
X77769Y-86655D01*
X77785Y-86503D01*
X77789Y-86434D01*
X77793Y-86368D01*
X77798Y-86311D01*
Y-86257D01*
X77802Y-86216D01*
Y-86184D01*
Y-86163D01*
Y-86155D01*
Y-86036D01*
X77798Y-85930D01*
X77789Y-85831D01*
X77781Y-85737D01*
X77773Y-85655D01*
X77761Y-85581D01*
X77752Y-85511D01*
X77740Y-85454D01*
X77728Y-85401D01*
X77715Y-85356D01*
X77707Y-85319D01*
X77699Y-85290D01*
X77691Y-85265D01*
X77683Y-85249D01*
X77679Y-85241D01*
Y-85237D01*
X77654Y-85187D01*
X77625Y-85146D01*
X77592Y-85110D01*
X77560Y-85077D01*
X77527Y-85052D01*
X77490Y-85027D01*
X77420Y-84995D01*
X77359Y-84978D01*
X77330Y-84970D01*
X77310Y-84966D01*
X77289Y-84962D01*
D02*
G37*
G36*
X70385D02*
X70356D01*
X70303Y-84966D01*
X70258Y-84974D01*
X70213Y-84987D01*
X70171Y-85003D01*
X70098Y-85048D01*
X70040Y-85097D01*
X69995Y-85150D01*
X69967Y-85192D01*
X69954Y-85212D01*
X69946Y-85224D01*
X69942Y-85233D01*
Y-85237D01*
X69921Y-85290D01*
X69901Y-85351D01*
X69885Y-85421D01*
X69868Y-85495D01*
X69848Y-85647D01*
X69831Y-85794D01*
X69827Y-85868D01*
X69823Y-85934D01*
X69819Y-85995D01*
X69815Y-86044D01*
Y-86089D01*
Y-86122D01*
Y-86143D01*
Y-86151D01*
Y-86266D01*
X69819Y-86372D01*
X69827Y-86471D01*
X69835Y-86561D01*
X69844Y-86643D01*
X69856Y-86721D01*
X69868Y-86786D01*
X69880Y-86848D01*
X69893Y-86897D01*
X69905Y-86942D01*
X69917Y-86979D01*
X69925Y-87012D01*
X69934Y-87037D01*
X69942Y-87053D01*
X69946Y-87061D01*
Y-87065D01*
X69971Y-87114D01*
X69999Y-87155D01*
X70032Y-87192D01*
X70065Y-87225D01*
X70098Y-87250D01*
X70130Y-87274D01*
X70200Y-87307D01*
X70262Y-87323D01*
X70311Y-87336D01*
X70327Y-87340D01*
X70356D01*
X70409Y-87336D01*
X70454Y-87328D01*
X70499Y-87315D01*
X70540Y-87295D01*
X70614Y-87254D01*
X70672Y-87200D01*
X70713Y-87151D01*
X70745Y-87106D01*
X70758Y-87090D01*
X70762Y-87077D01*
X70770Y-87069D01*
Y-87065D01*
X70791Y-87008D01*
X70811Y-86946D01*
X70828Y-86877D01*
X70844Y-86807D01*
X70864Y-86655D01*
X70881Y-86503D01*
X70885Y-86434D01*
X70889Y-86368D01*
X70893Y-86311D01*
Y-86257D01*
X70897Y-86216D01*
Y-86184D01*
Y-86163D01*
Y-86155D01*
Y-86036D01*
X70893Y-85930D01*
X70885Y-85831D01*
X70877Y-85737D01*
X70868Y-85655D01*
X70856Y-85581D01*
X70848Y-85511D01*
X70836Y-85454D01*
X70823Y-85401D01*
X70811Y-85356D01*
X70803Y-85319D01*
X70795Y-85290D01*
X70786Y-85265D01*
X70778Y-85249D01*
X70774Y-85241D01*
Y-85237D01*
X70750Y-85187D01*
X70721Y-85146D01*
X70688Y-85110D01*
X70655Y-85077D01*
X70622Y-85052D01*
X70586Y-85027D01*
X70516Y-84995D01*
X70454Y-84978D01*
X70426Y-84970D01*
X70405Y-84966D01*
X70385Y-84962D01*
D02*
G37*
G36*
X76797Y-93168D02*
X76789D01*
Y-93721D01*
X76867Y-93778D01*
X76908Y-93803D01*
X76945Y-93823D01*
X76977Y-93840D01*
X77002Y-93852D01*
X77018Y-93856D01*
X77023Y-93860D01*
X77072Y-93877D01*
X77117Y-93889D01*
X77162Y-93897D01*
X77199Y-93901D01*
X77232Y-93906D01*
X77260Y-93910D01*
X77338D01*
X77383Y-93906D01*
X77424Y-93901D01*
X77461Y-93897D01*
X77486D01*
X77502Y-93893D01*
X77515Y-93889D01*
X77519D01*
X77568Y-93869D01*
X77609Y-93848D01*
X77625Y-93836D01*
X77638Y-93828D01*
X77642Y-93819D01*
X77646D01*
X77666Y-93799D01*
X77683Y-93783D01*
X77703Y-93750D01*
X77711Y-93729D01*
X77715Y-93725D01*
Y-93721D01*
X77724Y-93676D01*
X77728Y-93635D01*
Y-93614D01*
Y-93598D01*
Y-93590D01*
Y-93586D01*
X77724Y-93541D01*
X77715Y-93500D01*
X77707Y-93467D01*
X77695Y-93438D01*
X77683Y-93414D01*
X77670Y-93397D01*
X77666Y-93389D01*
X77662Y-93385D01*
X77634Y-93356D01*
X77605Y-93331D01*
X77539Y-93295D01*
X77515Y-93282D01*
X77490Y-93274D01*
X77474Y-93266D01*
X77469D01*
X77424Y-93254D01*
X77375Y-93241D01*
X77326Y-93233D01*
X77277Y-93225D01*
X77232Y-93217D01*
X77195Y-93213D01*
X77170Y-93208D01*
X77162D01*
X77088Y-93200D01*
X77018Y-93192D01*
X76957Y-93184D01*
X76900Y-93180D01*
X76854Y-93176D01*
X76818Y-93172D01*
X76797Y-93168D01*
D02*
G37*
G36*
X70668D02*
X70659D01*
Y-93721D01*
X70737Y-93778D01*
X70778Y-93803D01*
X70815Y-93823D01*
X70848Y-93840D01*
X70873Y-93852D01*
X70889Y-93856D01*
X70893Y-93860D01*
X70942Y-93877D01*
X70987Y-93889D01*
X71033Y-93897D01*
X71069Y-93901D01*
X71102Y-93906D01*
X71131Y-93910D01*
X71209D01*
X71254Y-93906D01*
X71295Y-93901D01*
X71332Y-93897D01*
X71356D01*
X71373Y-93893D01*
X71385Y-93889D01*
X71389D01*
X71438Y-93869D01*
X71479Y-93848D01*
X71496Y-93836D01*
X71508Y-93828D01*
X71512Y-93819D01*
X71516D01*
X71537Y-93799D01*
X71553Y-93783D01*
X71574Y-93750D01*
X71582Y-93729D01*
X71586Y-93725D01*
Y-93721D01*
X71594Y-93676D01*
X71598Y-93635D01*
Y-93614D01*
Y-93598D01*
Y-93590D01*
Y-93586D01*
X71594Y-93541D01*
X71586Y-93500D01*
X71578Y-93467D01*
X71566Y-93438D01*
X71553Y-93414D01*
X71541Y-93397D01*
X71537Y-93389D01*
X71533Y-93385D01*
X71504Y-93356D01*
X71475Y-93331D01*
X71410Y-93295D01*
X71385Y-93282D01*
X71360Y-93274D01*
X71344Y-93266D01*
X71340D01*
X71295Y-93254D01*
X71246Y-93241D01*
X71197Y-93233D01*
X71147Y-93225D01*
X71102Y-93217D01*
X71065Y-93213D01*
X71041Y-93208D01*
X71033D01*
X70959Y-93200D01*
X70889Y-93192D01*
X70828Y-93184D01*
X70770Y-93180D01*
X70725Y-93176D01*
X70688Y-93172D01*
X70668Y-93168D01*
D02*
G37*
G36*
X63673D02*
X63665D01*
Y-93721D01*
X63743Y-93778D01*
X63784Y-93803D01*
X63821Y-93823D01*
X63853Y-93840D01*
X63878Y-93852D01*
X63894Y-93856D01*
X63898Y-93860D01*
X63948Y-93877D01*
X63993Y-93889D01*
X64038Y-93897D01*
X64075Y-93901D01*
X64108Y-93906D01*
X64136Y-93910D01*
X64214D01*
X64259Y-93906D01*
X64300Y-93901D01*
X64337Y-93897D01*
X64362D01*
X64378Y-93893D01*
X64390Y-93889D01*
X64395D01*
X64444Y-93869D01*
X64485Y-93848D01*
X64501Y-93836D01*
X64513Y-93828D01*
X64518Y-93819D01*
X64522D01*
X64542Y-93799D01*
X64559Y-93783D01*
X64579Y-93750D01*
X64587Y-93729D01*
X64591Y-93725D01*
Y-93721D01*
X64600Y-93676D01*
X64604Y-93635D01*
Y-93614D01*
Y-93598D01*
Y-93590D01*
Y-93586D01*
X64600Y-93541D01*
X64591Y-93500D01*
X64583Y-93467D01*
X64571Y-93438D01*
X64559Y-93414D01*
X64546Y-93397D01*
X64542Y-93389D01*
X64538Y-93385D01*
X64509Y-93356D01*
X64481Y-93331D01*
X64415Y-93295D01*
X64390Y-93282D01*
X64366Y-93274D01*
X64350Y-93266D01*
X64345D01*
X64300Y-93254D01*
X64251Y-93241D01*
X64202Y-93233D01*
X64153Y-93225D01*
X64108Y-93217D01*
X64071Y-93213D01*
X64046Y-93208D01*
X64038D01*
X63964Y-93200D01*
X63894Y-93192D01*
X63833Y-93184D01*
X63775Y-93180D01*
X63730Y-93176D01*
X63693Y-93172D01*
X63673Y-93168D01*
D02*
G37*
G36*
X58011D02*
X58003D01*
Y-93721D01*
X58081Y-93778D01*
X58122Y-93803D01*
X58158Y-93823D01*
X58191Y-93840D01*
X58216Y-93852D01*
X58232Y-93856D01*
X58236Y-93860D01*
X58286Y-93877D01*
X58331Y-93889D01*
X58376Y-93897D01*
X58413Y-93901D01*
X58446Y-93906D01*
X58474Y-93910D01*
X58552D01*
X58597Y-93906D01*
X58638Y-93901D01*
X58675Y-93897D01*
X58700D01*
X58716Y-93893D01*
X58728Y-93889D01*
X58732D01*
X58782Y-93869D01*
X58823Y-93848D01*
X58839Y-93836D01*
X58851Y-93828D01*
X58855Y-93819D01*
X58860D01*
X58880Y-93799D01*
X58896Y-93783D01*
X58917Y-93750D01*
X58925Y-93729D01*
X58929Y-93725D01*
Y-93721D01*
X58938Y-93676D01*
X58942Y-93635D01*
Y-93614D01*
Y-93598D01*
Y-93590D01*
Y-93586D01*
X58938Y-93541D01*
X58929Y-93500D01*
X58921Y-93467D01*
X58909Y-93438D01*
X58896Y-93414D01*
X58884Y-93397D01*
X58880Y-93389D01*
X58876Y-93385D01*
X58847Y-93356D01*
X58819Y-93331D01*
X58753Y-93295D01*
X58728Y-93282D01*
X58704Y-93274D01*
X58687Y-93266D01*
X58683D01*
X58638Y-93254D01*
X58589Y-93241D01*
X58540Y-93233D01*
X58491Y-93225D01*
X58446Y-93217D01*
X58409Y-93213D01*
X58384Y-93208D01*
X58376D01*
X58302Y-93200D01*
X58232Y-93192D01*
X58171Y-93184D01*
X58113Y-93180D01*
X58068Y-93176D01*
X58031Y-93172D01*
X58011Y-93168D01*
D02*
G37*
G36*
X51689Y-92265D02*
X51644D01*
X51557Y-92274D01*
X51516Y-92278D01*
X51484Y-92286D01*
X51455Y-92294D01*
X51430Y-92298D01*
X51418Y-92307D01*
X51414D01*
X51377Y-92323D01*
X51340Y-92343D01*
X51311Y-92368D01*
X51283Y-92393D01*
X51262Y-92413D01*
X51246Y-92430D01*
X51238Y-92442D01*
X51234Y-92446D01*
X51205Y-92483D01*
X51180Y-92524D01*
X51160Y-92569D01*
X51143Y-92610D01*
X51131Y-92643D01*
X51123Y-92676D01*
X51115Y-92692D01*
Y-92700D01*
X51098Y-92762D01*
X51090Y-92827D01*
X51082Y-92893D01*
X51074Y-92958D01*
Y-93012D01*
X51070Y-93053D01*
Y-93069D01*
Y-93081D01*
Y-93090D01*
Y-93094D01*
Y-93184D01*
X51078Y-93262D01*
X51082Y-93331D01*
X51090Y-93389D01*
X51098Y-93434D01*
X51107Y-93467D01*
X51111Y-93483D01*
X51115Y-93491D01*
X51131Y-93545D01*
X51152Y-93590D01*
X51172Y-93631D01*
X51193Y-93668D01*
X51209Y-93696D01*
X51225Y-93721D01*
X51234Y-93733D01*
X51238Y-93737D01*
X51266Y-93770D01*
X51295Y-93795D01*
X51328Y-93819D01*
X51357Y-93836D01*
X51381Y-93852D01*
X51402Y-93860D01*
X51414Y-93865D01*
X51418Y-93869D01*
X51496Y-93889D01*
X51533Y-93897D01*
X51566Y-93901D01*
X51594D01*
X51619Y-93906D01*
X51689D01*
X51734Y-93897D01*
X51775Y-93893D01*
X51812Y-93885D01*
X51840Y-93877D01*
X51861Y-93873D01*
X51877Y-93865D01*
X51881D01*
X51918Y-93848D01*
X51951Y-93828D01*
X51984Y-93803D01*
X52008Y-93783D01*
X52033Y-93762D01*
X52049Y-93746D01*
X52058Y-93733D01*
X52062Y-93729D01*
X52091Y-93688D01*
X52115Y-93647D01*
X52131Y-93602D01*
X52152Y-93561D01*
X52164Y-93528D01*
X52172Y-93496D01*
X52181Y-93479D01*
Y-93471D01*
X52193Y-93409D01*
X52201Y-93344D01*
X52209Y-93282D01*
X52214Y-93221D01*
Y-93172D01*
X52218Y-93131D01*
Y-93114D01*
Y-93102D01*
Y-93098D01*
Y-93094D01*
X52214Y-93003D01*
X52209Y-92926D01*
X52201Y-92856D01*
X52193Y-92799D01*
X52185Y-92749D01*
X52181Y-92716D01*
X52172Y-92696D01*
Y-92688D01*
X52156Y-92630D01*
X52136Y-92581D01*
X52115Y-92536D01*
X52095Y-92499D01*
X52078Y-92471D01*
X52062Y-92450D01*
X52054Y-92438D01*
X52049Y-92434D01*
X52017Y-92401D01*
X51984Y-92372D01*
X51951Y-92348D01*
X51922Y-92331D01*
X51898Y-92319D01*
X51881Y-92311D01*
X51869Y-92302D01*
X51865D01*
X51791Y-92282D01*
X51754Y-92274D01*
X51717Y-92270D01*
X51689Y-92265D01*
D02*
G37*
G36*
X36064D02*
X36018D01*
X35932Y-92274D01*
X35891Y-92278D01*
X35859Y-92286D01*
X35830Y-92294D01*
X35805Y-92298D01*
X35793Y-92307D01*
X35789D01*
X35752Y-92323D01*
X35715Y-92343D01*
X35686Y-92368D01*
X35658Y-92393D01*
X35637Y-92413D01*
X35621Y-92430D01*
X35613Y-92442D01*
X35609Y-92446D01*
X35580Y-92483D01*
X35555Y-92524D01*
X35535Y-92569D01*
X35518Y-92610D01*
X35506Y-92643D01*
X35498Y-92676D01*
X35490Y-92692D01*
Y-92700D01*
X35473Y-92762D01*
X35465Y-92827D01*
X35457Y-92893D01*
X35449Y-92958D01*
Y-93012D01*
X35445Y-93053D01*
Y-93069D01*
Y-93081D01*
Y-93090D01*
Y-93094D01*
Y-93184D01*
X35453Y-93262D01*
X35457Y-93331D01*
X35465Y-93389D01*
X35473Y-93434D01*
X35481Y-93467D01*
X35486Y-93483D01*
X35490Y-93491D01*
X35506Y-93545D01*
X35526Y-93590D01*
X35547Y-93631D01*
X35568Y-93668D01*
X35584Y-93696D01*
X35600Y-93721D01*
X35609Y-93733D01*
X35613Y-93737D01*
X35641Y-93770D01*
X35670Y-93795D01*
X35703Y-93819D01*
X35732Y-93836D01*
X35756Y-93852D01*
X35777Y-93860D01*
X35789Y-93865D01*
X35793Y-93869D01*
X35871Y-93889D01*
X35908Y-93897D01*
X35941Y-93901D01*
X35969D01*
X35994Y-93906D01*
X36064D01*
X36109Y-93897D01*
X36150Y-93893D01*
X36187Y-93885D01*
X36215Y-93877D01*
X36236Y-93873D01*
X36252Y-93865D01*
X36256D01*
X36293Y-93848D01*
X36326Y-93828D01*
X36359Y-93803D01*
X36383Y-93783D01*
X36408Y-93762D01*
X36424Y-93746D01*
X36433Y-93733D01*
X36437Y-93729D01*
X36465Y-93688D01*
X36490Y-93647D01*
X36506Y-93602D01*
X36527Y-93561D01*
X36539Y-93528D01*
X36547Y-93496D01*
X36556Y-93479D01*
Y-93471D01*
X36568Y-93409D01*
X36576Y-93344D01*
X36584Y-93282D01*
X36588Y-93221D01*
Y-93172D01*
X36593Y-93131D01*
Y-93114D01*
Y-93102D01*
Y-93098D01*
Y-93094D01*
X36588Y-93003D01*
X36584Y-92926D01*
X36576Y-92856D01*
X36568Y-92799D01*
X36560Y-92749D01*
X36556Y-92716D01*
X36547Y-92696D01*
Y-92688D01*
X36531Y-92630D01*
X36511Y-92581D01*
X36490Y-92536D01*
X36470Y-92499D01*
X36453Y-92471D01*
X36437Y-92450D01*
X36428Y-92438D01*
X36424Y-92434D01*
X36392Y-92401D01*
X36359Y-92372D01*
X36326Y-92348D01*
X36297Y-92331D01*
X36273Y-92319D01*
X36256Y-92311D01*
X36244Y-92302D01*
X36240D01*
X36166Y-92282D01*
X36129Y-92274D01*
X36092Y-92270D01*
X36064Y-92265D01*
D02*
G37*
%LPD*%
D11*
X37405Y-36890D02*
G03*
X37405Y-36890I-492J0D01*
G01*
D13*
X22500Y-77667D02*
Y-58500D01*
Y-88500D02*
Y-58500D01*
X2500Y-88500D02*
Y-58500D01*
Y-88500D02*
X22500D01*
X2500Y-58500D02*
X22500D01*
X37898Y-44469D02*
Y-40532D01*
X50102Y-44469D02*
Y-40532D01*
X37898D02*
X50102D01*
X37898Y-44469D02*
X50102D01*
D14*
X26000Y-7500D02*
X32000D01*
X26000Y-13500D02*
X32000D01*
X66000Y-45000D02*
Y-39000D01*
X72000Y-45000D02*
Y-39000D01*
X11500Y-45000D02*
Y-39000D01*
X17500Y-45000D02*
Y-39000D01*
X26000Y-7500D02*
X32000D01*
X26000Y-1500D02*
X32000D01*
X26000Y-19500D02*
X32000D01*
X26000Y-13500D02*
X32000D01*
X63500Y-51000D02*
Y-45000D01*
X57500Y-51000D02*
Y-45000D01*
X52500Y-40500D02*
Y-34500D01*
X58500Y-40500D02*
Y-34500D01*
X63500Y-40500D02*
Y-34500D01*
X57500Y-40500D02*
Y-34500D01*
X58500Y-51000D02*
Y-45000D01*
X52500Y-51000D02*
Y-45000D01*
D16*
X7874Y-98425D02*
X78740D01*
D17*
X16500Y-91500D02*
Y-90451D01*
Y-90975D01*
X19649D01*
X19124Y-91500D01*
X6000Y-90401D02*
Y-92500D01*
X8099Y-90401D01*
X8624D01*
X9149Y-90926D01*
Y-91975D01*
X8624Y-92500D01*
X19649Y-54401D02*
Y-56500D01*
X18074D01*
X18599Y-55450D01*
Y-54926D01*
X18074Y-54401D01*
X17025D01*
X16500Y-54926D01*
Y-55975D01*
X17025Y-56500D01*
X9149Y-54401D02*
X8624Y-55450D01*
X7574Y-56500D01*
X6525D01*
X6000Y-55975D01*
Y-54926D01*
X6525Y-54401D01*
X7050D01*
X7574Y-54926D01*
Y-56500D01*
X15624Y-32401D02*
X16149Y-32926D01*
Y-33975D01*
X15624Y-34500D01*
X13525D01*
X13000Y-33975D01*
Y-32926D01*
X13525Y-32401D01*
X16149Y-29252D02*
Y-31351D01*
X14574D01*
X15099Y-30302D01*
Y-29777D01*
X14574Y-29252D01*
X13525D01*
X13000Y-29777D01*
Y-30827D01*
X13525Y-31351D01*
X70124Y-32901D02*
X70649Y-33426D01*
Y-34475D01*
X70124Y-35000D01*
X68025D01*
X67500Y-34475D01*
Y-33426D01*
X68025Y-32901D01*
X67500Y-31851D02*
Y-30802D01*
Y-31327D01*
X70649D01*
X70124Y-31851D01*
X21000Y-5000D02*
Y-1851D01*
X19426D01*
X18901Y-2376D01*
Y-3426D01*
X19426Y-3951D01*
X21000D01*
X19951D02*
X18901Y-5000D01*
X15752D02*
X17851D01*
X15752Y-2901D01*
Y-2376D01*
X16277Y-1851D01*
X17327D01*
X17851Y-2376D01*
X62624Y-17901D02*
X63149Y-18426D01*
Y-19475D01*
X62624Y-20000D01*
X60525D01*
X60000Y-19475D01*
Y-18426D01*
X60525Y-17901D01*
X63149Y-16851D02*
Y-14752D01*
X62624D01*
X60525Y-16851D01*
X60000D01*
X53000Y-20000D02*
X56149D01*
Y-18426D01*
X55624Y-17901D01*
X54574D01*
X54049Y-18426D01*
Y-20000D01*
Y-18950D02*
X53000Y-17901D01*
X53525Y-16851D02*
X53000Y-16327D01*
Y-15277D01*
X53525Y-14752D01*
X55624D01*
X56149Y-15277D01*
Y-16327D01*
X55624Y-16851D01*
X55099D01*
X54574Y-16327D01*
Y-14752D01*
X53000Y-30000D02*
X56149D01*
Y-28426D01*
X55624Y-27901D01*
X54574D01*
X54049Y-28426D01*
Y-30000D01*
Y-28951D02*
X53000Y-27901D01*
Y-26851D02*
Y-25802D01*
Y-26327D01*
X56149D01*
X55624Y-26851D01*
Y-24228D02*
X56149Y-23703D01*
Y-22653D01*
X55624Y-22129D01*
X53525D01*
X53000Y-22653D01*
Y-23703D01*
X53525Y-24228D01*
X55624D01*
X60000Y-30000D02*
X63149D01*
Y-28426D01*
X62624Y-27901D01*
X61574D01*
X61049Y-28426D01*
Y-30000D01*
Y-28951D02*
X60000Y-27901D01*
Y-26851D02*
Y-25802D01*
Y-26327D01*
X63149D01*
X62624Y-26851D01*
X60000Y-24228D02*
Y-23178D01*
Y-23703D01*
X63149D01*
X62624Y-24228D01*
X21000Y-19000D02*
Y-15851D01*
X19426D01*
X18901Y-16376D01*
Y-17426D01*
X19426Y-17951D01*
X21000D01*
X19951D02*
X18901Y-19000D01*
X17851Y-15851D02*
X15752D01*
Y-16376D01*
X17851Y-18475D01*
Y-19000D01*
X42500Y-29851D02*
Y-32475D01*
X41975Y-33000D01*
X40926D01*
X40401Y-32475D01*
Y-29851D01*
X37252Y-33000D02*
X39351D01*
X37252Y-30901D01*
Y-30376D01*
X37777Y-29851D01*
X38827D01*
X39351Y-30376D01*
X21000Y-12000D02*
Y-8851D01*
X19426D01*
X18901Y-9376D01*
Y-10426D01*
X19426Y-10950D01*
X21000D01*
X19951D02*
X18901Y-12000D01*
X17851Y-9376D02*
X17327Y-8851D01*
X16277D01*
X15752Y-9376D01*
Y-9901D01*
X16277Y-10426D01*
X16802D01*
X16277D01*
X15752Y-10950D01*
Y-11475D01*
X16277Y-12000D01*
X17327D01*
X17851Y-11475D01*
M02*
