M48
;Layer_Color=9474304
;FILE_FORMAT=2:5
INCH,LZ
;TYPE=PLATED
T1F00S00C0.01575
T2F00S00C0.03543
%
T01
X0011811Y-00935
X0028532Y-0074032
X0026705Y-0053858
X00355Y-0048
X00325Y-0044
X0033531Y-0030031
X0040291Y-0031291
X0048031Y-00285
X0048Y-0014
X00485Y-0007
X00385
X0027531Y-0024032
X00185Y-0034
X00445Y-0048
X0061032Y-0063532
X00575Y-00705
X0074803Y-00935
X0065405Y-0032157
X0060031Y-0025032
T02
X00075Y-00835
Y-00735
Y-00635
X00175
Y-00735
Y-00835
X00075Y-0045
Y-0035
Y-0025
Y-0015
X0079
Y-0025
Y-0035
Y-0045
M30
