G04*
G04 #@! TF.GenerationSoftware,Altium Limited,Altium Designer,21.0.8 (223)*
G04*
G04 Layer_Color=65535*
%FSLAX25Y25*%
%MOIN*%
G70*
G04*
G04 #@! TF.SameCoordinates,D91FEFE4-16E7-4BF4-AD38-342E90C75360*
G04*
G04*
G04 #@! TF.FilePolarity,Positive*
G04*
G01*
G75*
%ADD10C,0.02362*%
%ADD11C,0.00984*%
%ADD12C,0.01000*%
%ADD13C,0.00787*%
%ADD14C,0.00800*%
%ADD15C,0.00700*%
%ADD16C,0.01181*%
%ADD17C,0.00591*%
G36*
X53571Y-93376D02*
X52665D01*
Y-92728D01*
X53571D01*
Y-93376D01*
D02*
G37*
G36*
X18832Y-92826D02*
X18877D01*
X18922Y-92830D01*
X19025Y-92839D01*
X19144Y-92851D01*
X19267Y-92867D01*
X19394Y-92892D01*
X19398D01*
X19410Y-92896D01*
X19427Y-92900D01*
X19451Y-92904D01*
X19480Y-92908D01*
X19517Y-92917D01*
X19554Y-92929D01*
X19599Y-92937D01*
X19689Y-92962D01*
X19792Y-92990D01*
X19890Y-93023D01*
X19988Y-93060D01*
Y-93872D01*
X19886D01*
X19882Y-93864D01*
X19869Y-93856D01*
X19853Y-93843D01*
X19832Y-93831D01*
X19808Y-93814D01*
X19746Y-93774D01*
X19669Y-93728D01*
X19578Y-93683D01*
X19476Y-93634D01*
X19365Y-93589D01*
X19361D01*
X19353Y-93585D01*
X19336Y-93577D01*
X19312Y-93573D01*
X19283Y-93560D01*
X19250Y-93552D01*
X19213Y-93544D01*
X19172Y-93532D01*
X19074Y-93511D01*
X18967Y-93491D01*
X18853Y-93478D01*
X18734Y-93474D01*
X18664D01*
X18627Y-93478D01*
X18590Y-93482D01*
X18504Y-93491D01*
X18500D01*
X18484Y-93495D01*
X18463Y-93499D01*
X18434Y-93503D01*
X18402Y-93511D01*
X18369Y-93523D01*
X18291Y-93548D01*
X18287D01*
X18274Y-93556D01*
X18258Y-93564D01*
X18238Y-93577D01*
X18184Y-93609D01*
X18131Y-93659D01*
X18127Y-93663D01*
X18123Y-93671D01*
X18111Y-93687D01*
X18098Y-93704D01*
X18086Y-93728D01*
X18078Y-93757D01*
X18069Y-93790D01*
X18065Y-93823D01*
Y-93827D01*
Y-93847D01*
X18069Y-93872D01*
X18078Y-93901D01*
X18090Y-93937D01*
X18111Y-93970D01*
X18135Y-94007D01*
X18172Y-94036D01*
X18176Y-94040D01*
X18192Y-94048D01*
X18221Y-94060D01*
X18262Y-94081D01*
X18316Y-94102D01*
X18385Y-94122D01*
X18426Y-94134D01*
X18471Y-94147D01*
X18520Y-94159D01*
X18574Y-94171D01*
X18582D01*
X18607Y-94179D01*
X18643Y-94188D01*
X18693Y-94196D01*
X18750Y-94208D01*
X18812Y-94225D01*
X18947Y-94253D01*
X18955D01*
X18980Y-94261D01*
X19017Y-94270D01*
X19062Y-94278D01*
X19119Y-94294D01*
X19185Y-94311D01*
X19259Y-94331D01*
X19332Y-94356D01*
X19336D01*
X19349Y-94360D01*
X19369Y-94368D01*
X19398Y-94380D01*
X19431Y-94393D01*
X19472Y-94409D01*
X19558Y-94450D01*
X19656Y-94503D01*
X19755Y-94565D01*
X19849Y-94634D01*
X19894Y-94675D01*
X19931Y-94717D01*
X19935Y-94721D01*
X19939Y-94729D01*
X19947Y-94741D01*
X19964Y-94757D01*
X19976Y-94782D01*
X19992Y-94807D01*
X20013Y-94840D01*
X20029Y-94876D01*
X20050Y-94917D01*
X20066Y-94963D01*
X20099Y-95065D01*
X20120Y-95180D01*
X20124Y-95245D01*
X20128Y-95311D01*
Y-95315D01*
Y-95336D01*
X20124Y-95360D01*
X20120Y-95397D01*
X20115Y-95442D01*
X20103Y-95491D01*
X20091Y-95549D01*
X20074Y-95610D01*
X20050Y-95680D01*
X20021Y-95746D01*
X19984Y-95819D01*
X19939Y-95889D01*
X19890Y-95959D01*
X19832Y-96029D01*
X19763Y-96094D01*
X19685Y-96160D01*
X19681Y-96164D01*
X19664Y-96172D01*
X19640Y-96188D01*
X19603Y-96209D01*
X19558Y-96233D01*
X19504Y-96262D01*
X19443Y-96291D01*
X19369Y-96320D01*
X19287Y-96352D01*
X19197Y-96381D01*
X19099Y-96410D01*
X18988Y-96434D01*
X18873Y-96455D01*
X18750Y-96471D01*
X18619Y-96479D01*
X18480Y-96484D01*
X18406D01*
X18369Y-96479D01*
X18324D01*
X18274Y-96475D01*
X18221D01*
X18098Y-96467D01*
X17971Y-96451D01*
X17840Y-96434D01*
X17713Y-96410D01*
X17709D01*
X17700Y-96406D01*
X17680Y-96402D01*
X17660Y-96398D01*
X17631Y-96389D01*
X17594Y-96377D01*
X17557Y-96369D01*
X17516Y-96356D01*
X17422Y-96328D01*
X17319Y-96295D01*
X17213Y-96254D01*
X17106Y-96213D01*
Y-95364D01*
X17204D01*
X17209Y-95368D01*
X17217Y-95372D01*
X17233Y-95385D01*
X17254Y-95401D01*
X17282Y-95422D01*
X17311Y-95442D01*
X17348Y-95467D01*
X17389Y-95491D01*
X17483Y-95549D01*
X17590Y-95606D01*
X17709Y-95664D01*
X17836Y-95713D01*
X17840D01*
X17852Y-95717D01*
X17869Y-95725D01*
X17897Y-95729D01*
X17926Y-95741D01*
X17963Y-95750D01*
X18004Y-95762D01*
X18049Y-95770D01*
X18151Y-95795D01*
X18266Y-95811D01*
X18385Y-95828D01*
X18508Y-95832D01*
X18566D01*
X18598Y-95828D01*
X18635D01*
X18676Y-95824D01*
X18725Y-95819D01*
X18730D01*
X18750Y-95815D01*
X18775D01*
X18803Y-95807D01*
X18877Y-95795D01*
X18914Y-95783D01*
X18947Y-95770D01*
X18951D01*
X18963Y-95762D01*
X18984Y-95754D01*
X19008Y-95741D01*
X19066Y-95709D01*
X19119Y-95668D01*
X19123Y-95664D01*
X19131Y-95655D01*
X19140Y-95639D01*
X19156Y-95618D01*
X19168Y-95590D01*
X19176Y-95557D01*
X19185Y-95520D01*
X19189Y-95475D01*
Y-95471D01*
Y-95455D01*
X19185Y-95434D01*
X19176Y-95405D01*
X19164Y-95377D01*
X19144Y-95340D01*
X19119Y-95307D01*
X19086Y-95274D01*
X19082Y-95270D01*
X19070Y-95262D01*
X19045Y-95245D01*
X19013Y-95225D01*
X18971Y-95204D01*
X18922Y-95184D01*
X18865Y-95163D01*
X18799Y-95147D01*
X18795D01*
X18791Y-95143D01*
X18779D01*
X18767Y-95139D01*
X18725Y-95131D01*
X18672Y-95118D01*
X18611Y-95102D01*
X18537Y-95090D01*
X18459Y-95073D01*
X18377Y-95057D01*
X18369D01*
X18357Y-95053D01*
X18340Y-95049D01*
X18295Y-95040D01*
X18242Y-95028D01*
X18180Y-95012D01*
X18111Y-94995D01*
X17963Y-94950D01*
X17959D01*
X17942Y-94942D01*
X17922Y-94934D01*
X17889Y-94926D01*
X17852Y-94909D01*
X17811Y-94893D01*
X17766Y-94872D01*
X17717Y-94848D01*
X17610Y-94790D01*
X17504Y-94725D01*
X17405Y-94647D01*
X17360Y-94606D01*
X17319Y-94561D01*
Y-94557D01*
X17311Y-94548D01*
X17303Y-94536D01*
X17290Y-94516D01*
X17274Y-94491D01*
X17258Y-94462D01*
X17241Y-94429D01*
X17225Y-94389D01*
X17204Y-94348D01*
X17188Y-94298D01*
X17155Y-94196D01*
X17135Y-94073D01*
X17131Y-94007D01*
X17127Y-93942D01*
Y-93937D01*
Y-93921D01*
X17131Y-93892D01*
X17135Y-93860D01*
X17139Y-93819D01*
X17151Y-93769D01*
X17163Y-93716D01*
X17184Y-93655D01*
X17204Y-93593D01*
X17233Y-93528D01*
X17270Y-93462D01*
X17315Y-93396D01*
X17364Y-93327D01*
X17422Y-93261D01*
X17491Y-93199D01*
X17569Y-93138D01*
X17573Y-93134D01*
X17590Y-93126D01*
X17614Y-93109D01*
X17651Y-93089D01*
X17692Y-93064D01*
X17746Y-93040D01*
X17807Y-93011D01*
X17877Y-92978D01*
X17955Y-92949D01*
X18041Y-92921D01*
X18135Y-92896D01*
X18234Y-92871D01*
X18344Y-92851D01*
X18459Y-92835D01*
X18578Y-92826D01*
X18705Y-92822D01*
X18795D01*
X18832Y-92826D01*
D02*
G37*
G36*
X44564Y-93683D02*
X44601Y-93687D01*
X44642Y-93691D01*
X44691Y-93700D01*
X44740Y-93712D01*
X44847Y-93741D01*
X44904Y-93761D01*
X44961Y-93786D01*
X45015Y-93814D01*
X45068Y-93851D01*
X45117Y-93888D01*
X45166Y-93933D01*
X45171Y-93937D01*
X45179Y-93946D01*
X45191Y-93958D01*
X45203Y-93979D01*
X45224Y-94007D01*
X45244Y-94040D01*
X45265Y-94077D01*
X45289Y-94122D01*
X45314Y-94171D01*
X45335Y-94225D01*
X45355Y-94286D01*
X45375Y-94356D01*
X45388Y-94429D01*
X45400Y-94507D01*
X45408Y-94594D01*
X45412Y-94684D01*
Y-96418D01*
X44556D01*
Y-95098D01*
Y-95090D01*
Y-95069D01*
Y-95036D01*
X44551Y-94995D01*
Y-94946D01*
X44547Y-94893D01*
X44535Y-94774D01*
Y-94766D01*
X44531Y-94749D01*
X44527Y-94721D01*
X44523Y-94684D01*
X44506Y-94606D01*
X44494Y-94573D01*
X44482Y-94540D01*
X44478Y-94536D01*
X44473Y-94524D01*
X44461Y-94507D01*
X44445Y-94491D01*
X44424Y-94466D01*
X44400Y-94446D01*
X44371Y-94425D01*
X44338Y-94409D01*
X44334D01*
X44322Y-94401D01*
X44301Y-94397D01*
X44273Y-94389D01*
X44236Y-94380D01*
X44195Y-94376D01*
X44141Y-94368D01*
X44043D01*
X44010Y-94372D01*
X43977Y-94376D01*
X43936Y-94384D01*
X43850Y-94409D01*
X43846D01*
X43830Y-94417D01*
X43805Y-94425D01*
X43772Y-94438D01*
X43736Y-94454D01*
X43690Y-94475D01*
X43645Y-94499D01*
X43592Y-94528D01*
Y-96418D01*
X42735D01*
Y-93753D01*
X43592D01*
Y-94048D01*
X43596Y-94044D01*
X43600Y-94040D01*
X43613Y-94032D01*
X43629Y-94020D01*
X43674Y-93987D01*
X43731Y-93950D01*
X43797Y-93905D01*
X43871Y-93860D01*
X43949Y-93814D01*
X44027Y-93778D01*
X44031D01*
X44035Y-93774D01*
X44047Y-93769D01*
X44063Y-93761D01*
X44104Y-93745D01*
X44162Y-93728D01*
X44232Y-93712D01*
X44314Y-93696D01*
X44400Y-93683D01*
X44494Y-93679D01*
X44535D01*
X44564Y-93683D01*
D02*
G37*
G36*
X68696D02*
X68733Y-93687D01*
X68774Y-93691D01*
X68819Y-93700D01*
X68868Y-93712D01*
X68975Y-93745D01*
X69033Y-93765D01*
X69086Y-93790D01*
X69139Y-93819D01*
X69188Y-93856D01*
X69238Y-93897D01*
X69283Y-93942D01*
X69287Y-93946D01*
X69291Y-93954D01*
X69303Y-93970D01*
X69319Y-93991D01*
X69336Y-94015D01*
X69352Y-94048D01*
X69373Y-94085D01*
X69397Y-94130D01*
X69418Y-94179D01*
X69438Y-94237D01*
X69455Y-94298D01*
X69471Y-94364D01*
X69488Y-94434D01*
X69500Y-94511D01*
X69504Y-94594D01*
X69508Y-94684D01*
Y-96418D01*
X68651D01*
Y-95086D01*
Y-95081D01*
Y-95077D01*
Y-95053D01*
Y-95016D01*
Y-94971D01*
X68647Y-94917D01*
Y-94864D01*
X68643Y-94807D01*
X68639Y-94753D01*
Y-94749D01*
Y-94729D01*
X68635Y-94704D01*
X68631Y-94675D01*
X68614Y-94602D01*
X68602Y-94565D01*
X68590Y-94532D01*
Y-94528D01*
X68581Y-94520D01*
X68573Y-94503D01*
X68557Y-94487D01*
X68541Y-94466D01*
X68520Y-94446D01*
X68491Y-94425D01*
X68463Y-94409D01*
X68458D01*
X68446Y-94401D01*
X68426Y-94397D01*
X68401Y-94389D01*
X68364Y-94380D01*
X68323Y-94376D01*
X68274Y-94368D01*
X68176D01*
X68151Y-94372D01*
X68118Y-94376D01*
X68085Y-94384D01*
X68007Y-94405D01*
X68003D01*
X67991Y-94413D01*
X67967Y-94421D01*
X67938Y-94434D01*
X67901Y-94450D01*
X67860Y-94471D01*
X67815Y-94499D01*
X67761Y-94528D01*
Y-96418D01*
X66905D01*
Y-95086D01*
Y-95081D01*
Y-95077D01*
Y-95053D01*
Y-95016D01*
Y-94971D01*
X66900Y-94921D01*
Y-94864D01*
X66896Y-94811D01*
X66892Y-94757D01*
Y-94749D01*
Y-94733D01*
X66888Y-94708D01*
X66884Y-94675D01*
X66868Y-94602D01*
X66855Y-94565D01*
X66843Y-94532D01*
Y-94528D01*
X66835Y-94520D01*
X66823Y-94503D01*
X66810Y-94487D01*
X66769Y-94446D01*
X66712Y-94409D01*
X66708D01*
X66695Y-94401D01*
X66675Y-94397D01*
X66650Y-94389D01*
X66614Y-94380D01*
X66572Y-94376D01*
X66523Y-94368D01*
X66449D01*
X66425Y-94372D01*
X66392Y-94376D01*
X66355Y-94380D01*
X66314Y-94389D01*
X66269Y-94405D01*
X66224Y-94421D01*
X66220Y-94425D01*
X66203Y-94429D01*
X66183Y-94442D01*
X66154Y-94454D01*
X66122Y-94471D01*
X66089Y-94487D01*
X66015Y-94528D01*
Y-96418D01*
X65158D01*
Y-93753D01*
X66015D01*
Y-94048D01*
X66019Y-94044D01*
X66023Y-94040D01*
X66035Y-94032D01*
X66052Y-94020D01*
X66093Y-93987D01*
X66150Y-93950D01*
X66212Y-93905D01*
X66281Y-93860D01*
X66359Y-93819D01*
X66433Y-93778D01*
X66437D01*
X66441Y-93774D01*
X66454Y-93769D01*
X66470Y-93761D01*
X66511Y-93745D01*
X66564Y-93728D01*
X66630Y-93712D01*
X66708Y-93696D01*
X66790Y-93683D01*
X66880Y-93679D01*
X66925D01*
X66946Y-93683D01*
X66974D01*
X67036Y-93696D01*
X67110Y-93708D01*
X67188Y-93728D01*
X67265Y-93757D01*
X67343Y-93798D01*
X67347D01*
X67352Y-93802D01*
X67376Y-93819D01*
X67413Y-93847D01*
X67458Y-93884D01*
X67507Y-93933D01*
X67561Y-93995D01*
X67614Y-94065D01*
X67659Y-94143D01*
X67663Y-94138D01*
X67671Y-94134D01*
X67684Y-94122D01*
X67704Y-94106D01*
X67725Y-94089D01*
X67753Y-94069D01*
X67815Y-94020D01*
X67893Y-93966D01*
X67975Y-93909D01*
X68065Y-93856D01*
X68155Y-93806D01*
X68159D01*
X68167Y-93802D01*
X68180Y-93794D01*
X68196Y-93786D01*
X68217Y-93778D01*
X68245Y-93765D01*
X68307Y-93741D01*
X68376Y-93720D01*
X68454Y-93700D01*
X68541Y-93683D01*
X68627Y-93679D01*
X68668D01*
X68696Y-93683D01*
D02*
G37*
G36*
X38902Y-93749D02*
X38910D01*
X38934Y-93753D01*
X38967D01*
X39004Y-93757D01*
Y-94569D01*
X38922D01*
X38918Y-94565D01*
X38902D01*
X38885Y-94561D01*
X38861Y-94557D01*
X38828Y-94552D01*
X38791Y-94548D01*
X38750Y-94544D01*
X38746D01*
X38729Y-94540D01*
X38709D01*
X38680Y-94536D01*
X38615Y-94532D01*
X38483D01*
X38442Y-94536D01*
X38393D01*
X38340Y-94540D01*
X38229Y-94557D01*
X38221D01*
X38205Y-94561D01*
X38176Y-94569D01*
X38139Y-94577D01*
X38094Y-94585D01*
X38045Y-94602D01*
X37987Y-94618D01*
X37930Y-94639D01*
Y-96418D01*
X37073D01*
Y-93753D01*
X37930D01*
Y-94147D01*
X37934Y-94143D01*
X37942Y-94134D01*
X37959Y-94122D01*
X37975Y-94106D01*
X38000Y-94089D01*
X38028Y-94065D01*
X38094Y-94015D01*
X38172Y-93962D01*
X38254Y-93909D01*
X38336Y-93864D01*
X38418Y-93827D01*
X38422D01*
X38426Y-93823D01*
X38438Y-93819D01*
X38455Y-93814D01*
X38492Y-93802D01*
X38545Y-93786D01*
X38602Y-93769D01*
X38668Y-93757D01*
X38734Y-93749D01*
X38799Y-93745D01*
X38861D01*
X38902Y-93749D01*
D02*
G37*
G36*
X31973Y-94520D02*
X33428Y-96418D01*
X32305D01*
X31247Y-95003D01*
X31038Y-95266D01*
Y-96418D01*
X30128D01*
Y-92884D01*
X31038D01*
Y-94487D01*
X32301Y-92884D01*
X33358D01*
X31973Y-94520D01*
D02*
G37*
G36*
X25253Y-93683D02*
X25286D01*
X25326Y-93687D01*
X25413Y-93696D01*
X25511Y-93704D01*
X25613Y-93720D01*
X25716Y-93741D01*
X25720D01*
X25728Y-93745D01*
X25741D01*
X25761Y-93753D01*
X25786Y-93757D01*
X25810Y-93765D01*
X25872Y-93782D01*
X25942Y-93798D01*
X26015Y-93823D01*
X26085Y-93847D01*
X26147Y-93872D01*
Y-94544D01*
X26069D01*
X26065Y-94540D01*
X26040Y-94524D01*
X25999Y-94499D01*
X25946Y-94471D01*
X25880Y-94438D01*
X25806Y-94401D01*
X25728Y-94368D01*
X25638Y-94335D01*
X25634D01*
X25626Y-94331D01*
X25613Y-94327D01*
X25597Y-94323D01*
X25572Y-94315D01*
X25548Y-94306D01*
X25486Y-94290D01*
X25413Y-94278D01*
X25331Y-94261D01*
X25240Y-94253D01*
X25146Y-94249D01*
X25113D01*
X25072Y-94253D01*
X25023Y-94257D01*
X24970Y-94261D01*
X24912Y-94274D01*
X24851Y-94286D01*
X24798Y-94306D01*
X24793Y-94311D01*
X24777Y-94319D01*
X24753Y-94331D01*
X24728Y-94348D01*
X24703Y-94372D01*
X24679Y-94401D01*
X24662Y-94434D01*
X24658Y-94471D01*
Y-94475D01*
Y-94487D01*
X24662Y-94503D01*
X24666Y-94524D01*
X24675Y-94548D01*
X24683Y-94569D01*
X24699Y-94594D01*
X24720Y-94614D01*
X24724Y-94618D01*
X24732Y-94622D01*
X24753Y-94630D01*
X24781Y-94643D01*
X24822Y-94659D01*
X24875Y-94675D01*
X24941Y-94692D01*
X25023Y-94712D01*
X25027D01*
X25044Y-94717D01*
X25072Y-94721D01*
X25105Y-94729D01*
X25146Y-94737D01*
X25195Y-94745D01*
X25245Y-94757D01*
X25302Y-94766D01*
X25310D01*
X25326Y-94770D01*
X25359Y-94774D01*
X25396Y-94782D01*
X25441Y-94790D01*
X25495Y-94803D01*
X25605Y-94827D01*
X25609D01*
X25622Y-94831D01*
X25638Y-94835D01*
X25659Y-94844D01*
X25687Y-94852D01*
X25720Y-94864D01*
X25794Y-94897D01*
X25876Y-94934D01*
X25958Y-94983D01*
X26036Y-95040D01*
X26069Y-95073D01*
X26101Y-95106D01*
Y-95110D01*
X26110Y-95114D01*
X26118Y-95126D01*
X26126Y-95139D01*
X26155Y-95180D01*
X26183Y-95233D01*
X26212Y-95303D01*
X26241Y-95381D01*
X26257Y-95475D01*
X26265Y-95573D01*
Y-95578D01*
Y-95590D01*
X26261Y-95614D01*
Y-95643D01*
X26253Y-95676D01*
X26245Y-95717D01*
X26233Y-95762D01*
X26220Y-95811D01*
X26200Y-95864D01*
X26175Y-95918D01*
X26142Y-95975D01*
X26110Y-96029D01*
X26065Y-96086D01*
X26015Y-96139D01*
X25958Y-96193D01*
X25892Y-96242D01*
X25888Y-96246D01*
X25876Y-96254D01*
X25855Y-96266D01*
X25827Y-96279D01*
X25786Y-96299D01*
X25741Y-96320D01*
X25687Y-96344D01*
X25626Y-96365D01*
X25560Y-96389D01*
X25482Y-96414D01*
X25400Y-96434D01*
X25310Y-96451D01*
X25212Y-96467D01*
X25109Y-96479D01*
X24998Y-96488D01*
X24880Y-96492D01*
X24818D01*
X24789Y-96488D01*
X24712D01*
X24666Y-96484D01*
X24564Y-96475D01*
X24457Y-96463D01*
X24342Y-96447D01*
X24232Y-96426D01*
X24228D01*
X24219Y-96422D01*
X24203Y-96418D01*
X24183Y-96414D01*
X24162Y-96410D01*
X24133Y-96402D01*
X24068Y-96381D01*
X23994Y-96361D01*
X23916Y-96336D01*
X23842Y-96307D01*
X23773Y-96279D01*
Y-95578D01*
X23855D01*
X23863Y-95586D01*
X23875Y-95594D01*
X23891Y-95606D01*
X23937Y-95639D01*
X23994Y-95676D01*
X23998Y-95680D01*
X24010Y-95684D01*
X24031Y-95696D01*
X24056Y-95709D01*
X24092Y-95729D01*
X24133Y-95746D01*
X24183Y-95766D01*
X24236Y-95791D01*
X24240Y-95795D01*
X24261Y-95799D01*
X24285Y-95811D01*
X24322Y-95824D01*
X24367Y-95840D01*
X24416Y-95856D01*
X24474Y-95869D01*
X24535Y-95885D01*
X24543D01*
X24564Y-95889D01*
X24597Y-95897D01*
X24642Y-95901D01*
X24699Y-95910D01*
X24757Y-95918D01*
X24826Y-95922D01*
X24937D01*
X24982Y-95918D01*
X25039Y-95914D01*
X25097Y-95910D01*
X25163Y-95897D01*
X25220Y-95885D01*
X25269Y-95869D01*
X25273Y-95864D01*
X25290Y-95856D01*
X25310Y-95844D01*
X25331Y-95828D01*
X25355Y-95803D01*
X25372Y-95774D01*
X25388Y-95741D01*
X25392Y-95705D01*
Y-95701D01*
Y-95688D01*
X25388Y-95672D01*
X25384Y-95651D01*
X25376Y-95627D01*
X25359Y-95602D01*
X25343Y-95582D01*
X25318Y-95565D01*
X25314Y-95561D01*
X25306Y-95557D01*
X25286Y-95549D01*
X25257Y-95537D01*
X25220Y-95524D01*
X25175Y-95508D01*
X25117Y-95495D01*
X25048Y-95479D01*
X25044D01*
X25031Y-95475D01*
X25011Y-95471D01*
X24982Y-95467D01*
X24945Y-95459D01*
X24900Y-95450D01*
X24847Y-95442D01*
X24789Y-95434D01*
X24781D01*
X24761Y-95430D01*
X24732Y-95422D01*
X24695Y-95414D01*
X24650Y-95405D01*
X24601Y-95397D01*
X24498Y-95372D01*
X24494D01*
X24482Y-95368D01*
X24465Y-95364D01*
X24437Y-95356D01*
X24408Y-95344D01*
X24375Y-95332D01*
X24293Y-95299D01*
X24207Y-95258D01*
X24117Y-95209D01*
X24031Y-95147D01*
X23994Y-95114D01*
X23957Y-95077D01*
Y-95073D01*
X23949Y-95069D01*
X23941Y-95057D01*
X23928Y-95040D01*
X23916Y-95020D01*
X23904Y-94999D01*
X23871Y-94938D01*
X23838Y-94868D01*
X23814Y-94782D01*
X23793Y-94684D01*
X23785Y-94577D01*
Y-94573D01*
Y-94561D01*
X23789Y-94540D01*
Y-94511D01*
X23797Y-94479D01*
X23805Y-94442D01*
X23814Y-94401D01*
X23830Y-94352D01*
X23851Y-94302D01*
X23875Y-94253D01*
X23904Y-94200D01*
X23937Y-94143D01*
X23978Y-94089D01*
X24027Y-94036D01*
X24084Y-93987D01*
X24146Y-93937D01*
X24150Y-93933D01*
X24162Y-93925D01*
X24183Y-93913D01*
X24211Y-93897D01*
X24248Y-93876D01*
X24293Y-93856D01*
X24347Y-93831D01*
X24408Y-93806D01*
X24474Y-93786D01*
X24547Y-93761D01*
X24630Y-93741D01*
X24720Y-93720D01*
X24814Y-93704D01*
X24916Y-93691D01*
X25027Y-93683D01*
X25142Y-93679D01*
X25220D01*
X25253Y-93683D01*
D02*
G37*
G36*
X60422D02*
X60492Y-93687D01*
X60570Y-93696D01*
X60652Y-93704D01*
X60742Y-93720D01*
X60828Y-93741D01*
X60833D01*
X60841Y-93745D01*
X60853D01*
X60869Y-93753D01*
X60910Y-93765D01*
X60968Y-93782D01*
X61033Y-93802D01*
X61107Y-93831D01*
X61181Y-93860D01*
X61259Y-93897D01*
Y-94622D01*
X61132D01*
X61128Y-94614D01*
X61103Y-94594D01*
X61066Y-94565D01*
X61017Y-94524D01*
X61013Y-94520D01*
X61005Y-94516D01*
X60988Y-94503D01*
X60968Y-94487D01*
X60943Y-94471D01*
X60914Y-94454D01*
X60845Y-94413D01*
X60841Y-94409D01*
X60828Y-94405D01*
X60808Y-94393D01*
X60783Y-94380D01*
X60751Y-94368D01*
X60714Y-94356D01*
X60632Y-94327D01*
X60628D01*
X60611Y-94323D01*
X60587Y-94315D01*
X60554Y-94306D01*
X60517Y-94302D01*
X60468Y-94294D01*
X60418Y-94290D01*
X60328D01*
X60304Y-94294D01*
X60275Y-94298D01*
X60242Y-94302D01*
X60168Y-94319D01*
X60082Y-94343D01*
X59996Y-94380D01*
X59955Y-94405D01*
X59910Y-94434D01*
X59873Y-94471D01*
X59836Y-94507D01*
Y-94511D01*
X59828Y-94516D01*
X59820Y-94528D01*
X59807Y-94548D01*
X59795Y-94569D01*
X59779Y-94598D01*
X59762Y-94626D01*
X59746Y-94663D01*
X59730Y-94704D01*
X59713Y-94745D01*
X59697Y-94794D01*
X59684Y-94848D01*
X59664Y-94967D01*
X59660Y-95028D01*
X59656Y-95098D01*
Y-95102D01*
Y-95114D01*
Y-95135D01*
X59660Y-95159D01*
Y-95192D01*
X59664Y-95229D01*
X59680Y-95315D01*
X59701Y-95409D01*
X59734Y-95504D01*
X59779Y-95598D01*
X59807Y-95639D01*
X59840Y-95680D01*
X59844Y-95684D01*
X59848Y-95688D01*
X59861Y-95696D01*
X59877Y-95709D01*
X59894Y-95725D01*
X59918Y-95741D01*
X59947Y-95758D01*
X59980Y-95778D01*
X60053Y-95815D01*
X60148Y-95844D01*
X60254Y-95869D01*
X60316Y-95873D01*
X60377Y-95877D01*
X60435D01*
X60472Y-95873D01*
X60517Y-95869D01*
X60566Y-95864D01*
X60664Y-95844D01*
X60668D01*
X60685Y-95836D01*
X60710Y-95828D01*
X60742Y-95819D01*
X60812Y-95791D01*
X60849Y-95774D01*
X60882Y-95758D01*
X60886Y-95754D01*
X60894Y-95750D01*
X60910Y-95741D01*
X60927Y-95725D01*
X60972Y-95696D01*
X61021Y-95660D01*
X61025Y-95655D01*
X61033Y-95651D01*
X61042Y-95639D01*
X61058Y-95627D01*
X61095Y-95594D01*
X61136Y-95553D01*
X61259D01*
Y-96283D01*
X61255D01*
X61251Y-96287D01*
X61238Y-96291D01*
X61222Y-96299D01*
X61181Y-96315D01*
X61128Y-96336D01*
X61066Y-96361D01*
X60992Y-96385D01*
X60914Y-96410D01*
X60833Y-96430D01*
X60828D01*
X60824Y-96434D01*
X60812D01*
X60796Y-96438D01*
X60775Y-96443D01*
X60751Y-96447D01*
X60689Y-96459D01*
X60619Y-96471D01*
X60537Y-96479D01*
X60447Y-96484D01*
X60349Y-96488D01*
X60291D01*
X60259Y-96484D01*
X60222D01*
X60185Y-96479D01*
X60140Y-96475D01*
X60041Y-96467D01*
X59935Y-96455D01*
X59824Y-96434D01*
X59713Y-96406D01*
X59709D01*
X59701Y-96402D01*
X59684Y-96398D01*
X59664Y-96389D01*
X59639Y-96381D01*
X59611Y-96369D01*
X59545Y-96344D01*
X59463Y-96307D01*
X59381Y-96262D01*
X59295Y-96213D01*
X59213Y-96152D01*
X59209Y-96147D01*
X59205Y-96143D01*
X59176Y-96119D01*
X59139Y-96082D01*
X59094Y-96033D01*
X59041Y-95971D01*
X58983Y-95897D01*
X58934Y-95811D01*
X58885Y-95717D01*
Y-95713D01*
X58881Y-95705D01*
X58873Y-95688D01*
X58869Y-95668D01*
X58860Y-95643D01*
X58848Y-95614D01*
X58840Y-95578D01*
X58828Y-95541D01*
X58815Y-95495D01*
X58807Y-95450D01*
X58787Y-95344D01*
X58774Y-95225D01*
X58770Y-95098D01*
Y-95094D01*
Y-95081D01*
Y-95061D01*
X58774Y-95036D01*
Y-95003D01*
X58778Y-94967D01*
X58783Y-94921D01*
X58787Y-94876D01*
X58799Y-94778D01*
X58824Y-94667D01*
X58852Y-94561D01*
X58893Y-94454D01*
Y-94450D01*
X58897Y-94442D01*
X58906Y-94429D01*
X58918Y-94409D01*
X58930Y-94384D01*
X58942Y-94360D01*
X58983Y-94298D01*
X59033Y-94225D01*
X59094Y-94151D01*
X59164Y-94077D01*
X59242Y-94007D01*
X59246D01*
X59250Y-93999D01*
X59262Y-93991D01*
X59279Y-93979D01*
X59299Y-93966D01*
X59324Y-93950D01*
X59385Y-93913D01*
X59455Y-93872D01*
X59541Y-93831D01*
X59635Y-93794D01*
X59738Y-93761D01*
X59742D01*
X59750Y-93757D01*
X59767Y-93753D01*
X59787Y-93749D01*
X59812Y-93741D01*
X59844Y-93737D01*
X59877Y-93728D01*
X59918Y-93720D01*
X60004Y-93704D01*
X60103Y-93691D01*
X60213Y-93683D01*
X60324Y-93679D01*
X60394D01*
X60422Y-93683D01*
D02*
G37*
G36*
X55810D02*
X55880Y-93687D01*
X55958Y-93696D01*
X56040Y-93704D01*
X56130Y-93720D01*
X56216Y-93741D01*
X56220D01*
X56228Y-93745D01*
X56240D01*
X56257Y-93753D01*
X56298Y-93765D01*
X56355Y-93782D01*
X56421Y-93802D01*
X56495Y-93831D01*
X56568Y-93860D01*
X56646Y-93897D01*
Y-94622D01*
X56519D01*
X56515Y-94614D01*
X56491Y-94594D01*
X56454Y-94565D01*
X56405Y-94524D01*
X56400Y-94520D01*
X56392Y-94516D01*
X56376Y-94503D01*
X56355Y-94487D01*
X56331Y-94471D01*
X56302Y-94454D01*
X56232Y-94413D01*
X56228Y-94409D01*
X56216Y-94405D01*
X56195Y-94393D01*
X56171Y-94380D01*
X56138Y-94368D01*
X56101Y-94356D01*
X56019Y-94327D01*
X56015D01*
X55999Y-94323D01*
X55974Y-94315D01*
X55941Y-94306D01*
X55904Y-94302D01*
X55855Y-94294D01*
X55806Y-94290D01*
X55716D01*
X55691Y-94294D01*
X55662Y-94298D01*
X55630Y-94302D01*
X55556Y-94319D01*
X55470Y-94343D01*
X55384Y-94380D01*
X55343Y-94405D01*
X55297Y-94434D01*
X55261Y-94471D01*
X55224Y-94507D01*
Y-94511D01*
X55216Y-94516D01*
X55207Y-94528D01*
X55195Y-94548D01*
X55183Y-94569D01*
X55166Y-94598D01*
X55150Y-94626D01*
X55133Y-94663D01*
X55117Y-94704D01*
X55101Y-94745D01*
X55084Y-94794D01*
X55072Y-94848D01*
X55051Y-94967D01*
X55047Y-95028D01*
X55043Y-95098D01*
Y-95102D01*
Y-95114D01*
Y-95135D01*
X55047Y-95159D01*
Y-95192D01*
X55051Y-95229D01*
X55068Y-95315D01*
X55088Y-95409D01*
X55121Y-95504D01*
X55166Y-95598D01*
X55195Y-95639D01*
X55228Y-95680D01*
X55232Y-95684D01*
X55236Y-95688D01*
X55248Y-95696D01*
X55265Y-95709D01*
X55281Y-95725D01*
X55306Y-95741D01*
X55334Y-95758D01*
X55367Y-95778D01*
X55441Y-95815D01*
X55535Y-95844D01*
X55642Y-95869D01*
X55703Y-95873D01*
X55765Y-95877D01*
X55822D01*
X55859Y-95873D01*
X55904Y-95869D01*
X55954Y-95864D01*
X56052Y-95844D01*
X56056D01*
X56072Y-95836D01*
X56097Y-95828D01*
X56130Y-95819D01*
X56200Y-95791D01*
X56236Y-95774D01*
X56269Y-95758D01*
X56273Y-95754D01*
X56282Y-95750D01*
X56298Y-95741D01*
X56314Y-95725D01*
X56359Y-95696D01*
X56409Y-95660D01*
X56413Y-95655D01*
X56421Y-95651D01*
X56429Y-95639D01*
X56445Y-95627D01*
X56482Y-95594D01*
X56523Y-95553D01*
X56646D01*
Y-96283D01*
X56642D01*
X56638Y-96287D01*
X56626Y-96291D01*
X56609Y-96299D01*
X56568Y-96315D01*
X56515Y-96336D01*
X56454Y-96361D01*
X56380Y-96385D01*
X56302Y-96410D01*
X56220Y-96430D01*
X56216D01*
X56212Y-96434D01*
X56200D01*
X56183Y-96438D01*
X56163Y-96443D01*
X56138Y-96447D01*
X56077Y-96459D01*
X56007Y-96471D01*
X55925Y-96479D01*
X55835Y-96484D01*
X55736Y-96488D01*
X55679D01*
X55646Y-96484D01*
X55609D01*
X55572Y-96479D01*
X55527Y-96475D01*
X55429Y-96467D01*
X55322Y-96455D01*
X55211Y-96434D01*
X55101Y-96406D01*
X55097D01*
X55088Y-96402D01*
X55072Y-96398D01*
X55051Y-96389D01*
X55027Y-96381D01*
X54998Y-96369D01*
X54933Y-96344D01*
X54851Y-96307D01*
X54769Y-96262D01*
X54682Y-96213D01*
X54601Y-96152D01*
X54596Y-96147D01*
X54592Y-96143D01*
X54564Y-96119D01*
X54527Y-96082D01*
X54482Y-96033D01*
X54428Y-95971D01*
X54371Y-95897D01*
X54322Y-95811D01*
X54273Y-95717D01*
Y-95713D01*
X54268Y-95705D01*
X54260Y-95688D01*
X54256Y-95668D01*
X54248Y-95643D01*
X54236Y-95614D01*
X54227Y-95578D01*
X54215Y-95541D01*
X54203Y-95495D01*
X54195Y-95450D01*
X54174Y-95344D01*
X54162Y-95225D01*
X54158Y-95098D01*
Y-95094D01*
Y-95081D01*
Y-95061D01*
X54162Y-95036D01*
Y-95003D01*
X54166Y-94967D01*
X54170Y-94921D01*
X54174Y-94876D01*
X54186Y-94778D01*
X54211Y-94667D01*
X54240Y-94561D01*
X54281Y-94454D01*
Y-94450D01*
X54285Y-94442D01*
X54293Y-94429D01*
X54305Y-94409D01*
X54318Y-94384D01*
X54330Y-94360D01*
X54371Y-94298D01*
X54420Y-94225D01*
X54482Y-94151D01*
X54551Y-94077D01*
X54629Y-94007D01*
X54633D01*
X54637Y-93999D01*
X54650Y-93991D01*
X54666Y-93979D01*
X54687Y-93966D01*
X54711Y-93950D01*
X54773Y-93913D01*
X54842Y-93872D01*
X54928Y-93831D01*
X55023Y-93794D01*
X55125Y-93761D01*
X55129D01*
X55138Y-93757D01*
X55154Y-93753D01*
X55174Y-93749D01*
X55199Y-93741D01*
X55232Y-93737D01*
X55265Y-93728D01*
X55306Y-93720D01*
X55392Y-93704D01*
X55490Y-93691D01*
X55601Y-93683D01*
X55712Y-93679D01*
X55781D01*
X55810Y-93683D01*
D02*
G37*
G36*
X51189Y-96418D02*
X50222D01*
X49201Y-93753D01*
X50099D01*
X50718Y-95594D01*
X51333Y-93753D01*
X52218D01*
X51189Y-96418D01*
D02*
G37*
G36*
X58126D02*
X57241D01*
Y-95487D01*
X58126D01*
Y-96418D01*
D02*
G37*
G36*
X53547D02*
X52690D01*
Y-93753D01*
X53547D01*
Y-96418D01*
D02*
G37*
G36*
X40693Y-93683D02*
X40755Y-93687D01*
X40824Y-93691D01*
X40898Y-93700D01*
X40980Y-93708D01*
X41153Y-93733D01*
X41329Y-93774D01*
X41411Y-93798D01*
X41489Y-93831D01*
X41563Y-93864D01*
X41628Y-93905D01*
X41632Y-93909D01*
X41640Y-93917D01*
X41657Y-93929D01*
X41677Y-93946D01*
X41702Y-93970D01*
X41731Y-94003D01*
X41759Y-94036D01*
X41792Y-94077D01*
X41821Y-94122D01*
X41849Y-94175D01*
X41878Y-94233D01*
X41903Y-94298D01*
X41923Y-94368D01*
X41940Y-94442D01*
X41948Y-94524D01*
X41952Y-94610D01*
Y-96418D01*
X41103D01*
Y-96139D01*
X41099Y-96143D01*
X41091Y-96147D01*
X41075Y-96160D01*
X41054Y-96172D01*
X41030Y-96193D01*
X41001Y-96213D01*
X40931Y-96262D01*
X40927Y-96266D01*
X40915Y-96275D01*
X40894Y-96287D01*
X40870Y-96303D01*
X40841Y-96324D01*
X40808Y-96344D01*
X40738Y-96381D01*
X40734D01*
X40718Y-96389D01*
X40693Y-96398D01*
X40661Y-96410D01*
X40620Y-96422D01*
X40578Y-96434D01*
X40480Y-96459D01*
X40476D01*
X40455Y-96463D01*
X40431Y-96467D01*
X40394Y-96471D01*
X40349Y-96479D01*
X40300Y-96484D01*
X40242Y-96488D01*
X40148D01*
X40123Y-96484D01*
X40091Y-96479D01*
X40050Y-96475D01*
X40009Y-96467D01*
X39963Y-96459D01*
X39861Y-96430D01*
X39808Y-96410D01*
X39754Y-96389D01*
X39701Y-96361D01*
X39648Y-96332D01*
X39599Y-96295D01*
X39549Y-96254D01*
X39545Y-96250D01*
X39537Y-96242D01*
X39525Y-96229D01*
X39508Y-96213D01*
X39492Y-96188D01*
X39467Y-96160D01*
X39447Y-96127D01*
X39422Y-96090D01*
X39398Y-96049D01*
X39377Y-96004D01*
X39336Y-95901D01*
X39320Y-95844D01*
X39307Y-95787D01*
X39299Y-95721D01*
X39295Y-95655D01*
Y-95651D01*
Y-95643D01*
Y-95627D01*
X39299Y-95606D01*
Y-95582D01*
X39303Y-95553D01*
X39312Y-95487D01*
X39328Y-95409D01*
X39349Y-95332D01*
X39381Y-95254D01*
X39422Y-95180D01*
Y-95176D01*
X39430Y-95172D01*
X39447Y-95151D01*
X39476Y-95114D01*
X39517Y-95073D01*
X39570Y-95028D01*
X39636Y-94979D01*
X39709Y-94930D01*
X39791Y-94889D01*
X39795D01*
X39804Y-94885D01*
X39816Y-94876D01*
X39832Y-94872D01*
X39857Y-94864D01*
X39886Y-94852D01*
X39918Y-94840D01*
X39955Y-94831D01*
X40037Y-94807D01*
X40140Y-94778D01*
X40251Y-94757D01*
X40378Y-94737D01*
X40382D01*
X40394Y-94733D01*
X40415D01*
X40439Y-94729D01*
X40472Y-94725D01*
X40509Y-94721D01*
X40554Y-94717D01*
X40603Y-94712D01*
X40652Y-94704D01*
X40710Y-94700D01*
X40833Y-94688D01*
X40968Y-94675D01*
X41107Y-94667D01*
Y-94655D01*
Y-94651D01*
Y-94647D01*
Y-94634D01*
X41103Y-94618D01*
X41099Y-94581D01*
X41087Y-94532D01*
X41062Y-94483D01*
X41030Y-94434D01*
X40988Y-94389D01*
X40960Y-94368D01*
X40927Y-94352D01*
X40919Y-94348D01*
X40907Y-94343D01*
X40894Y-94339D01*
X40874Y-94331D01*
X40853Y-94323D01*
X40824Y-94315D01*
X40792Y-94306D01*
X40718Y-94294D01*
X40628Y-94278D01*
X40521Y-94270D01*
X40398Y-94266D01*
X40361D01*
X40320Y-94270D01*
X40263Y-94274D01*
X40193Y-94286D01*
X40119Y-94298D01*
X40033Y-94319D01*
X39947Y-94343D01*
X39943D01*
X39935Y-94348D01*
X39927Y-94352D01*
X39910Y-94356D01*
X39865Y-94368D01*
X39816Y-94384D01*
X39759Y-94401D01*
X39705Y-94421D01*
X39652Y-94438D01*
X39607Y-94454D01*
X39529D01*
Y-93814D01*
X39537D01*
X39553Y-93806D01*
X39586Y-93798D01*
X39631Y-93790D01*
X39693Y-93778D01*
X39767Y-93761D01*
X39857Y-93745D01*
X39963Y-93728D01*
X39968D01*
X39976Y-93724D01*
X39992D01*
X40017Y-93720D01*
X40045Y-93716D01*
X40078Y-93712D01*
X40115Y-93708D01*
X40156Y-93704D01*
X40246Y-93696D01*
X40353Y-93687D01*
X40460Y-93679D01*
X40644D01*
X40693Y-93683D01*
D02*
G37*
G36*
X35031D02*
X35093Y-93687D01*
X35162Y-93691D01*
X35236Y-93700D01*
X35318Y-93708D01*
X35490Y-93733D01*
X35667Y-93774D01*
X35749Y-93798D01*
X35827Y-93831D01*
X35900Y-93864D01*
X35966Y-93905D01*
X35970Y-93909D01*
X35978Y-93917D01*
X35995Y-93929D01*
X36015Y-93946D01*
X36040Y-93970D01*
X36068Y-94003D01*
X36097Y-94036D01*
X36130Y-94077D01*
X36159Y-94122D01*
X36187Y-94175D01*
X36216Y-94233D01*
X36241Y-94298D01*
X36261Y-94368D01*
X36278Y-94442D01*
X36286Y-94524D01*
X36290Y-94610D01*
Y-96418D01*
X35441D01*
Y-96139D01*
X35437Y-96143D01*
X35429Y-96147D01*
X35412Y-96160D01*
X35392Y-96172D01*
X35367Y-96193D01*
X35339Y-96213D01*
X35269Y-96262D01*
X35265Y-96266D01*
X35253Y-96275D01*
X35232Y-96287D01*
X35208Y-96303D01*
X35179Y-96324D01*
X35146Y-96344D01*
X35076Y-96381D01*
X35072D01*
X35056Y-96389D01*
X35031Y-96398D01*
X34998Y-96410D01*
X34957Y-96422D01*
X34916Y-96434D01*
X34818Y-96459D01*
X34814D01*
X34793Y-96463D01*
X34769Y-96467D01*
X34732Y-96471D01*
X34687Y-96479D01*
X34638Y-96484D01*
X34580Y-96488D01*
X34486D01*
X34461Y-96484D01*
X34429Y-96479D01*
X34387Y-96475D01*
X34347Y-96467D01*
X34301Y-96459D01*
X34199Y-96430D01*
X34146Y-96410D01*
X34092Y-96389D01*
X34039Y-96361D01*
X33986Y-96332D01*
X33937Y-96295D01*
X33887Y-96254D01*
X33883Y-96250D01*
X33875Y-96242D01*
X33863Y-96229D01*
X33846Y-96213D01*
X33830Y-96188D01*
X33805Y-96160D01*
X33785Y-96127D01*
X33760Y-96090D01*
X33736Y-96049D01*
X33715Y-96004D01*
X33674Y-95901D01*
X33658Y-95844D01*
X33645Y-95787D01*
X33637Y-95721D01*
X33633Y-95655D01*
Y-95651D01*
Y-95643D01*
Y-95627D01*
X33637Y-95606D01*
Y-95582D01*
X33641Y-95553D01*
X33650Y-95487D01*
X33666Y-95409D01*
X33686Y-95332D01*
X33719Y-95254D01*
X33760Y-95180D01*
Y-95176D01*
X33768Y-95172D01*
X33785Y-95151D01*
X33814Y-95114D01*
X33854Y-95073D01*
X33908Y-95028D01*
X33973Y-94979D01*
X34047Y-94930D01*
X34129Y-94889D01*
X34133D01*
X34141Y-94885D01*
X34154Y-94876D01*
X34170Y-94872D01*
X34195Y-94864D01*
X34223Y-94852D01*
X34256Y-94840D01*
X34293Y-94831D01*
X34375Y-94807D01*
X34478Y-94778D01*
X34588Y-94757D01*
X34716Y-94737D01*
X34720D01*
X34732Y-94733D01*
X34752D01*
X34777Y-94729D01*
X34810Y-94725D01*
X34847Y-94721D01*
X34892Y-94717D01*
X34941Y-94712D01*
X34990Y-94704D01*
X35048Y-94700D01*
X35171Y-94688D01*
X35306Y-94675D01*
X35445Y-94667D01*
Y-94655D01*
Y-94651D01*
Y-94647D01*
Y-94634D01*
X35441Y-94618D01*
X35437Y-94581D01*
X35425Y-94532D01*
X35400Y-94483D01*
X35367Y-94434D01*
X35326Y-94389D01*
X35298Y-94368D01*
X35265Y-94352D01*
X35257Y-94348D01*
X35244Y-94343D01*
X35232Y-94339D01*
X35212Y-94331D01*
X35191Y-94323D01*
X35162Y-94315D01*
X35130Y-94306D01*
X35056Y-94294D01*
X34966Y-94278D01*
X34859Y-94270D01*
X34736Y-94266D01*
X34699D01*
X34658Y-94270D01*
X34601Y-94274D01*
X34531Y-94286D01*
X34457Y-94298D01*
X34371Y-94319D01*
X34285Y-94343D01*
X34281D01*
X34273Y-94348D01*
X34264Y-94352D01*
X34248Y-94356D01*
X34203Y-94368D01*
X34154Y-94384D01*
X34096Y-94401D01*
X34043Y-94421D01*
X33990Y-94438D01*
X33945Y-94454D01*
X33867D01*
Y-93814D01*
X33875D01*
X33891Y-93806D01*
X33924Y-93798D01*
X33969Y-93790D01*
X34031Y-93778D01*
X34105Y-93761D01*
X34195Y-93745D01*
X34301Y-93728D01*
X34306D01*
X34314Y-93724D01*
X34330D01*
X34355Y-93720D01*
X34383Y-93716D01*
X34416Y-93712D01*
X34453Y-93708D01*
X34494Y-93704D01*
X34584Y-93696D01*
X34691Y-93687D01*
X34797Y-93679D01*
X34982D01*
X35031Y-93683D01*
D02*
G37*
G36*
X28037D02*
X28098Y-93687D01*
X28168Y-93691D01*
X28242Y-93700D01*
X28324Y-93708D01*
X28496Y-93733D01*
X28672Y-93774D01*
X28754Y-93798D01*
X28832Y-93831D01*
X28906Y-93864D01*
X28971Y-93905D01*
X28975Y-93909D01*
X28984Y-93917D01*
X29000Y-93929D01*
X29021Y-93946D01*
X29045Y-93970D01*
X29074Y-94003D01*
X29103Y-94036D01*
X29135Y-94077D01*
X29164Y-94122D01*
X29193Y-94175D01*
X29221Y-94233D01*
X29246Y-94298D01*
X29267Y-94368D01*
X29283Y-94442D01*
X29291Y-94524D01*
X29295Y-94610D01*
Y-96418D01*
X28447D01*
Y-96139D01*
X28442Y-96143D01*
X28434Y-96147D01*
X28418Y-96160D01*
X28397Y-96172D01*
X28373Y-96193D01*
X28344Y-96213D01*
X28274Y-96262D01*
X28270Y-96266D01*
X28258Y-96275D01*
X28238Y-96287D01*
X28213Y-96303D01*
X28184Y-96324D01*
X28151Y-96344D01*
X28082Y-96381D01*
X28078D01*
X28061Y-96389D01*
X28037Y-96398D01*
X28004Y-96410D01*
X27963Y-96422D01*
X27922Y-96434D01*
X27823Y-96459D01*
X27819D01*
X27799Y-96463D01*
X27774Y-96467D01*
X27737Y-96471D01*
X27692Y-96479D01*
X27643Y-96484D01*
X27586Y-96488D01*
X27491D01*
X27467Y-96484D01*
X27434Y-96479D01*
X27393Y-96475D01*
X27352Y-96467D01*
X27307Y-96459D01*
X27204Y-96430D01*
X27151Y-96410D01*
X27098Y-96389D01*
X27044Y-96361D01*
X26991Y-96332D01*
X26942Y-96295D01*
X26893Y-96254D01*
X26889Y-96250D01*
X26880Y-96242D01*
X26868Y-96229D01*
X26852Y-96213D01*
X26835Y-96188D01*
X26811Y-96160D01*
X26790Y-96127D01*
X26766Y-96090D01*
X26741Y-96049D01*
X26720Y-96004D01*
X26680Y-95901D01*
X26663Y-95844D01*
X26651Y-95787D01*
X26643Y-95721D01*
X26638Y-95655D01*
Y-95651D01*
Y-95643D01*
Y-95627D01*
X26643Y-95606D01*
Y-95582D01*
X26647Y-95553D01*
X26655Y-95487D01*
X26671Y-95409D01*
X26692Y-95332D01*
X26725Y-95254D01*
X26766Y-95180D01*
Y-95176D01*
X26774Y-95172D01*
X26790Y-95151D01*
X26819Y-95114D01*
X26860Y-95073D01*
X26913Y-95028D01*
X26979Y-94979D01*
X27053Y-94930D01*
X27135Y-94889D01*
X27139D01*
X27147Y-94885D01*
X27159Y-94876D01*
X27176Y-94872D01*
X27200Y-94864D01*
X27229Y-94852D01*
X27262Y-94840D01*
X27299Y-94831D01*
X27381Y-94807D01*
X27483Y-94778D01*
X27594Y-94757D01*
X27721Y-94737D01*
X27725D01*
X27737Y-94733D01*
X27758D01*
X27782Y-94729D01*
X27815Y-94725D01*
X27852Y-94721D01*
X27897Y-94717D01*
X27946Y-94712D01*
X27996Y-94704D01*
X28053Y-94700D01*
X28176Y-94688D01*
X28311Y-94675D01*
X28451Y-94667D01*
Y-94655D01*
Y-94651D01*
Y-94647D01*
Y-94634D01*
X28447Y-94618D01*
X28442Y-94581D01*
X28430Y-94532D01*
X28406Y-94483D01*
X28373Y-94434D01*
X28332Y-94389D01*
X28303Y-94368D01*
X28270Y-94352D01*
X28262Y-94348D01*
X28250Y-94343D01*
X28238Y-94339D01*
X28217Y-94331D01*
X28196Y-94323D01*
X28168Y-94315D01*
X28135Y-94306D01*
X28061Y-94294D01*
X27971Y-94278D01*
X27864Y-94270D01*
X27741Y-94266D01*
X27705D01*
X27663Y-94270D01*
X27606Y-94274D01*
X27536Y-94286D01*
X27463Y-94298D01*
X27376Y-94319D01*
X27290Y-94343D01*
X27286D01*
X27278Y-94348D01*
X27270Y-94352D01*
X27253Y-94356D01*
X27208Y-94368D01*
X27159Y-94384D01*
X27102Y-94401D01*
X27049Y-94421D01*
X26995Y-94438D01*
X26950Y-94454D01*
X26872D01*
Y-93814D01*
X26880D01*
X26897Y-93806D01*
X26930Y-93798D01*
X26975Y-93790D01*
X27036Y-93778D01*
X27110Y-93761D01*
X27200Y-93745D01*
X27307Y-93728D01*
X27311D01*
X27319Y-93724D01*
X27336D01*
X27360Y-93720D01*
X27389Y-93716D01*
X27422Y-93712D01*
X27459Y-93708D01*
X27499Y-93704D01*
X27590Y-93696D01*
X27696Y-93687D01*
X27803Y-93679D01*
X27987D01*
X28037Y-93683D01*
D02*
G37*
G36*
X21907D02*
X21969Y-93687D01*
X22038Y-93691D01*
X22112Y-93700D01*
X22194Y-93708D01*
X22366Y-93733D01*
X22543Y-93774D01*
X22625Y-93798D01*
X22703Y-93831D01*
X22776Y-93864D01*
X22842Y-93905D01*
X22846Y-93909D01*
X22854Y-93917D01*
X22871Y-93929D01*
X22891Y-93946D01*
X22916Y-93970D01*
X22944Y-94003D01*
X22973Y-94036D01*
X23006Y-94077D01*
X23035Y-94122D01*
X23063Y-94175D01*
X23092Y-94233D01*
X23117Y-94298D01*
X23137Y-94368D01*
X23154Y-94442D01*
X23162Y-94524D01*
X23166Y-94610D01*
Y-96418D01*
X22317D01*
Y-96139D01*
X22313Y-96143D01*
X22305Y-96147D01*
X22288Y-96160D01*
X22268Y-96172D01*
X22243Y-96193D01*
X22215Y-96213D01*
X22145Y-96262D01*
X22141Y-96266D01*
X22129Y-96275D01*
X22108Y-96287D01*
X22083Y-96303D01*
X22055Y-96324D01*
X22022Y-96344D01*
X21952Y-96381D01*
X21948D01*
X21932Y-96389D01*
X21907Y-96398D01*
X21874Y-96410D01*
X21833Y-96422D01*
X21792Y-96434D01*
X21694Y-96459D01*
X21690D01*
X21669Y-96463D01*
X21645Y-96467D01*
X21608Y-96471D01*
X21563Y-96479D01*
X21513Y-96484D01*
X21456Y-96488D01*
X21362D01*
X21337Y-96484D01*
X21304Y-96479D01*
X21263Y-96475D01*
X21222Y-96467D01*
X21177Y-96459D01*
X21075Y-96430D01*
X21022Y-96410D01*
X20968Y-96389D01*
X20915Y-96361D01*
X20862Y-96332D01*
X20812Y-96295D01*
X20763Y-96254D01*
X20759Y-96250D01*
X20751Y-96242D01*
X20739Y-96229D01*
X20722Y-96213D01*
X20706Y-96188D01*
X20681Y-96160D01*
X20661Y-96127D01*
X20636Y-96090D01*
X20612Y-96049D01*
X20591Y-96004D01*
X20550Y-95901D01*
X20534Y-95844D01*
X20521Y-95787D01*
X20513Y-95721D01*
X20509Y-95655D01*
Y-95651D01*
Y-95643D01*
Y-95627D01*
X20513Y-95606D01*
Y-95582D01*
X20517Y-95553D01*
X20525Y-95487D01*
X20542Y-95409D01*
X20562Y-95332D01*
X20595Y-95254D01*
X20636Y-95180D01*
Y-95176D01*
X20644Y-95172D01*
X20661Y-95151D01*
X20689Y-95114D01*
X20730Y-95073D01*
X20784Y-95028D01*
X20849Y-94979D01*
X20923Y-94930D01*
X21005Y-94889D01*
X21009D01*
X21017Y-94885D01*
X21030Y-94876D01*
X21046Y-94872D01*
X21071Y-94864D01*
X21099Y-94852D01*
X21132Y-94840D01*
X21169Y-94831D01*
X21251Y-94807D01*
X21354Y-94778D01*
X21464Y-94757D01*
X21591Y-94737D01*
X21596D01*
X21608Y-94733D01*
X21628D01*
X21653Y-94729D01*
X21686Y-94725D01*
X21723Y-94721D01*
X21768Y-94717D01*
X21817Y-94712D01*
X21866Y-94704D01*
X21924Y-94700D01*
X22047Y-94688D01*
X22182Y-94675D01*
X22321Y-94667D01*
Y-94655D01*
Y-94651D01*
Y-94647D01*
Y-94634D01*
X22317Y-94618D01*
X22313Y-94581D01*
X22301Y-94532D01*
X22276Y-94483D01*
X22243Y-94434D01*
X22202Y-94389D01*
X22174Y-94368D01*
X22141Y-94352D01*
X22133Y-94348D01*
X22120Y-94343D01*
X22108Y-94339D01*
X22087Y-94331D01*
X22067Y-94323D01*
X22038Y-94315D01*
X22005Y-94306D01*
X21932Y-94294D01*
X21842Y-94278D01*
X21735Y-94270D01*
X21612Y-94266D01*
X21575D01*
X21534Y-94270D01*
X21477Y-94274D01*
X21407Y-94286D01*
X21333Y-94298D01*
X21247Y-94319D01*
X21161Y-94343D01*
X21157D01*
X21149Y-94348D01*
X21140Y-94352D01*
X21124Y-94356D01*
X21079Y-94368D01*
X21030Y-94384D01*
X20972Y-94401D01*
X20919Y-94421D01*
X20866Y-94438D01*
X20821Y-94454D01*
X20743D01*
Y-93814D01*
X20751D01*
X20767Y-93806D01*
X20800Y-93798D01*
X20845Y-93790D01*
X20907Y-93778D01*
X20980Y-93761D01*
X21071Y-93745D01*
X21177Y-93728D01*
X21181D01*
X21190Y-93724D01*
X21206D01*
X21231Y-93720D01*
X21259Y-93716D01*
X21292Y-93712D01*
X21329Y-93708D01*
X21370Y-93704D01*
X21460Y-93696D01*
X21567Y-93687D01*
X21673Y-93679D01*
X21858D01*
X21907Y-93683D01*
D02*
G37*
G36*
X63153Y-93675D02*
X63202D01*
X63260Y-93683D01*
X63329Y-93691D01*
X63403Y-93704D01*
X63485Y-93720D01*
X63567Y-93741D01*
X63657Y-93765D01*
X63748Y-93794D01*
X63838Y-93831D01*
X63924Y-93876D01*
X64010Y-93925D01*
X64092Y-93987D01*
X64166Y-94052D01*
X64170Y-94056D01*
X64182Y-94069D01*
X64203Y-94093D01*
X64227Y-94122D01*
X64256Y-94159D01*
X64285Y-94208D01*
X64322Y-94261D01*
X64359Y-94323D01*
X64391Y-94397D01*
X64428Y-94475D01*
X64457Y-94557D01*
X64490Y-94651D01*
X64510Y-94749D01*
X64531Y-94856D01*
X64543Y-94971D01*
X64547Y-95090D01*
Y-95098D01*
Y-95118D01*
X64543Y-95151D01*
Y-95196D01*
X64535Y-95254D01*
X64527Y-95315D01*
X64514Y-95389D01*
X64498Y-95463D01*
X64477Y-95545D01*
X64453Y-95631D01*
X64420Y-95717D01*
X64383Y-95803D01*
X64342Y-95889D01*
X64289Y-95971D01*
X64231Y-96049D01*
X64162Y-96123D01*
X64158Y-96127D01*
X64145Y-96139D01*
X64121Y-96156D01*
X64092Y-96180D01*
X64051Y-96209D01*
X64006Y-96242D01*
X63949Y-96275D01*
X63883Y-96311D01*
X63813Y-96348D01*
X63731Y-96381D01*
X63645Y-96414D01*
X63547Y-96443D01*
X63444Y-96463D01*
X63333Y-96484D01*
X63215Y-96496D01*
X63087Y-96500D01*
X63059D01*
X63022Y-96496D01*
X62973D01*
X62915Y-96488D01*
X62846Y-96479D01*
X62772Y-96467D01*
X62690Y-96451D01*
X62608Y-96434D01*
X62518Y-96410D01*
X62427Y-96377D01*
X62337Y-96340D01*
X62251Y-96299D01*
X62165Y-96246D01*
X62083Y-96188D01*
X62009Y-96123D01*
X62005Y-96119D01*
X61993Y-96106D01*
X61972Y-96082D01*
X61952Y-96053D01*
X61919Y-96016D01*
X61890Y-95967D01*
X61853Y-95914D01*
X61821Y-95852D01*
X61784Y-95783D01*
X61747Y-95705D01*
X61718Y-95618D01*
X61689Y-95528D01*
X61665Y-95430D01*
X61644Y-95323D01*
X61632Y-95209D01*
X61628Y-95090D01*
Y-95081D01*
Y-95061D01*
X61632Y-95024D01*
X61636Y-94979D01*
X61640Y-94926D01*
X61648Y-94860D01*
X61661Y-94786D01*
X61677Y-94708D01*
X61698Y-94626D01*
X61722Y-94544D01*
X61755Y-94458D01*
X61792Y-94368D01*
X61833Y-94286D01*
X61886Y-94200D01*
X61944Y-94122D01*
X62013Y-94048D01*
X62017Y-94044D01*
X62030Y-94032D01*
X62054Y-94011D01*
X62083Y-93991D01*
X62124Y-93962D01*
X62173Y-93929D01*
X62226Y-93897D01*
X62292Y-93860D01*
X62366Y-93823D01*
X62444Y-93790D01*
X62534Y-93757D01*
X62628Y-93728D01*
X62731Y-93704D01*
X62846Y-93687D01*
X62960Y-93675D01*
X63087Y-93671D01*
X63120D01*
X63153Y-93675D01*
D02*
G37*
G36*
X47528D02*
X47577D01*
X47635Y-93683D01*
X47704Y-93691D01*
X47778Y-93704D01*
X47860Y-93720D01*
X47942Y-93741D01*
X48032Y-93765D01*
X48123Y-93794D01*
X48213Y-93831D01*
X48299Y-93876D01*
X48385Y-93925D01*
X48467Y-93987D01*
X48541Y-94052D01*
X48545Y-94056D01*
X48557Y-94069D01*
X48578Y-94093D01*
X48602Y-94122D01*
X48631Y-94159D01*
X48660Y-94208D01*
X48697Y-94261D01*
X48733Y-94323D01*
X48766Y-94397D01*
X48803Y-94475D01*
X48832Y-94557D01*
X48865Y-94651D01*
X48885Y-94749D01*
X48906Y-94856D01*
X48918Y-94971D01*
X48922Y-95090D01*
Y-95098D01*
Y-95118D01*
X48918Y-95151D01*
Y-95196D01*
X48910Y-95254D01*
X48902Y-95315D01*
X48889Y-95389D01*
X48873Y-95463D01*
X48852Y-95545D01*
X48828Y-95631D01*
X48795Y-95717D01*
X48758Y-95803D01*
X48717Y-95889D01*
X48664Y-95971D01*
X48606Y-96049D01*
X48537Y-96123D01*
X48533Y-96127D01*
X48520Y-96139D01*
X48496Y-96156D01*
X48467Y-96180D01*
X48426Y-96209D01*
X48381Y-96242D01*
X48323Y-96275D01*
X48258Y-96311D01*
X48188Y-96348D01*
X48106Y-96381D01*
X48020Y-96414D01*
X47922Y-96443D01*
X47819Y-96463D01*
X47708Y-96484D01*
X47589Y-96496D01*
X47462Y-96500D01*
X47434D01*
X47397Y-96496D01*
X47348D01*
X47290Y-96488D01*
X47221Y-96479D01*
X47147Y-96467D01*
X47065Y-96451D01*
X46983Y-96434D01*
X46892Y-96410D01*
X46802Y-96377D01*
X46712Y-96340D01*
X46626Y-96299D01*
X46540Y-96246D01*
X46458Y-96188D01*
X46384Y-96123D01*
X46380Y-96119D01*
X46368Y-96106D01*
X46347Y-96082D01*
X46327Y-96053D01*
X46294Y-96016D01*
X46265Y-95967D01*
X46228Y-95914D01*
X46196Y-95852D01*
X46159Y-95783D01*
X46122Y-95705D01*
X46093Y-95618D01*
X46064Y-95528D01*
X46040Y-95430D01*
X46019Y-95323D01*
X46007Y-95209D01*
X46003Y-95090D01*
Y-95081D01*
Y-95061D01*
X46007Y-95024D01*
X46011Y-94979D01*
X46015Y-94926D01*
X46023Y-94860D01*
X46036Y-94786D01*
X46052Y-94708D01*
X46073Y-94626D01*
X46097Y-94544D01*
X46130Y-94458D01*
X46167Y-94368D01*
X46208Y-94286D01*
X46261Y-94200D01*
X46319Y-94122D01*
X46388Y-94048D01*
X46392Y-94044D01*
X46405Y-94032D01*
X46429Y-94011D01*
X46458Y-93991D01*
X46499Y-93962D01*
X46548Y-93929D01*
X46601Y-93897D01*
X46667Y-93860D01*
X46741Y-93823D01*
X46819Y-93790D01*
X46909Y-93757D01*
X47003Y-93728D01*
X47106Y-93704D01*
X47221Y-93687D01*
X47335Y-93675D01*
X47462Y-93671D01*
X47495D01*
X47528Y-93675D01*
D02*
G37*
%LPC*%
G36*
X41103Y-95167D02*
X41095D01*
X41075Y-95172D01*
X41038Y-95176D01*
X40993Y-95180D01*
X40935Y-95184D01*
X40874Y-95192D01*
X40804Y-95200D01*
X40730Y-95209D01*
X40722D01*
X40697Y-95213D01*
X40661Y-95217D01*
X40615Y-95225D01*
X40566Y-95233D01*
X40517Y-95241D01*
X40468Y-95254D01*
X40423Y-95266D01*
X40419D01*
X40402Y-95274D01*
X40378Y-95282D01*
X40353Y-95295D01*
X40287Y-95332D01*
X40259Y-95356D01*
X40230Y-95385D01*
X40226Y-95389D01*
X40222Y-95397D01*
X40209Y-95414D01*
X40197Y-95438D01*
X40185Y-95467D01*
X40177Y-95500D01*
X40168Y-95541D01*
X40164Y-95586D01*
Y-95590D01*
Y-95598D01*
Y-95614D01*
Y-95635D01*
X40168Y-95676D01*
X40177Y-95721D01*
Y-95725D01*
X40181Y-95729D01*
X40189Y-95750D01*
X40209Y-95783D01*
X40226Y-95799D01*
X40246Y-95819D01*
X40251D01*
X40255Y-95828D01*
X40267Y-95836D01*
X40283Y-95848D01*
X40324Y-95869D01*
X40374Y-95889D01*
X40378D01*
X40390Y-95893D01*
X40406Y-95897D01*
X40431D01*
X40468Y-95901D01*
X40509Y-95906D01*
X40554Y-95910D01*
X40632D01*
X40661Y-95906D01*
X40693Y-95901D01*
X40730Y-95897D01*
X40775Y-95889D01*
X40820Y-95877D01*
X40870Y-95860D01*
X40874Y-95856D01*
X40890Y-95852D01*
X40915Y-95840D01*
X40947Y-95824D01*
X40984Y-95803D01*
X41025Y-95778D01*
X41103Y-95721D01*
Y-95167D01*
D02*
G37*
G36*
X35441D02*
X35433D01*
X35412Y-95172D01*
X35376Y-95176D01*
X35331Y-95180D01*
X35273Y-95184D01*
X35212Y-95192D01*
X35142Y-95200D01*
X35068Y-95209D01*
X35060D01*
X35035Y-95213D01*
X34998Y-95217D01*
X34953Y-95225D01*
X34904Y-95233D01*
X34855Y-95241D01*
X34806Y-95254D01*
X34761Y-95266D01*
X34756D01*
X34740Y-95274D01*
X34716Y-95282D01*
X34691Y-95295D01*
X34625Y-95332D01*
X34597Y-95356D01*
X34568Y-95385D01*
X34564Y-95389D01*
X34560Y-95397D01*
X34547Y-95414D01*
X34535Y-95438D01*
X34523Y-95467D01*
X34515Y-95500D01*
X34506Y-95541D01*
X34502Y-95586D01*
Y-95590D01*
Y-95598D01*
Y-95614D01*
Y-95635D01*
X34506Y-95676D01*
X34515Y-95721D01*
Y-95725D01*
X34519Y-95729D01*
X34527Y-95750D01*
X34547Y-95783D01*
X34564Y-95799D01*
X34584Y-95819D01*
X34588D01*
X34593Y-95828D01*
X34605Y-95836D01*
X34621Y-95848D01*
X34662Y-95869D01*
X34711Y-95889D01*
X34716D01*
X34728Y-95893D01*
X34744Y-95897D01*
X34769D01*
X34806Y-95901D01*
X34847Y-95906D01*
X34892Y-95910D01*
X34970D01*
X34998Y-95906D01*
X35031Y-95901D01*
X35068Y-95897D01*
X35113Y-95889D01*
X35158Y-95877D01*
X35208Y-95860D01*
X35212Y-95856D01*
X35228Y-95852D01*
X35253Y-95840D01*
X35285Y-95824D01*
X35322Y-95803D01*
X35363Y-95778D01*
X35441Y-95721D01*
Y-95167D01*
D02*
G37*
G36*
X28447D02*
X28438D01*
X28418Y-95172D01*
X28381Y-95176D01*
X28336Y-95180D01*
X28278Y-95184D01*
X28217Y-95192D01*
X28147Y-95200D01*
X28073Y-95209D01*
X28065D01*
X28041Y-95213D01*
X28004Y-95217D01*
X27959Y-95225D01*
X27909Y-95233D01*
X27860Y-95241D01*
X27811Y-95254D01*
X27766Y-95266D01*
X27762D01*
X27746Y-95274D01*
X27721Y-95282D01*
X27696Y-95295D01*
X27631Y-95332D01*
X27602Y-95356D01*
X27573Y-95385D01*
X27569Y-95389D01*
X27565Y-95397D01*
X27553Y-95414D01*
X27540Y-95438D01*
X27528Y-95467D01*
X27520Y-95500D01*
X27512Y-95541D01*
X27508Y-95586D01*
Y-95590D01*
Y-95598D01*
Y-95614D01*
Y-95635D01*
X27512Y-95676D01*
X27520Y-95721D01*
Y-95725D01*
X27524Y-95729D01*
X27532Y-95750D01*
X27553Y-95783D01*
X27569Y-95799D01*
X27590Y-95819D01*
X27594D01*
X27598Y-95828D01*
X27610Y-95836D01*
X27627Y-95848D01*
X27668Y-95869D01*
X27717Y-95889D01*
X27721D01*
X27733Y-95893D01*
X27750Y-95897D01*
X27774D01*
X27811Y-95901D01*
X27852Y-95906D01*
X27897Y-95910D01*
X27975D01*
X28004Y-95906D01*
X28037Y-95901D01*
X28073Y-95897D01*
X28119Y-95889D01*
X28164Y-95877D01*
X28213Y-95860D01*
X28217Y-95856D01*
X28233Y-95852D01*
X28258Y-95840D01*
X28291Y-95824D01*
X28328Y-95803D01*
X28369Y-95778D01*
X28447Y-95721D01*
Y-95167D01*
D02*
G37*
G36*
X22317D02*
X22309D01*
X22288Y-95172D01*
X22252Y-95176D01*
X22206Y-95180D01*
X22149Y-95184D01*
X22087Y-95192D01*
X22018Y-95200D01*
X21944Y-95209D01*
X21936D01*
X21911Y-95213D01*
X21874Y-95217D01*
X21829Y-95225D01*
X21780Y-95233D01*
X21731Y-95241D01*
X21682Y-95254D01*
X21636Y-95266D01*
X21632D01*
X21616Y-95274D01*
X21591Y-95282D01*
X21567Y-95295D01*
X21501Y-95332D01*
X21473Y-95356D01*
X21444Y-95385D01*
X21440Y-95389D01*
X21436Y-95397D01*
X21423Y-95414D01*
X21411Y-95438D01*
X21399Y-95467D01*
X21391Y-95500D01*
X21382Y-95541D01*
X21378Y-95586D01*
Y-95590D01*
Y-95598D01*
Y-95614D01*
Y-95635D01*
X21382Y-95676D01*
X21391Y-95721D01*
Y-95725D01*
X21395Y-95729D01*
X21403Y-95750D01*
X21423Y-95783D01*
X21440Y-95799D01*
X21460Y-95819D01*
X21464D01*
X21468Y-95828D01*
X21481Y-95836D01*
X21497Y-95848D01*
X21538Y-95869D01*
X21587Y-95889D01*
X21591D01*
X21604Y-95893D01*
X21620Y-95897D01*
X21645D01*
X21682Y-95901D01*
X21723Y-95906D01*
X21768Y-95910D01*
X21846D01*
X21874Y-95906D01*
X21907Y-95901D01*
X21944Y-95897D01*
X21989Y-95889D01*
X22034Y-95877D01*
X22083Y-95860D01*
X22087Y-95856D01*
X22104Y-95852D01*
X22129Y-95840D01*
X22161Y-95824D01*
X22198Y-95803D01*
X22239Y-95778D01*
X22317Y-95721D01*
Y-95167D01*
D02*
G37*
G36*
X63087Y-94266D02*
X63042D01*
X63014Y-94270D01*
X62977Y-94274D01*
X62940Y-94282D01*
X62866Y-94302D01*
X62862D01*
X62850Y-94311D01*
X62833Y-94319D01*
X62809Y-94331D01*
X62780Y-94348D01*
X62747Y-94372D01*
X62714Y-94401D01*
X62682Y-94434D01*
X62678Y-94438D01*
X62669Y-94450D01*
X62653Y-94471D01*
X62637Y-94499D01*
X62616Y-94536D01*
X62595Y-94581D01*
X62575Y-94630D01*
X62559Y-94688D01*
Y-94696D01*
X62550Y-94717D01*
X62546Y-94749D01*
X62538Y-94798D01*
X62530Y-94856D01*
X62522Y-94926D01*
X62518Y-95003D01*
X62514Y-95094D01*
Y-95098D01*
Y-95102D01*
Y-95114D01*
Y-95131D01*
X62518Y-95172D01*
Y-95221D01*
X62522Y-95282D01*
X62530Y-95344D01*
X62538Y-95409D01*
X62550Y-95471D01*
Y-95479D01*
X62559Y-95495D01*
X62567Y-95528D01*
X62579Y-95561D01*
X62600Y-95602D01*
X62616Y-95647D01*
X62641Y-95688D01*
X62669Y-95729D01*
X62673Y-95733D01*
X62682Y-95746D01*
X62698Y-95762D01*
X62723Y-95783D01*
X62747Y-95803D01*
X62780Y-95828D01*
X62813Y-95848D01*
X62850Y-95864D01*
X62854D01*
X62870Y-95873D01*
X62891Y-95877D01*
X62919Y-95885D01*
X62956Y-95893D01*
X62997Y-95897D01*
X63042Y-95906D01*
X63112D01*
X63137Y-95901D01*
X63165D01*
X63198Y-95897D01*
X63235Y-95889D01*
X63313Y-95869D01*
X63317Y-95864D01*
X63329Y-95860D01*
X63350Y-95852D01*
X63375Y-95836D01*
X63403Y-95819D01*
X63436Y-95795D01*
X63465Y-95770D01*
X63493Y-95737D01*
X63498Y-95733D01*
X63506Y-95721D01*
X63522Y-95696D01*
X63538Y-95668D01*
X63559Y-95631D01*
X63579Y-95590D01*
X63600Y-95545D01*
X63616Y-95491D01*
X63621Y-95483D01*
X63625Y-95467D01*
X63633Y-95434D01*
X63641Y-95389D01*
X63649Y-95332D01*
X63653Y-95262D01*
X63661Y-95184D01*
Y-95094D01*
Y-95090D01*
Y-95081D01*
Y-95069D01*
Y-95053D01*
X63657Y-95012D01*
Y-94958D01*
X63649Y-94893D01*
X63641Y-94827D01*
X63633Y-94762D01*
X63616Y-94700D01*
Y-94692D01*
X63608Y-94675D01*
X63600Y-94643D01*
X63588Y-94610D01*
X63571Y-94569D01*
X63551Y-94524D01*
X63526Y-94483D01*
X63498Y-94446D01*
X63493Y-94442D01*
X63485Y-94429D01*
X63469Y-94413D01*
X63448Y-94393D01*
X63420Y-94368D01*
X63391Y-94343D01*
X63354Y-94323D01*
X63317Y-94306D01*
X63313D01*
X63301Y-94298D01*
X63276Y-94294D01*
X63247Y-94286D01*
X63215Y-94278D01*
X63174Y-94274D01*
X63087Y-94266D01*
D02*
G37*
G36*
X47462D02*
X47417D01*
X47389Y-94270D01*
X47352Y-94274D01*
X47315Y-94282D01*
X47241Y-94302D01*
X47237D01*
X47225Y-94311D01*
X47208Y-94319D01*
X47184Y-94331D01*
X47155Y-94348D01*
X47122Y-94372D01*
X47089Y-94401D01*
X47056Y-94434D01*
X47052Y-94438D01*
X47044Y-94450D01*
X47028Y-94471D01*
X47011Y-94499D01*
X46991Y-94536D01*
X46970Y-94581D01*
X46950Y-94630D01*
X46933Y-94688D01*
Y-94696D01*
X46925Y-94717D01*
X46921Y-94749D01*
X46913Y-94798D01*
X46905Y-94856D01*
X46897Y-94926D01*
X46892Y-95003D01*
X46888Y-95094D01*
Y-95098D01*
Y-95102D01*
Y-95114D01*
Y-95131D01*
X46892Y-95172D01*
Y-95221D01*
X46897Y-95282D01*
X46905Y-95344D01*
X46913Y-95409D01*
X46925Y-95471D01*
Y-95479D01*
X46933Y-95495D01*
X46942Y-95528D01*
X46954Y-95561D01*
X46975Y-95602D01*
X46991Y-95647D01*
X47016Y-95688D01*
X47044Y-95729D01*
X47048Y-95733D01*
X47056Y-95746D01*
X47073Y-95762D01*
X47098Y-95783D01*
X47122Y-95803D01*
X47155Y-95828D01*
X47188Y-95848D01*
X47225Y-95864D01*
X47229D01*
X47245Y-95873D01*
X47266Y-95877D01*
X47294Y-95885D01*
X47331Y-95893D01*
X47372Y-95897D01*
X47417Y-95906D01*
X47487D01*
X47512Y-95901D01*
X47540D01*
X47573Y-95897D01*
X47610Y-95889D01*
X47688Y-95869D01*
X47692Y-95864D01*
X47704Y-95860D01*
X47725Y-95852D01*
X47749Y-95836D01*
X47778Y-95819D01*
X47811Y-95795D01*
X47840Y-95770D01*
X47868Y-95737D01*
X47872Y-95733D01*
X47881Y-95721D01*
X47897Y-95696D01*
X47913Y-95668D01*
X47934Y-95631D01*
X47954Y-95590D01*
X47975Y-95545D01*
X47991Y-95491D01*
X47995Y-95483D01*
X48000Y-95467D01*
X48008Y-95434D01*
X48016Y-95389D01*
X48024Y-95332D01*
X48028Y-95262D01*
X48036Y-95184D01*
Y-95094D01*
Y-95090D01*
Y-95081D01*
Y-95069D01*
Y-95053D01*
X48032Y-95012D01*
Y-94958D01*
X48024Y-94893D01*
X48016Y-94827D01*
X48008Y-94762D01*
X47991Y-94700D01*
Y-94692D01*
X47983Y-94675D01*
X47975Y-94643D01*
X47963Y-94610D01*
X47946Y-94569D01*
X47926Y-94524D01*
X47901Y-94483D01*
X47872Y-94446D01*
X47868Y-94442D01*
X47860Y-94429D01*
X47844Y-94413D01*
X47823Y-94393D01*
X47794Y-94368D01*
X47766Y-94343D01*
X47729Y-94323D01*
X47692Y-94306D01*
X47688D01*
X47676Y-94298D01*
X47651Y-94294D01*
X47622Y-94286D01*
X47589Y-94278D01*
X47548Y-94274D01*
X47462Y-94266D01*
D02*
G37*
%LPD*%
D10*
X36220Y-48268D02*
G03*
X36220Y-48268I-1181J0D01*
G01*
D11*
X29528Y-56634D02*
G03*
X29528Y-56634I-492J0D01*
G01*
D12*
X34721Y-9937D02*
Y-2063D01*
X52437Y-9937D02*
Y-2063D01*
D13*
X55512Y-52205D02*
Y-27795D01*
X31102Y-52205D02*
Y-27795D01*
X55512D01*
X31102Y-52205D02*
X55512D01*
X2500Y-10000D02*
X12500D01*
Y-50000D02*
Y-10000D01*
X2500Y-50000D02*
Y-10000D01*
Y-50000D02*
X12500D01*
X74000Y-10000D02*
X84000D01*
Y-50000D02*
Y-10000D01*
X74000Y-50000D02*
Y-10000D01*
Y-50000D02*
X84000D01*
D14*
X51000Y-72000D02*
Y-66000D01*
X45000Y-72000D02*
Y-66000D01*
X56500Y-72000D02*
Y-66000D01*
X50500Y-72000D02*
Y-66000D01*
X32500Y-69000D02*
X38500D01*
X32500Y-63000D02*
X38500D01*
X32500Y-70000D02*
X38500D01*
X32500Y-76000D02*
X38500D01*
X66000Y-51000D02*
Y-45000D01*
X72000Y-51000D02*
Y-45000D01*
X20500D02*
Y-39000D01*
X14500Y-45000D02*
Y-39000D01*
D15*
X54200Y-85400D02*
Y-77500D01*
X27600Y-85400D02*
Y-77500D01*
X54200D01*
X27600Y-85400D02*
X54200D01*
X38100Y-85200D02*
Y-77600D01*
D16*
X7874Y-98425D02*
X78740D01*
D17*
X24000Y-19851D02*
Y-22475D01*
X24525Y-23000D01*
X25574D01*
X26099Y-22475D01*
Y-19851D01*
X27149Y-23000D02*
X28198D01*
X27673D01*
Y-19851D01*
X27149Y-20376D01*
X71000Y-61000D02*
X67851D01*
Y-59426D01*
X68376Y-58901D01*
X69426D01*
X69950Y-59426D01*
Y-61000D01*
Y-59951D02*
X71000Y-58901D01*
Y-56277D02*
X67851D01*
X69426Y-57851D01*
Y-55752D01*
X16376Y-32401D02*
X15851Y-32926D01*
Y-33975D01*
X16376Y-34500D01*
X18475D01*
X19000Y-33975D01*
Y-32926D01*
X18475Y-32401D01*
X19000Y-29252D02*
Y-31351D01*
X16901Y-29252D01*
X16376D01*
X15851Y-29777D01*
Y-30827D01*
X16376Y-31351D01*
X63376Y-69511D02*
X62851Y-70036D01*
Y-71086D01*
X63376Y-71610D01*
X65475D01*
X66000Y-71086D01*
Y-70036D01*
X65475Y-69511D01*
X62851Y-66363D02*
X63376Y-67412D01*
X64426Y-68462D01*
X65475D01*
X66000Y-67937D01*
Y-66887D01*
X65475Y-66363D01*
X64951D01*
X64426Y-66887D01*
Y-68462D01*
X40000Y-79851D02*
Y-83000D01*
X41574D01*
X42099Y-82475D01*
Y-80376D01*
X41574Y-79851D01*
X40000D01*
X43149Y-83000D02*
X44198D01*
X43673D01*
Y-79851D01*
X43149Y-80376D01*
X24500Y-67500D02*
Y-64351D01*
X26074D01*
X26599Y-64876D01*
Y-65926D01*
X26074Y-66451D01*
X24500D01*
X25550D02*
X26599Y-67500D01*
X27649D02*
X28698D01*
X28173D01*
Y-64351D01*
X27649Y-64876D01*
X61500Y-71500D02*
X58351D01*
Y-69926D01*
X58876Y-69401D01*
X59926D01*
X60451Y-69926D01*
Y-71500D01*
Y-70451D02*
X61500Y-69401D01*
X58351Y-66252D02*
Y-68351D01*
X59926D01*
X59401Y-67302D01*
Y-66777D01*
X59926Y-66252D01*
X60975D01*
X61500Y-66777D01*
Y-67827D01*
X60975Y-68351D01*
X24000Y-74500D02*
Y-71351D01*
X25574D01*
X26099Y-71876D01*
Y-72926D01*
X25574Y-73450D01*
X24000D01*
X25049D02*
X26099Y-74500D01*
X27149Y-71876D02*
X27673Y-71351D01*
X28723D01*
X29248Y-71876D01*
Y-72401D01*
X28723Y-72926D01*
X29248Y-73450D01*
Y-73975D01*
X28723Y-74500D01*
X27673D01*
X27149Y-73975D01*
Y-73450D01*
X27673Y-72926D01*
X27149Y-72401D01*
Y-71876D01*
X27673Y-72926D02*
X28723D01*
M02*
