G04*
G04 #@! TF.GenerationSoftware,Altium Limited,Altium Designer,21.0.8 (223)*
G04*
G04 Layer_Color=2752767*
%FSLAX25Y25*%
%MOIN*%
G70*
G04*
G04 #@! TF.SameCoordinates,D91FEFE4-16E7-4BF4-AD38-342E90C75360*
G04*
G04*
G04 #@! TF.FilePolarity,Positive*
G04*
G01*
G75*
%ADD13C,0.00787*%
%ADD42C,0.00200*%
%ADD43C,0.00267*%
D13*
X86614Y-11811D02*
G03*
X74803Y0I-11811J0D01*
G01*
X11811D02*
G03*
X0Y-11811I0J-11811D01*
G01*
X11704Y0D02*
X74803D01*
X86614Y-314961D02*
Y-11811D01*
X0Y-314961D02*
Y-11704D01*
X43307Y-385827D02*
X86614Y-314961D01*
X0D02*
X43307Y-385827D01*
D42*
X6700Y-64300D02*
Y-62700D01*
X8300D01*
Y-64300D01*
X6700D01*
X16700D02*
Y-62700D01*
X18300D01*
Y-64300D01*
X16700D01*
X6700Y-74300D02*
Y-72700D01*
X8300D01*
Y-74300D01*
X6700D01*
X16700D02*
Y-72700D01*
X18300D01*
Y-74300D01*
X16700D01*
X6700Y-84300D02*
Y-82700D01*
X8300D01*
Y-84300D01*
X6700D01*
X16700D02*
Y-82700D01*
X18300D01*
Y-84300D01*
X16700D01*
X6700Y-45800D02*
Y-44200D01*
X8300D01*
Y-45800D01*
X6700D01*
Y-35800D02*
Y-34200D01*
X8300D01*
Y-35800D01*
X6700D01*
Y-25800D02*
Y-24200D01*
X8300D01*
Y-25800D01*
X6700D01*
Y-15800D02*
Y-14200D01*
X8300D01*
Y-15800D01*
X6700D01*
X78200Y-45800D02*
Y-44200D01*
X79800D01*
Y-45800D01*
X78200D01*
Y-35800D02*
Y-34200D01*
X79800D01*
Y-35800D01*
X78200D01*
Y-25800D02*
Y-24200D01*
X79800D01*
Y-25800D01*
X78200D01*
Y-15800D02*
Y-14200D01*
X79800D01*
Y-15800D01*
X78200D01*
D43*
X39300Y-7000D02*
G03*
X39300Y-7000I-800J0D01*
G01*
X49300D02*
G03*
X49300Y-7000I-800J0D01*
G01*
X19300Y-34000D02*
G03*
X19300Y-34000I-800J0D01*
G01*
X58300Y-70500D02*
G03*
X58300Y-70500I-800J0D01*
G01*
X75603Y-93500D02*
G03*
X75603Y-93500I-800J0D01*
G01*
X12611D02*
G03*
X12611Y-93500I-800J0D01*
G01*
X29331Y-74032D02*
G03*
X29331Y-74032I-800J0D01*
G01*
X61831Y-63532D02*
G03*
X61831Y-63532I-800J0D01*
G01*
X34332Y-30031D02*
G03*
X34332Y-30031I-800J0D01*
G01*
X28332Y-24032D02*
G03*
X28332Y-24032I-800J0D01*
G01*
X66206Y-32157D02*
G03*
X66206Y-32157I-800J0D01*
G01*
X60831Y-25032D02*
G03*
X60831Y-25032I-800J0D01*
G01*
X27505Y-53858D02*
G03*
X27505Y-53858I-800J0D01*
G01*
X41091Y-31291D02*
G03*
X41091Y-31291I-800J0D01*
G01*
X48800Y-14000D02*
G03*
X48800Y-14000I-800J0D01*
G01*
X48831Y-28500D02*
G03*
X48831Y-28500I-800J0D01*
G01*
X33300Y-44000D02*
G03*
X33300Y-44000I-800J0D01*
G01*
X45300Y-48000D02*
G03*
X45300Y-48000I-800J0D01*
G01*
X36300D02*
G03*
X36300Y-48000I-800J0D01*
G01*
M02*
