G04*
G04 #@! TF.GenerationSoftware,Altium Limited,Altium Designer,21.0.8 (223)*
G04*
G04 Layer_Physical_Order=2*
G04 Layer_Color=16711680*
%FSLAX25Y25*%
%MOIN*%
G70*
G04*
G04 #@! TF.SameCoordinates,D91FEFE4-16E7-4BF4-AD38-342E90C75360*
G04*
G04*
G04 #@! TF.FilePolarity,Positive*
G04*
G01*
G75*
%ADD11C,0.00984*%
%ADD12C,0.01000*%
%ADD16C,0.01181*%
%ADD21R,0.03543X0.02756*%
%ADD22R,0.02756X0.03543*%
%ADD34C,0.01968*%
%ADD36C,0.05906*%
%ADD37R,0.05906X0.05906*%
%ADD38C,0.03150*%
%ADD39R,0.02362X0.04331*%
G36*
X11811Y-1220D02*
X41421D01*
X41628Y-1720D01*
X38894Y-4455D01*
X38500Y-4403D01*
X38106Y-4455D01*
X37076Y-3424D01*
X36582Y-3094D01*
X36000Y-2979D01*
X34488D01*
Y-1728D01*
X29732D01*
Y-7272D01*
X29732D01*
Y-7728D01*
X29732D01*
Y-13272D01*
X29732D01*
X29732Y-13728D01*
X29732D01*
Y-19272D01*
X34488D01*
Y-13728D01*
X34488D01*
X34488Y-13272D01*
X34488D01*
Y-7728D01*
X34488D01*
Y-7272D01*
X34488D01*
Y-6021D01*
X35370D01*
X35955Y-6606D01*
X35903Y-7000D01*
X35991Y-7672D01*
X36251Y-8298D01*
X36664Y-8836D01*
X37201Y-9249D01*
X37828Y-9509D01*
X38500Y-9597D01*
X39172Y-9509D01*
X39799Y-9249D01*
X40336Y-8836D01*
X40749Y-8298D01*
X41008Y-7672D01*
X41097Y-7000D01*
X41045Y-6606D01*
X43630Y-4021D01*
X61370D01*
X63884Y-6536D01*
Y-30079D01*
X63569Y-30321D01*
X63156Y-30859D01*
X62897Y-31485D01*
X62828Y-32012D01*
X61000D01*
Y-34390D01*
Y-36768D01*
X63272D01*
Y-34396D01*
X63772Y-34149D01*
X64107Y-34407D01*
X64733Y-34666D01*
X65405Y-34754D01*
X66078Y-34666D01*
X66704Y-34407D01*
X67242Y-33994D01*
X67655Y-33456D01*
X67914Y-32830D01*
X68002Y-32157D01*
X67914Y-31485D01*
X67655Y-30859D01*
X67242Y-30321D01*
X66927Y-30079D01*
Y-5906D01*
X66927Y-5906D01*
X66811Y-5323D01*
X66481Y-4830D01*
X63372Y-1720D01*
X63579Y-1220D01*
X74605D01*
X74803Y-1260D01*
Y-1260D01*
X74809Y-1254D01*
X76461Y-1384D01*
X78078Y-1772D01*
X79614Y-2409D01*
X81032Y-3277D01*
X82296Y-4357D01*
X83376Y-5622D01*
X84245Y-7040D01*
X84881Y-8576D01*
X85269Y-10193D01*
X85398Y-11828D01*
X85394Y-11850D01*
Y-97500D01*
X1220D01*
Y-44599D01*
X1720Y-44448D01*
X1853Y-44647D01*
X3353Y-46147D01*
X3547Y-46276D01*
Y-48953D01*
X11453D01*
Y-47874D01*
X11728Y-47488D01*
X17272D01*
Y-42732D01*
X11728D01*
X11453Y-42346D01*
Y-41654D01*
X11728Y-41268D01*
X11910Y-41268D01*
X14000D01*
Y-39390D01*
X11728D01*
Y-40661D01*
X11453Y-41047D01*
X11271Y-41047D01*
X4622D01*
Y-38404D01*
X5122Y-38157D01*
X5507Y-38453D01*
X6468Y-38851D01*
X7500Y-38987D01*
X8532Y-38851D01*
X9493Y-38453D01*
X10319Y-37819D01*
X10953Y-36993D01*
X11351Y-36032D01*
X11487Y-35000D01*
X11351Y-33968D01*
X10953Y-33007D01*
X10319Y-32181D01*
X9493Y-31547D01*
X8532Y-31149D01*
X7500Y-31013D01*
X6468Y-31149D01*
X5507Y-31547D01*
X5122Y-31843D01*
X4622Y-31596D01*
Y-28404D01*
X5122Y-28157D01*
X5507Y-28453D01*
X6468Y-28851D01*
X7500Y-28987D01*
X8532Y-28851D01*
X9493Y-28453D01*
X10319Y-27819D01*
X10953Y-26993D01*
X11351Y-26032D01*
X11487Y-25000D01*
X11351Y-23968D01*
X10953Y-23007D01*
X10319Y-22181D01*
X9493Y-21547D01*
X8532Y-21149D01*
X7500Y-21013D01*
X6468Y-21149D01*
X5507Y-21547D01*
X5122Y-21843D01*
X4622Y-21596D01*
Y-18404D01*
X5122Y-18157D01*
X5507Y-18453D01*
X6468Y-18851D01*
X6909Y-18909D01*
Y-15000D01*
X7500D01*
D01*
X6909D01*
Y-11091D01*
X6468Y-11149D01*
X5507Y-11547D01*
X5122Y-11843D01*
X4705Y-11637D01*
X4658Y-11135D01*
X9672Y-6122D01*
X23512D01*
Y-7272D01*
X23512D01*
Y-7728D01*
X23512D01*
Y-13228D01*
X23512Y-13272D01*
X23512Y-13728D01*
X23512Y-13772D01*
Y-16000D01*
X28268D01*
Y-13772D01*
X28268Y-13728D01*
X28268Y-13272D01*
X28268Y-13228D01*
Y-7728D01*
X28268D01*
Y-7272D01*
X28268D01*
Y-1728D01*
X23512D01*
Y-2878D01*
X9000D01*
X8379Y-3002D01*
X7853Y-3353D01*
X2113Y-9093D01*
X1660Y-8839D01*
X1733Y-8536D01*
X2369Y-7000D01*
X3238Y-5582D01*
X4318Y-4318D01*
X5582Y-3238D01*
X7000Y-2369D01*
X8536Y-1733D01*
X10153Y-1345D01*
X11789Y-1216D01*
X11811Y-1220D01*
D02*
G37*
%LPC*%
G36*
X79590Y-11091D02*
Y-14410D01*
X82909D01*
X82851Y-13968D01*
X82453Y-13007D01*
X81819Y-12181D01*
X80993Y-11547D01*
X80032Y-11149D01*
X79590Y-11091D01*
D02*
G37*
G36*
X8091D02*
Y-14410D01*
X11409D01*
X11351Y-13968D01*
X10953Y-13007D01*
X10319Y-12181D01*
X9493Y-11547D01*
X8532Y-11149D01*
X8091Y-11091D01*
D02*
G37*
G36*
X78409D02*
X77968Y-11149D01*
X77007Y-11547D01*
X76181Y-12181D01*
X75547Y-13007D01*
X75149Y-13968D01*
X75091Y-14410D01*
X78409D01*
Y-11091D01*
D02*
G37*
G36*
X82909Y-15590D02*
X79590D01*
Y-18909D01*
X80032Y-18851D01*
X80993Y-18453D01*
X81819Y-17819D01*
X82453Y-16993D01*
X82851Y-16032D01*
X82909Y-15590D01*
D02*
G37*
G36*
X11409D02*
X8091D01*
Y-18909D01*
X8532Y-18851D01*
X9493Y-18453D01*
X10319Y-17819D01*
X10953Y-16993D01*
X11351Y-16032D01*
X11409Y-15590D01*
D02*
G37*
G36*
X78409D02*
X75091D01*
X75149Y-16032D01*
X75547Y-16993D01*
X76181Y-17819D01*
X77007Y-18453D01*
X77968Y-18851D01*
X78409Y-18909D01*
Y-15590D01*
D02*
G37*
G36*
X28268Y-17000D02*
X26390D01*
Y-19272D01*
X28268D01*
Y-17000D01*
D02*
G37*
G36*
X25390D02*
X23512D01*
Y-19272D01*
X25390D01*
Y-17000D01*
D02*
G37*
G36*
X27531Y-21434D02*
X26859Y-21523D01*
X26233Y-21782D01*
X25695Y-22195D01*
X25282Y-22733D01*
X25023Y-23359D01*
X24935Y-24032D01*
X24985Y-24415D01*
X21419Y-27982D01*
X21087Y-28478D01*
X20971Y-29063D01*
Y-49367D01*
X19419Y-50919D01*
X19087Y-51415D01*
X18971Y-52000D01*
Y-59381D01*
X18660Y-59588D01*
X18471Y-59641D01*
X17500Y-59513D01*
X16468Y-59649D01*
X15507Y-60047D01*
X14681Y-60681D01*
X14047Y-61507D01*
X13649Y-62468D01*
X13513Y-63500D01*
X13649Y-64532D01*
X14047Y-65493D01*
X14681Y-66319D01*
X15507Y-66953D01*
X16468Y-67351D01*
X17500Y-67487D01*
X18532Y-67351D01*
X19493Y-66953D01*
X20319Y-66319D01*
X20953Y-65493D01*
X21351Y-64532D01*
X21426Y-63964D01*
X21692Y-63836D01*
X21949Y-63818D01*
X21971Y-63845D01*
Y-69367D01*
X20636Y-70702D01*
X20319Y-70681D01*
X19493Y-70047D01*
X18532Y-69649D01*
X17500Y-69513D01*
X16468Y-69649D01*
X15507Y-70047D01*
X14681Y-70681D01*
X14047Y-71507D01*
X13649Y-72468D01*
X13513Y-73500D01*
X13649Y-74532D01*
X14047Y-75493D01*
X14681Y-76319D01*
X15507Y-76953D01*
X16468Y-77351D01*
X17500Y-77487D01*
X18532Y-77351D01*
X19493Y-76953D01*
X20319Y-76319D01*
X20953Y-75493D01*
X21351Y-74532D01*
X21384Y-74278D01*
X24581Y-71081D01*
X24913Y-70585D01*
X25029Y-70000D01*
Y-52134D01*
X26581Y-50581D01*
X26913Y-50085D01*
X27029Y-49500D01*
Y-34633D01*
X30102Y-31561D01*
X31460D01*
X31695Y-31868D01*
X32233Y-32281D01*
X32859Y-32540D01*
X33531Y-32629D01*
X34204Y-32540D01*
X34830Y-32281D01*
X35368Y-31868D01*
X35781Y-31330D01*
X36040Y-30704D01*
X36129Y-30031D01*
X36040Y-29359D01*
X35781Y-28733D01*
X35368Y-28195D01*
X34830Y-27782D01*
X34204Y-27523D01*
X33531Y-27435D01*
X32859Y-27523D01*
X32233Y-27782D01*
X31695Y-28195D01*
X31460Y-28502D01*
X29469D01*
X28883Y-28618D01*
X28387Y-28950D01*
X24529Y-32808D01*
X24092Y-32671D01*
X24029Y-32623D01*
Y-29697D01*
X27148Y-26578D01*
X27531Y-26629D01*
X28204Y-26540D01*
X28830Y-26281D01*
X29368Y-25868D01*
X29781Y-25330D01*
X30040Y-24704D01*
X30128Y-24032D01*
X30040Y-23359D01*
X29781Y-22733D01*
X29368Y-22195D01*
X28830Y-21782D01*
X28204Y-21523D01*
X27531Y-21434D01*
D02*
G37*
G36*
X79000Y-21013D02*
X77968Y-21149D01*
X77007Y-21547D01*
X76181Y-22181D01*
X75547Y-23007D01*
X75149Y-23968D01*
X75013Y-25000D01*
X75149Y-26032D01*
X75547Y-26993D01*
X76181Y-27819D01*
X77007Y-28453D01*
X77968Y-28851D01*
X79000Y-28987D01*
X80032Y-28851D01*
X80993Y-28453D01*
X81819Y-27819D01*
X82453Y-26993D01*
X82851Y-26032D01*
X82987Y-25000D01*
X82851Y-23968D01*
X82453Y-23007D01*
X81819Y-22181D01*
X80993Y-21547D01*
X80032Y-21149D01*
X79000Y-21013D01*
D02*
G37*
G36*
X48000Y-11403D02*
X47328Y-11491D01*
X46701Y-11751D01*
X46164Y-12164D01*
X45751Y-12701D01*
X45491Y-13328D01*
X45403Y-14000D01*
X45491Y-14672D01*
X45751Y-15299D01*
X45977Y-15593D01*
Y-26948D01*
X45782Y-27202D01*
X45523Y-27828D01*
X45434Y-28500D01*
X45523Y-29172D01*
X45782Y-29798D01*
X46195Y-30336D01*
X46733Y-30749D01*
X47359Y-31008D01*
X48031Y-31097D01*
X48704Y-31008D01*
X49330Y-30749D01*
X49868Y-30336D01*
X50281Y-29798D01*
X50540Y-29172D01*
X50629Y-28500D01*
X50540Y-27828D01*
X50281Y-27202D01*
X50023Y-26866D01*
Y-15593D01*
X50249Y-15299D01*
X50508Y-14672D01*
X50597Y-14000D01*
X50508Y-13328D01*
X50249Y-12701D01*
X49836Y-12164D01*
X49299Y-11751D01*
X48672Y-11491D01*
X48000Y-11403D01*
D02*
G37*
G36*
X60000Y-32012D02*
X52728D01*
Y-32844D01*
X52490Y-32891D01*
X51964Y-33243D01*
X50421Y-34785D01*
X49921Y-34578D01*
Y-33724D01*
X44500D01*
Y-36890D01*
Y-40055D01*
X46118D01*
Y-42378D01*
X34501D01*
X34336Y-42164D01*
X33799Y-41751D01*
X33172Y-41491D01*
X32500Y-41403D01*
X31828Y-41491D01*
X31201Y-41751D01*
X30664Y-42164D01*
X30251Y-42702D01*
X29991Y-43328D01*
X29903Y-44000D01*
X29991Y-44672D01*
X30251Y-45298D01*
X30664Y-45836D01*
X31201Y-46249D01*
X31828Y-46508D01*
X32500Y-46597D01*
X32768Y-46562D01*
X33119Y-47020D01*
X32991Y-47328D01*
X32903Y-48000D01*
X32991Y-48672D01*
X33251Y-49299D01*
X33664Y-49836D01*
X34201Y-50249D01*
X34828Y-50508D01*
X35500Y-50597D01*
X36172Y-50508D01*
X36799Y-50249D01*
X37336Y-49836D01*
X37501Y-49622D01*
X38079D01*
Y-51276D01*
X38638D01*
Y-52760D01*
X38762Y-53380D01*
X39113Y-53907D01*
X41353Y-56147D01*
X41879Y-56498D01*
X42500Y-56622D01*
X59500D01*
X60121Y-56498D01*
X60647Y-56147D01*
X61647Y-55147D01*
X61998Y-54621D01*
X62122Y-54000D01*
Y-53488D01*
X63272D01*
Y-48732D01*
X52728D01*
Y-49589D01*
X49921D01*
Y-44945D01*
X49450D01*
X49182Y-44445D01*
X49238Y-44361D01*
X49362Y-43740D01*
Y-40055D01*
X49921D01*
Y-38511D01*
X50610D01*
X51231Y-38388D01*
X51757Y-38037D01*
X53026Y-36768D01*
X60000D01*
Y-34390D01*
Y-32012D01*
D02*
G37*
G36*
X71772Y-36512D02*
X69500D01*
Y-38390D01*
X71772D01*
Y-36512D01*
D02*
G37*
G36*
X17272D02*
X15000D01*
Y-38390D01*
X17272D01*
Y-36512D01*
D02*
G37*
G36*
X68500D02*
X66228D01*
Y-38390D01*
X68500D01*
Y-36512D01*
D02*
G37*
G36*
X14000D02*
X11728D01*
Y-38390D01*
X14000D01*
Y-36512D01*
D02*
G37*
G36*
X79000Y-31013D02*
X77968Y-31149D01*
X77007Y-31547D01*
X76181Y-32181D01*
X75547Y-33007D01*
X75149Y-33968D01*
X75013Y-35000D01*
X75149Y-36032D01*
X75547Y-36993D01*
X76181Y-37819D01*
X77007Y-38453D01*
X77968Y-38851D01*
X79000Y-38987D01*
X80032Y-38851D01*
X80993Y-38453D01*
X81819Y-37819D01*
X82453Y-36993D01*
X82851Y-36032D01*
X82987Y-35000D01*
X82851Y-33968D01*
X82453Y-33007D01*
X81819Y-32181D01*
X80993Y-31547D01*
X80032Y-31149D01*
X79000Y-31013D01*
D02*
G37*
G36*
X40291Y-28694D02*
X39619Y-28783D01*
X38993Y-29042D01*
X38455Y-29455D01*
X38042Y-29993D01*
X37783Y-30619D01*
X37694Y-31291D01*
X37783Y-31964D01*
X38042Y-32590D01*
X38455Y-33128D01*
X38581Y-33224D01*
X38556Y-33724D01*
X38079D01*
Y-40055D01*
X43500D01*
Y-36890D01*
Y-33724D01*
X42144D01*
X42002Y-33224D01*
X42128Y-33128D01*
X42540Y-32590D01*
X42800Y-31964D01*
X42888Y-31291D01*
X42800Y-30619D01*
X42540Y-29993D01*
X42128Y-29455D01*
X41590Y-29042D01*
X40964Y-28783D01*
X40291Y-28694D01*
D02*
G37*
G36*
X71772Y-39390D02*
X69500D01*
Y-41268D01*
X71772D01*
Y-39390D01*
D02*
G37*
G36*
X68500D02*
X66228D01*
Y-41268D01*
X68500D01*
Y-39390D01*
D02*
G37*
G36*
X17272D02*
X15000D01*
Y-41268D01*
X17272D01*
Y-39390D01*
D02*
G37*
G36*
X63272Y-38232D02*
X52728D01*
Y-42988D01*
Y-47268D01*
X63272D01*
Y-46622D01*
X66228D01*
Y-47488D01*
X71772D01*
Y-46622D01*
X75047D01*
Y-48953D01*
X82953D01*
Y-41047D01*
X75047D01*
Y-43378D01*
X71772D01*
Y-42732D01*
X66228D01*
Y-43378D01*
X63272D01*
Y-42988D01*
Y-38232D01*
D02*
G37*
G36*
X8091Y-59591D02*
Y-62910D01*
X11409D01*
X11351Y-62468D01*
X10953Y-61507D01*
X10319Y-60681D01*
X9493Y-60047D01*
X8532Y-59649D01*
X8091Y-59591D01*
D02*
G37*
G36*
X6909D02*
X6468Y-59649D01*
X5507Y-60047D01*
X4681Y-60681D01*
X4047Y-61507D01*
X3649Y-62468D01*
X3591Y-62910D01*
X6909D01*
Y-59591D01*
D02*
G37*
G36*
X61032Y-60935D02*
X60359Y-61023D01*
X59733Y-61282D01*
X59195Y-61695D01*
X58782Y-62233D01*
X58523Y-62859D01*
X58434Y-63532D01*
X58523Y-64204D01*
X58782Y-64830D01*
X59195Y-65368D01*
X59733Y-65781D01*
X60359Y-66040D01*
X61032Y-66128D01*
X61704Y-66040D01*
X62330Y-65781D01*
X62868Y-65368D01*
X63281Y-64830D01*
X63540Y-64204D01*
X63629Y-63532D01*
X63540Y-62859D01*
X63281Y-62233D01*
X62868Y-61695D01*
X62330Y-61282D01*
X61704Y-61023D01*
X61032Y-60935D01*
D02*
G37*
G36*
X11409Y-64091D02*
X8091D01*
Y-67409D01*
X8532Y-67351D01*
X9493Y-66953D01*
X10319Y-66319D01*
X10953Y-65493D01*
X11351Y-64532D01*
X11409Y-64091D01*
D02*
G37*
G36*
X6909D02*
X3591D01*
X3649Y-64532D01*
X4047Y-65493D01*
X4681Y-66319D01*
X5507Y-66953D01*
X6468Y-67351D01*
X6909Y-67409D01*
Y-64091D01*
D02*
G37*
G36*
X7500Y-69513D02*
X6468Y-69649D01*
X5507Y-70047D01*
X4681Y-70681D01*
X4047Y-71507D01*
X3649Y-72468D01*
X3513Y-73500D01*
X3649Y-74532D01*
X4047Y-75493D01*
X4681Y-76319D01*
X5507Y-76953D01*
X6468Y-77351D01*
X7500Y-77487D01*
X8532Y-77351D01*
X9493Y-76953D01*
X10319Y-76319D01*
X10953Y-75493D01*
X11351Y-74532D01*
X11487Y-73500D01*
X11351Y-72468D01*
X10953Y-71507D01*
X10319Y-70681D01*
X9493Y-70047D01*
X8532Y-69649D01*
X7500Y-69513D01*
D02*
G37*
G36*
X21453Y-79547D02*
X13547D01*
Y-87453D01*
X21453D01*
Y-79547D01*
D02*
G37*
G36*
X7500Y-79513D02*
X6468Y-79649D01*
X5507Y-80047D01*
X4681Y-80681D01*
X4047Y-81507D01*
X3649Y-82468D01*
X3513Y-83500D01*
X3649Y-84532D01*
X4047Y-85493D01*
X4681Y-86319D01*
X5507Y-86953D01*
X6468Y-87351D01*
X7500Y-87487D01*
X8532Y-87351D01*
X9493Y-86953D01*
X10319Y-86319D01*
X10953Y-85493D01*
X11351Y-84532D01*
X11487Y-83500D01*
X11351Y-82468D01*
X10953Y-81507D01*
X10319Y-80681D01*
X9493Y-80047D01*
X8532Y-79649D01*
X7500Y-79513D01*
D02*
G37*
%LPD*%
D11*
X32110Y-14500D02*
X32110Y-14500D01*
X32110Y-14500D02*
Y-10500D01*
X65405Y-32157D02*
Y-5906D01*
X62000Y-2500D02*
X65405Y-5906D01*
X43000Y-2500D02*
X62000D01*
X38500Y-7000D02*
X43000Y-2500D01*
X36000Y-4500D02*
X38500Y-7000D01*
X32110Y-4500D02*
X36000D01*
X32110Y-10500D02*
Y-4500D01*
X48110Y-51110D02*
X55500D01*
X47740Y-50740D02*
X48110Y-51110D01*
X47740Y-50740D02*
Y-48110D01*
X47630Y-48000D02*
X47740Y-48110D01*
X44500Y-48000D02*
X47630D01*
D12*
X22500Y-50000D02*
Y-29063D01*
X20500Y-52000D02*
X22500Y-50000D01*
X20500Y-60500D02*
Y-52000D01*
X17500Y-63500D02*
X20500Y-60500D01*
X23500Y-70000D02*
Y-51500D01*
X20000Y-73500D02*
X23500Y-70000D01*
X17500Y-73500D02*
X20000D01*
X22500Y-29063D02*
X27531Y-24032D01*
X23500Y-51500D02*
X25500Y-49500D01*
Y-34000D01*
X29469Y-30031D01*
X33531D01*
X65000Y-38890D02*
X69000D01*
X60500Y-34390D02*
X65000Y-38890D01*
X57468Y-25032D02*
X60031D01*
X50500Y-32000D02*
X57468Y-25032D01*
X46000Y-32000D02*
X50500D01*
X44000Y-34000D02*
X46000Y-32000D01*
X44000Y-36890D02*
Y-34000D01*
X60031Y-25032D02*
X60500Y-25500D01*
Y-34390D02*
Y-25500D01*
D16*
X40260Y-36890D02*
Y-31260D01*
X60610Y-45000D02*
X79000D01*
X4500D02*
X7500D01*
X3000Y-43500D02*
X4500Y-45000D01*
X3000Y-43500D02*
Y-10500D01*
X9000Y-4500D01*
X25890D01*
X14390Y-45000D02*
X14500Y-45110D01*
X7500Y-45000D02*
X14390D01*
X55500Y-40610D02*
X60500D01*
X25890Y-9500D02*
Y-4500D01*
X60500Y-44890D02*
X60610Y-45000D01*
X60500Y-54000D02*
Y-51110D01*
X59500Y-55000D02*
X60500Y-54000D01*
X42500Y-55000D02*
X59500D01*
X40260Y-52760D02*
X42500Y-55000D01*
X40260Y-52760D02*
Y-48110D01*
X55500Y-44890D02*
X60500D01*
X55500D02*
Y-40610D01*
X47740Y-36890D02*
X50610D01*
X53110Y-34390D01*
X55500D01*
X32500Y-44000D02*
X47480D01*
X47740Y-43740D01*
Y-36890D01*
X40150Y-48000D02*
X40260Y-48110D01*
X35500Y-48000D02*
X40150D01*
D21*
X69000Y-38890D02*
D03*
Y-45110D02*
D03*
X14500Y-38890D02*
D03*
Y-45110D02*
D03*
X60500Y-44890D02*
D03*
Y-51110D02*
D03*
X55500Y-40610D02*
D03*
Y-34390D02*
D03*
X60500Y-40610D02*
D03*
Y-34390D02*
D03*
X55500Y-44890D02*
D03*
Y-51110D02*
D03*
D22*
X25890Y-10500D02*
D03*
X32110D02*
D03*
Y-4500D02*
D03*
X25890D02*
D03*
X32110Y-16500D02*
D03*
X25890D02*
D03*
D34*
X48000Y-28468D02*
X48031Y-28500D01*
X48000Y-28468D02*
Y-14000D01*
D36*
X7500Y-63500D02*
D03*
X17500D02*
D03*
X7500Y-73500D02*
D03*
X17500D02*
D03*
X7500Y-83500D02*
D03*
Y-35000D02*
D03*
Y-25000D02*
D03*
Y-15000D02*
D03*
X79000Y-35000D02*
D03*
Y-25000D02*
D03*
Y-15000D02*
D03*
D37*
X17500Y-83500D02*
D03*
X7500Y-45000D02*
D03*
X79000D02*
D03*
D38*
X38500Y-7000D02*
D03*
X48500D02*
D03*
X18500Y-34000D02*
D03*
X57500Y-70500D02*
D03*
X74803Y-93500D02*
D03*
X11811D02*
D03*
X28532Y-74032D02*
D03*
X61032Y-63532D02*
D03*
X33531Y-30031D02*
D03*
X27531Y-24032D02*
D03*
X65405Y-32157D02*
D03*
X60031Y-25032D02*
D03*
X26705Y-53858D02*
D03*
X40291Y-31291D02*
D03*
X48000Y-14000D02*
D03*
X48031Y-28500D02*
D03*
X32500Y-44000D02*
D03*
X44500Y-48000D02*
D03*
X35500D02*
D03*
D39*
X40260Y-36890D02*
D03*
X44000D02*
D03*
X47740D02*
D03*
Y-48110D02*
D03*
X40260D02*
D03*
M02*
