G04*
G04 #@! TF.GenerationSoftware,Altium Limited,Altium Designer,21.0.8 (223)*
G04*
G04 Layer_Color=16711935*
%FSLAX25Y25*%
%MOIN*%
G70*
G04*
G04 #@! TF.SameCoordinates,D91FEFE4-16E7-4BF4-AD38-342E90C75360*
G04*
G04*
G04 #@! TF.FilePolarity,Negative*
G04*
G01*
G75*
%ADD27R,0.04343X0.03556*%
%ADD28R,0.03556X0.04343*%
%ADD30C,0.06706*%
%ADD31R,0.06706X0.06706*%
%ADD40R,0.03162X0.05131*%
D27*
X69000Y-38890D02*
D03*
Y-45110D02*
D03*
X14500Y-38890D02*
D03*
Y-45110D02*
D03*
X60500Y-44890D02*
D03*
Y-51110D02*
D03*
X55500Y-40610D02*
D03*
Y-34390D02*
D03*
X60500Y-40610D02*
D03*
Y-34390D02*
D03*
X55500Y-44890D02*
D03*
Y-51110D02*
D03*
D28*
X25890Y-10500D02*
D03*
X32110D02*
D03*
Y-4500D02*
D03*
X25890D02*
D03*
X32110Y-16500D02*
D03*
X25890D02*
D03*
D30*
X7500Y-63500D02*
D03*
X17500D02*
D03*
X7500Y-73500D02*
D03*
X17500D02*
D03*
X7500Y-83500D02*
D03*
Y-35000D02*
D03*
Y-25000D02*
D03*
Y-15000D02*
D03*
X79000Y-35000D02*
D03*
Y-25000D02*
D03*
Y-15000D02*
D03*
D31*
X17500Y-83500D02*
D03*
X7500Y-45000D02*
D03*
X79000D02*
D03*
D40*
X40260Y-36890D02*
D03*
X44000D02*
D03*
X47740D02*
D03*
Y-48110D02*
D03*
X40260D02*
D03*
M02*
