G04 Layer_Physical_Order=1*
G04 Layer_Color=255*
%FSLAX25Y25*%
%MOIN*%
G70*
G01*
G75*
%ADD10R,0.05905X0.05905*%
%ADD11R,0.39370X0.39370*%
%ADD12R,0.03543X0.07874*%
%ADD13R,0.11811X0.23622*%
%ADD14R,0.03543X0.03799*%
%ADD15O,0.01772X0.05709*%
%ADD16R,0.03799X0.03543*%
%ADD17R,0.03543X0.03150*%
%ADD18R,0.05276X0.07087*%
%ADD19C,0.02362*%
%ADD20C,0.01772*%
%ADD21C,0.03150*%
%ADD22C,0.01181*%
%ADD23C,0.05905*%
%ADD24C,0.03937*%
%ADD25C,0.11811*%
%ADD26C,0.06000*%
%ADD27C,0.04724*%
%ADD28R,0.04724X0.04724*%
%ADD29C,0.19685*%
%ADD30R,0.05905X0.05905*%
%ADD31C,0.05905*%
%ADD32O,0.05905X0.07874*%
%ADD33R,0.05905X0.07874*%
%ADD34C,0.03150*%
D10*
X268921Y-40335D02*
D03*
Y-54114D02*
D03*
D11*
X244921Y-114173D02*
D03*
D12*
X258307Y-73181D02*
D03*
X251713Y-72984D02*
D03*
X245020D02*
D03*
X238327D02*
D03*
X231634D02*
D03*
D13*
X230921Y-40224D02*
D03*
X250921D02*
D03*
D14*
X117421Y-40878D02*
D03*
Y-34579D02*
D03*
X123421D02*
D03*
Y-40878D02*
D03*
X129421Y-34429D02*
D03*
Y-40728D02*
D03*
X81921Y-31378D02*
D03*
Y-25079D02*
D03*
X216421Y-106024D02*
D03*
Y-99724D02*
D03*
Y-118524D02*
D03*
Y-112224D02*
D03*
X152000Y-157350D02*
D03*
Y-163650D02*
D03*
X122000Y-157350D02*
D03*
Y-163650D02*
D03*
X49421Y-46079D02*
D03*
Y-52378D02*
D03*
D15*
X139583Y-53390D02*
D03*
X142142D02*
D03*
X144701D02*
D03*
X147260D02*
D03*
X139583Y-36067D02*
D03*
X142142D02*
D03*
X144701D02*
D03*
X147260D02*
D03*
D16*
X159272Y-27228D02*
D03*
X165571D02*
D03*
X159272Y-21228D02*
D03*
X165571D02*
D03*
X196071Y-27228D02*
D03*
X189772D02*
D03*
X196071Y-21228D02*
D03*
X189772D02*
D03*
X72071Y-25228D02*
D03*
X65772D02*
D03*
X98571D02*
D03*
X92272D02*
D03*
X272071Y-63724D02*
D03*
X265772D02*
D03*
X40071Y-55728D02*
D03*
X33772D02*
D03*
X54571Y-22728D02*
D03*
X48272D02*
D03*
D17*
X32063Y-42500D02*
D03*
X39937Y-38957D02*
D03*
Y-46043D02*
D03*
D18*
X25791Y-22728D02*
D03*
X37051D02*
D03*
D19*
X72071Y-25228D02*
X92272D01*
X129347Y-34504D02*
X129421Y-34429D01*
X235921Y-89224D02*
X238421Y-86724D01*
Y-73079D01*
X238327Y-72984D02*
X238421Y-73079D01*
X59787Y-23000D02*
X60000D01*
X54571Y-22728D02*
X59515D01*
X59787Y-23000D01*
X60213D02*
X61851Y-24638D01*
X65181D02*
X65772Y-25228D01*
X60000Y-23000D02*
X60213D01*
X61851Y-24638D02*
X65181D01*
X82057Y-8364D02*
X82193Y-8228D01*
X81921Y-25079D02*
X82057Y-24943D01*
Y-8364D01*
X181980Y-21352D02*
X182104Y-21228D01*
X189772D01*
X181980Y-27916D02*
X182668Y-27228D01*
X189772D01*
X265500Y-73203D02*
X265772Y-72931D01*
Y-63724D01*
X37051Y-22728D02*
X37602Y-22177D01*
Y-8779D02*
X38154Y-8228D01*
X37602Y-22177D02*
Y-8779D01*
X117496Y-34504D02*
X129347D01*
X221500Y-90608D02*
X222884Y-89224D01*
X220116Y-105761D02*
X221500Y-104377D01*
X216421Y-106024D02*
X216684Y-105761D01*
X221500Y-104377D02*
Y-90608D01*
X216684Y-105761D02*
X220116D01*
X222884Y-89224D02*
X235921D01*
X40051Y-38842D02*
X43870D01*
D20*
X140921Y-41728D02*
X142142Y-40508D01*
Y-36067D01*
X129421Y-40843D02*
Y-40728D01*
X130307Y-41728D02*
X140921D01*
X129421Y-40843D02*
X130307Y-41728D01*
X142921Y-45728D02*
X144701Y-43949D01*
Y-36067D01*
X123421Y-44690D02*
X124459Y-45728D01*
X123421Y-44690D02*
Y-40878D01*
X124459Y-45728D02*
X142921D01*
X129421Y-34429D02*
X133122D01*
X134921Y-36228D01*
X139583D02*
Y-36067D01*
X134921Y-36228D02*
X139583D01*
X144701Y-36067D02*
Y-23449D01*
X147921Y-20228D01*
X150921D02*
X154421Y-16728D01*
X147921Y-20228D02*
X150921D01*
X154421Y-16728D02*
Y-8224D01*
X140642D02*
X142142Y-9724D01*
Y-36067D02*
Y-9724D01*
X107421Y-49228D02*
X111583Y-53390D01*
X107421Y-49228D02*
Y-35728D01*
X108646Y-34504D01*
X111583Y-53390D02*
X139583D01*
X207421Y-73224D02*
X213224D01*
X146739Y-62500D02*
X165500D01*
X179000Y-76000D01*
Y-174000D02*
Y-76000D01*
X144701Y-60462D02*
X146739Y-62500D01*
X144701Y-60462D02*
Y-53390D01*
X142142Y-63642D02*
Y-53390D01*
Y-63642D02*
X145000Y-66500D01*
X163500D01*
X171500Y-74500D01*
Y-158500D02*
Y-74500D01*
X108646Y-34504D02*
X117421D01*
X117496D01*
X147260Y-40760D02*
Y-36067D01*
Y-40760D02*
X151000Y-44500D01*
X156000D01*
X158000Y-46500D01*
Y-56000D02*
Y-46500D01*
Y-56000D02*
X160500Y-58500D01*
X169000D01*
X186500Y-76000D01*
X166350Y-163650D02*
X171500Y-158500D01*
X152000Y-163650D02*
X166350D01*
X122000D02*
X122020Y-163669D01*
Y-174479D02*
X122039Y-174499D01*
X122020Y-174479D02*
Y-163669D01*
X122039Y-181539D02*
Y-174499D01*
Y-181539D02*
X124000Y-183500D01*
X169500D01*
X179000Y-174000D01*
X112039Y-185539D02*
Y-174499D01*
Y-185539D02*
X115500Y-189000D01*
X173500D01*
X186500Y-176000D02*
Y-76000D01*
X173500Y-189000D02*
X186500Y-176000D01*
X213224Y-73224D02*
X216500Y-76500D01*
X216421Y-99724D02*
X216500Y-99646D01*
Y-76500D01*
X216421Y-112224D02*
Y-106024D01*
D21*
X196071Y-21228D02*
X201421D01*
X153921Y-27228D02*
X159272D01*
X196071D02*
Y-21228D01*
X159272Y-27228D02*
Y-21228D01*
X165571D02*
X171772D01*
X172000Y-21000D01*
X171728Y-27228D02*
X172000Y-27500D01*
X165571Y-27228D02*
X171728D01*
X102150Y-195650D02*
X176850D01*
X272071Y-63724D02*
Y-57264D01*
X268921Y-54114D02*
X272071Y-57264D01*
X25791Y-40291D02*
Y-22728D01*
X49224Y-46315D02*
X49421Y-46118D01*
Y-46079D01*
X12000Y-60000D02*
Y-7500D01*
X28000Y8500D01*
X43500D01*
X25083Y-22020D02*
X25791Y-22728D01*
X24374Y-8228D02*
X25083Y-8937D01*
Y-22020D02*
Y-8937D01*
X37051Y-22728D02*
X48272D01*
X52039Y-74499D02*
Y-65539D01*
X49421Y-62921D02*
X52039Y-65539D01*
X49421Y-62921D02*
Y-52378D01*
X81980Y-74440D02*
X82039Y-74499D01*
X81921Y-31378D02*
X81980Y-31437D01*
Y-74440D02*
Y-31437D01*
X32000Y-190500D02*
X97000D01*
X102150Y-195650D01*
X22000Y-190500D02*
X22020Y-190480D01*
Y-174519D01*
X22039Y-174499D01*
X117421Y-34504D02*
Y1421D01*
X117500Y1500D01*
X117421Y-34579D02*
Y-34504D01*
X22000Y-60000D02*
X22020Y-60020D01*
Y-74479D02*
X22039Y-74499D01*
X22020Y-74479D02*
Y-60020D01*
X176850Y-195650D02*
X195000Y-177500D01*
Y-73224D01*
X152000Y-163650D02*
X152020Y-163669D01*
Y-174479D02*
Y-163669D01*
Y-174479D02*
X152039Y-174499D01*
X152020Y-174519D02*
X152039Y-174499D01*
X14000Y-165500D02*
X22150Y-157350D01*
X14000Y-195500D02*
Y-165500D01*
Y-195500D02*
X17500Y-199000D01*
X29500D01*
X31473Y-197027D01*
Y-191027D02*
X32000Y-190500D01*
X31473Y-197027D02*
Y-191027D01*
X22150Y-157350D02*
X122000D01*
X152000D01*
X40004Y-55661D02*
X40071Y-55728D01*
X40004Y-55661D02*
Y-46043D01*
X40134D02*
X40169Y-46079D01*
X49421D01*
X39937Y-46043D02*
X40004D01*
X40134D01*
X28000Y-42500D02*
X32063D01*
X25791Y-40291D02*
X28000Y-42500D01*
D22*
X231634Y-80575D02*
Y-72984D01*
X245020Y-80575D02*
Y-72984D01*
X216421Y-118524D02*
X221772D01*
X98571Y-25228D02*
Y-21071D01*
X95973Y-18473D02*
X98571Y-21071D01*
X95973Y-18473D02*
Y-8228D01*
X117421Y-46228D02*
Y-40878D01*
X147260Y-53390D02*
X152610D01*
D23*
X271921Y-8224D02*
X279921Y-16224D01*
X245921Y-8224D02*
X271921D01*
X279921Y-73224D02*
Y-16224D01*
X244791Y-7095D02*
Y2709D01*
Y-7095D02*
X245921Y-8224D01*
X239000Y8500D02*
X244791Y2709D01*
X38154Y-8228D02*
X39283Y-7098D01*
X181980Y8480D02*
X182000Y8500D01*
X181980Y-8224D02*
Y8480D01*
X182000Y8500D02*
X239000D01*
X39283Y4284D02*
X43500Y8500D01*
X39283Y-7098D02*
Y4284D01*
X189228Y-41728D02*
X189421D01*
X181980Y-34480D02*
X189228Y-41728D01*
X181980Y-21352D02*
Y-8224D01*
Y-34480D02*
Y-27916D01*
Y-21352D01*
X43500Y8500D02*
X182000D01*
D24*
X258307Y-73181D02*
X258329Y-73203D01*
X279900D02*
X279921Y-73224D01*
X268866Y-40280D02*
X268921Y-40335D01*
X250921Y-40224D02*
X250976Y-40280D01*
X268866D01*
X250921Y-40783D02*
X251713Y-41574D01*
Y-72984D02*
Y-41574D01*
X250921Y-40783D02*
Y-40224D01*
X168201Y-10355D02*
X172000Y-14154D01*
X168201Y-10355D02*
Y-8224D01*
X172000Y-21000D02*
Y-14154D01*
Y-41000D02*
Y-27500D01*
Y-21000D01*
Y-41000D02*
X177500Y-46500D01*
X207421Y-73224D02*
Y-50579D01*
X217776Y-40224D01*
X230921D01*
X166072Y-41578D02*
X171422D01*
X165921Y-41728D02*
X166072Y-41578D01*
X171422D02*
X172000Y-41000D01*
X258329Y-73203D02*
X265500D01*
X279900D01*
X166694Y-6718D02*
X168201Y-8224D01*
X166694Y-6718D02*
Y-806D01*
X164388Y1500D02*
X166694Y-806D01*
X97479Y-6722D02*
Y-2521D01*
X101500Y1500D01*
X95973Y-8228D02*
X97479Y-6722D01*
X101500Y1500D02*
X117500D01*
X164388D01*
X195000Y-73224D02*
X207421D01*
X177500Y-55724D02*
X195000Y-73224D01*
X177500Y-55724D02*
Y-46500D01*
D25*
X232142Y-8224D02*
D03*
X245921D02*
D03*
X95973Y-8228D02*
D03*
X82193D02*
D03*
X68413D02*
D03*
X24374D02*
D03*
X38154D02*
D03*
X154421Y-8224D02*
D03*
X168201D02*
D03*
X181980D02*
D03*
X140642D02*
D03*
X126862D02*
D03*
D26*
X230921Y-40224D02*
D03*
X250921D02*
D03*
D27*
X165921Y-41728D02*
D03*
X189421D02*
D03*
X279921Y-73224D02*
D03*
X207421D02*
D03*
D28*
X165921Y-51728D02*
D03*
X189421D02*
D03*
X279921Y-83224D02*
D03*
X207421D02*
D03*
D29*
X289500Y0D02*
D03*
Y-197000D02*
D03*
X0Y0D02*
D03*
Y-197000D02*
D03*
D30*
X22000Y-190500D02*
D03*
Y-60000D02*
D03*
D31*
X32000Y-190500D02*
D03*
X12000Y-60000D02*
D03*
D32*
X162039Y-174499D02*
D03*
X152039D02*
D03*
X142039D02*
D03*
X132039D02*
D03*
X122039D02*
D03*
X112039D02*
D03*
X102039D02*
D03*
X92039D02*
D03*
X82039D02*
D03*
X72039D02*
D03*
X62039D02*
D03*
X52039D02*
D03*
X42039D02*
D03*
X32039D02*
D03*
X22039D02*
D03*
Y-74499D02*
D03*
X32039D02*
D03*
X42039D02*
D03*
X52039D02*
D03*
X62039D02*
D03*
X72039D02*
D03*
X82039D02*
D03*
X92039D02*
D03*
X102039D02*
D03*
X112039D02*
D03*
X122039D02*
D03*
X132039D02*
D03*
X142039D02*
D03*
X152039D02*
D03*
D33*
X162039D02*
D03*
D34*
X201421Y-21228D02*
D03*
X231634Y-80575D02*
D03*
X245020D02*
D03*
X244921Y-118024D02*
D03*
X239921Y-118224D02*
D03*
X249921D02*
D03*
X244921Y-113224D02*
D03*
Y-123224D02*
D03*
X221772Y-118524D02*
D03*
X153921Y-27228D02*
D03*
X60000Y-23000D02*
D03*
X272000Y-59000D02*
D03*
X117421Y-46228D02*
D03*
X152610Y-53390D02*
D03*
X43984Y-38728D02*
D03*
M02*
