G04 Layer_Color=8388736*
%FSLAX25Y25*%
%MOIN*%
G70*
G01*
G75*
%ADD43R,0.06706X0.06706*%
%ADD44R,0.40170X0.40170*%
%ADD45R,0.04343X0.08674*%
%ADD46R,0.12611X0.24422*%
%ADD47R,0.04343X0.04599*%
%ADD48O,0.02572X0.06509*%
%ADD49R,0.04599X0.04343*%
%ADD50R,0.04343X0.03950*%
%ADD51R,0.06076X0.07887*%
%ADD52C,0.12611*%
%ADD53C,0.06800*%
%ADD54C,0.05524*%
%ADD55R,0.05524X0.05524*%
%ADD56C,0.20485*%
%ADD57R,0.06706X0.06706*%
%ADD58C,0.06706*%
%ADD59O,0.06706X0.08674*%
%ADD60R,0.06706X0.08674*%
D43*
X268921Y-40335D02*
D03*
Y-54114D02*
D03*
D44*
X244921Y-114173D02*
D03*
D45*
X258307Y-73181D02*
D03*
X251713Y-72984D02*
D03*
X245020D02*
D03*
X238327D02*
D03*
X231634D02*
D03*
D46*
X230921Y-40224D02*
D03*
X250921D02*
D03*
D47*
X117421Y-40878D02*
D03*
Y-34579D02*
D03*
X123421D02*
D03*
Y-40878D02*
D03*
X129421Y-34429D02*
D03*
Y-40728D02*
D03*
X81921Y-31378D02*
D03*
Y-25079D02*
D03*
X216421Y-106024D02*
D03*
Y-99724D02*
D03*
Y-118524D02*
D03*
Y-112224D02*
D03*
X152000Y-157350D02*
D03*
Y-163650D02*
D03*
X122000Y-157350D02*
D03*
Y-163650D02*
D03*
X49421Y-46079D02*
D03*
Y-52378D02*
D03*
D48*
X139583Y-53390D02*
D03*
X142142D02*
D03*
X144701D02*
D03*
X147260D02*
D03*
X139583Y-36067D02*
D03*
X142142D02*
D03*
X144701D02*
D03*
X147260D02*
D03*
D49*
X159272Y-27228D02*
D03*
X165571D02*
D03*
X159272Y-21228D02*
D03*
X165571D02*
D03*
X196071Y-27228D02*
D03*
X189772D02*
D03*
X196071Y-21228D02*
D03*
X189772D02*
D03*
X72071Y-25228D02*
D03*
X65772D02*
D03*
X98571D02*
D03*
X92272D02*
D03*
X272071Y-63724D02*
D03*
X265772D02*
D03*
X40071Y-55728D02*
D03*
X33772D02*
D03*
X54571Y-22728D02*
D03*
X48272D02*
D03*
D50*
X32063Y-42500D02*
D03*
X39937Y-38957D02*
D03*
Y-46043D02*
D03*
D51*
X25791Y-22728D02*
D03*
X37051D02*
D03*
D52*
X232142Y-8224D02*
D03*
X245921D02*
D03*
X95973Y-8228D02*
D03*
X82193D02*
D03*
X68413D02*
D03*
X24374D02*
D03*
X38154D02*
D03*
X154421Y-8224D02*
D03*
X168201D02*
D03*
X181980D02*
D03*
X140642D02*
D03*
X126862D02*
D03*
D53*
X230921Y-40224D02*
D03*
X250921D02*
D03*
D54*
X165921Y-41728D02*
D03*
X189421D02*
D03*
X279921Y-73224D02*
D03*
X207421D02*
D03*
D55*
X165921Y-51728D02*
D03*
X189421D02*
D03*
X279921Y-83224D02*
D03*
X207421D02*
D03*
D56*
X289500Y0D02*
D03*
Y-197000D02*
D03*
X0Y0D02*
D03*
Y-197000D02*
D03*
D57*
X22000Y-190500D02*
D03*
Y-60000D02*
D03*
D58*
X32000Y-190500D02*
D03*
X12000Y-60000D02*
D03*
D59*
X162039Y-174499D02*
D03*
X152039D02*
D03*
X142039D02*
D03*
X132039D02*
D03*
X122039D02*
D03*
X112039D02*
D03*
X102039D02*
D03*
X92039D02*
D03*
X82039D02*
D03*
X72039D02*
D03*
X62039D02*
D03*
X52039D02*
D03*
X42039D02*
D03*
X32039D02*
D03*
X22039D02*
D03*
Y-74499D02*
D03*
X32039D02*
D03*
X42039D02*
D03*
X52039D02*
D03*
X62039D02*
D03*
X72039D02*
D03*
X82039D02*
D03*
X92039D02*
D03*
X102039D02*
D03*
X112039D02*
D03*
X122039D02*
D03*
X132039D02*
D03*
X142039D02*
D03*
X152039D02*
D03*
D60*
X162039D02*
D03*
M02*
