G04 Layer_Color=65535*
%FSLAX25Y25*%
%MOIN*%
G70*
G01*
G75*
%ADD35C,0.00984*%
%ADD36C,0.01575*%
%ADD37C,0.01000*%
%ADD38C,0.00787*%
%ADD39C,0.01500*%
%ADD40C,0.00800*%
%ADD41C,0.00394*%
%ADD42C,0.00591*%
G36*
X-10773Y-121018D02*
X-10757D01*
X-10713Y-121023D01*
X-10667Y-121031D01*
X-10615Y-121045D01*
X-10563Y-121062D01*
X-10511Y-121086D01*
X-10508D01*
X-10506Y-121089D01*
X-10489Y-121100D01*
X-10465Y-121113D01*
X-10432Y-121135D01*
X-10396Y-121163D01*
X-10361Y-121195D01*
X-10323Y-121231D01*
X-10287Y-121274D01*
Y-121277D01*
X-10282Y-121280D01*
X-10276Y-121288D01*
X-10271Y-121299D01*
X-10252Y-121326D01*
X-10230Y-121365D01*
X-10205Y-121411D01*
X-10181Y-121463D01*
X-10159Y-121520D01*
X-10140Y-121580D01*
Y-121583D01*
X-10137Y-121588D01*
Y-121597D01*
X-10134Y-121610D01*
X-10129Y-121627D01*
X-10126Y-121646D01*
X-10123Y-121670D01*
X-10118Y-121695D01*
X-10115Y-121725D01*
X-10110Y-121755D01*
X-10107Y-121791D01*
X-10104Y-121829D01*
X-10099Y-121911D01*
X-10096Y-122001D01*
Y-123027D01*
X-12449D01*
Y-122115D01*
Y-122113D01*
Y-122102D01*
Y-122088D01*
Y-122069D01*
Y-122044D01*
Y-122020D01*
X-12447Y-121990D01*
Y-121957D01*
X-12444Y-121889D01*
X-12441Y-121820D01*
X-12436Y-121755D01*
X-12433Y-121728D01*
X-12430Y-121700D01*
Y-121698D01*
Y-121695D01*
X-12427Y-121678D01*
X-12422Y-121651D01*
X-12414Y-121618D01*
X-12400Y-121578D01*
X-12387Y-121534D01*
X-12368Y-121487D01*
X-12346Y-121438D01*
Y-121436D01*
X-12343Y-121433D01*
X-12332Y-121416D01*
X-12318Y-121392D01*
X-12297Y-121362D01*
X-12272Y-121332D01*
X-12239Y-121296D01*
X-12204Y-121266D01*
X-12163Y-121239D01*
X-12157Y-121236D01*
X-12144Y-121228D01*
X-12119Y-121217D01*
X-12086Y-121203D01*
X-12048Y-121193D01*
X-12004Y-121182D01*
X-11955Y-121174D01*
X-11901Y-121171D01*
X-11873D01*
X-11857Y-121174D01*
X-11841Y-121176D01*
X-11800Y-121182D01*
X-11753Y-121193D01*
X-11701Y-121209D01*
X-11652Y-121231D01*
X-11600Y-121261D01*
X-11598D01*
X-11595Y-121266D01*
X-11579Y-121277D01*
X-11554Y-121299D01*
X-11527Y-121326D01*
X-11494Y-121362D01*
X-11461Y-121405D01*
X-11428Y-121457D01*
X-11398Y-121515D01*
X-11385D01*
Y-121512D01*
X-11382Y-121504D01*
X-11379Y-121493D01*
X-11377Y-121476D01*
X-11368Y-121457D01*
X-11363Y-121436D01*
X-11344Y-121384D01*
X-11316Y-121326D01*
X-11284Y-121264D01*
X-11243Y-121206D01*
X-11194Y-121152D01*
X-11191Y-121149D01*
X-11188Y-121146D01*
X-11180Y-121138D01*
X-11169Y-121130D01*
X-11153Y-121119D01*
X-11136Y-121108D01*
X-11117Y-121097D01*
X-11093Y-121083D01*
X-11068Y-121070D01*
X-11038Y-121059D01*
X-10975Y-121037D01*
X-10902Y-121021D01*
X-10860Y-121018D01*
X-10817Y-121015D01*
X-10787D01*
X-10773Y-121018D01*
D02*
G37*
G36*
X-10800Y-123445D02*
X-10776Y-123448D01*
X-10746Y-123450D01*
X-10713Y-123459D01*
X-10675Y-123467D01*
X-10634Y-123478D01*
X-10588Y-123494D01*
X-10544Y-123513D01*
X-10495Y-123538D01*
X-10448Y-123568D01*
X-10402Y-123600D01*
X-10356Y-123639D01*
X-10312Y-123685D01*
X-10268Y-123737D01*
X-10265Y-123740D01*
X-10260Y-123751D01*
X-10249Y-123767D01*
X-10235Y-123792D01*
X-10219Y-123822D01*
X-10200Y-123857D01*
X-10181Y-123898D01*
X-10162Y-123947D01*
X-10140Y-124002D01*
X-10121Y-124062D01*
X-10102Y-124127D01*
X-10085Y-124201D01*
X-10071Y-124277D01*
X-10061Y-124359D01*
X-10055Y-124447D01*
X-10052Y-124540D01*
Y-124542D01*
Y-124553D01*
Y-124567D01*
Y-124589D01*
X-10055Y-124613D01*
Y-124643D01*
X-10058Y-124676D01*
Y-124712D01*
X-10063Y-124794D01*
X-10074Y-124878D01*
X-10085Y-124966D01*
X-10102Y-125050D01*
Y-125053D01*
X-10104Y-125058D01*
X-10107Y-125072D01*
X-10110Y-125086D01*
X-10115Y-125105D01*
X-10123Y-125129D01*
X-10129Y-125154D01*
X-10137Y-125181D01*
X-10156Y-125244D01*
X-10178Y-125312D01*
X-10205Y-125383D01*
X-10233Y-125454D01*
X-10798D01*
Y-125389D01*
X-10795Y-125386D01*
X-10792Y-125380D01*
X-10784Y-125370D01*
X-10773Y-125356D01*
X-10759Y-125337D01*
X-10746Y-125318D01*
X-10729Y-125293D01*
X-10713Y-125266D01*
X-10675Y-125203D01*
X-10637Y-125132D01*
X-10598Y-125053D01*
X-10566Y-124968D01*
Y-124966D01*
X-10563Y-124957D01*
X-10558Y-124946D01*
X-10555Y-124927D01*
X-10547Y-124908D01*
X-10541Y-124884D01*
X-10533Y-124856D01*
X-10527Y-124826D01*
X-10511Y-124758D01*
X-10500Y-124681D01*
X-10489Y-124602D01*
X-10486Y-124521D01*
Y-124518D01*
Y-124510D01*
Y-124499D01*
Y-124482D01*
X-10489Y-124460D01*
Y-124436D01*
X-10492Y-124408D01*
X-10495Y-124376D01*
Y-124373D01*
X-10497Y-124359D01*
Y-124343D01*
X-10503Y-124324D01*
X-10511Y-124275D01*
X-10519Y-124250D01*
X-10527Y-124228D01*
Y-124226D01*
X-10533Y-124217D01*
X-10538Y-124204D01*
X-10547Y-124187D01*
X-10568Y-124149D01*
X-10596Y-124114D01*
X-10598Y-124111D01*
X-10604Y-124106D01*
X-10615Y-124100D01*
X-10628Y-124089D01*
X-10648Y-124081D01*
X-10669Y-124075D01*
X-10694Y-124070D01*
X-10724Y-124067D01*
X-10738D01*
X-10751Y-124070D01*
X-10770Y-124075D01*
X-10790Y-124084D01*
X-10814Y-124097D01*
X-10836Y-124114D01*
X-10858Y-124135D01*
X-10860Y-124138D01*
X-10866Y-124146D01*
X-10877Y-124163D01*
X-10891Y-124185D01*
X-10904Y-124212D01*
X-10918Y-124245D01*
X-10932Y-124283D01*
X-10942Y-124327D01*
Y-124329D01*
X-10945Y-124332D01*
Y-124340D01*
X-10948Y-124348D01*
X-10953Y-124376D01*
X-10961Y-124411D01*
X-10972Y-124452D01*
X-10981Y-124501D01*
X-10992Y-124553D01*
X-11003Y-124608D01*
Y-124611D01*
Y-124613D01*
X-11005Y-124621D01*
X-11008Y-124632D01*
X-11013Y-124662D01*
X-11022Y-124698D01*
X-11033Y-124739D01*
X-11043Y-124785D01*
X-11073Y-124884D01*
Y-124886D01*
X-11079Y-124897D01*
X-11084Y-124911D01*
X-11090Y-124933D01*
X-11101Y-124957D01*
X-11112Y-124985D01*
X-11125Y-125015D01*
X-11142Y-125047D01*
X-11180Y-125118D01*
X-11224Y-125189D01*
X-11276Y-125255D01*
X-11303Y-125285D01*
X-11333Y-125312D01*
X-11336D01*
X-11341Y-125318D01*
X-11349Y-125323D01*
X-11363Y-125331D01*
X-11379Y-125342D01*
X-11398Y-125353D01*
X-11420Y-125364D01*
X-11447Y-125375D01*
X-11475Y-125389D01*
X-11507Y-125399D01*
X-11576Y-125421D01*
X-11658Y-125435D01*
X-11701Y-125438D01*
X-11745Y-125441D01*
X-11759D01*
X-11778Y-125438D01*
X-11800Y-125435D01*
X-11827Y-125432D01*
X-11860Y-125424D01*
X-11895Y-125416D01*
X-11936Y-125402D01*
X-11977Y-125389D01*
X-12021Y-125370D01*
X-12064Y-125345D01*
X-12108Y-125315D01*
X-12155Y-125282D01*
X-12198Y-125244D01*
X-12239Y-125198D01*
X-12280Y-125146D01*
X-12283Y-125143D01*
X-12288Y-125132D01*
X-12299Y-125116D01*
X-12313Y-125091D01*
X-12329Y-125064D01*
X-12346Y-125028D01*
X-12365Y-124987D01*
X-12387Y-124941D01*
X-12406Y-124889D01*
X-12425Y-124832D01*
X-12441Y-124769D01*
X-12458Y-124703D01*
X-12471Y-124630D01*
X-12482Y-124553D01*
X-12488Y-124474D01*
X-12490Y-124389D01*
Y-124387D01*
Y-124379D01*
Y-124368D01*
Y-124348D01*
Y-124329D01*
X-12488Y-124305D01*
Y-124275D01*
X-12485Y-124245D01*
X-12479Y-124177D01*
X-12471Y-124097D01*
X-12460Y-124015D01*
X-12444Y-123931D01*
Y-123928D01*
X-12441Y-123920D01*
X-12438Y-123909D01*
X-12436Y-123893D01*
X-12433Y-123873D01*
X-12427Y-123849D01*
X-12419Y-123824D01*
X-12414Y-123794D01*
X-12398Y-123734D01*
X-12378Y-123666D01*
X-12357Y-123600D01*
X-12332Y-123535D01*
X-11791D01*
Y-123600D01*
Y-123603D01*
X-11797Y-123606D01*
X-11802Y-123614D01*
X-11811Y-123625D01*
X-11819Y-123639D01*
X-11830Y-123655D01*
X-11857Y-123696D01*
X-11887Y-123748D01*
X-11917Y-123808D01*
X-11950Y-123876D01*
X-11980Y-123950D01*
Y-123953D01*
X-11982Y-123958D01*
X-11988Y-123969D01*
X-11991Y-123985D01*
X-11999Y-124004D01*
X-12004Y-124026D01*
X-12010Y-124051D01*
X-12018Y-124078D01*
X-12032Y-124144D01*
X-12045Y-124215D01*
X-12054Y-124291D01*
X-12056Y-124370D01*
Y-124373D01*
Y-124384D01*
Y-124398D01*
Y-124417D01*
X-12054Y-124441D01*
X-12051Y-124466D01*
X-12045Y-124523D01*
Y-124526D01*
X-12043Y-124537D01*
X-12040Y-124550D01*
X-12037Y-124570D01*
X-12032Y-124592D01*
X-12024Y-124613D01*
X-12007Y-124665D01*
Y-124668D01*
X-12002Y-124676D01*
X-11996Y-124687D01*
X-11988Y-124701D01*
X-11966Y-124736D01*
X-11933Y-124772D01*
X-11931Y-124774D01*
X-11925Y-124777D01*
X-11914Y-124785D01*
X-11903Y-124794D01*
X-11887Y-124802D01*
X-11868Y-124807D01*
X-11846Y-124813D01*
X-11824Y-124815D01*
X-11808D01*
X-11791Y-124813D01*
X-11772Y-124807D01*
X-11748Y-124799D01*
X-11726Y-124785D01*
X-11701Y-124769D01*
X-11682Y-124744D01*
X-11680Y-124742D01*
X-11674Y-124731D01*
X-11666Y-124712D01*
X-11652Y-124684D01*
X-11639Y-124649D01*
X-11625Y-124602D01*
X-11617Y-124575D01*
X-11609Y-124545D01*
X-11600Y-124512D01*
X-11592Y-124477D01*
Y-124474D01*
Y-124471D01*
X-11587Y-124455D01*
X-11581Y-124430D01*
X-11576Y-124398D01*
X-11568Y-124359D01*
X-11557Y-124319D01*
X-11538Y-124228D01*
Y-124226D01*
Y-124223D01*
X-11532Y-124206D01*
X-11527Y-124182D01*
X-11521Y-124152D01*
X-11510Y-124114D01*
X-11499Y-124070D01*
X-11486Y-124021D01*
X-11469Y-123972D01*
Y-123969D01*
X-11467Y-123961D01*
X-11461Y-123947D01*
X-11453Y-123928D01*
X-11445Y-123906D01*
X-11434Y-123879D01*
X-11406Y-123822D01*
X-11371Y-123756D01*
X-11330Y-123691D01*
X-11284Y-123628D01*
X-11256Y-123598D01*
X-11229Y-123573D01*
X-11226Y-123570D01*
X-11221Y-123568D01*
X-11213Y-123562D01*
X-11202Y-123551D01*
X-11185Y-123543D01*
X-11169Y-123532D01*
X-11147Y-123519D01*
X-11123Y-123508D01*
X-11095Y-123494D01*
X-11065Y-123483D01*
X-10997Y-123461D01*
X-10921Y-123448D01*
X-10877Y-123445D01*
X-10833Y-123442D01*
X-10817D01*
X-10800Y-123445D01*
D02*
G37*
G36*
X-10907Y-125896D02*
X-10877D01*
X-10839Y-125902D01*
X-10798Y-125907D01*
X-10751Y-125916D01*
X-10699Y-125926D01*
X-10648Y-125940D01*
X-10593Y-125959D01*
X-10538Y-125981D01*
X-10481Y-126006D01*
X-10426Y-126038D01*
X-10375Y-126074D01*
X-10325Y-126115D01*
X-10279Y-126161D01*
X-10276Y-126164D01*
X-10268Y-126175D01*
X-10257Y-126189D01*
X-10244Y-126210D01*
X-10224Y-126238D01*
X-10205Y-126273D01*
X-10183Y-126311D01*
X-10164Y-126358D01*
X-10142Y-126410D01*
X-10121Y-126467D01*
X-10102Y-126532D01*
X-10082Y-126603D01*
X-10069Y-126677D01*
X-10058Y-126759D01*
X-10050Y-126849D01*
X-10047Y-126942D01*
Y-126945D01*
Y-126947D01*
Y-126956D01*
Y-126964D01*
X-10050Y-126991D01*
Y-127027D01*
X-10055Y-127070D01*
X-10061Y-127119D01*
X-10066Y-127174D01*
X-10077Y-127234D01*
X-10088Y-127294D01*
X-10104Y-127360D01*
X-10123Y-127425D01*
X-10145Y-127488D01*
X-10172Y-127553D01*
X-10203Y-127614D01*
X-10238Y-127671D01*
X-10279Y-127723D01*
X-10282Y-127726D01*
X-10290Y-127734D01*
X-10304Y-127747D01*
X-10323Y-127764D01*
X-10347Y-127783D01*
X-10375Y-127805D01*
X-10410Y-127829D01*
X-10448Y-127854D01*
X-10495Y-127878D01*
X-10544Y-127903D01*
X-10598Y-127925D01*
X-10659Y-127944D01*
X-10721Y-127960D01*
X-10792Y-127974D01*
X-10866Y-127982D01*
X-10945Y-127985D01*
X-12449D01*
Y-127379D01*
X-10956D01*
X-10937Y-127376D01*
X-10918D01*
X-10896Y-127373D01*
X-10841Y-127365D01*
X-10781Y-127354D01*
X-10721Y-127335D01*
X-10664Y-127311D01*
X-10639Y-127294D01*
X-10615Y-127278D01*
X-10609Y-127272D01*
X-10596Y-127259D01*
X-10577Y-127231D01*
X-10555Y-127196D01*
X-10544Y-127174D01*
X-10533Y-127149D01*
X-10522Y-127122D01*
X-10514Y-127092D01*
X-10506Y-127059D01*
X-10500Y-127024D01*
X-10497Y-126983D01*
X-10495Y-126942D01*
Y-126939D01*
Y-126931D01*
Y-126920D01*
X-10497Y-126904D01*
Y-126885D01*
X-10500Y-126863D01*
X-10508Y-126814D01*
X-10522Y-126759D01*
X-10544Y-126705D01*
X-10571Y-126650D01*
X-10590Y-126628D01*
X-10609Y-126606D01*
X-10612D01*
X-10615Y-126601D01*
X-10623Y-126595D01*
X-10631Y-126590D01*
X-10645Y-126582D01*
X-10659Y-126573D01*
X-10678Y-126562D01*
X-10699Y-126552D01*
X-10724Y-126543D01*
X-10749Y-126532D01*
X-10781Y-126524D01*
X-10814Y-126516D01*
X-10850Y-126511D01*
X-10891Y-126505D01*
X-10932Y-126500D01*
X-12449D01*
Y-125894D01*
X-10929D01*
X-10907Y-125896D01*
D02*
G37*
G36*
X217264Y-78966D02*
X217041Y-80433D01*
X216602Y-81850D01*
X215955Y-83185D01*
X215115Y-84408D01*
X214101Y-85491D01*
X212936Y-86410D01*
X211647Y-87145D01*
X210955Y-87411D01*
X203888Y-87411D01*
Y-87411D01*
X203196Y-87145D01*
X201906Y-86410D01*
X200742Y-85491D01*
X199728Y-84408D01*
X198888Y-83185D01*
X198241Y-81850D01*
X197801Y-80433D01*
X197579Y-78966D01*
Y-78224D01*
X217264D01*
Y-78966D01*
D02*
G37*
G36*
X175764Y-47470D02*
X175541Y-48937D01*
X175102Y-50354D01*
X174454Y-51689D01*
X173615Y-52912D01*
X172601Y-53995D01*
X171436Y-54914D01*
X170147Y-55648D01*
X169455Y-55915D01*
X162388Y-55915D01*
Y-55915D01*
X161696Y-55648D01*
X160406Y-54914D01*
X159242Y-53995D01*
X158228Y-52912D01*
X157388Y-51689D01*
X156741Y-50354D01*
X156301Y-48937D01*
X156079Y-47470D01*
Y-46728D01*
X175764D01*
Y-47470D01*
D02*
G37*
G36*
X199264D02*
X199041Y-48937D01*
X198602Y-50354D01*
X197954Y-51689D01*
X197115Y-52912D01*
X196101Y-53995D01*
X194936Y-54914D01*
X193647Y-55648D01*
X192955Y-55915D01*
X185888Y-55915D01*
Y-55915D01*
X185196Y-55648D01*
X183906Y-54914D01*
X182742Y-53995D01*
X181728Y-52912D01*
X180888Y-51689D01*
X180241Y-50354D01*
X179801Y-48937D01*
X179579Y-47470D01*
Y-46728D01*
X199264D01*
Y-47470D01*
D02*
G37*
G36*
X289764Y-78966D02*
X289541Y-80433D01*
X289102Y-81850D01*
X288455Y-83185D01*
X287615Y-84408D01*
X286601Y-85491D01*
X285436Y-86410D01*
X284147Y-87145D01*
X283455Y-87411D01*
X276388Y-87411D01*
Y-87411D01*
X275696Y-87145D01*
X274406Y-86410D01*
X273242Y-85491D01*
X272228Y-84408D01*
X271388Y-83185D01*
X270741Y-81850D01*
X270301Y-80433D01*
X270079Y-78966D01*
Y-78224D01*
X289764D01*
Y-78966D01*
D02*
G37*
%LPC*%
G36*
X-10825Y-121646D02*
X-10844D01*
X-10863Y-121649D01*
X-10888Y-121651D01*
X-10915Y-121657D01*
X-10945Y-121665D01*
X-10972Y-121676D01*
X-10997Y-121689D01*
X-11000Y-121692D01*
X-11008Y-121698D01*
X-11019Y-121709D01*
X-11033Y-121725D01*
X-11046Y-121744D01*
X-11062Y-121769D01*
X-11076Y-121801D01*
X-11090Y-121837D01*
Y-121840D01*
X-11093Y-121851D01*
X-11095Y-121867D01*
X-11101Y-121889D01*
X-11103Y-121916D01*
X-11106Y-121949D01*
X-11109Y-121990D01*
X-11112Y-122033D01*
Y-122039D01*
Y-122055D01*
Y-122080D01*
X-11114Y-122113D01*
Y-122151D01*
Y-122195D01*
Y-122241D01*
Y-122290D01*
Y-122421D01*
X-10527D01*
Y-122377D01*
Y-122375D01*
Y-122366D01*
Y-122353D01*
Y-122336D01*
Y-122315D01*
Y-122290D01*
Y-122236D01*
Y-122178D01*
Y-122118D01*
Y-122061D01*
Y-122036D01*
Y-122014D01*
Y-122009D01*
Y-121995D01*
X-10530Y-121976D01*
X-10533Y-121949D01*
X-10538Y-121916D01*
X-10547Y-121883D01*
X-10555Y-121848D01*
X-10568Y-121812D01*
X-10571Y-121807D01*
X-10577Y-121796D01*
X-10585Y-121780D01*
X-10598Y-121760D01*
X-10612Y-121739D01*
X-10631Y-121717D01*
X-10650Y-121698D01*
X-10675Y-121681D01*
X-10678Y-121678D01*
X-10686Y-121676D01*
X-10699Y-121670D01*
X-10719Y-121662D01*
X-10740Y-121657D01*
X-10765Y-121651D01*
X-10795Y-121649D01*
X-10825Y-121646D01*
D02*
G37*
G36*
X-11783Y-121791D02*
X-11794D01*
X-11805Y-121793D01*
X-11819D01*
X-11857Y-121804D01*
X-11876Y-121810D01*
X-11898Y-121820D01*
X-11901D01*
X-11909Y-121826D01*
X-11920Y-121834D01*
X-11931Y-121845D01*
X-11947Y-121859D01*
X-11961Y-121878D01*
X-11974Y-121900D01*
X-11988Y-121924D01*
Y-121927D01*
X-11991Y-121935D01*
X-11996Y-121949D01*
X-12002Y-121968D01*
X-12004Y-121993D01*
X-12010Y-122020D01*
X-12013Y-122053D01*
X-12015Y-122088D01*
Y-122093D01*
Y-122107D01*
Y-122129D01*
X-12018Y-122159D01*
Y-122200D01*
Y-122246D01*
Y-122304D01*
Y-122366D01*
Y-122421D01*
X-11521D01*
Y-122328D01*
Y-122326D01*
Y-122323D01*
Y-122315D01*
Y-122304D01*
Y-122276D01*
Y-122244D01*
Y-122205D01*
Y-122164D01*
X-11524Y-122121D01*
Y-122083D01*
Y-122077D01*
X-11527Y-122066D01*
Y-122047D01*
X-11529Y-122025D01*
X-11540Y-121973D01*
X-11548Y-121946D01*
X-11557Y-121924D01*
X-11559Y-121922D01*
X-11562Y-121911D01*
X-11570Y-121897D01*
X-11581Y-121881D01*
X-11611Y-121845D01*
X-11630Y-121829D01*
X-11649Y-121818D01*
X-11652D01*
X-11660Y-121812D01*
X-11671Y-121810D01*
X-11688Y-121804D01*
X-11707Y-121799D01*
X-11731Y-121796D01*
X-11783Y-121791D01*
D02*
G37*
%LPD*%
D35*
X137024Y-53390D02*
G03*
X137024Y-53390I-492J0D01*
G01*
X40429Y-49784D02*
G03*
X40429Y-49784I-492J0D01*
G01*
D36*
X141453Y-45910D02*
G03*
X141453Y-45910I-787J0D01*
G01*
D37*
X169455Y-55915D02*
G03*
X175764Y-46728I-3533J9186D01*
G01*
X156079D02*
G03*
X162388Y-55915I9843J0D01*
G01*
X175764Y-46728D02*
G03*
X156079Y-46728I-9843J0D01*
G01*
X192955Y-55915D02*
G03*
X199264Y-46728I-3533J9186D01*
G01*
X179579D02*
G03*
X185888Y-55915I9843J0D01*
G01*
X199264Y-46728D02*
G03*
X179579Y-46728I-9843J0D01*
G01*
X283455Y-87411D02*
G03*
X289764Y-78224I-3533J9186D01*
G01*
X270079D02*
G03*
X276388Y-87411I9843J0D01*
G01*
X289764Y-78224D02*
G03*
X270079Y-78224I-9843J0D01*
G01*
X210955Y-87411D02*
G03*
X217264Y-78224I-3533J9186D01*
G01*
X197579D02*
G03*
X203888Y-87411I9843J0D01*
G01*
X217264Y-78224D02*
G03*
X197579Y-78224I-9843J0D01*
G01*
X156121Y-46728D02*
X175721D01*
X162388Y-55915D02*
X169455D01*
X179621Y-46728D02*
X199221D01*
X185888Y-55915D02*
X192955D01*
X270121Y-78224D02*
X289721D01*
X276388Y-87411D02*
X283455D01*
X197621Y-78224D02*
X217221D01*
X203888Y-87411D02*
X210955D01*
X247496Y12051D02*
X245497D01*
X246496D01*
Y6053D01*
X247496Y7053D01*
X97055Y9980D02*
X95056D01*
X96055D01*
Y3982D01*
X97055Y4982D01*
X39728Y12047D02*
X37729D01*
X38729D01*
Y6049D01*
X39728Y7049D01*
X182768Y11067D02*
X180768D01*
X181768D01*
Y5069D01*
X182768Y6069D01*
X171522Y-52628D02*
Y-48630D01*
X171422Y-45328D02*
Y-41330D01*
X169423Y-43329D02*
X173422D01*
X195022Y-52628D02*
Y-48630D01*
X194922Y-45328D02*
Y-41330D01*
X192923Y-43329D02*
X196922D01*
X285522Y-84124D02*
Y-80126D01*
X285422Y-76824D02*
Y-72826D01*
X283423Y-74825D02*
X287422D01*
X213022Y-84124D02*
Y-80126D01*
X212922Y-76824D02*
Y-72826D01*
X210923Y-74825D02*
X214922D01*
D38*
X273449Y-58642D02*
Y-51161D01*
X264394Y-58642D02*
Y-51161D01*
Y-58642D02*
X273449D01*
X265713Y-35807D02*
X272248D01*
X273449Y-43287D02*
Y-37308D01*
X264394Y-37456D02*
X265713Y-35807D01*
X272248D02*
X273449Y-37308D01*
X264394Y-43287D02*
Y-37456D01*
X222496Y-12949D02*
Y23272D01*
X253894Y-12949D02*
X255469D01*
X255567D02*
Y23272D01*
X222496Y19335D02*
X255567D01*
X222496Y23272D02*
X255567D01*
X222594Y-12949D02*
X224169D01*
X105815Y-12953D02*
Y23268D01*
X58571D02*
X105815D01*
X103847Y-12953D02*
X105815D01*
X58571Y19331D02*
X105421D01*
X58571Y-12953D02*
Y23268D01*
Y-12953D02*
X60539D01*
X14728D02*
Y23268D01*
X46126Y-12953D02*
X47701D01*
X47799D02*
Y23268D01*
X14728Y19331D02*
X47799D01*
X14728Y23268D02*
X47799D01*
X14827Y-12953D02*
X16402D01*
X117413Y19335D02*
X191429D01*
X117413Y-12949D02*
Y23272D01*
X188772Y-12949D02*
X191429D01*
Y23272D01*
X117413D02*
X191429D01*
X117413Y-12949D02*
X120071D01*
X237772Y-52035D02*
X244071D01*
X237772Y-28413D02*
X244071D01*
X137516Y-49059D02*
X149327D01*
X137516Y-40398D02*
X149327D01*
X137516Y-49059D02*
Y-40398D01*
X149327Y-49059D02*
Y-40398D01*
X33244Y-39350D02*
Y-36595D01*
X37181D01*
X33244Y-48406D02*
Y-45650D01*
Y-48406D02*
X37181D01*
X29421Y-26567D02*
X33421D01*
X29421Y-18890D02*
X33421D01*
X41264Y-26272D02*
Y-19185D01*
X37000Y-195500D02*
Y-185500D01*
X17000Y-195500D02*
X37000D01*
X17000D02*
Y-185500D01*
X37000D01*
X7000Y-65000D02*
Y-55000D01*
X27000D01*
Y-65000D02*
Y-55000D01*
X7000Y-65000D02*
X27000D01*
D39*
X265925Y-128535D02*
Y-82236D01*
X223917Y-128535D02*
Y-82236D01*
X265925D01*
D40*
X114421Y-40728D02*
Y-34728D01*
X120421Y-40728D02*
Y-34728D01*
X126421Y-40728D02*
Y-34728D01*
X120421Y-40728D02*
Y-34728D01*
X132421Y-40579D02*
Y-34579D01*
X126421Y-40579D02*
Y-34579D01*
X159421Y-24228D02*
X165421D01*
X159421Y-30228D02*
X165421D01*
X159421Y-18228D02*
X165421D01*
X159421Y-24228D02*
X165421D01*
X189921Y-30228D02*
X195921D01*
X189921Y-24228D02*
X195921D01*
X189921D02*
X195921D01*
X189921Y-18228D02*
X195921D01*
X65921Y-28228D02*
X71921D01*
X65921Y-22228D02*
X71921D01*
X92421Y-28228D02*
X98421D01*
X92421Y-22228D02*
X98421D01*
X78921Y-31228D02*
Y-25228D01*
X84921Y-31228D02*
Y-25228D01*
X265921Y-66724D02*
X271921D01*
X265921Y-60724D02*
X271921D01*
X213421Y-105874D02*
Y-99874D01*
X219421Y-105874D02*
Y-99874D01*
X213421Y-118374D02*
Y-112374D01*
X219421Y-118374D02*
Y-112374D01*
X155000Y-163500D02*
Y-157500D01*
X149000Y-163500D02*
Y-157500D01*
X125000Y-163500D02*
Y-157500D01*
X119000Y-163500D02*
Y-157500D01*
X52421Y-52228D02*
Y-46228D01*
X46421Y-52228D02*
Y-46228D01*
X33921Y-58728D02*
X39921D01*
X33921Y-52728D02*
X39921D01*
X48421Y-25728D02*
X54421D01*
X48421Y-19728D02*
X54421D01*
D41*
X-17626Y-140740D02*
X-1878D01*
X-17626Y-108260D02*
X-1878D01*
Y-140740D02*
Y-108260D01*
X-17724Y-67807D02*
X189362D01*
X-17724Y-181193D02*
Y-67807D01*
Y-181193D02*
X189362D01*
Y-67807D01*
D42*
X264624Y-29680D02*
Y-32828D01*
X266198D01*
X266723Y-32304D01*
Y-30204D01*
X266198Y-29680D01*
X264624D01*
X269871Y-32828D02*
X267772D01*
X269871Y-30729D01*
Y-30204D01*
X269346Y-29680D01*
X268297D01*
X267772Y-30204D01*
X209496Y-107160D02*
X206347D01*
Y-105586D01*
X206872Y-105061D01*
X207921D01*
X208446Y-105586D01*
Y-107160D01*
Y-106111D02*
X209496Y-105061D01*
Y-104012D02*
Y-102962D01*
Y-103487D01*
X206347D01*
X206872Y-104012D01*
Y-101388D02*
X206347Y-100863D01*
Y-99813D01*
X206872Y-99289D01*
X208971D01*
X209496Y-99813D01*
Y-100863D01*
X208971Y-101388D01*
X206872D01*
X209496Y-118135D02*
X206347D01*
Y-116561D01*
X206872Y-116036D01*
X207921D01*
X208446Y-116561D01*
Y-118135D01*
Y-117086D02*
X209496Y-116036D01*
Y-114987D02*
Y-113937D01*
Y-114462D01*
X206347D01*
X206872Y-114987D01*
X209496Y-112363D02*
Y-111313D01*
Y-111838D01*
X206347D01*
X206872Y-112363D01*
X132847Y-47352D02*
X135471D01*
X135996Y-46827D01*
Y-45778D01*
X135471Y-45253D01*
X132847D01*
X135996Y-42105D02*
Y-44204D01*
X133897Y-42105D01*
X133372D01*
X132847Y-42629D01*
Y-43679D01*
X133372Y-44204D01*
X223724Y-62880D02*
Y-65504D01*
X224248Y-66028D01*
X225298D01*
X225823Y-65504D01*
Y-62880D01*
X226872Y-63405D02*
X227397Y-62880D01*
X228447D01*
X228971Y-63405D01*
Y-63929D01*
X228447Y-64454D01*
X227922D01*
X228447D01*
X228971Y-64979D01*
Y-65504D01*
X228447Y-66028D01*
X227397D01*
X226872Y-65504D01*
X172397Y-26179D02*
X171872Y-25654D01*
X170822D01*
X170297Y-26179D01*
Y-28278D01*
X170822Y-28803D01*
X171872D01*
X172397Y-28278D01*
X173446Y-26179D02*
X173971Y-25654D01*
X175020D01*
X175545Y-26179D01*
Y-26704D01*
X175020Y-27228D01*
X174496D01*
X175020D01*
X175545Y-27753D01*
Y-28278D01*
X175020Y-28803D01*
X173971D01*
X173446Y-28278D01*
X172397Y-20179D02*
X171872Y-19654D01*
X170822D01*
X170297Y-20179D01*
Y-22278D01*
X170822Y-22803D01*
X171872D01*
X172397Y-22278D01*
X175020Y-22803D02*
Y-19654D01*
X173446Y-21228D01*
X175545D01*
X181396Y-26179D02*
X180872Y-25654D01*
X179822D01*
X179297Y-26179D01*
Y-28278D01*
X179822Y-28803D01*
X180872D01*
X181396Y-28278D01*
X184545Y-25654D02*
X182446D01*
Y-27228D01*
X183496Y-26704D01*
X184020D01*
X184545Y-27228D01*
Y-28278D01*
X184020Y-28803D01*
X182971D01*
X182446Y-28278D01*
X181396Y-20179D02*
X180872Y-19654D01*
X179822D01*
X179297Y-20179D01*
Y-22278D01*
X179822Y-22803D01*
X180872D01*
X181396Y-22278D01*
X184545Y-19654D02*
X183496Y-20179D01*
X182446Y-21228D01*
Y-22278D01*
X182971Y-22803D01*
X184020D01*
X184545Y-22278D01*
Y-21753D01*
X184020Y-21228D01*
X182446D01*
X50897Y-28679D02*
X50372Y-28154D01*
X49322D01*
X48797Y-28679D01*
Y-30778D01*
X49322Y-31303D01*
X50372D01*
X50897Y-30778D01*
X51946Y-28154D02*
X54045D01*
Y-28679D01*
X51946Y-30778D01*
Y-31303D01*
X278085Y-62675D02*
X277560Y-62150D01*
X276510D01*
X275986Y-62675D01*
Y-64774D01*
X276510Y-65299D01*
X277560D01*
X278085Y-64774D01*
X279134Y-65299D02*
X280184D01*
X279659D01*
Y-62150D01*
X279134Y-62675D01*
X281758D02*
X282283Y-62150D01*
X283332D01*
X283857Y-62675D01*
Y-64774D01*
X283332Y-65299D01*
X282283D01*
X281758Y-64774D01*
Y-62675D01*
X15822Y-20654D02*
Y-23803D01*
X17397D01*
X17921Y-23278D01*
Y-21179D01*
X17397Y-20654D01*
X15822D01*
X18971Y-23803D02*
X20020D01*
X19496D01*
Y-20654D01*
X18971Y-21179D01*
X93322Y-33303D02*
Y-30154D01*
X94897D01*
X95421Y-30679D01*
Y-31728D01*
X94897Y-32253D01*
X93322D01*
X94372D02*
X95421Y-33303D01*
X96471D02*
X97520D01*
X96996D01*
Y-30154D01*
X96471Y-30679D01*
X83496Y-42352D02*
X80347D01*
Y-40778D01*
X80872Y-40253D01*
X81921D01*
X82446Y-40778D01*
Y-42352D01*
Y-41303D02*
X83496Y-40253D01*
Y-37104D02*
Y-39204D01*
X81397Y-37104D01*
X80872D01*
X80347Y-37629D01*
Y-38679D01*
X80872Y-39204D01*
X56996Y-51852D02*
X53847D01*
Y-50278D01*
X54372Y-49753D01*
X55421D01*
X55946Y-50278D01*
Y-51852D01*
Y-50803D02*
X56996Y-49753D01*
X54372Y-48704D02*
X53847Y-48179D01*
Y-47129D01*
X54372Y-46604D01*
X54896D01*
X55421Y-47129D01*
Y-47654D01*
Y-47129D01*
X55946Y-46604D01*
X56471D01*
X56996Y-47129D01*
Y-48179D01*
X56471Y-48704D01*
X66297Y-33303D02*
Y-30154D01*
X67872D01*
X68397Y-30679D01*
Y-31728D01*
X67872Y-32253D01*
X66297D01*
X67347D02*
X68397Y-33303D01*
X71020D02*
Y-30154D01*
X69446Y-31728D01*
X71545D01*
X34297Y-63803D02*
Y-60654D01*
X35872D01*
X36397Y-61179D01*
Y-62228D01*
X35872Y-62753D01*
X34297D01*
X35347D02*
X36397Y-63803D01*
X39545Y-60654D02*
X37446D01*
Y-62228D01*
X38496Y-61704D01*
X39020D01*
X39545Y-62228D01*
Y-63278D01*
X39020Y-63803D01*
X37971D01*
X37446Y-63278D01*
X123574Y-150624D02*
X120426D01*
Y-149049D01*
X120950Y-148525D01*
X122000D01*
X122525Y-149049D01*
Y-150624D01*
Y-149574D02*
X123574Y-148525D01*
X120426Y-145376D02*
X120950Y-146426D01*
X122000Y-147475D01*
X123049D01*
X123574Y-146950D01*
Y-145901D01*
X123049Y-145376D01*
X122525D01*
X122000Y-145901D01*
Y-147475D01*
X153574Y-151124D02*
X150426D01*
Y-149549D01*
X150951Y-149025D01*
X152000D01*
X152525Y-149549D01*
Y-151124D01*
Y-150074D02*
X153574Y-149025D01*
X150426Y-147975D02*
Y-145876D01*
X150951D01*
X153050Y-147975D01*
X153574D01*
X130996Y-52139D02*
X127847D01*
Y-50565D01*
X128372Y-50040D01*
X129421D01*
X129946Y-50565D01*
Y-52139D01*
Y-51090D02*
X130996Y-50040D01*
X128372Y-48991D02*
X127847Y-48466D01*
Y-47416D01*
X128372Y-46892D01*
X128896D01*
X129421Y-47416D01*
X129946Y-46892D01*
X130471D01*
X130996Y-47416D01*
Y-48466D01*
X130471Y-48991D01*
X129946D01*
X129421Y-48466D01*
X128896Y-48991D01*
X128372D01*
X129421Y-48466D02*
Y-47416D01*
X124996Y-52139D02*
X121847D01*
Y-50565D01*
X122372Y-50040D01*
X123421D01*
X123946Y-50565D01*
Y-52139D01*
Y-51090D02*
X124996Y-50040D01*
X124471Y-48991D02*
X124996Y-48466D01*
Y-47416D01*
X124471Y-46892D01*
X122372D01*
X121847Y-47416D01*
Y-48466D01*
X122372Y-48991D01*
X122897D01*
X123421Y-48466D01*
Y-46892D01*
X225224Y-22280D02*
Y-25428D01*
X227323D01*
X228372D02*
X229422D01*
X228897D01*
Y-22280D01*
X228372Y-22805D01*
X165921Y-58679D02*
X165396Y-58154D01*
X164347D01*
X163822Y-58679D01*
Y-60778D01*
X164347Y-61303D01*
X165396D01*
X165921Y-60778D01*
X166971Y-61303D02*
X168020D01*
X167496D01*
Y-58154D01*
X166971Y-58679D01*
X188897Y-59179D02*
X188372Y-58654D01*
X187322D01*
X186797Y-59179D01*
Y-61278D01*
X187322Y-61803D01*
X188372D01*
X188897Y-61278D01*
X192045Y-61803D02*
X189946D01*
X192045Y-59704D01*
Y-59179D01*
X191520Y-58654D01*
X190471D01*
X189946Y-59179D01*
X279896Y-90675D02*
X279372Y-90150D01*
X278322D01*
X277797Y-90675D01*
Y-92774D01*
X278322Y-93299D01*
X279372D01*
X279896Y-92774D01*
X280946Y-90675D02*
X281471Y-90150D01*
X282520D01*
X283045Y-90675D01*
Y-91200D01*
X282520Y-91724D01*
X283045Y-92249D01*
Y-92774D01*
X282520Y-93299D01*
X281471D01*
X280946Y-92774D01*
Y-92249D01*
X281471Y-91724D01*
X280946Y-91200D01*
Y-90675D01*
X281471Y-91724D02*
X282520D01*
X206896Y-90675D02*
X206372Y-90150D01*
X205322D01*
X204797Y-90675D01*
Y-92774D01*
X205322Y-93299D01*
X206372D01*
X206896Y-92774D01*
X207946D02*
X208471Y-93299D01*
X209520D01*
X210045Y-92774D01*
Y-90675D01*
X209520Y-90150D01*
X208471D01*
X207946Y-90675D01*
Y-91200D01*
X208471Y-91724D01*
X210045D01*
X-624Y-61574D02*
Y-58426D01*
X950D01*
X1475Y-58951D01*
Y-60000D01*
X950Y-60525D01*
X-624D01*
X4624Y-58426D02*
X2525D01*
Y-60000D01*
X3574Y-59475D01*
X4099D01*
X4624Y-60000D01*
Y-61049D01*
X4099Y-61574D01*
X3049D01*
X2525Y-61049D01*
X40376Y-192074D02*
Y-188926D01*
X41951D01*
X42475Y-189451D01*
Y-190500D01*
X41951Y-191025D01*
X40376D01*
X45624Y-188926D02*
X44574Y-189451D01*
X43525Y-190500D01*
Y-191550D01*
X44050Y-192074D01*
X45099D01*
X45624Y-191550D01*
Y-191025D01*
X45099Y-190500D01*
X43525D01*
X31223Y-32404D02*
Y-30305D01*
X30698Y-29780D01*
X29648D01*
X29124Y-30305D01*
Y-32404D01*
X29648Y-32928D01*
X30698D01*
X30173Y-31879D02*
X31223Y-32928D01*
X30698D02*
X31223Y-32404D01*
X32272Y-32928D02*
X33322D01*
X32797D01*
Y-29780D01*
X32272Y-30305D01*
X116372Y-50040D02*
X115847Y-50565D01*
Y-51614D01*
X116372Y-52139D01*
X118471D01*
X118996Y-51614D01*
Y-50565D01*
X118471Y-50040D01*
X118996Y-48991D02*
Y-47941D01*
Y-48466D01*
X115847D01*
X116372Y-48991D01*
X118996Y-46367D02*
Y-45317D01*
Y-45842D01*
X115847D01*
X116372Y-46367D01*
M02*
