G04 Layer_Physical_Order=2*
G04 Layer_Color=16711680*
%FSLAX25Y25*%
%MOIN*%
G70*
G01*
G75*
%ADD25C,0.11811*%
%ADD26C,0.06000*%
%ADD27C,0.04724*%
%ADD28R,0.04724X0.04724*%
%ADD29C,0.19685*%
%ADD30R,0.05905X0.05905*%
%ADD31C,0.05905*%
%ADD32O,0.05905X0.07874*%
%ADD33R,0.05905X0.07874*%
%ADD34C,0.03150*%
G36*
X291412Y22257D02*
X293782Y21785D01*
X296071Y21008D01*
X298239Y19939D01*
X300249Y18596D01*
X302066Y17003D01*
X303659Y15186D01*
X305002Y13176D01*
X306071Y11008D01*
X306848Y8719D01*
X307320Y6349D01*
X307474Y3986D01*
X307465Y3937D01*
X307465Y-196000D01*
X307474Y-196049D01*
X307320Y-198412D01*
X306848Y-200782D01*
X306071Y-203071D01*
X305002Y-205239D01*
X303659Y-207248D01*
X302066Y-209066D01*
X300249Y-210659D01*
X298239Y-212002D01*
X296071Y-213071D01*
X293782Y-213848D01*
X291412Y-214320D01*
X289049Y-214475D01*
X289000Y-214465D01*
X1606D01*
X1557Y-214475D01*
X-806Y-214320D01*
X-3176Y-213848D01*
X-5465Y-213071D01*
X-7633Y-212002D01*
X-9642Y-210659D01*
X-11460Y-209066D01*
X-13053Y-207248D01*
X-14396Y-205239D01*
X-15465Y-203071D01*
X-16242Y-200782D01*
X-16713Y-198412D01*
X-16868Y-196049D01*
X-16859Y-196000D01*
X-16858Y3937D01*
X-16868Y3986D01*
X-16713Y6349D01*
X-16242Y8719D01*
X-15465Y11008D01*
X-14396Y13176D01*
X-13053Y15186D01*
X-11459Y17003D01*
X-9642Y18596D01*
X-7633Y19939D01*
X-5465Y21008D01*
X-3176Y21785D01*
X-805Y22257D01*
X1557Y22411D01*
X1606Y22402D01*
X289000D01*
X289049Y22411D01*
X291412Y22257D01*
D02*
G37*
%LPC*%
G36*
X283465Y-84209D02*
X280906D01*
Y-86768D01*
X283465D01*
Y-84209D01*
D02*
G37*
G36*
X278937D02*
X276378D01*
Y-86768D01*
X278937D01*
Y-84209D01*
D02*
G37*
G36*
Y-79681D02*
X276378D01*
Y-82240D01*
X278937D01*
Y-79681D01*
D02*
G37*
G36*
X206437D02*
X203878D01*
Y-82240D01*
X206437D01*
Y-79681D01*
D02*
G37*
G36*
X210965Y-84209D02*
X208405D01*
Y-86768D01*
X210965D01*
Y-84209D01*
D02*
G37*
G36*
X31055Y-169475D02*
X30960Y-169487D01*
X29955Y-169904D01*
X29091Y-170567D01*
X28429Y-171430D01*
X28012Y-172436D01*
X27870Y-173515D01*
Y-173515D01*
X31055D01*
Y-169475D01*
D02*
G37*
G36*
X162039Y-169528D02*
X161007Y-169664D01*
X160046Y-170062D01*
X159220Y-170696D01*
X158587Y-171521D01*
X158188Y-172483D01*
X158053Y-173515D01*
Y-175483D01*
X158188Y-176515D01*
X158587Y-177477D01*
X159220Y-178303D01*
X160046Y-178936D01*
X161007Y-179334D01*
X162039Y-179470D01*
X163071Y-179334D01*
X164033Y-178936D01*
X164858Y-178303D01*
X165492Y-177477D01*
X165890Y-176515D01*
X166026Y-175483D01*
Y-173515D01*
X165890Y-172483D01*
X165492Y-171521D01*
X164858Y-170696D01*
X164033Y-170062D01*
X163071Y-169664D01*
X162039Y-169528D01*
D02*
G37*
G36*
X206437Y-84209D02*
X203878D01*
Y-86768D01*
X206437D01*
Y-84209D01*
D02*
G37*
G36*
X33024Y-169475D02*
Y-173515D01*
X36209D01*
Y-173515D01*
X36067Y-172436D01*
X35650Y-171430D01*
X34988Y-170567D01*
X34124Y-169904D01*
X33119Y-169487D01*
X33024Y-169475D01*
D02*
G37*
G36*
X210965Y-79681D02*
X208405D01*
Y-82240D01*
X210965D01*
Y-79681D01*
D02*
G37*
G36*
X62039Y-69528D02*
X61007Y-69664D01*
X60046Y-70062D01*
X59220Y-70696D01*
X58587Y-71521D01*
X58188Y-72483D01*
X58052Y-73515D01*
Y-75483D01*
X58188Y-76515D01*
X58587Y-77477D01*
X59220Y-78303D01*
X60046Y-78936D01*
X61007Y-79334D01*
X62039Y-79470D01*
X63071Y-79334D01*
X64033Y-78936D01*
X64859Y-78303D01*
X65492Y-77477D01*
X65890Y-76515D01*
X66026Y-75483D01*
Y-73515D01*
X65890Y-72483D01*
X65492Y-71521D01*
X64859Y-70696D01*
X64033Y-70062D01*
X63071Y-69664D01*
X62039Y-69528D01*
D02*
G37*
G36*
X52039D02*
X51007Y-69664D01*
X50046Y-70062D01*
X49220Y-70696D01*
X48587Y-71521D01*
X48188Y-72483D01*
X48052Y-73515D01*
Y-75483D01*
X48188Y-76515D01*
X48587Y-77477D01*
X49220Y-78303D01*
X50046Y-78936D01*
X51007Y-79334D01*
X52039Y-79470D01*
X53071Y-79334D01*
X54033Y-78936D01*
X54858Y-78303D01*
X55492Y-77477D01*
X55890Y-76515D01*
X56026Y-75483D01*
Y-73515D01*
X55890Y-72483D01*
X55492Y-71521D01*
X54858Y-70696D01*
X54033Y-70062D01*
X53071Y-69664D01*
X52039Y-69528D01*
D02*
G37*
G36*
X82039D02*
X81007Y-69664D01*
X80046Y-70062D01*
X79220Y-70696D01*
X78587Y-71521D01*
X78188Y-72483D01*
X78053Y-73515D01*
Y-75483D01*
X78188Y-76515D01*
X78587Y-77477D01*
X79220Y-78303D01*
X80046Y-78936D01*
X81007Y-79334D01*
X82039Y-79470D01*
X83071Y-79334D01*
X84033Y-78936D01*
X84859Y-78303D01*
X85492Y-77477D01*
X85890Y-76515D01*
X86026Y-75483D01*
Y-73515D01*
X85890Y-72483D01*
X85492Y-71521D01*
X84859Y-70696D01*
X84033Y-70062D01*
X83071Y-69664D01*
X82039Y-69528D01*
D02*
G37*
G36*
X72039D02*
X71008Y-69664D01*
X70046Y-70062D01*
X69220Y-70696D01*
X68587Y-71521D01*
X68188Y-72483D01*
X68053Y-73515D01*
Y-75483D01*
X68188Y-76515D01*
X68587Y-77477D01*
X69220Y-78303D01*
X70046Y-78936D01*
X71008Y-79334D01*
X72039Y-79470D01*
X73071Y-79334D01*
X74033Y-78936D01*
X74858Y-78303D01*
X75492Y-77477D01*
X75890Y-76515D01*
X76026Y-75483D01*
Y-73515D01*
X75890Y-72483D01*
X75492Y-71521D01*
X74858Y-70696D01*
X74033Y-70062D01*
X73071Y-69664D01*
X72039Y-69528D01*
D02*
G37*
G36*
X42039D02*
X41008Y-69664D01*
X40046Y-70062D01*
X39220Y-70696D01*
X38587Y-71521D01*
X38188Y-72483D01*
X38052Y-73515D01*
Y-75483D01*
X38188Y-76515D01*
X38587Y-77477D01*
X39220Y-78303D01*
X40046Y-78936D01*
X41008Y-79334D01*
X42039Y-79470D01*
X43071Y-79334D01*
X44033Y-78936D01*
X44859Y-78303D01*
X45492Y-77477D01*
X45890Y-76515D01*
X46026Y-75483D01*
Y-73515D01*
X45890Y-72483D01*
X45492Y-71521D01*
X44859Y-70696D01*
X44033Y-70062D01*
X43071Y-69664D01*
X42039Y-69528D01*
D02*
G37*
G36*
X31055Y-75483D02*
X27870D01*
X28012Y-76562D01*
X28429Y-77568D01*
X29091Y-78432D01*
X29955Y-79094D01*
X30960Y-79511D01*
X31055Y-79523D01*
Y-75483D01*
D02*
G37*
G36*
X283465Y-79681D02*
X280906D01*
Y-82240D01*
X283465D01*
Y-79681D01*
D02*
G37*
G36*
X22039Y-69528D02*
X21008Y-69664D01*
X20046Y-70062D01*
X19220Y-70696D01*
X18587Y-71521D01*
X18188Y-72483D01*
X18053Y-73515D01*
Y-75483D01*
X18188Y-76515D01*
X18587Y-77477D01*
X19220Y-78303D01*
X20046Y-78936D01*
X21008Y-79334D01*
X22039Y-79470D01*
X23071Y-79334D01*
X24033Y-78936D01*
X24859Y-78303D01*
X25492Y-77477D01*
X25890Y-76515D01*
X26026Y-75483D01*
Y-73515D01*
X25890Y-72483D01*
X25492Y-71521D01*
X24859Y-70696D01*
X24033Y-70062D01*
X23071Y-69664D01*
X22039Y-69528D01*
D02*
G37*
G36*
X36209Y-75483D02*
X33024D01*
Y-79523D01*
X33119Y-79511D01*
X34124Y-79094D01*
X34988Y-78432D01*
X35650Y-77568D01*
X36067Y-76562D01*
X36209Y-75483D01*
D02*
G37*
G36*
X22039Y-169528D02*
X21008Y-169664D01*
X20046Y-170062D01*
X19220Y-170696D01*
X18587Y-171521D01*
X18188Y-172483D01*
X18053Y-173515D01*
Y-175483D01*
X18188Y-176515D01*
X18587Y-177477D01*
X19220Y-178303D01*
X20046Y-178936D01*
X21008Y-179334D01*
X22039Y-179470D01*
X23071Y-179334D01*
X24033Y-178936D01*
X24859Y-178303D01*
X25492Y-177477D01*
X25890Y-176515D01*
X26026Y-175483D01*
Y-173515D01*
X25890Y-172483D01*
X25492Y-171521D01*
X24859Y-170696D01*
X24033Y-170062D01*
X23071Y-169664D01*
X22039Y-169528D01*
D02*
G37*
G36*
X36209Y-175483D02*
X33024D01*
Y-179523D01*
X33119Y-179511D01*
X34124Y-179094D01*
X34988Y-178432D01*
X35650Y-177568D01*
X36067Y-176562D01*
X36209Y-175483D01*
D02*
G37*
G36*
X52039Y-169528D02*
X51007Y-169664D01*
X50046Y-170062D01*
X49220Y-170696D01*
X48587Y-171521D01*
X48188Y-172483D01*
X48052Y-173515D01*
Y-175483D01*
X48188Y-176515D01*
X48587Y-177477D01*
X49220Y-178303D01*
X50046Y-178936D01*
X51007Y-179334D01*
X52039Y-179470D01*
X53071Y-179334D01*
X54033Y-178936D01*
X54858Y-178303D01*
X55492Y-177477D01*
X55890Y-176515D01*
X56026Y-175483D01*
Y-173515D01*
X55890Y-172483D01*
X55492Y-171521D01*
X54858Y-170696D01*
X54033Y-170062D01*
X53071Y-169664D01*
X52039Y-169528D01*
D02*
G37*
G36*
X42039D02*
X41008Y-169664D01*
X40046Y-170062D01*
X39220Y-170696D01*
X38587Y-171521D01*
X38188Y-172483D01*
X38052Y-173515D01*
Y-175483D01*
X38188Y-176515D01*
X38587Y-177477D01*
X39220Y-178303D01*
X40046Y-178936D01*
X41008Y-179334D01*
X42039Y-179470D01*
X43071Y-179334D01*
X44033Y-178936D01*
X44859Y-178303D01*
X45492Y-177477D01*
X45890Y-176515D01*
X46026Y-175483D01*
Y-173515D01*
X45890Y-172483D01*
X45492Y-171521D01*
X44859Y-170696D01*
X44033Y-170062D01*
X43071Y-169664D01*
X42039Y-169528D01*
D02*
G37*
G36*
X31055Y-175483D02*
X27870D01*
X28012Y-176562D01*
X28429Y-177568D01*
X29091Y-178432D01*
X29955Y-179094D01*
X30960Y-179511D01*
X31055Y-179523D01*
Y-175483D01*
D02*
G37*
G36*
X289500Y-186124D02*
X287799Y-186258D01*
X286139Y-186656D01*
X284562Y-187309D01*
X283107Y-188201D01*
X281809Y-189310D01*
X280701Y-190607D01*
X279809Y-192062D01*
X279156Y-193639D01*
X278758Y-195299D01*
X278624Y-197000D01*
X278758Y-198701D01*
X279156Y-200361D01*
X279809Y-201938D01*
X280701Y-203393D01*
X281809Y-204691D01*
X283107Y-205799D01*
X284562Y-206691D01*
X286139Y-207344D01*
X287799Y-207742D01*
X289500Y-207876D01*
X291201Y-207742D01*
X292861Y-207344D01*
X294438Y-206691D01*
X295893Y-205799D01*
X297190Y-204691D01*
X298299Y-203393D01*
X299191Y-201938D01*
X299844Y-200361D01*
X300242Y-198701D01*
X300376Y-197000D01*
X300242Y-195299D01*
X299844Y-193639D01*
X299191Y-192062D01*
X298299Y-190607D01*
X297190Y-189310D01*
X295893Y-188201D01*
X294438Y-187309D01*
X292861Y-186656D01*
X291201Y-186258D01*
X289500Y-186124D01*
D02*
G37*
G36*
X0D02*
X-1701Y-186258D01*
X-3361Y-186656D01*
X-4938Y-187309D01*
X-6393Y-188201D01*
X-7690Y-189310D01*
X-8799Y-190607D01*
X-9691Y-192062D01*
X-10344Y-193639D01*
X-10742Y-195299D01*
X-10876Y-197000D01*
X-10742Y-198701D01*
X-10344Y-200361D01*
X-9691Y-201938D01*
X-8799Y-203393D01*
X-7690Y-204691D01*
X-6393Y-205799D01*
X-4938Y-206691D01*
X-3361Y-207344D01*
X-1701Y-207742D01*
X0Y-207876D01*
X1701Y-207742D01*
X3361Y-207344D01*
X4938Y-206691D01*
X6393Y-205799D01*
X7690Y-204691D01*
X8799Y-203393D01*
X9691Y-201938D01*
X10344Y-200361D01*
X10742Y-198701D01*
X10876Y-197000D01*
X10742Y-195299D01*
X10344Y-193639D01*
X9691Y-192062D01*
X8799Y-190607D01*
X7690Y-189310D01*
X6393Y-188201D01*
X4938Y-187309D01*
X3361Y-186656D01*
X1701Y-186258D01*
X0Y-186124D01*
D02*
G37*
G36*
X25953Y-186547D02*
X18047D01*
Y-194453D01*
X25953D01*
Y-186547D01*
D02*
G37*
G36*
X32000Y-186513D02*
X30968Y-186649D01*
X30007Y-187047D01*
X29181Y-187681D01*
X28547Y-188507D01*
X28149Y-189468D01*
X28013Y-190500D01*
X28149Y-191532D01*
X28547Y-192493D01*
X29181Y-193319D01*
X30007Y-193953D01*
X30968Y-194351D01*
X32000Y-194487D01*
X33032Y-194351D01*
X33993Y-193953D01*
X34819Y-193319D01*
X35453Y-192493D01*
X35851Y-191532D01*
X35987Y-190500D01*
X35851Y-189468D01*
X35453Y-188507D01*
X34819Y-187681D01*
X33993Y-187047D01*
X33032Y-186649D01*
X32000Y-186513D01*
D02*
G37*
G36*
X62039Y-169528D02*
X61007Y-169664D01*
X60046Y-170062D01*
X59220Y-170696D01*
X58587Y-171521D01*
X58188Y-172483D01*
X58052Y-173515D01*
Y-175483D01*
X58188Y-176515D01*
X58587Y-177477D01*
X59220Y-178303D01*
X60046Y-178936D01*
X61007Y-179334D01*
X62039Y-179470D01*
X63071Y-179334D01*
X64033Y-178936D01*
X64859Y-178303D01*
X65492Y-177477D01*
X65890Y-176515D01*
X66026Y-175483D01*
Y-173515D01*
X65890Y-172483D01*
X65492Y-171521D01*
X64859Y-170696D01*
X64033Y-170062D01*
X63071Y-169664D01*
X62039Y-169528D01*
D02*
G37*
G36*
X132039D02*
X131008Y-169664D01*
X130046Y-170062D01*
X129220Y-170696D01*
X128587Y-171521D01*
X128188Y-172483D01*
X128052Y-173515D01*
Y-175483D01*
X128188Y-176515D01*
X128587Y-177477D01*
X129220Y-178303D01*
X130046Y-178936D01*
X131008Y-179334D01*
X132039Y-179470D01*
X133071Y-179334D01*
X134033Y-178936D01*
X134859Y-178303D01*
X135492Y-177477D01*
X135890Y-176515D01*
X136026Y-175483D01*
Y-173515D01*
X135890Y-172483D01*
X135492Y-171521D01*
X134859Y-170696D01*
X134033Y-170062D01*
X133071Y-169664D01*
X132039Y-169528D01*
D02*
G37*
G36*
X122039D02*
X121008Y-169664D01*
X120046Y-170062D01*
X119220Y-170696D01*
X118587Y-171521D01*
X118188Y-172483D01*
X118052Y-173515D01*
Y-175483D01*
X118188Y-176515D01*
X118587Y-177477D01*
X119220Y-178303D01*
X120046Y-178936D01*
X121008Y-179334D01*
X122039Y-179470D01*
X123071Y-179334D01*
X124033Y-178936D01*
X124858Y-178303D01*
X125492Y-177477D01*
X125890Y-176515D01*
X126026Y-175483D01*
Y-173515D01*
X125890Y-172483D01*
X125492Y-171521D01*
X124858Y-170696D01*
X124033Y-170062D01*
X123071Y-169664D01*
X122039Y-169528D01*
D02*
G37*
G36*
X152039D02*
X151007Y-169664D01*
X150046Y-170062D01*
X149220Y-170696D01*
X148587Y-171521D01*
X148188Y-172483D01*
X148053Y-173515D01*
Y-175483D01*
X148188Y-176515D01*
X148587Y-177477D01*
X149220Y-178303D01*
X150046Y-178936D01*
X151007Y-179334D01*
X152039Y-179470D01*
X153071Y-179334D01*
X154033Y-178936D01*
X154859Y-178303D01*
X155492Y-177477D01*
X155890Y-176515D01*
X156026Y-175483D01*
Y-173515D01*
X155890Y-172483D01*
X155492Y-171521D01*
X154859Y-170696D01*
X154033Y-170062D01*
X153071Y-169664D01*
X152039Y-169528D01*
D02*
G37*
G36*
X142039D02*
X141007Y-169664D01*
X140046Y-170062D01*
X139220Y-170696D01*
X138587Y-171521D01*
X138188Y-172483D01*
X138052Y-173515D01*
Y-175483D01*
X138188Y-176515D01*
X138587Y-177477D01*
X139220Y-178303D01*
X140046Y-178936D01*
X141007Y-179334D01*
X142039Y-179470D01*
X143071Y-179334D01*
X144033Y-178936D01*
X144859Y-178303D01*
X145492Y-177477D01*
X145890Y-176515D01*
X146026Y-175483D01*
Y-173515D01*
X145890Y-172483D01*
X145492Y-171521D01*
X144859Y-170696D01*
X144033Y-170062D01*
X143071Y-169664D01*
X142039Y-169528D01*
D02*
G37*
G36*
X112039D02*
X111007Y-169664D01*
X110046Y-170062D01*
X109220Y-170696D01*
X108587Y-171521D01*
X108188Y-172483D01*
X108053Y-173515D01*
Y-175483D01*
X108188Y-176515D01*
X108587Y-177477D01*
X109220Y-178303D01*
X110046Y-178936D01*
X111007Y-179334D01*
X112039Y-179470D01*
X113071Y-179334D01*
X114033Y-178936D01*
X114858Y-178303D01*
X115492Y-177477D01*
X115890Y-176515D01*
X116026Y-175483D01*
Y-173515D01*
X115890Y-172483D01*
X115492Y-171521D01*
X114858Y-170696D01*
X114033Y-170062D01*
X113071Y-169664D01*
X112039Y-169528D01*
D02*
G37*
G36*
X82039D02*
X81007Y-169664D01*
X80046Y-170062D01*
X79220Y-170696D01*
X78587Y-171521D01*
X78188Y-172483D01*
X78053Y-173515D01*
Y-175483D01*
X78188Y-176515D01*
X78587Y-177477D01*
X79220Y-178303D01*
X80046Y-178936D01*
X81007Y-179334D01*
X82039Y-179470D01*
X83071Y-179334D01*
X84033Y-178936D01*
X84859Y-178303D01*
X85492Y-177477D01*
X85890Y-176515D01*
X86026Y-175483D01*
Y-173515D01*
X85890Y-172483D01*
X85492Y-171521D01*
X84859Y-170696D01*
X84033Y-170062D01*
X83071Y-169664D01*
X82039Y-169528D01*
D02*
G37*
G36*
X72039D02*
X71008Y-169664D01*
X70046Y-170062D01*
X69220Y-170696D01*
X68587Y-171521D01*
X68188Y-172483D01*
X68053Y-173515D01*
Y-175483D01*
X68188Y-176515D01*
X68587Y-177477D01*
X69220Y-178303D01*
X70046Y-178936D01*
X71008Y-179334D01*
X72039Y-179470D01*
X73071Y-179334D01*
X74033Y-178936D01*
X74858Y-178303D01*
X75492Y-177477D01*
X75890Y-176515D01*
X76026Y-175483D01*
Y-173515D01*
X75890Y-172483D01*
X75492Y-171521D01*
X74858Y-170696D01*
X74033Y-170062D01*
X73071Y-169664D01*
X72039Y-169528D01*
D02*
G37*
G36*
X102039D02*
X101007Y-169664D01*
X100046Y-170062D01*
X99220Y-170696D01*
X98587Y-171521D01*
X98188Y-172483D01*
X98053Y-173515D01*
Y-175483D01*
X98188Y-176515D01*
X98587Y-177477D01*
X99220Y-178303D01*
X100046Y-178936D01*
X101007Y-179334D01*
X102039Y-179470D01*
X103071Y-179334D01*
X104033Y-178936D01*
X104859Y-178303D01*
X105492Y-177477D01*
X105890Y-176515D01*
X106026Y-175483D01*
Y-173515D01*
X105890Y-172483D01*
X105492Y-171521D01*
X104859Y-170696D01*
X104033Y-170062D01*
X103071Y-169664D01*
X102039Y-169528D01*
D02*
G37*
G36*
X92039D02*
X91008Y-169664D01*
X90046Y-170062D01*
X89220Y-170696D01*
X88587Y-171521D01*
X88188Y-172483D01*
X88052Y-173515D01*
Y-175483D01*
X88188Y-176515D01*
X88587Y-177477D01*
X89220Y-178303D01*
X90046Y-178936D01*
X91008Y-179334D01*
X92039Y-179470D01*
X93071Y-179334D01*
X94033Y-178936D01*
X94858Y-178303D01*
X95492Y-177477D01*
X95890Y-176515D01*
X96026Y-175483D01*
Y-173515D01*
X95890Y-172483D01*
X95492Y-171521D01*
X94858Y-170696D01*
X94033Y-170062D01*
X93071Y-169664D01*
X92039Y-169528D01*
D02*
G37*
G36*
X250921Y-36190D02*
X249877Y-36327D01*
X248904Y-36730D01*
X248068Y-37372D01*
X247427Y-38207D01*
X247024Y-39180D01*
X246887Y-40224D01*
X247024Y-41269D01*
X247427Y-42242D01*
X248068Y-43077D01*
X248904Y-43718D01*
X249877Y-44122D01*
X250921Y-44259D01*
X251965Y-44122D01*
X252939Y-43718D01*
X253774Y-43077D01*
X254415Y-42242D01*
X254818Y-41269D01*
X254956Y-40224D01*
X254818Y-39180D01*
X254415Y-38207D01*
X253774Y-37372D01*
X252939Y-36730D01*
X251965Y-36327D01*
X250921Y-36190D01*
D02*
G37*
G36*
X230921D02*
X229877Y-36327D01*
X228904Y-36730D01*
X228068Y-37372D01*
X227427Y-38207D01*
X227024Y-39180D01*
X226887Y-40224D01*
X227024Y-41269D01*
X227427Y-42242D01*
X228068Y-43077D01*
X228904Y-43718D01*
X229877Y-44122D01*
X230921Y-44259D01*
X231965Y-44122D01*
X232939Y-43718D01*
X233774Y-43077D01*
X234415Y-42242D01*
X234818Y-41269D01*
X234956Y-40224D01*
X234818Y-39180D01*
X234415Y-38207D01*
X233774Y-37372D01*
X232939Y-36730D01*
X231965Y-36327D01*
X230921Y-36190D01*
D02*
G37*
G36*
X231157Y-9209D02*
X225118D01*
X225158Y-9614D01*
X225563Y-10949D01*
X226221Y-12181D01*
X227106Y-13260D01*
X228186Y-14145D01*
X229417Y-14803D01*
X230752Y-15209D01*
X231157Y-15248D01*
Y-9209D01*
D02*
G37*
G36*
X67429Y-9213D02*
X61389D01*
X61429Y-9618D01*
X61835Y-10953D01*
X62493Y-12184D01*
X63378Y-13264D01*
X64457Y-14149D01*
X65688Y-14807D01*
X67024Y-15212D01*
X67429Y-15252D01*
Y-9213D01*
D02*
G37*
G36*
X189421Y-38337D02*
X188544Y-38453D01*
X187726Y-38791D01*
X187023Y-39330D01*
X186484Y-40033D01*
X186146Y-40851D01*
X186030Y-41728D01*
X186146Y-42606D01*
X186484Y-43424D01*
X187023Y-44126D01*
X187726Y-44665D01*
X188544Y-45004D01*
X189421Y-45120D01*
X190299Y-45004D01*
X191117Y-44665D01*
X191819Y-44126D01*
X192358Y-43424D01*
X192697Y-42606D01*
X192813Y-41728D01*
X192697Y-40851D01*
X192358Y-40033D01*
X191819Y-39330D01*
X191117Y-38791D01*
X190299Y-38453D01*
X189421Y-38337D01*
D02*
G37*
G36*
X169465Y-48185D02*
X166905D01*
Y-50744D01*
X169465D01*
Y-48185D01*
D02*
G37*
G36*
X188437D02*
X185878D01*
Y-50744D01*
X188437D01*
Y-48185D01*
D02*
G37*
G36*
X165921Y-38337D02*
X165044Y-38453D01*
X164226Y-38791D01*
X163523Y-39330D01*
X162984Y-40033D01*
X162646Y-40851D01*
X162530Y-41728D01*
X162646Y-42606D01*
X162984Y-43424D01*
X163523Y-44126D01*
X164226Y-44665D01*
X165044Y-45004D01*
X165921Y-45120D01*
X166799Y-45004D01*
X167617Y-44665D01*
X168319Y-44126D01*
X168858Y-43424D01*
X169197Y-42606D01*
X169313Y-41728D01*
X169197Y-40851D01*
X168858Y-40033D01*
X168319Y-39330D01*
X167617Y-38791D01*
X166799Y-38453D01*
X165921Y-38337D01*
D02*
G37*
G36*
X192965Y-48185D02*
X190405D01*
Y-50744D01*
X192965D01*
Y-48185D01*
D02*
G37*
G36*
X125878Y-9209D02*
X119838D01*
X119878Y-9614D01*
X120283Y-10949D01*
X120941Y-12181D01*
X121827Y-13260D01*
X122906Y-14145D01*
X124137Y-14803D01*
X125473Y-15209D01*
X125878Y-15248D01*
Y-9209D01*
D02*
G37*
G36*
Y-1201D02*
X125473Y-1240D01*
X124137Y-1646D01*
X122906Y-2304D01*
X121827Y-3189D01*
X120941Y-4268D01*
X120283Y-5499D01*
X119878Y-6835D01*
X119838Y-7240D01*
X125878D01*
Y-1201D01*
D02*
G37*
G36*
X67429Y-1204D02*
X67024Y-1244D01*
X65688Y-1650D01*
X64457Y-2307D01*
X63378Y-3193D01*
X62493Y-4272D01*
X61835Y-5503D01*
X61429Y-6839D01*
X61389Y-7244D01*
X67429D01*
Y-1204D01*
D02*
G37*
G36*
X38154Y-1289D02*
X36800Y-1423D01*
X35498Y-1818D01*
X34299Y-2459D01*
X33247Y-3322D01*
X32384Y-4373D01*
X31743Y-5573D01*
X31525Y-6291D01*
X31003D01*
X30785Y-5573D01*
X30143Y-4373D01*
X29281Y-3322D01*
X28229Y-2459D01*
X27029Y-1818D01*
X25728Y-1423D01*
X24374Y-1289D01*
X23020Y-1423D01*
X21719Y-1818D01*
X20519Y-2459D01*
X19467Y-3322D01*
X18605Y-4373D01*
X17963Y-5573D01*
X17568Y-6875D01*
X17435Y-8228D01*
X17568Y-9582D01*
X17963Y-10884D01*
X18605Y-12083D01*
X19467Y-13135D01*
X20519Y-13998D01*
X21719Y-14639D01*
X23020Y-15034D01*
X24374Y-15167D01*
X25728Y-15034D01*
X27029Y-14639D01*
X28229Y-13998D01*
X29281Y-13135D01*
X30143Y-12083D01*
X30785Y-10884D01*
X31003Y-10166D01*
X31525D01*
X31743Y-10884D01*
X32384Y-12083D01*
X33247Y-13135D01*
X34299Y-13998D01*
X35498Y-14639D01*
X36800Y-15034D01*
X38154Y-15167D01*
X39507Y-15034D01*
X40809Y-14639D01*
X42009Y-13998D01*
X43060Y-13135D01*
X43923Y-12083D01*
X44564Y-10884D01*
X44959Y-9582D01*
X45092Y-8228D01*
X44959Y-6875D01*
X44564Y-5573D01*
X43923Y-4373D01*
X43060Y-3322D01*
X42009Y-2459D01*
X40809Y-1818D01*
X39507Y-1423D01*
X38154Y-1289D01*
D02*
G37*
G36*
X231157Y-1201D02*
X230752Y-1240D01*
X229417Y-1646D01*
X228186Y-2304D01*
X227106Y-3189D01*
X226221Y-4268D01*
X225563Y-5499D01*
X225158Y-6835D01*
X225118Y-7240D01*
X231157D01*
Y-1201D01*
D02*
G37*
G36*
X289500Y10876D02*
X287799Y10742D01*
X286139Y10344D01*
X284562Y9691D01*
X283107Y8799D01*
X281809Y7690D01*
X280701Y6393D01*
X279809Y4938D01*
X279156Y3361D01*
X278758Y1701D01*
X278624Y0D01*
X278758Y-1701D01*
X279156Y-3361D01*
X279809Y-4938D01*
X280701Y-6393D01*
X281809Y-7690D01*
X283107Y-8799D01*
X284562Y-9691D01*
X286139Y-10344D01*
X287799Y-10742D01*
X289500Y-10876D01*
X291201Y-10742D01*
X292861Y-10344D01*
X294438Y-9691D01*
X295893Y-8799D01*
X297190Y-7690D01*
X298299Y-6393D01*
X299191Y-4938D01*
X299844Y-3361D01*
X300242Y-1701D01*
X300376Y0D01*
X300242Y1701D01*
X299844Y3361D01*
X299191Y4938D01*
X298299Y6393D01*
X297190Y7690D01*
X295893Y8799D01*
X294438Y9691D01*
X292861Y10344D01*
X291201Y10742D01*
X289500Y10876D01*
D02*
G37*
G36*
X233126Y-1201D02*
Y-8224D01*
Y-15248D01*
X233531Y-15209D01*
X234867Y-14803D01*
X236098Y-14145D01*
X237177Y-13260D01*
X238063Y-12181D01*
X238721Y-10949D01*
X238865Y-10474D01*
X239387D01*
X239510Y-10880D01*
X240152Y-12079D01*
X241015Y-13131D01*
X242066Y-13994D01*
X243266Y-14635D01*
X244567Y-15030D01*
X245921Y-15163D01*
X247275Y-15030D01*
X248577Y-14635D01*
X249776Y-13994D01*
X250828Y-13131D01*
X251691Y-12079D01*
X252332Y-10880D01*
X252727Y-9578D01*
X252860Y-8224D01*
X252727Y-6871D01*
X252332Y-5569D01*
X251691Y-4369D01*
X250828Y-3318D01*
X249776Y-2455D01*
X248577Y-1814D01*
X247275Y-1419D01*
X245921Y-1285D01*
X244567Y-1419D01*
X243266Y-1814D01*
X242066Y-2455D01*
X241015Y-3318D01*
X240152Y-4369D01*
X239510Y-5569D01*
X239387Y-5975D01*
X238865D01*
X238721Y-5499D01*
X238063Y-4268D01*
X237177Y-3189D01*
X236098Y-2304D01*
X234867Y-1646D01*
X233531Y-1240D01*
X233126Y-1201D01*
D02*
G37*
G36*
X69398Y-1204D02*
Y-8228D01*
X68413D01*
D01*
X69398D01*
Y-15252D01*
X69803Y-15212D01*
X71139Y-14807D01*
X72370Y-14149D01*
X73449Y-13264D01*
X74334Y-12184D01*
X74992Y-10953D01*
X75137Y-10478D01*
X75659D01*
X75782Y-10884D01*
X76423Y-12083D01*
X77286Y-13135D01*
X78338Y-13998D01*
X79537Y-14639D01*
X80839Y-15034D01*
X82193Y-15167D01*
X83547Y-15034D01*
X84848Y-14639D01*
X86048Y-13998D01*
X87099Y-13135D01*
X87962Y-12083D01*
X88604Y-10884D01*
X88821Y-10166D01*
X89344D01*
X89562Y-10884D01*
X90203Y-12083D01*
X91066Y-13135D01*
X92117Y-13998D01*
X93317Y-14639D01*
X94619Y-15034D01*
X95973Y-15167D01*
X97326Y-15034D01*
X98628Y-14639D01*
X99827Y-13998D01*
X100879Y-13135D01*
X101742Y-12083D01*
X102383Y-10884D01*
X102778Y-9582D01*
X102911Y-8228D01*
X102778Y-6875D01*
X102383Y-5573D01*
X101742Y-4373D01*
X100879Y-3322D01*
X99827Y-2459D01*
X98628Y-1818D01*
X97326Y-1423D01*
X95973Y-1289D01*
X94619Y-1423D01*
X93317Y-1818D01*
X92117Y-2459D01*
X91066Y-3322D01*
X90203Y-4373D01*
X89562Y-5573D01*
X89344Y-6291D01*
X88821D01*
X88604Y-5573D01*
X87962Y-4373D01*
X87099Y-3322D01*
X86048Y-2459D01*
X84848Y-1818D01*
X83547Y-1423D01*
X82193Y-1289D01*
X80839Y-1423D01*
X79537Y-1818D01*
X78338Y-2459D01*
X77286Y-3322D01*
X76423Y-4373D01*
X75782Y-5573D01*
X75659Y-5979D01*
X75137D01*
X74992Y-5503D01*
X74334Y-4272D01*
X73449Y-3193D01*
X72370Y-2307D01*
X71139Y-1650D01*
X69803Y-1244D01*
X69398Y-1204D01*
D02*
G37*
G36*
X0Y10876D02*
X-1701Y10742D01*
X-3361Y10344D01*
X-4938Y9691D01*
X-6393Y8799D01*
X-7690Y7690D01*
X-8799Y6393D01*
X-9691Y4938D01*
X-10344Y3361D01*
X-10742Y1701D01*
X-10876Y0D01*
X-10742Y-1701D01*
X-10344Y-3361D01*
X-9691Y-4938D01*
X-8799Y-6393D01*
X-7690Y-7690D01*
X-6393Y-8799D01*
X-4938Y-9691D01*
X-3361Y-10344D01*
X-1701Y-10742D01*
X0Y-10876D01*
X1701Y-10742D01*
X3361Y-10344D01*
X4938Y-9691D01*
X6393Y-8799D01*
X7690Y-7690D01*
X8799Y-6393D01*
X9691Y-4938D01*
X10344Y-3361D01*
X10742Y-1701D01*
X10876Y0D01*
X10742Y1701D01*
X10344Y3361D01*
X9691Y4938D01*
X8799Y6393D01*
X7690Y7690D01*
X6393Y8799D01*
X4938Y9691D01*
X3361Y10344D01*
X1701Y10742D01*
X0Y10876D01*
D02*
G37*
G36*
X127846Y-1201D02*
Y-8224D01*
Y-15248D01*
X128251Y-15209D01*
X129587Y-14803D01*
X130818Y-14145D01*
X131897Y-13260D01*
X132783Y-12181D01*
X133441Y-10949D01*
X133585Y-10474D01*
X134108D01*
X134231Y-10880D01*
X134872Y-12079D01*
X135735Y-13131D01*
X136787Y-13994D01*
X137986Y-14635D01*
X139288Y-15030D01*
X140642Y-15163D01*
X141996Y-15030D01*
X143297Y-14635D01*
X144497Y-13994D01*
X145548Y-13131D01*
X146411Y-12079D01*
X147053Y-10880D01*
X147270Y-10162D01*
X147793D01*
X148011Y-10880D01*
X148652Y-12079D01*
X149515Y-13131D01*
X150566Y-13994D01*
X151766Y-14635D01*
X153068Y-15030D01*
X154421Y-15163D01*
X155775Y-15030D01*
X157077Y-14635D01*
X158276Y-13994D01*
X159328Y-13131D01*
X160191Y-12079D01*
X160832Y-10880D01*
X161050Y-10162D01*
X161572D01*
X161790Y-10880D01*
X162431Y-12079D01*
X163294Y-13131D01*
X164346Y-13994D01*
X165545Y-14635D01*
X166847Y-15030D01*
X168201Y-15163D01*
X169554Y-15030D01*
X170856Y-14635D01*
X172056Y-13994D01*
X173107Y-13131D01*
X173970Y-12079D01*
X174611Y-10880D01*
X174829Y-10162D01*
X175352D01*
X175570Y-10880D01*
X176211Y-12079D01*
X177074Y-13131D01*
X178125Y-13994D01*
X179325Y-14635D01*
X180627Y-15030D01*
X181980Y-15163D01*
X183334Y-15030D01*
X184636Y-14635D01*
X185835Y-13994D01*
X186887Y-13131D01*
X187750Y-12079D01*
X188391Y-10880D01*
X188786Y-9578D01*
X188919Y-8224D01*
X188786Y-6871D01*
X188391Y-5569D01*
X187750Y-4369D01*
X186887Y-3318D01*
X185835Y-2455D01*
X184636Y-1814D01*
X183334Y-1419D01*
X181980Y-1285D01*
X180627Y-1419D01*
X179325Y-1814D01*
X178125Y-2455D01*
X177074Y-3318D01*
X176211Y-4369D01*
X175570Y-5569D01*
X175352Y-6287D01*
X174829D01*
X174611Y-5569D01*
X173970Y-4369D01*
X173107Y-3318D01*
X172056Y-2455D01*
X170856Y-1814D01*
X169554Y-1419D01*
X168201Y-1285D01*
X166847Y-1419D01*
X165545Y-1814D01*
X164346Y-2455D01*
X163294Y-3318D01*
X162431Y-4369D01*
X161790Y-5569D01*
X161572Y-6287D01*
X161050D01*
X160832Y-5569D01*
X160191Y-4369D01*
X159328Y-3318D01*
X158276Y-2455D01*
X157077Y-1814D01*
X155775Y-1419D01*
X154421Y-1285D01*
X153068Y-1419D01*
X151766Y-1814D01*
X150566Y-2455D01*
X149515Y-3318D01*
X148652Y-4369D01*
X148011Y-5569D01*
X147793Y-6287D01*
X147270D01*
X147053Y-5569D01*
X146411Y-4369D01*
X145548Y-3318D01*
X144497Y-2455D01*
X143297Y-1814D01*
X141996Y-1419D01*
X140642Y-1285D01*
X139288Y-1419D01*
X137986Y-1814D01*
X136787Y-2455D01*
X135735Y-3318D01*
X134872Y-4369D01*
X134231Y-5569D01*
X134108Y-5975D01*
X133585D01*
X133441Y-5499D01*
X132783Y-4268D01*
X131897Y-3189D01*
X130818Y-2304D01*
X129587Y-1646D01*
X128251Y-1240D01*
X127846Y-1201D01*
D02*
G37*
G36*
X152039Y-69528D02*
X151007Y-69664D01*
X150046Y-70062D01*
X149220Y-70696D01*
X148587Y-71521D01*
X148188Y-72483D01*
X148053Y-73515D01*
Y-75483D01*
X148188Y-76515D01*
X148587Y-77477D01*
X149220Y-78303D01*
X150046Y-78936D01*
X151007Y-79334D01*
X152039Y-79470D01*
X153071Y-79334D01*
X154033Y-78936D01*
X154859Y-78303D01*
X155492Y-77477D01*
X155890Y-76515D01*
X156026Y-75483D01*
Y-73515D01*
X155890Y-72483D01*
X155492Y-71521D01*
X154859Y-70696D01*
X154033Y-70062D01*
X153071Y-69664D01*
X152039Y-69528D01*
D02*
G37*
G36*
X142039D02*
X141007Y-69664D01*
X140046Y-70062D01*
X139220Y-70696D01*
X138587Y-71521D01*
X138188Y-72483D01*
X138052Y-73515D01*
Y-75483D01*
X138188Y-76515D01*
X138587Y-77477D01*
X139220Y-78303D01*
X140046Y-78936D01*
X141007Y-79334D01*
X142039Y-79470D01*
X143071Y-79334D01*
X144033Y-78936D01*
X144859Y-78303D01*
X145492Y-77477D01*
X145890Y-76515D01*
X146026Y-75483D01*
Y-73515D01*
X145890Y-72483D01*
X145492Y-71521D01*
X144859Y-70696D01*
X144033Y-70062D01*
X143071Y-69664D01*
X142039Y-69528D01*
D02*
G37*
G36*
X207421Y-69833D02*
X206544Y-69949D01*
X205726Y-70288D01*
X205023Y-70827D01*
X204484Y-71529D01*
X204146Y-72347D01*
X204030Y-73224D01*
X204146Y-74102D01*
X204484Y-74920D01*
X205023Y-75622D01*
X205726Y-76161D01*
X206544Y-76500D01*
X207421Y-76616D01*
X208299Y-76500D01*
X209117Y-76161D01*
X209819Y-75622D01*
X210358Y-74920D01*
X210697Y-74102D01*
X210812Y-73224D01*
X210697Y-72347D01*
X210358Y-71529D01*
X209819Y-70827D01*
X209117Y-70288D01*
X208299Y-69949D01*
X207421Y-69833D01*
D02*
G37*
G36*
X165992Y-69562D02*
X158087D01*
Y-79436D01*
X165992D01*
Y-69562D01*
D02*
G37*
G36*
X132039Y-69528D02*
X131008Y-69664D01*
X130046Y-70062D01*
X129220Y-70696D01*
X128587Y-71521D01*
X128188Y-72483D01*
X128052Y-73515D01*
Y-75483D01*
X128188Y-76515D01*
X128587Y-77477D01*
X129220Y-78303D01*
X130046Y-78936D01*
X131008Y-79334D01*
X132039Y-79470D01*
X133071Y-79334D01*
X134033Y-78936D01*
X134859Y-78303D01*
X135492Y-77477D01*
X135890Y-76515D01*
X136026Y-75483D01*
Y-73515D01*
X135890Y-72483D01*
X135492Y-71521D01*
X134859Y-70696D01*
X134033Y-70062D01*
X133071Y-69664D01*
X132039Y-69528D01*
D02*
G37*
G36*
X102039D02*
X101007Y-69664D01*
X100046Y-70062D01*
X99220Y-70696D01*
X98587Y-71521D01*
X98188Y-72483D01*
X98053Y-73515D01*
Y-75483D01*
X98188Y-76515D01*
X98587Y-77477D01*
X99220Y-78303D01*
X100046Y-78936D01*
X101007Y-79334D01*
X102039Y-79470D01*
X103071Y-79334D01*
X104033Y-78936D01*
X104859Y-78303D01*
X105492Y-77477D01*
X105890Y-76515D01*
X106026Y-75483D01*
Y-73515D01*
X105890Y-72483D01*
X105492Y-71521D01*
X104859Y-70696D01*
X104033Y-70062D01*
X103071Y-69664D01*
X102039Y-69528D01*
D02*
G37*
G36*
X92039D02*
X91008Y-69664D01*
X90046Y-70062D01*
X89220Y-70696D01*
X88587Y-71521D01*
X88188Y-72483D01*
X88052Y-73515D01*
Y-75483D01*
X88188Y-76515D01*
X88587Y-77477D01*
X89220Y-78303D01*
X90046Y-78936D01*
X91008Y-79334D01*
X92039Y-79470D01*
X93071Y-79334D01*
X94033Y-78936D01*
X94858Y-78303D01*
X95492Y-77477D01*
X95890Y-76515D01*
X96026Y-75483D01*
Y-73515D01*
X95890Y-72483D01*
X95492Y-71521D01*
X94858Y-70696D01*
X94033Y-70062D01*
X93071Y-69664D01*
X92039Y-69528D01*
D02*
G37*
G36*
X122039D02*
X121008Y-69664D01*
X120046Y-70062D01*
X119220Y-70696D01*
X118587Y-71521D01*
X118188Y-72483D01*
X118052Y-73515D01*
Y-75483D01*
X118188Y-76515D01*
X118587Y-77477D01*
X119220Y-78303D01*
X120046Y-78936D01*
X121008Y-79334D01*
X122039Y-79470D01*
X123071Y-79334D01*
X124033Y-78936D01*
X124858Y-78303D01*
X125492Y-77477D01*
X125890Y-76515D01*
X126026Y-75483D01*
Y-73515D01*
X125890Y-72483D01*
X125492Y-71521D01*
X124858Y-70696D01*
X124033Y-70062D01*
X123071Y-69664D01*
X122039Y-69528D01*
D02*
G37*
G36*
X112039D02*
X111007Y-69664D01*
X110046Y-70062D01*
X109220Y-70696D01*
X108587Y-71521D01*
X108188Y-72483D01*
X108053Y-73515D01*
Y-75483D01*
X108188Y-76515D01*
X108587Y-77477D01*
X109220Y-78303D01*
X110046Y-78936D01*
X111007Y-79334D01*
X112039Y-79470D01*
X113071Y-79334D01*
X114033Y-78936D01*
X114858Y-78303D01*
X115492Y-77477D01*
X115890Y-76515D01*
X116026Y-75483D01*
Y-73515D01*
X115890Y-72483D01*
X115492Y-71521D01*
X114858Y-70696D01*
X114033Y-70062D01*
X113071Y-69664D01*
X112039Y-69528D01*
D02*
G37*
G36*
X279921Y-69833D02*
X279044Y-69949D01*
X278226Y-70288D01*
X277523Y-70827D01*
X276984Y-71529D01*
X276646Y-72347D01*
X276530Y-73224D01*
X276646Y-74102D01*
X276984Y-74920D01*
X277523Y-75622D01*
X278226Y-76161D01*
X279044Y-76500D01*
X279921Y-76616D01*
X280799Y-76500D01*
X281617Y-76161D01*
X282319Y-75622D01*
X282858Y-74920D01*
X283197Y-74102D01*
X283313Y-73224D01*
X283197Y-72347D01*
X282858Y-71529D01*
X282319Y-70827D01*
X281617Y-70288D01*
X280799Y-69949D01*
X279921Y-69833D01*
D02*
G37*
G36*
X188437Y-52713D02*
X185878D01*
Y-55272D01*
X188437D01*
Y-52713D01*
D02*
G37*
G36*
X169465D02*
X166905D01*
Y-55272D01*
X169465D01*
Y-52713D01*
D02*
G37*
G36*
X164937Y-48185D02*
X162378D01*
Y-50744D01*
X164937D01*
Y-48185D01*
D02*
G37*
G36*
X192965Y-52713D02*
X190405D01*
Y-55272D01*
X192965D01*
Y-52713D01*
D02*
G37*
G36*
X164937D02*
X162378D01*
Y-55272D01*
X164937D01*
Y-52713D01*
D02*
G37*
G36*
X33024Y-69475D02*
Y-73515D01*
X36209D01*
Y-73515D01*
X36067Y-72436D01*
X35650Y-71430D01*
X34988Y-70567D01*
X34124Y-69904D01*
X33119Y-69487D01*
X33024Y-69475D01*
D02*
G37*
G36*
X31055Y-69475D02*
X30960Y-69487D01*
X29955Y-69904D01*
X29091Y-70567D01*
X28429Y-71430D01*
X28012Y-72436D01*
X27870Y-73515D01*
Y-73515D01*
X31055D01*
Y-69475D01*
D02*
G37*
G36*
X25953Y-56047D02*
X18047D01*
Y-63953D01*
X25953D01*
Y-56047D01*
D02*
G37*
G36*
X12000Y-56013D02*
X10968Y-56149D01*
X10007Y-56547D01*
X9181Y-57181D01*
X8547Y-58007D01*
X8149Y-58968D01*
X8013Y-60000D01*
X8149Y-61032D01*
X8547Y-61993D01*
X9181Y-62819D01*
X10007Y-63453D01*
X10968Y-63851D01*
X12000Y-63987D01*
X13032Y-63851D01*
X13993Y-63453D01*
X14819Y-62819D01*
X15453Y-61993D01*
X15851Y-61032D01*
X15987Y-60000D01*
X15851Y-58968D01*
X15453Y-58007D01*
X14819Y-57181D01*
X13993Y-56547D01*
X13032Y-56149D01*
X12000Y-56013D01*
D02*
G37*
%LPD*%
D25*
X232142Y-8224D02*
D03*
X245921D02*
D03*
X95973Y-8228D02*
D03*
X82193D02*
D03*
X68413D02*
D03*
X24374D02*
D03*
X38154D02*
D03*
X154421Y-8224D02*
D03*
X168201D02*
D03*
X181980D02*
D03*
X140642D02*
D03*
X126862D02*
D03*
D26*
X230921Y-40224D02*
D03*
X250921D02*
D03*
D27*
X165921Y-41728D02*
D03*
X189421D02*
D03*
X279921Y-73224D02*
D03*
X207421D02*
D03*
D28*
X165921Y-51728D02*
D03*
X189421D02*
D03*
X279921Y-83224D02*
D03*
X207421D02*
D03*
D29*
X289500Y0D02*
D03*
Y-197000D02*
D03*
X0Y0D02*
D03*
Y-197000D02*
D03*
D30*
X22000Y-190500D02*
D03*
Y-60000D02*
D03*
D31*
X32000Y-190500D02*
D03*
X12000Y-60000D02*
D03*
D32*
X162039Y-174499D02*
D03*
X152039D02*
D03*
X142039D02*
D03*
X132039D02*
D03*
X122039D02*
D03*
X112039D02*
D03*
X102039D02*
D03*
X92039D02*
D03*
X82039D02*
D03*
X72039D02*
D03*
X62039D02*
D03*
X52039D02*
D03*
X42039D02*
D03*
X32039D02*
D03*
X22039D02*
D03*
Y-74499D02*
D03*
X32039D02*
D03*
X42039D02*
D03*
X52039D02*
D03*
X62039D02*
D03*
X72039D02*
D03*
X82039D02*
D03*
X92039D02*
D03*
X102039D02*
D03*
X112039D02*
D03*
X122039D02*
D03*
X132039D02*
D03*
X142039D02*
D03*
X152039D02*
D03*
D33*
X162039D02*
D03*
D34*
X201421Y-21228D02*
D03*
X231634Y-80575D02*
D03*
X245020D02*
D03*
X244921Y-118024D02*
D03*
X239921Y-118224D02*
D03*
X249921D02*
D03*
X244921Y-113224D02*
D03*
Y-123224D02*
D03*
X221772Y-118524D02*
D03*
X153921Y-27228D02*
D03*
X60000Y-23000D02*
D03*
X272000Y-59000D02*
D03*
X117421Y-46228D02*
D03*
X152610Y-53390D02*
D03*
X43984Y-38728D02*
D03*
M02*
