G04 Layer_Color=2752767*
%FSLAX25Y25*%
%MOIN*%
G70*
G01*
G75*
%ADD37C,0.01000*%
%ADD39C,0.01500*%
%ADD41C,0.00394*%
%ADD61C,0.00200*%
%ADD62C,0.00100*%
%ADD63C,0.01600*%
%ADD64C,0.00600*%
D37*
X558072Y-238167D02*
G03*
X558072Y-238167I-3333J0D01*
G01*
X554739Y-151500D02*
X558072Y-144833D01*
X551405D02*
X558072D01*
X551405D02*
X554739Y-151500D01*
X551405Y-166500D02*
X554739Y-164833D01*
X558072Y-166500D01*
X556405Y-163167D02*
X558072Y-166500D01*
X556405Y-163167D02*
X558072Y-159833D01*
X554739Y-161500D02*
X558072Y-159833D01*
X551405D02*
X554739Y-161500D01*
X551405Y-159833D02*
X553072Y-163167D01*
X551405Y-166500D02*
X553072Y-163167D01*
X551405Y-178167D02*
X554739Y-181500D01*
X558072Y-178167D01*
X554739Y-174833D02*
X558072Y-178167D01*
X551405D02*
X554739Y-174833D01*
X553072Y-194833D02*
X554739Y-196500D01*
X551405Y-194833D02*
X553072D01*
X551405D02*
X553072Y-193167D01*
X551405Y-191500D02*
X553072Y-193167D01*
X551405Y-191500D02*
X553072D01*
X554739Y-189833D01*
X556405Y-191500D01*
X558072D01*
X556405Y-193167D02*
X558072Y-191500D01*
X556405Y-193167D02*
X558072Y-194833D01*
X556405D02*
X558072D01*
X554739Y-196500D02*
X556405Y-194833D01*
X551405Y-211500D02*
X558072D01*
Y-204833D01*
X551405D02*
X558072D01*
X551405Y-211500D02*
Y-204833D01*
Y-224833D02*
X553072D01*
X551405D02*
Y-221500D01*
X553072D01*
Y-219833D01*
X556405D01*
Y-221500D02*
Y-219833D01*
Y-221500D02*
X558072D01*
Y-224833D02*
Y-221500D01*
X556405Y-224833D02*
X558072D01*
X556405Y-226500D02*
Y-224833D01*
X553072Y-226500D02*
X556405D01*
X553072D02*
Y-224833D01*
X308685Y-238000D02*
Y-197197D01*
X-18079Y-238000D02*
Y-197197D01*
X158799Y-237000D02*
X308685D01*
X-18079D02*
X128607D01*
X302685Y-235000D02*
X308685Y-237000D01*
X302685Y-239000D02*
X308685Y-237000D01*
X-18079D02*
X-12079Y-239000D01*
X-18079Y-237000D02*
X-12079Y-235000D01*
X290197Y23622D02*
X339500D01*
X290197Y-215685D02*
X339500D01*
X338500Y-82536D02*
Y23622D01*
Y-215685D02*
Y-112727D01*
X336500Y17622D02*
X338500Y23622D01*
X340500Y17622D01*
X338500Y-215685D02*
X340500Y-209685D01*
X336500D02*
X338500Y-215685D01*
X897934Y-151500D02*
Y-145502D01*
X900933D01*
X901933Y-146502D01*
Y-148501D01*
X900933Y-149501D01*
X897934D01*
X904932Y-147501D02*
X906931D01*
X907931Y-148501D01*
Y-151500D01*
X904932D01*
X903932Y-150500D01*
X904932Y-149501D01*
X907931D01*
X913929Y-145502D02*
Y-151500D01*
X910930D01*
X909930Y-150500D01*
Y-148501D01*
X910930Y-147501D01*
X913929D01*
X897934Y-166500D02*
Y-160502D01*
X900933D01*
X901933Y-161502D01*
Y-163501D01*
X900933Y-164501D01*
X897934D01*
X904932Y-162501D02*
X906931D01*
X907931Y-163501D01*
Y-166500D01*
X904932D01*
X903932Y-165500D01*
X904932Y-164501D01*
X907931D01*
X913929Y-160502D02*
Y-166500D01*
X910930D01*
X909930Y-165500D01*
Y-163501D01*
X910930Y-162501D01*
X913929D01*
X897934Y-181500D02*
Y-175502D01*
X900933D01*
X901933Y-176502D01*
Y-178501D01*
X900933Y-179501D01*
X897934D01*
X904932Y-177501D02*
X906931D01*
X907931Y-178501D01*
Y-181500D01*
X904932D01*
X903932Y-180500D01*
X904932Y-179501D01*
X907931D01*
X913929Y-175502D02*
Y-181500D01*
X910930D01*
X909930Y-180500D01*
Y-178501D01*
X910930Y-177501D01*
X913929D01*
X897934Y-196500D02*
Y-190502D01*
X900933D01*
X901933Y-191502D01*
Y-193501D01*
X900933Y-194501D01*
X897934D01*
X904932Y-192501D02*
X906931D01*
X907931Y-193501D01*
Y-196500D01*
X904932D01*
X903932Y-195500D01*
X904932Y-194501D01*
X907931D01*
X913929Y-190502D02*
Y-196500D01*
X910930D01*
X909930Y-195500D01*
Y-193501D01*
X910930Y-192501D01*
X913929D01*
X897934Y-211500D02*
Y-205502D01*
X900933D01*
X901933Y-206502D01*
Y-208501D01*
X900933Y-209501D01*
X897934D01*
X904932Y-207501D02*
X906931D01*
X907931Y-208501D01*
Y-211500D01*
X904932D01*
X903932Y-210500D01*
X904932Y-209501D01*
X907931D01*
X913929Y-205502D02*
Y-211500D01*
X910930D01*
X909930Y-210500D01*
Y-208501D01*
X910930Y-207501D01*
X913929D01*
X897934Y-220502D02*
Y-224501D01*
X899934Y-226500D01*
X901933Y-224501D01*
Y-220502D01*
X903932Y-226500D02*
X905931D01*
X904932D01*
Y-222501D01*
X903932D01*
X909930D02*
X911930D01*
X912929Y-223501D01*
Y-226500D01*
X909930D01*
X908931Y-225500D01*
X909930Y-224501D01*
X912929D01*
X897934Y-241500D02*
Y-235502D01*
X900933D01*
X901933Y-236502D01*
Y-238501D01*
X900933Y-239501D01*
X897934D01*
X904932Y-237501D02*
X906931D01*
X907931Y-238501D01*
Y-241500D01*
X904932D01*
X903932Y-240500D01*
X904932Y-239501D01*
X907931D01*
X913929Y-235502D02*
Y-241500D01*
X910930D01*
X909930Y-240500D01*
Y-238501D01*
X910930Y-237501D01*
X913929D01*
X824554Y-151500D02*
Y-145502D01*
X827553D01*
X828553Y-146502D01*
Y-148501D01*
X827553Y-149501D01*
X824554D01*
X826553D02*
X828553Y-151500D01*
X831552D02*
X833551D01*
X834551Y-150500D01*
Y-148501D01*
X833551Y-147501D01*
X831552D01*
X830552Y-148501D01*
Y-150500D01*
X831552Y-151500D01*
X836550Y-147501D02*
Y-150500D01*
X837550Y-151500D01*
X840549D01*
Y-147501D01*
X842548Y-151500D02*
Y-147501D01*
X845547D01*
X846547Y-148501D01*
Y-151500D01*
X852545Y-145502D02*
Y-151500D01*
X849546D01*
X848546Y-150500D01*
Y-148501D01*
X849546Y-147501D01*
X852545D01*
X824554Y-166500D02*
Y-160502D01*
X827553D01*
X828553Y-161502D01*
Y-163501D01*
X827553Y-164501D01*
X824554D01*
X826553D02*
X828553Y-166500D01*
X831552D02*
X833551D01*
X834551Y-165500D01*
Y-163501D01*
X833551Y-162501D01*
X831552D01*
X830552Y-163501D01*
Y-165500D01*
X831552Y-166500D01*
X836550Y-162501D02*
Y-165500D01*
X837550Y-166500D01*
X840549D01*
Y-162501D01*
X842548Y-166500D02*
Y-162501D01*
X845547D01*
X846547Y-163501D01*
Y-166500D01*
X852545Y-160502D02*
Y-166500D01*
X849546D01*
X848546Y-165500D01*
Y-163501D01*
X849546Y-162501D01*
X852545D01*
X824554Y-181500D02*
Y-175502D01*
X827553D01*
X828553Y-176502D01*
Y-178501D01*
X827553Y-179501D01*
X824554D01*
X826553D02*
X828553Y-181500D01*
X831552D02*
X833551D01*
X834551Y-180500D01*
Y-178501D01*
X833551Y-177501D01*
X831552D01*
X830552Y-178501D01*
Y-180500D01*
X831552Y-181500D01*
X836550Y-177501D02*
Y-180500D01*
X837550Y-181500D01*
X840549D01*
Y-177501D01*
X842548Y-181500D02*
Y-177501D01*
X845547D01*
X846547Y-178501D01*
Y-181500D01*
X852545Y-175502D02*
Y-181500D01*
X849546D01*
X848546Y-180500D01*
Y-178501D01*
X849546Y-177501D01*
X852545D01*
X824554Y-196500D02*
Y-190502D01*
X827553D01*
X828553Y-191502D01*
Y-193501D01*
X827553Y-194501D01*
X824554D01*
X826553D02*
X828553Y-196500D01*
X831552D02*
X833551D01*
X834551Y-195500D01*
Y-193501D01*
X833551Y-192501D01*
X831552D01*
X830552Y-193501D01*
Y-195500D01*
X831552Y-196500D01*
X836550Y-192501D02*
Y-195500D01*
X837550Y-196500D01*
X840549D01*
Y-192501D01*
X842548Y-196500D02*
Y-192501D01*
X845547D01*
X846547Y-193501D01*
Y-196500D01*
X852545Y-190502D02*
Y-196500D01*
X849546D01*
X848546Y-195500D01*
Y-193501D01*
X849546Y-192501D01*
X852545D01*
X824554Y-211500D02*
Y-205502D01*
X827553D01*
X828553Y-206502D01*
Y-208501D01*
X827553Y-209501D01*
X824554D01*
X826553D02*
X828553Y-211500D01*
X831552D02*
X833551D01*
X834551Y-210500D01*
Y-208501D01*
X833551Y-207501D01*
X831552D01*
X830552Y-208501D01*
Y-210500D01*
X831552Y-211500D01*
X836550Y-207501D02*
Y-210500D01*
X837550Y-211500D01*
X840549D01*
Y-207501D01*
X842548Y-211500D02*
Y-207501D01*
X845547D01*
X846547Y-208501D01*
Y-211500D01*
X852545Y-205502D02*
Y-211500D01*
X849546D01*
X848546Y-210500D01*
Y-208501D01*
X849546Y-207501D01*
X852545D01*
X824554Y-226500D02*
Y-220502D01*
X827553D01*
X828553Y-221502D01*
Y-223501D01*
X827553Y-224501D01*
X824554D01*
X826553D02*
X828553Y-226500D01*
X831552D02*
X833551D01*
X834551Y-225500D01*
Y-223501D01*
X833551Y-222501D01*
X831552D01*
X830552Y-223501D01*
Y-225500D01*
X831552Y-226500D01*
X836550Y-222501D02*
Y-225500D01*
X837550Y-226500D01*
X840549D01*
Y-222501D01*
X842548Y-226500D02*
Y-222501D01*
X845547D01*
X846547Y-223501D01*
Y-226500D01*
X852545Y-220502D02*
Y-226500D01*
X849546D01*
X848546Y-225500D01*
Y-223501D01*
X849546Y-222501D01*
X852545D01*
X824554Y-241500D02*
Y-235502D01*
X827553D01*
X828553Y-236502D01*
Y-238501D01*
X827553Y-239501D01*
X824554D01*
X826553D02*
X828553Y-241500D01*
X831552D02*
X833551D01*
X834551Y-240500D01*
Y-238501D01*
X833551Y-237501D01*
X831552D01*
X830552Y-238501D01*
Y-240500D01*
X831552Y-241500D01*
X836550Y-237501D02*
Y-240500D01*
X837550Y-241500D01*
X840549D01*
Y-237501D01*
X842548Y-241500D02*
Y-237501D01*
X845547D01*
X846547Y-238501D01*
Y-241500D01*
X852545Y-235502D02*
Y-241500D01*
X849546D01*
X848546Y-240500D01*
Y-238501D01*
X849546Y-237501D01*
X852545D01*
X773966Y-151500D02*
Y-145502D01*
X776965D01*
X777965Y-146502D01*
Y-148501D01*
X776965Y-149501D01*
X773966D01*
X779964Y-145502D02*
X783963D01*
X781964D01*
Y-151500D01*
X785962Y-145502D02*
Y-151500D01*
Y-148501D01*
X789961D01*
Y-145502D01*
Y-151500D01*
X773966Y-166500D02*
Y-160502D01*
X776965D01*
X777965Y-161502D01*
Y-163501D01*
X776965Y-164501D01*
X773966D01*
X779964Y-160502D02*
X783963D01*
X781964D01*
Y-166500D01*
X785962Y-160502D02*
Y-166500D01*
Y-163501D01*
X789961D01*
Y-160502D01*
Y-166500D01*
X773966Y-181500D02*
Y-175502D01*
X777965Y-181500D01*
Y-175502D01*
X779964Y-181500D02*
Y-175502D01*
X782963D01*
X783963Y-176502D01*
Y-178501D01*
X782963Y-179501D01*
X779964D01*
X785962Y-175502D02*
X789961D01*
X787962D01*
Y-181500D01*
X791960Y-175502D02*
Y-181500D01*
Y-178501D01*
X795959D01*
Y-175502D01*
Y-181500D01*
X773966Y-196500D02*
Y-190502D01*
X776965D01*
X777965Y-191502D01*
Y-193501D01*
X776965Y-194501D01*
X773966D01*
X779964Y-190502D02*
X783963D01*
X781964D01*
Y-196500D01*
X785962Y-190502D02*
Y-196500D01*
Y-193501D01*
X789961D01*
Y-190502D01*
Y-196500D01*
X773966Y-211500D02*
Y-205502D01*
X776965D01*
X777965Y-206502D01*
Y-208501D01*
X776965Y-209501D01*
X773966D01*
X779964Y-205502D02*
X783963D01*
X781964D01*
Y-211500D01*
X785962Y-205502D02*
Y-211500D01*
Y-208501D01*
X789961D01*
Y-205502D01*
Y-211500D01*
X773966Y-226500D02*
Y-220502D01*
X776965D01*
X777965Y-221502D01*
Y-223501D01*
X776965Y-224501D01*
X773966D01*
X779964Y-220502D02*
X783963D01*
X781964D01*
Y-226500D01*
X785962Y-220502D02*
Y-226500D01*
Y-223501D01*
X789961D01*
Y-220502D01*
Y-226500D01*
X773966Y-241500D02*
Y-235502D01*
X777965Y-241500D01*
Y-235502D01*
X779964Y-241500D02*
Y-235502D01*
X782963D01*
X783963Y-236502D01*
Y-238501D01*
X782963Y-239501D01*
X779964D01*
X785962Y-235502D02*
X789961D01*
X787962D01*
Y-241500D01*
X791960Y-235502D02*
Y-241500D01*
Y-238501D01*
X795959D01*
Y-235502D01*
Y-241500D01*
X659000Y-146502D02*
X660000Y-145502D01*
X661999D01*
X662999Y-146502D01*
Y-150500D01*
X661999Y-151500D01*
X660000D01*
X659000Y-150500D01*
Y-146502D01*
X664998Y-151500D02*
Y-150500D01*
X665998D01*
Y-151500D01*
X664998D01*
X669996Y-145502D02*
X673995D01*
Y-146502D01*
X669996Y-150500D01*
Y-151500D01*
X679993Y-145502D02*
X677994Y-146502D01*
X675994Y-148501D01*
Y-150500D01*
X676994Y-151500D01*
X678994D01*
X679993Y-150500D01*
Y-149501D01*
X678994Y-148501D01*
X675994D01*
X685991Y-151500D02*
X681993D01*
X685991Y-147501D01*
Y-146502D01*
X684992Y-145502D01*
X682992D01*
X681993Y-146502D01*
X687991Y-151500D02*
Y-147501D01*
X688990D01*
X689990Y-148501D01*
Y-151500D01*
Y-148501D01*
X690990Y-147501D01*
X691989Y-148501D01*
Y-151500D01*
X693989D02*
Y-147501D01*
X694988D01*
X695988Y-148501D01*
Y-151500D01*
Y-148501D01*
X696988Y-147501D01*
X697987Y-148501D01*
Y-151500D01*
X707984D02*
X705985Y-149501D01*
Y-147501D01*
X707984Y-145502D01*
X710983Y-146502D02*
X711983Y-145502D01*
X713982D01*
X714982Y-146502D01*
Y-147501D01*
X713982Y-148501D01*
X712983D01*
X713982D01*
X714982Y-149501D01*
Y-150500D01*
X713982Y-151500D01*
X711983D01*
X710983Y-150500D01*
X716981Y-146502D02*
X717981Y-145502D01*
X719980D01*
X720980Y-146502D01*
Y-150500D01*
X719980Y-151500D01*
X717981D01*
X716981Y-150500D01*
Y-146502D01*
X722979Y-151500D02*
Y-150500D01*
X723979D01*
Y-151500D01*
X722979D01*
X727978Y-146502D02*
X728977Y-145502D01*
X730977D01*
X731976Y-146502D01*
Y-150500D01*
X730977Y-151500D01*
X728977D01*
X727978Y-150500D01*
Y-146502D01*
X733976D02*
X734975Y-145502D01*
X736975D01*
X737974Y-146502D01*
Y-150500D01*
X736975Y-151500D01*
X734975D01*
X733976Y-150500D01*
Y-146502D01*
X739974Y-151500D02*
Y-147501D01*
X740974D01*
X741973Y-148501D01*
Y-151500D01*
Y-148501D01*
X742973Y-147501D01*
X743972Y-148501D01*
Y-151500D01*
X745972D02*
X747971D01*
X746972D01*
Y-147501D01*
X745972D01*
X750970Y-151500D02*
X752970D01*
X751970D01*
Y-145502D01*
X750970D01*
X755969Y-151500D02*
X757968Y-149501D01*
Y-147501D01*
X755969Y-145502D01*
X659000Y-161502D02*
X660000Y-160502D01*
X661999D01*
X662999Y-161502D01*
Y-165500D01*
X661999Y-166500D01*
X660000D01*
X659000Y-165500D01*
Y-161502D01*
X664998Y-166500D02*
Y-165500D01*
X665998D01*
Y-166500D01*
X664998D01*
X669996Y-165500D02*
X670996Y-166500D01*
X672996D01*
X673995Y-165500D01*
Y-161502D01*
X672996Y-160502D01*
X670996D01*
X669996Y-161502D01*
Y-162501D01*
X670996Y-163501D01*
X673995D01*
X675994Y-161502D02*
X676994Y-160502D01*
X678994D01*
X679993Y-161502D01*
Y-165500D01*
X678994Y-166500D01*
X676994D01*
X675994Y-165500D01*
Y-161502D01*
X681993D02*
X682992Y-160502D01*
X684992D01*
X685991Y-161502D01*
Y-165500D01*
X684992Y-166500D01*
X682992D01*
X681993Y-165500D01*
Y-161502D01*
X687991Y-166500D02*
Y-162501D01*
X688990D01*
X689990Y-163501D01*
Y-166500D01*
Y-163501D01*
X690990Y-162501D01*
X691989Y-163501D01*
Y-166500D01*
X693989D02*
Y-162501D01*
X694988D01*
X695988Y-163501D01*
Y-166500D01*
Y-163501D01*
X696988Y-162501D01*
X697987Y-163501D01*
Y-166500D01*
X707984D02*
X705985Y-164501D01*
Y-162501D01*
X707984Y-160502D01*
X710983Y-161502D02*
X711983Y-160502D01*
X713982D01*
X714982Y-161502D01*
Y-162501D01*
X713982Y-163501D01*
X712983D01*
X713982D01*
X714982Y-164501D01*
Y-165500D01*
X713982Y-166500D01*
X711983D01*
X710983Y-165500D01*
X720980Y-160502D02*
X716981D01*
Y-163501D01*
X718981Y-162501D01*
X719980D01*
X720980Y-163501D01*
Y-165500D01*
X719980Y-166500D01*
X717981D01*
X716981Y-165500D01*
X722979Y-166500D02*
Y-165500D01*
X723979D01*
Y-166500D01*
X722979D01*
X730977D02*
Y-160502D01*
X727978Y-163501D01*
X731976D01*
X733976Y-161502D02*
X734975Y-160502D01*
X736975D01*
X737974Y-161502D01*
Y-162501D01*
X736975Y-163501D01*
X735975D01*
X736975D01*
X737974Y-164501D01*
Y-165500D01*
X736975Y-166500D01*
X734975D01*
X733976Y-165500D01*
X739974Y-166500D02*
Y-162501D01*
X740974D01*
X741973Y-163501D01*
Y-166500D01*
Y-163501D01*
X742973Y-162501D01*
X743972Y-163501D01*
Y-166500D01*
X745972D02*
X747971D01*
X746972D01*
Y-162501D01*
X745972D01*
X750970Y-166500D02*
X752970D01*
X751970D01*
Y-160502D01*
X750970D01*
X755969Y-166500D02*
X757968Y-164501D01*
Y-162501D01*
X755969Y-160502D01*
X659000Y-176502D02*
X660000Y-175502D01*
X661999D01*
X662999Y-176502D01*
Y-177501D01*
X661999Y-178501D01*
X660999D01*
X661999D01*
X662999Y-179501D01*
Y-180500D01*
X661999Y-181500D01*
X660000D01*
X659000Y-180500D01*
X664998Y-181500D02*
Y-180500D01*
X665998D01*
Y-181500D01*
X664998D01*
X673995Y-175502D02*
X669996D01*
Y-178501D01*
X671996Y-177501D01*
X672996D01*
X673995Y-178501D01*
Y-180500D01*
X672996Y-181500D01*
X670996D01*
X669996Y-180500D01*
X675994Y-176502D02*
X676994Y-175502D01*
X678994D01*
X679993Y-176502D01*
Y-180500D01*
X678994Y-181500D01*
X676994D01*
X675994Y-180500D01*
Y-176502D01*
X681993D02*
X682992Y-175502D01*
X684992D01*
X685991Y-176502D01*
Y-180500D01*
X684992Y-181500D01*
X682992D01*
X681993Y-180500D01*
Y-176502D01*
X687991Y-181500D02*
Y-177501D01*
X688990D01*
X689990Y-178501D01*
Y-181500D01*
Y-178501D01*
X690990Y-177501D01*
X691989Y-178501D01*
Y-181500D01*
X693989D02*
Y-177501D01*
X694988D01*
X695988Y-178501D01*
Y-181500D01*
Y-178501D01*
X696988Y-177501D01*
X697987Y-178501D01*
Y-181500D01*
X707984D02*
X705985Y-179501D01*
Y-177501D01*
X707984Y-175502D01*
X710983Y-181500D02*
X712983D01*
X711983D01*
Y-175502D01*
X710983Y-176502D01*
X715982D02*
X716981Y-175502D01*
X718981D01*
X719980Y-176502D01*
Y-177501D01*
X718981Y-178501D01*
X717981D01*
X718981D01*
X719980Y-179501D01*
Y-180500D01*
X718981Y-181500D01*
X716981D01*
X715982Y-180500D01*
X721980Y-175502D02*
X725978D01*
Y-176502D01*
X721980Y-180500D01*
Y-181500D01*
X727978D02*
Y-180500D01*
X728977D01*
Y-181500D01*
X727978D01*
X732976Y-176502D02*
X733976Y-175502D01*
X735975D01*
X736975Y-176502D01*
Y-177501D01*
X735975Y-178501D01*
X736975Y-179501D01*
Y-180500D01*
X735975Y-181500D01*
X733976D01*
X732976Y-180500D01*
Y-179501D01*
X733976Y-178501D01*
X732976Y-177501D01*
Y-176502D01*
X733976Y-178501D02*
X735975D01*
X738974Y-176502D02*
X739974Y-175502D01*
X741973D01*
X742973Y-176502D01*
Y-180500D01*
X741973Y-181500D01*
X739974D01*
X738974Y-180500D01*
Y-176502D01*
X744972Y-181500D02*
Y-177501D01*
X745972D01*
X746972Y-178501D01*
Y-181500D01*
Y-178501D01*
X747971Y-177501D01*
X748971Y-178501D01*
Y-181500D01*
X750970D02*
X752970D01*
X751970D01*
Y-177501D01*
X750970D01*
X755969Y-181500D02*
X757968D01*
X756968D01*
Y-175502D01*
X755969D01*
X760967Y-181500D02*
X762966Y-179501D01*
Y-177501D01*
X760967Y-175502D01*
X659000Y-191502D02*
X660000Y-190502D01*
X661999D01*
X662999Y-191502D01*
Y-195500D01*
X661999Y-196500D01*
X660000D01*
X659000Y-195500D01*
Y-191502D01*
X664998Y-196500D02*
Y-195500D01*
X665998D01*
Y-196500D01*
X664998D01*
X669996Y-191502D02*
X670996Y-190502D01*
X672996D01*
X673995Y-191502D01*
Y-192501D01*
X672996Y-193501D01*
X673995Y-194501D01*
Y-195500D01*
X672996Y-196500D01*
X670996D01*
X669996Y-195500D01*
Y-194501D01*
X670996Y-193501D01*
X669996Y-192501D01*
Y-191502D01*
X670996Y-193501D02*
X672996D01*
X675994Y-191502D02*
X676994Y-190502D01*
X678994D01*
X679993Y-191502D01*
Y-195500D01*
X678994Y-196500D01*
X676994D01*
X675994Y-195500D01*
Y-191502D01*
X681993D02*
X682992Y-190502D01*
X684992D01*
X685991Y-191502D01*
Y-195500D01*
X684992Y-196500D01*
X682992D01*
X681993Y-195500D01*
Y-191502D01*
X687991Y-196500D02*
Y-192501D01*
X688990D01*
X689990Y-193501D01*
Y-196500D01*
Y-193501D01*
X690990Y-192501D01*
X691989Y-193501D01*
Y-196500D01*
X693989D02*
Y-192501D01*
X694988D01*
X695988Y-193501D01*
Y-196500D01*
Y-193501D01*
X696988Y-192501D01*
X697987Y-193501D01*
Y-196500D01*
X707984D02*
X705985Y-194501D01*
Y-192501D01*
X707984Y-190502D01*
X710983Y-191502D02*
X711983Y-190502D01*
X713982D01*
X714982Y-191502D01*
Y-192501D01*
X713982Y-193501D01*
X712983D01*
X713982D01*
X714982Y-194501D01*
Y-195500D01*
X713982Y-196500D01*
X711983D01*
X710983Y-195500D01*
X716981Y-196500D02*
X718981D01*
X717981D01*
Y-190502D01*
X716981Y-191502D01*
X721980Y-196500D02*
Y-195500D01*
X722979D01*
Y-196500D01*
X721980D01*
X730977Y-190502D02*
X726978D01*
Y-193501D01*
X728977Y-192501D01*
X729977D01*
X730977Y-193501D01*
Y-195500D01*
X729977Y-196500D01*
X727978D01*
X726978Y-195500D01*
X732976Y-191502D02*
X733976Y-190502D01*
X735975D01*
X736975Y-191502D01*
Y-195500D01*
X735975Y-196500D01*
X733976D01*
X732976Y-195500D01*
Y-191502D01*
X738974Y-196500D02*
Y-192501D01*
X739974D01*
X740974Y-193501D01*
Y-196500D01*
Y-193501D01*
X741973Y-192501D01*
X742973Y-193501D01*
Y-196500D01*
X744972D02*
X746972D01*
X745972D01*
Y-192501D01*
X744972D01*
X749971Y-196500D02*
X751970D01*
X750970D01*
Y-190502D01*
X749971D01*
X754969Y-196500D02*
X756968Y-194501D01*
Y-192501D01*
X754969Y-190502D01*
X659000Y-211500D02*
X660999D01*
X660000D01*
Y-205502D01*
X659000Y-206502D01*
X663998Y-211500D02*
Y-210500D01*
X664998D01*
Y-211500D01*
X663998D01*
X672996Y-205502D02*
X670996Y-206502D01*
X668997Y-208501D01*
Y-210500D01*
X669996Y-211500D01*
X671996D01*
X672996Y-210500D01*
Y-209501D01*
X671996Y-208501D01*
X668997D01*
X674995Y-206502D02*
X675994Y-205502D01*
X677994D01*
X678994Y-206502D01*
Y-210500D01*
X677994Y-211500D01*
X675994D01*
X674995Y-210500D01*
Y-206502D01*
X680993D02*
X681993Y-205502D01*
X683992D01*
X684992Y-206502D01*
Y-210500D01*
X683992Y-211500D01*
X681993D01*
X680993Y-210500D01*
Y-206502D01*
X686991Y-211500D02*
Y-207501D01*
X687991D01*
X688990Y-208501D01*
Y-211500D01*
Y-208501D01*
X689990Y-207501D01*
X690990Y-208501D01*
Y-211500D01*
X692989D02*
Y-207501D01*
X693989D01*
X694988Y-208501D01*
Y-211500D01*
Y-208501D01*
X695988Y-207501D01*
X696988Y-208501D01*
Y-211500D01*
X706985D02*
X704985Y-209501D01*
Y-207501D01*
X706985Y-205502D01*
X713982D02*
X711983Y-206502D01*
X709983Y-208501D01*
Y-210500D01*
X710983Y-211500D01*
X712983D01*
X713982Y-210500D01*
Y-209501D01*
X712983Y-208501D01*
X709983D01*
X719980Y-211500D02*
X715982D01*
X719980Y-207501D01*
Y-206502D01*
X718981Y-205502D01*
X716981D01*
X715982Y-206502D01*
X721980Y-211500D02*
Y-210500D01*
X722979D01*
Y-211500D01*
X721980D01*
X726978Y-210500D02*
X727978Y-211500D01*
X729977D01*
X730977Y-210500D01*
Y-206502D01*
X729977Y-205502D01*
X727978D01*
X726978Y-206502D01*
Y-207501D01*
X727978Y-208501D01*
X730977D01*
X732976Y-210500D02*
X733976Y-211500D01*
X735975D01*
X736975Y-210500D01*
Y-206502D01*
X735975Y-205502D01*
X733976D01*
X732976Y-206502D01*
Y-207501D01*
X733976Y-208501D01*
X736975D01*
X738974Y-211500D02*
Y-207501D01*
X739974D01*
X740974Y-208501D01*
Y-211500D01*
Y-208501D01*
X741973Y-207501D01*
X742973Y-208501D01*
Y-211500D01*
X744972D02*
X746972D01*
X745972D01*
Y-207501D01*
X744972D01*
X749971Y-211500D02*
X751970D01*
X750970D01*
Y-205502D01*
X749971D01*
X754969Y-211500D02*
X756968Y-209501D01*
Y-207501D01*
X754969Y-205502D01*
X659000Y-221502D02*
X660000Y-220502D01*
X661999D01*
X662999Y-221502D01*
Y-225500D01*
X661999Y-226500D01*
X660000D01*
X659000Y-225500D01*
Y-221502D01*
X664998Y-226500D02*
Y-225500D01*
X665998D01*
Y-226500D01*
X664998D01*
X672996D02*
Y-220502D01*
X669996Y-223501D01*
X673995D01*
X675994Y-221502D02*
X676994Y-220502D01*
X678994D01*
X679993Y-221502D01*
Y-225500D01*
X678994Y-226500D01*
X676994D01*
X675994Y-225500D01*
Y-221502D01*
X681993D02*
X682992Y-220502D01*
X684992D01*
X685991Y-221502D01*
Y-225500D01*
X684992Y-226500D01*
X682992D01*
X681993Y-225500D01*
Y-221502D01*
X687991Y-226500D02*
Y-222501D01*
X688990D01*
X689990Y-223501D01*
Y-226500D01*
Y-223501D01*
X690990Y-222501D01*
X691989Y-223501D01*
Y-226500D01*
X693989D02*
Y-222501D01*
X694988D01*
X695988Y-223501D01*
Y-226500D01*
Y-223501D01*
X696988Y-222501D01*
X697987Y-223501D01*
Y-226500D01*
X707984D02*
X705985Y-224501D01*
Y-222501D01*
X707984Y-220502D01*
X710983Y-226500D02*
X712983D01*
X711983D01*
Y-220502D01*
X710983Y-221502D01*
X719980Y-220502D02*
X715982D01*
Y-223501D01*
X717981Y-222501D01*
X718981D01*
X719980Y-223501D01*
Y-225500D01*
X718981Y-226500D01*
X716981D01*
X715982Y-225500D01*
X721980Y-226500D02*
Y-225500D01*
X722979D01*
Y-226500D01*
X721980D01*
X726978Y-220502D02*
X730977D01*
Y-221502D01*
X726978Y-225500D01*
Y-226500D01*
X736975Y-220502D02*
X732976D01*
Y-223501D01*
X734975Y-222501D01*
X735975D01*
X736975Y-223501D01*
Y-225500D01*
X735975Y-226500D01*
X733976D01*
X732976Y-225500D01*
X738974Y-226500D02*
Y-222501D01*
X739974D01*
X740974Y-223501D01*
Y-226500D01*
Y-223501D01*
X741973Y-222501D01*
X742973Y-223501D01*
Y-226500D01*
X744972D02*
X746972D01*
X745972D01*
Y-222501D01*
X744972D01*
X749971Y-226500D02*
X751970D01*
X750970D01*
Y-220502D01*
X749971D01*
X754969Y-226500D02*
X756968Y-224501D01*
Y-222501D01*
X754969Y-220502D01*
X659000Y-236502D02*
X660000Y-235502D01*
X661999D01*
X662999Y-236502D01*
Y-240500D01*
X661999Y-241500D01*
X660000D01*
X659000Y-240500D01*
Y-236502D01*
X664998Y-241500D02*
Y-240500D01*
X665998D01*
Y-241500D01*
X664998D01*
X669996Y-236502D02*
X670996Y-235502D01*
X672996D01*
X673995Y-236502D01*
Y-237501D01*
X672996Y-238501D01*
X673995Y-239501D01*
Y-240500D01*
X672996Y-241500D01*
X670996D01*
X669996Y-240500D01*
Y-239501D01*
X670996Y-238501D01*
X669996Y-237501D01*
Y-236502D01*
X670996Y-238501D02*
X672996D01*
X675994Y-236502D02*
X676994Y-235502D01*
X678994D01*
X679993Y-236502D01*
Y-240500D01*
X678994Y-241500D01*
X676994D01*
X675994Y-240500D01*
Y-236502D01*
X681993D02*
X682992Y-235502D01*
X684992D01*
X685991Y-236502D01*
Y-240500D01*
X684992Y-241500D01*
X682992D01*
X681993Y-240500D01*
Y-236502D01*
X687991Y-241500D02*
Y-237501D01*
X688990D01*
X689990Y-238501D01*
Y-241500D01*
Y-238501D01*
X690990Y-237501D01*
X691989Y-238501D01*
Y-241500D01*
X693989D02*
Y-237501D01*
X694988D01*
X695988Y-238501D01*
Y-241500D01*
Y-238501D01*
X696988Y-237501D01*
X697987Y-238501D01*
Y-241500D01*
X707984D02*
X705985Y-239501D01*
Y-237501D01*
X707984Y-235502D01*
X710983Y-236502D02*
X711983Y-235502D01*
X713982D01*
X714982Y-236502D01*
Y-237501D01*
X713982Y-238501D01*
X712983D01*
X713982D01*
X714982Y-239501D01*
Y-240500D01*
X713982Y-241500D01*
X711983D01*
X710983Y-240500D01*
X716981Y-241500D02*
X718981D01*
X717981D01*
Y-235502D01*
X716981Y-236502D01*
X721980Y-241500D02*
Y-240500D01*
X722979D01*
Y-241500D01*
X721980D01*
X730977Y-235502D02*
X726978D01*
Y-238501D01*
X728977Y-237501D01*
X729977D01*
X730977Y-238501D01*
Y-240500D01*
X729977Y-241500D01*
X727978D01*
X726978Y-240500D01*
X732976Y-236502D02*
X733976Y-235502D01*
X735975D01*
X736975Y-236502D01*
Y-240500D01*
X735975Y-241500D01*
X733976D01*
X732976Y-240500D01*
Y-236502D01*
X738974Y-241500D02*
Y-237501D01*
X739974D01*
X740974Y-238501D01*
Y-241500D01*
Y-238501D01*
X741973Y-237501D01*
X742973Y-238501D01*
Y-241500D01*
X744972D02*
X746972D01*
X745972D01*
Y-237501D01*
X744972D01*
X749971Y-241500D02*
X751970D01*
X750970D01*
Y-235502D01*
X749971D01*
X754969Y-241500D02*
X756968Y-239501D01*
Y-237501D01*
X754969Y-235502D01*
X605014Y-250502D02*
X609013D01*
Y-251502D01*
X605014Y-255500D01*
Y-256500D01*
X615011Y-250502D02*
X611012D01*
Y-253501D01*
X613011Y-252501D01*
X614011D01*
X615011Y-253501D01*
Y-255500D01*
X614011Y-256500D01*
X612012D01*
X611012Y-255500D01*
X623008Y-250502D02*
X627007D01*
X625007D01*
Y-256500D01*
X630006D02*
X632005D01*
X633005Y-255500D01*
Y-253501D01*
X632005Y-252501D01*
X630006D01*
X629006Y-253501D01*
Y-255500D01*
X630006Y-256500D01*
X636004Y-251502D02*
Y-252501D01*
X635004D01*
X637004D01*
X636004D01*
Y-255500D01*
X637004Y-256500D01*
X641002Y-252501D02*
X643002D01*
X644001Y-253501D01*
Y-256500D01*
X641002D01*
X640003Y-255500D01*
X641002Y-254501D01*
X644001D01*
X646001Y-256500D02*
X648000D01*
X647000D01*
Y-250502D01*
X646001D01*
X609013Y-151500D02*
X605014D01*
X609013Y-147501D01*
Y-146502D01*
X608013Y-145502D01*
X606014D01*
X605014Y-146502D01*
X608013Y-166500D02*
Y-160502D01*
X605014Y-163501D01*
X609013D01*
X608013Y-181500D02*
Y-175502D01*
X605014Y-178501D01*
X609013D01*
X605014Y-191502D02*
X606014Y-190502D01*
X608013D01*
X609013Y-191502D01*
Y-192501D01*
X608013Y-193501D01*
X609013Y-194501D01*
Y-195500D01*
X608013Y-196500D01*
X606014D01*
X605014Y-195500D01*
Y-194501D01*
X606014Y-193501D01*
X605014Y-192501D01*
Y-191502D01*
X606014Y-193501D02*
X608013D01*
X605014Y-211500D02*
X607013D01*
X606014D01*
Y-205502D01*
X605014Y-206502D01*
X614011Y-211500D02*
X610012D01*
X614011Y-207501D01*
Y-206502D01*
X613011Y-205502D01*
X611012D01*
X610012Y-206502D01*
X605014Y-226500D02*
X607013D01*
X606014D01*
Y-220502D01*
X605014Y-221502D01*
X614011Y-220502D02*
X610012D01*
Y-223501D01*
X612012Y-222501D01*
X613011D01*
X614011Y-223501D01*
Y-225500D01*
X613011Y-226500D01*
X611012D01*
X610012Y-225500D01*
X605014Y-236502D02*
X606014Y-235502D01*
X608013D01*
X609013Y-236502D01*
Y-237501D01*
X608013Y-238501D01*
X607013D01*
X608013D01*
X609013Y-239501D01*
Y-240500D01*
X608013Y-241500D01*
X606014D01*
X605014Y-240500D01*
X611012Y-236502D02*
X612012Y-235502D01*
X614011D01*
X615011Y-236502D01*
Y-240500D01*
X614011Y-241500D01*
X612012D01*
X611012Y-240500D01*
Y-236502D01*
X893446Y-9502D02*
Y-15500D01*
X896445D01*
X897445Y-14500D01*
Y-13501D01*
X896445Y-12501D01*
X893446D01*
X896445D01*
X897445Y-11501D01*
Y-10502D01*
X896445Y-9502D01*
X893446D01*
X900444Y-15500D02*
X902443D01*
X903443Y-14500D01*
Y-12501D01*
X902443Y-11501D01*
X900444D01*
X899444Y-12501D01*
Y-14500D01*
X900444Y-15500D01*
X906442Y-11501D02*
X908442D01*
X909441Y-12501D01*
Y-15500D01*
X906442D01*
X905442Y-14500D01*
X906442Y-13501D01*
X909441D01*
X911440Y-11501D02*
Y-15500D01*
Y-13501D01*
X912440Y-12501D01*
X913440Y-11501D01*
X914439D01*
X921437Y-9502D02*
Y-15500D01*
X918438D01*
X917439Y-14500D01*
Y-12501D01*
X918438Y-11501D01*
X921437D01*
X929435Y-9502D02*
Y-15500D01*
X933433D01*
X936432Y-11501D02*
X938432D01*
X939431Y-12501D01*
Y-15500D01*
X936432D01*
X935433Y-14500D01*
X936432Y-13501D01*
X939431D01*
X941431Y-11501D02*
Y-14500D01*
X942430Y-15500D01*
X945430D01*
Y-16500D01*
X944430Y-17499D01*
X943430D01*
X945430Y-15500D02*
Y-11501D01*
X950428Y-15500D02*
X948429D01*
X947429Y-14500D01*
Y-12501D01*
X948429Y-11501D01*
X950428D01*
X951428Y-12501D01*
Y-13501D01*
X947429D01*
X953427Y-11501D02*
Y-15500D01*
Y-13501D01*
X954427Y-12501D01*
X955426Y-11501D01*
X956426D01*
X969422Y-10502D02*
X968422Y-9502D01*
X966423D01*
X965423Y-10502D01*
Y-11501D01*
X966423Y-12501D01*
X968422D01*
X969422Y-13501D01*
Y-14500D01*
X968422Y-15500D01*
X966423D01*
X965423Y-14500D01*
X972421Y-10502D02*
Y-11501D01*
X971421D01*
X973420D01*
X972421D01*
Y-14500D01*
X973420Y-15500D01*
X977419Y-11501D02*
X979418D01*
X980418Y-12501D01*
Y-15500D01*
X977419D01*
X976420Y-14500D01*
X977419Y-13501D01*
X980418D01*
X986416Y-11501D02*
X983417D01*
X982417Y-12501D01*
Y-14500D01*
X983417Y-15500D01*
X986416D01*
X988416D02*
Y-9502D01*
Y-13501D02*
X991415Y-11501D01*
X988416Y-13501D02*
X991415Y-15500D01*
X836460Y-34502D02*
X837460Y-33502D01*
X839459D01*
X840459Y-34502D01*
Y-35501D01*
X839459Y-36501D01*
X838460D01*
X839459D01*
X840459Y-37501D01*
Y-38500D01*
X839459Y-39500D01*
X837460D01*
X836460Y-38500D01*
X842458Y-39500D02*
Y-38500D01*
X843458D01*
Y-39500D01*
X842458D01*
X851455Y-33502D02*
X847457D01*
Y-36501D01*
X849456Y-35501D01*
X850456D01*
X851455Y-36501D01*
Y-38500D01*
X850456Y-39500D01*
X848456D01*
X847457Y-38500D01*
X839459Y-63500D02*
Y-57502D01*
X836460Y-60501D01*
X840459D01*
X842458Y-63500D02*
Y-62500D01*
X843458D01*
Y-63500D01*
X842458D01*
X847457Y-58502D02*
X848456Y-57502D01*
X850456D01*
X851455Y-58502D01*
Y-59501D01*
X850456Y-60501D01*
X851455Y-61501D01*
Y-62500D01*
X850456Y-63500D01*
X848456D01*
X847457Y-62500D01*
Y-61501D01*
X848456Y-60501D01*
X847457Y-59501D01*
Y-58502D01*
X848456Y-60501D02*
X850456D01*
X836460Y-82502D02*
X837460Y-81502D01*
X839459D01*
X840459Y-82502D01*
Y-83501D01*
X839459Y-84501D01*
X838460D01*
X839459D01*
X840459Y-85501D01*
Y-86500D01*
X839459Y-87500D01*
X837460D01*
X836460Y-86500D01*
X842458Y-87500D02*
Y-86500D01*
X843458D01*
Y-87500D01*
X842458D01*
X851455Y-81502D02*
X847457D01*
Y-84501D01*
X849456Y-83501D01*
X850456D01*
X851455Y-84501D01*
Y-86500D01*
X850456Y-87500D01*
X848456D01*
X847457Y-86500D01*
X840459Y-10502D02*
X839459Y-9502D01*
X837460D01*
X836460Y-10502D01*
Y-14500D01*
X837460Y-15500D01*
X839459D01*
X840459Y-14500D01*
X843458Y-15500D02*
X845457D01*
X846457Y-14500D01*
Y-12501D01*
X845457Y-11501D01*
X843458D01*
X842458Y-12501D01*
Y-14500D01*
X843458Y-15500D01*
X848456D02*
Y-11501D01*
X851455D01*
X852455Y-12501D01*
Y-15500D01*
X854454D02*
X857453D01*
X858453Y-14500D01*
X857453Y-13501D01*
X855454D01*
X854454Y-12501D01*
X855454Y-11501D01*
X858453D01*
X861452Y-10502D02*
Y-11501D01*
X860452D01*
X862452D01*
X861452D01*
Y-14500D01*
X862452Y-15500D01*
X866451Y-11501D02*
X868450D01*
X869450Y-12501D01*
Y-15500D01*
X866451D01*
X865451Y-14500D01*
X866451Y-13501D01*
X869450D01*
X871449Y-15500D02*
Y-11501D01*
X874448D01*
X875448Y-12501D01*
Y-15500D01*
X878447Y-10502D02*
Y-11501D01*
X877447D01*
X879446D01*
X878447D01*
Y-14500D01*
X879446Y-15500D01*
X771477Y-34502D02*
X772476Y-33502D01*
X774476D01*
X775475Y-34502D01*
Y-38500D01*
X774476Y-39500D01*
X772476D01*
X771477Y-38500D01*
Y-34502D01*
X777475Y-39500D02*
Y-38500D01*
X778474D01*
Y-39500D01*
X777475D01*
X782473Y-34502D02*
X783473Y-33502D01*
X785472D01*
X786472Y-34502D01*
Y-38500D01*
X785472Y-39500D01*
X783473D01*
X782473Y-38500D01*
Y-34502D01*
X788471Y-39500D02*
X790471D01*
X789471D01*
Y-33502D01*
X788471Y-34502D01*
X793470D02*
X794469Y-33502D01*
X796469D01*
X797468Y-34502D01*
Y-38500D01*
X796469Y-39500D01*
X794469D01*
X793470Y-38500D01*
Y-34502D01*
X799468Y-39500D02*
Y-35501D01*
X800467D01*
X801467Y-36501D01*
Y-39500D01*
Y-36501D01*
X802467Y-35501D01*
X803466Y-36501D01*
Y-39500D01*
X805466D02*
Y-35501D01*
X806465D01*
X807465Y-36501D01*
Y-39500D01*
Y-36501D01*
X808465Y-35501D01*
X809464Y-36501D01*
Y-39500D01*
X771477Y-46502D02*
X772476Y-45502D01*
X774476D01*
X775475Y-46502D01*
Y-50500D01*
X774476Y-51500D01*
X772476D01*
X771477Y-50500D01*
Y-46502D01*
X777475Y-51500D02*
Y-50500D01*
X778474D01*
Y-51500D01*
X777475D01*
X782473Y-46502D02*
X783473Y-45502D01*
X785472D01*
X786472Y-46502D01*
Y-50500D01*
X785472Y-51500D01*
X783473D01*
X782473Y-50500D01*
Y-46502D01*
X788471D02*
X789471Y-45502D01*
X791470D01*
X792470Y-46502D01*
Y-47501D01*
X791470Y-48501D01*
X790471D01*
X791470D01*
X792470Y-49501D01*
Y-50500D01*
X791470Y-51500D01*
X789471D01*
X788471Y-50500D01*
X798468Y-45502D02*
X796469Y-46502D01*
X794469Y-48501D01*
Y-50500D01*
X795469Y-51500D01*
X797468D01*
X798468Y-50500D01*
Y-49501D01*
X797468Y-48501D01*
X794469D01*
X800467Y-51500D02*
Y-47501D01*
X801467D01*
X802467Y-48501D01*
Y-51500D01*
Y-48501D01*
X803466Y-47501D01*
X804466Y-48501D01*
Y-51500D01*
X806465D02*
Y-47501D01*
X807465D01*
X808465Y-48501D01*
Y-51500D01*
Y-48501D01*
X809464Y-47501D01*
X810464Y-48501D01*
Y-51500D01*
X771477Y-63500D02*
X773476D01*
X772476D01*
Y-57502D01*
X771477Y-58502D01*
X776475Y-63500D02*
Y-62500D01*
X777475D01*
Y-63500D01*
X776475D01*
X785472Y-57502D02*
X781473D01*
Y-60501D01*
X783473Y-59501D01*
X784473D01*
X785472Y-60501D01*
Y-62500D01*
X784473Y-63500D01*
X782473D01*
X781473Y-62500D01*
X787471Y-58502D02*
X788471Y-57502D01*
X790471D01*
X791470Y-58502D01*
Y-62500D01*
X790471Y-63500D01*
X788471D01*
X787471Y-62500D01*
Y-58502D01*
X793470D02*
X794469Y-57502D01*
X796469D01*
X797468Y-58502D01*
Y-62500D01*
X796469Y-63500D01*
X794469D01*
X793470Y-62500D01*
Y-58502D01*
X799468Y-63500D02*
Y-59501D01*
X800467D01*
X801467Y-60501D01*
Y-63500D01*
Y-60501D01*
X802467Y-59501D01*
X803466Y-60501D01*
Y-63500D01*
X805466D02*
Y-59501D01*
X806465D01*
X807465Y-60501D01*
Y-63500D01*
Y-60501D01*
X808465Y-59501D01*
X809464Y-60501D01*
Y-63500D01*
X771477Y-70502D02*
X772476Y-69502D01*
X774476D01*
X775475Y-70502D01*
Y-74500D01*
X774476Y-75500D01*
X772476D01*
X771477Y-74500D01*
Y-70502D01*
X777475Y-75500D02*
Y-74500D01*
X778474D01*
Y-75500D01*
X777475D01*
X782473Y-70502D02*
X783473Y-69502D01*
X785472D01*
X786472Y-70502D01*
Y-74500D01*
X785472Y-75500D01*
X783473D01*
X782473Y-74500D01*
Y-70502D01*
X788471D02*
X789471Y-69502D01*
X791470D01*
X792470Y-70502D01*
Y-71501D01*
X791470Y-72501D01*
X790471D01*
X791470D01*
X792470Y-73501D01*
Y-74500D01*
X791470Y-75500D01*
X789471D01*
X788471Y-74500D01*
X798468Y-69502D02*
X796469Y-70502D01*
X794469Y-72501D01*
Y-74500D01*
X795469Y-75500D01*
X797468D01*
X798468Y-74500D01*
Y-73501D01*
X797468Y-72501D01*
X794469D01*
X800467Y-75500D02*
Y-71501D01*
X801467D01*
X802467Y-72501D01*
Y-75500D01*
Y-72501D01*
X803466Y-71501D01*
X804466Y-72501D01*
Y-75500D01*
X806465D02*
Y-71501D01*
X807465D01*
X808465Y-72501D01*
Y-75500D01*
Y-72501D01*
X809464Y-71501D01*
X810464Y-72501D01*
Y-75500D01*
X771477Y-82502D02*
X772476Y-81502D01*
X774476D01*
X775475Y-82502D01*
Y-86500D01*
X774476Y-87500D01*
X772476D01*
X771477Y-86500D01*
Y-82502D01*
X777475Y-87500D02*
Y-86500D01*
X778474D01*
Y-87500D01*
X777475D01*
X782473Y-82502D02*
X783473Y-81502D01*
X785472D01*
X786472Y-82502D01*
Y-86500D01*
X785472Y-87500D01*
X783473D01*
X782473Y-86500D01*
Y-82502D01*
X788471Y-87500D02*
X790471D01*
X789471D01*
Y-81502D01*
X788471Y-82502D01*
X793470D02*
X794469Y-81502D01*
X796469D01*
X797468Y-82502D01*
Y-86500D01*
X796469Y-87500D01*
X794469D01*
X793470Y-86500D01*
Y-82502D01*
X799468Y-87500D02*
Y-83501D01*
X800467D01*
X801467Y-84501D01*
Y-87500D01*
Y-84501D01*
X802467Y-83501D01*
X803466Y-84501D01*
Y-87500D01*
X805466D02*
Y-83501D01*
X806465D01*
X807465Y-84501D01*
Y-87500D01*
Y-84501D01*
X808465Y-83501D01*
X809464Y-84501D01*
Y-87500D01*
X771477Y-9502D02*
X775475D01*
X773476D01*
Y-15500D01*
X777475Y-9502D02*
Y-15500D01*
Y-12501D01*
X778474Y-11501D01*
X780474D01*
X781473Y-12501D01*
Y-15500D01*
X783473D02*
X785472D01*
X784473D01*
Y-11501D01*
X783473D01*
X792470D02*
X789471D01*
X788471Y-12501D01*
Y-14500D01*
X789471Y-15500D01*
X792470D01*
X794469D02*
Y-9502D01*
Y-13501D02*
X797468Y-11501D01*
X794469Y-13501D02*
X797468Y-15500D01*
X800467D02*
Y-11501D01*
X803466D01*
X804466Y-12501D01*
Y-15500D01*
X809464D02*
X807465D01*
X806465Y-14500D01*
Y-12501D01*
X807465Y-11501D01*
X809464D01*
X810464Y-12501D01*
Y-13501D01*
X806465D01*
X812463Y-15500D02*
X815462D01*
X816462Y-14500D01*
X815462Y-13501D01*
X813463D01*
X812463Y-12501D01*
X813463Y-11501D01*
X816462D01*
X818462Y-15500D02*
X821461D01*
X822460Y-14500D01*
X821461Y-13501D01*
X819461D01*
X818462Y-12501D01*
X819461Y-11501D01*
X822460D01*
X689499Y-34502D02*
X688499Y-33502D01*
X686500D01*
X685500Y-34502D01*
Y-35501D01*
X686500Y-36501D01*
X688499D01*
X689499Y-37501D01*
Y-38500D01*
X688499Y-39500D01*
X686500D01*
X685500Y-38500D01*
X692498Y-39500D02*
X694497D01*
X695497Y-38500D01*
Y-36501D01*
X694497Y-35501D01*
X692498D01*
X691498Y-36501D01*
Y-38500D01*
X692498Y-39500D01*
X697496D02*
X699496D01*
X698496D01*
Y-33502D01*
X697496D01*
X706493D02*
Y-39500D01*
X703494D01*
X702494Y-38500D01*
Y-36501D01*
X703494Y-35501D01*
X706493D01*
X711492Y-39500D02*
X709492D01*
X708493Y-38500D01*
Y-36501D01*
X709492Y-35501D01*
X711492D01*
X712491Y-36501D01*
Y-37501D01*
X708493D01*
X714491Y-35501D02*
Y-39500D01*
Y-37501D01*
X715490Y-36501D01*
X716490Y-35501D01*
X717490D01*
X726487Y-39500D02*
Y-33502D01*
X729486D01*
X730485Y-34502D01*
Y-36501D01*
X729486Y-37501D01*
X726487D01*
X728486D02*
X730485Y-39500D01*
X735484D02*
X733485D01*
X732485Y-38500D01*
Y-36501D01*
X733485Y-35501D01*
X735484D01*
X736483Y-36501D01*
Y-37501D01*
X732485D01*
X738483Y-39500D02*
X741482D01*
X742482Y-38500D01*
X741482Y-37501D01*
X739482D01*
X738483Y-36501D01*
X739482Y-35501D01*
X742482D01*
X744481Y-39500D02*
X746480D01*
X745481D01*
Y-35501D01*
X744481D01*
X749479Y-39500D02*
X752478D01*
X753478Y-38500D01*
X752478Y-37501D01*
X750479D01*
X749479Y-36501D01*
X750479Y-35501D01*
X753478D01*
X756477Y-34502D02*
Y-35501D01*
X755477D01*
X757477D01*
X756477D01*
Y-38500D01*
X757477Y-39500D01*
X689499Y-46502D02*
X688499Y-45502D01*
X686500D01*
X685500Y-46502D01*
Y-50500D01*
X686500Y-51500D01*
X688499D01*
X689499Y-50500D01*
X692498Y-51500D02*
X694497D01*
X695497Y-50500D01*
Y-48501D01*
X694497Y-47501D01*
X692498D01*
X691498Y-48501D01*
Y-50500D01*
X692498Y-51500D01*
X697496Y-53499D02*
Y-47501D01*
X700495D01*
X701495Y-48501D01*
Y-50500D01*
X700495Y-51500D01*
X697496D01*
X703494Y-53499D02*
Y-47501D01*
X706493D01*
X707493Y-48501D01*
Y-50500D01*
X706493Y-51500D01*
X703494D01*
X712491D02*
X710492D01*
X709492Y-50500D01*
Y-48501D01*
X710492Y-47501D01*
X712491D01*
X713491Y-48501D01*
Y-49501D01*
X709492D01*
X715490Y-47501D02*
Y-51500D01*
Y-49501D01*
X716490Y-48501D01*
X717490Y-47501D01*
X718489D01*
X689499Y-57502D02*
X685500D01*
Y-60501D01*
X687499D01*
X685500D01*
Y-63500D01*
X691498D02*
Y-57502D01*
X694497D01*
X695497Y-58502D01*
Y-60501D01*
X694497Y-61501D01*
X691498D01*
X693497D02*
X695497Y-63500D01*
X697496Y-60501D02*
X701495D01*
X706493Y-63500D02*
Y-57502D01*
X703494Y-60501D01*
X707493D01*
X689499Y-70502D02*
X688499Y-69502D01*
X686500D01*
X685500Y-70502D01*
Y-74500D01*
X686500Y-75500D01*
X688499D01*
X689499Y-74500D01*
X692498Y-75500D02*
X694497D01*
X695497Y-74500D01*
Y-72501D01*
X694497Y-71501D01*
X692498D01*
X691498Y-72501D01*
Y-74500D01*
X692498Y-75500D01*
X697496Y-77499D02*
Y-71501D01*
X700495D01*
X701495Y-72501D01*
Y-74500D01*
X700495Y-75500D01*
X697496D01*
X703494Y-77499D02*
Y-71501D01*
X706493D01*
X707493Y-72501D01*
Y-74500D01*
X706493Y-75500D01*
X703494D01*
X712491D02*
X710492D01*
X709492Y-74500D01*
Y-72501D01*
X710492Y-71501D01*
X712491D01*
X713491Y-72501D01*
Y-73501D01*
X709492D01*
X715490Y-71501D02*
Y-75500D01*
Y-73501D01*
X716490Y-72501D01*
X717490Y-71501D01*
X718489D01*
X689499Y-82502D02*
X688499Y-81502D01*
X686500D01*
X685500Y-82502D01*
Y-83501D01*
X686500Y-84501D01*
X688499D01*
X689499Y-85501D01*
Y-86500D01*
X688499Y-87500D01*
X686500D01*
X685500Y-86500D01*
X692498Y-87500D02*
X694497D01*
X695497Y-86500D01*
Y-84501D01*
X694497Y-83501D01*
X692498D01*
X691498Y-84501D01*
Y-86500D01*
X692498Y-87500D01*
X697496D02*
X699496D01*
X698496D01*
Y-81502D01*
X697496D01*
X706493D02*
Y-87500D01*
X703494D01*
X702494Y-86500D01*
Y-84501D01*
X703494Y-83501D01*
X706493D01*
X711492Y-87500D02*
X709492D01*
X708493Y-86500D01*
Y-84501D01*
X709492Y-83501D01*
X711492D01*
X712491Y-84501D01*
Y-85501D01*
X708493D01*
X714491Y-83501D02*
Y-87500D01*
Y-85501D01*
X715490Y-84501D01*
X716490Y-83501D01*
X717490D01*
X726487Y-87500D02*
Y-81502D01*
X729486D01*
X730485Y-82502D01*
Y-84501D01*
X729486Y-85501D01*
X726487D01*
X728486D02*
X730485Y-87500D01*
X735484D02*
X733485D01*
X732485Y-86500D01*
Y-84501D01*
X733485Y-83501D01*
X735484D01*
X736483Y-84501D01*
Y-85501D01*
X732485D01*
X738483Y-87500D02*
X741482D01*
X742482Y-86500D01*
X741482Y-85501D01*
X739482D01*
X738483Y-84501D01*
X739482Y-83501D01*
X742482D01*
X744481Y-87500D02*
X746480D01*
X745481D01*
Y-83501D01*
X744481D01*
X749479Y-87500D02*
X752478D01*
X753478Y-86500D01*
X752478Y-85501D01*
X750479D01*
X749479Y-84501D01*
X750479Y-83501D01*
X753478D01*
X756477Y-82502D02*
Y-83501D01*
X755477D01*
X757477D01*
X756477D01*
Y-86500D01*
X757477Y-87500D01*
X685500Y-15500D02*
Y-9502D01*
X687499Y-11501D01*
X689499Y-9502D01*
Y-15500D01*
X692498Y-11501D02*
X694497D01*
X695497Y-12501D01*
Y-15500D01*
X692498D01*
X691498Y-14500D01*
X692498Y-13501D01*
X695497D01*
X698496Y-10502D02*
Y-11501D01*
X697496D01*
X699496D01*
X698496D01*
Y-14500D01*
X699496Y-15500D01*
X705493D02*
X703494D01*
X702494Y-14500D01*
Y-12501D01*
X703494Y-11501D01*
X705493D01*
X706493Y-12501D01*
Y-13501D01*
X702494D01*
X708493Y-11501D02*
Y-15500D01*
Y-13501D01*
X709492Y-12501D01*
X710492Y-11501D01*
X711492D01*
X714491Y-15500D02*
X716490D01*
X715490D01*
Y-11501D01*
X714491D01*
X720489D02*
X722488D01*
X723488Y-12501D01*
Y-15500D01*
X720489D01*
X719489Y-14500D01*
X720489Y-13501D01*
X723488D01*
X725487Y-15500D02*
X727486D01*
X726487D01*
Y-9502D01*
X725487D01*
X592526Y-21502D02*
X596524D01*
X594525D01*
Y-27500D01*
X599523D02*
X601523D01*
X602522Y-26500D01*
Y-24501D01*
X601523Y-23501D01*
X599523D01*
X598524Y-24501D01*
Y-26500D01*
X599523Y-27500D01*
X604522Y-29499D02*
Y-23501D01*
X607521D01*
X608520Y-24501D01*
Y-26500D01*
X607521Y-27500D01*
X604522D01*
X619517Y-21502D02*
X617518D01*
X616518Y-22502D01*
Y-26500D01*
X617518Y-27500D01*
X619517D01*
X620516Y-26500D01*
Y-22502D01*
X619517Y-21502D01*
X622516Y-23501D02*
X624515Y-27500D01*
X626515Y-23501D01*
X631513Y-27500D02*
X629514D01*
X628514Y-26500D01*
Y-24501D01*
X629514Y-23501D01*
X631513D01*
X632513Y-24501D01*
Y-25501D01*
X628514D01*
X634512Y-23501D02*
Y-27500D01*
Y-25501D01*
X635512Y-24501D01*
X636511Y-23501D01*
X637511D01*
X640510Y-27500D02*
X642509D01*
X641510D01*
Y-21502D01*
X640510D01*
X646508Y-23501D02*
X648507D01*
X649507Y-24501D01*
Y-27500D01*
X646508D01*
X645508Y-26500D01*
X646508Y-25501D01*
X649507D01*
X651507Y-23501D02*
Y-26500D01*
X652506Y-27500D01*
X655505D01*
Y-28500D01*
X654505Y-29499D01*
X653506D01*
X655505Y-27500D02*
Y-23501D01*
X592526Y-33502D02*
X596524D01*
X594525D01*
Y-39500D01*
X599523D02*
X601523D01*
X602522Y-38500D01*
Y-36501D01*
X601523Y-35501D01*
X599523D01*
X598524Y-36501D01*
Y-38500D01*
X599523Y-39500D01*
X604522Y-41499D02*
Y-35501D01*
X607521D01*
X608520Y-36501D01*
Y-38500D01*
X607521Y-39500D01*
X604522D01*
X620516Y-34502D02*
X619517Y-33502D01*
X617518D01*
X616518Y-34502D01*
Y-35501D01*
X617518Y-36501D01*
X619517D01*
X620516Y-37501D01*
Y-38500D01*
X619517Y-39500D01*
X617518D01*
X616518Y-38500D01*
X623516Y-39500D02*
X625515D01*
X626515Y-38500D01*
Y-36501D01*
X625515Y-35501D01*
X623516D01*
X622516Y-36501D01*
Y-38500D01*
X623516Y-39500D01*
X628514D02*
X630513D01*
X629514D01*
Y-33502D01*
X628514D01*
X637511D02*
Y-39500D01*
X634512D01*
X633512Y-38500D01*
Y-36501D01*
X634512Y-35501D01*
X637511D01*
X642509Y-39500D02*
X640510D01*
X639510Y-38500D01*
Y-36501D01*
X640510Y-35501D01*
X642509D01*
X643509Y-36501D01*
Y-37501D01*
X639510D01*
X645508Y-35501D02*
Y-39500D01*
Y-37501D01*
X646508Y-36501D01*
X647508Y-35501D01*
X648507D01*
X592526Y-45502D02*
X596524D01*
X594525D01*
Y-51500D01*
X599523D02*
X601523D01*
X602522Y-50500D01*
Y-48501D01*
X601523Y-47501D01*
X599523D01*
X598524Y-48501D01*
Y-50500D01*
X599523Y-51500D01*
X604522Y-53499D02*
Y-47501D01*
X607521D01*
X608520Y-48501D01*
Y-50500D01*
X607521Y-51500D01*
X604522D01*
X616518Y-45502D02*
Y-51500D01*
X620516D01*
X623516Y-47501D02*
X625515D01*
X626515Y-48501D01*
Y-51500D01*
X623516D01*
X622516Y-50500D01*
X623516Y-49501D01*
X626515D01*
X628514Y-47501D02*
Y-50500D01*
X629514Y-51500D01*
X632513D01*
Y-52500D01*
X631513Y-53499D01*
X630513D01*
X632513Y-51500D02*
Y-47501D01*
X637511Y-51500D02*
X635512D01*
X634512Y-50500D01*
Y-48501D01*
X635512Y-47501D01*
X637511D01*
X638511Y-48501D01*
Y-49501D01*
X634512D01*
X640510Y-47501D02*
Y-51500D01*
Y-49501D01*
X641510Y-48501D01*
X642509Y-47501D01*
X643509D01*
X592526Y-57502D02*
Y-63500D01*
X595525D01*
X596524Y-62500D01*
Y-58502D01*
X595525Y-57502D01*
X592526D01*
X598524Y-63500D02*
X600523D01*
X599523D01*
Y-59501D01*
X598524D01*
X606521Y-63500D02*
X604522D01*
X603522Y-62500D01*
Y-60501D01*
X604522Y-59501D01*
X606521D01*
X607521Y-60501D01*
Y-61501D01*
X603522D01*
X609520Y-63500D02*
X611519D01*
X610520D01*
Y-57502D01*
X609520D01*
X617518Y-63500D02*
X615518D01*
X614518Y-62500D01*
Y-60501D01*
X615518Y-59501D01*
X617518D01*
X618517Y-60501D01*
Y-61501D01*
X614518D01*
X624515Y-59501D02*
X621516D01*
X620516Y-60501D01*
Y-62500D01*
X621516Y-63500D01*
X624515D01*
X627514Y-58502D02*
Y-59501D01*
X626514D01*
X628514D01*
X627514D01*
Y-62500D01*
X628514Y-63500D01*
X631513Y-59501D02*
Y-63500D01*
Y-61501D01*
X632513Y-60501D01*
X633512Y-59501D01*
X634512D01*
X637511Y-63500D02*
X639510D01*
X638511D01*
Y-59501D01*
X637511D01*
X646508D02*
X643509D01*
X642509Y-60501D01*
Y-62500D01*
X643509Y-63500D01*
X646508D01*
X654505D02*
X656505D01*
X655505D01*
Y-57502D01*
X654505Y-58502D01*
X592526Y-69502D02*
Y-75500D01*
X595525D01*
X596524Y-74500D01*
Y-73501D01*
X595525Y-72501D01*
X592526D01*
X595525D01*
X596524Y-71501D01*
Y-70502D01*
X595525Y-69502D01*
X592526D01*
X599523Y-75500D02*
X601523D01*
X602522Y-74500D01*
Y-72501D01*
X601523Y-71501D01*
X599523D01*
X598524Y-72501D01*
Y-74500D01*
X599523Y-75500D01*
X605521Y-70502D02*
Y-71501D01*
X604522D01*
X606521D01*
X605521D01*
Y-74500D01*
X606521Y-75500D01*
X610520Y-70502D02*
Y-71501D01*
X609520D01*
X611519D01*
X610520D01*
Y-74500D01*
X611519Y-75500D01*
X615518D02*
X617518D01*
X618517Y-74500D01*
Y-72501D01*
X617518Y-71501D01*
X615518D01*
X614518Y-72501D01*
Y-74500D01*
X615518Y-75500D01*
X620516D02*
Y-71501D01*
X621516D01*
X622516Y-72501D01*
Y-75500D01*
Y-72501D01*
X623516Y-71501D01*
X624515Y-72501D01*
Y-75500D01*
X632513Y-69502D02*
Y-75500D01*
X636511D01*
X639510Y-71501D02*
X641510D01*
X642509Y-72501D01*
Y-75500D01*
X639510D01*
X638511Y-74500D01*
X639510Y-73501D01*
X642509D01*
X644509Y-71501D02*
Y-74500D01*
X645508Y-75500D01*
X648507D01*
Y-76500D01*
X647508Y-77499D01*
X646508D01*
X648507Y-75500D02*
Y-71501D01*
X653506Y-75500D02*
X651507D01*
X650507Y-74500D01*
Y-72501D01*
X651507Y-71501D01*
X653506D01*
X654505Y-72501D01*
Y-73501D01*
X650507D01*
X656505Y-71501D02*
Y-75500D01*
Y-73501D01*
X657505Y-72501D01*
X658504Y-71501D01*
X659504D01*
X592526Y-81502D02*
Y-87500D01*
X595525D01*
X596524Y-86500D01*
Y-85501D01*
X595525Y-84501D01*
X592526D01*
X595525D01*
X596524Y-83501D01*
Y-82502D01*
X595525Y-81502D01*
X592526D01*
X599523Y-87500D02*
X601523D01*
X602522Y-86500D01*
Y-84501D01*
X601523Y-83501D01*
X599523D01*
X598524Y-84501D01*
Y-86500D01*
X599523Y-87500D01*
X605521Y-82502D02*
Y-83501D01*
X604522D01*
X606521D01*
X605521D01*
Y-86500D01*
X606521Y-87500D01*
X610520Y-82502D02*
Y-83501D01*
X609520D01*
X611519D01*
X610520D01*
Y-86500D01*
X611519Y-87500D01*
X615518D02*
X617518D01*
X618517Y-86500D01*
Y-84501D01*
X617518Y-83501D01*
X615518D01*
X614518Y-84501D01*
Y-86500D01*
X615518Y-87500D01*
X620516D02*
Y-83501D01*
X621516D01*
X622516Y-84501D01*
Y-87500D01*
Y-84501D01*
X623516Y-83501D01*
X624515Y-84501D01*
Y-87500D01*
X636511Y-82502D02*
X635512Y-81502D01*
X633512D01*
X632513Y-82502D01*
Y-83501D01*
X633512Y-84501D01*
X635512D01*
X636511Y-85501D01*
Y-86500D01*
X635512Y-87500D01*
X633512D01*
X632513Y-86500D01*
X639510Y-87500D02*
X641510D01*
X642509Y-86500D01*
Y-84501D01*
X641510Y-83501D01*
X639510D01*
X638511Y-84501D01*
Y-86500D01*
X639510Y-87500D01*
X644509D02*
X646508D01*
X645508D01*
Y-81502D01*
X644509D01*
X653506D02*
Y-87500D01*
X650507D01*
X649507Y-86500D01*
Y-84501D01*
X650507Y-83501D01*
X653506D01*
X658504Y-87500D02*
X656505D01*
X655505Y-86500D01*
Y-84501D01*
X656505Y-83501D01*
X658504D01*
X659504Y-84501D01*
Y-85501D01*
X655505D01*
X661503Y-83501D02*
Y-87500D01*
Y-85501D01*
X662503Y-84501D01*
X663503Y-83501D01*
X664502D01*
X592526Y-93502D02*
Y-99500D01*
X595525D01*
X596524Y-98500D01*
Y-97501D01*
X595525Y-96501D01*
X592526D01*
X595525D01*
X596524Y-95501D01*
Y-94502D01*
X595525Y-93502D01*
X592526D01*
X599523Y-99500D02*
X601523D01*
X602522Y-98500D01*
Y-96501D01*
X601523Y-95501D01*
X599523D01*
X598524Y-96501D01*
Y-98500D01*
X599523Y-99500D01*
X605521Y-94502D02*
Y-95501D01*
X604522D01*
X606521D01*
X605521D01*
Y-98500D01*
X606521Y-99500D01*
X610520Y-94502D02*
Y-95501D01*
X609520D01*
X611519D01*
X610520D01*
Y-98500D01*
X611519Y-99500D01*
X615518D02*
X617518D01*
X618517Y-98500D01*
Y-96501D01*
X617518Y-95501D01*
X615518D01*
X614518Y-96501D01*
Y-98500D01*
X615518Y-99500D01*
X620516D02*
Y-95501D01*
X621516D01*
X622516Y-96501D01*
Y-99500D01*
Y-96501D01*
X623516Y-95501D01*
X624515Y-96501D01*
Y-99500D01*
X635512Y-93502D02*
X633512D01*
X632513Y-94502D01*
Y-98500D01*
X633512Y-99500D01*
X635512D01*
X636511Y-98500D01*
Y-94502D01*
X635512Y-93502D01*
X638511Y-95501D02*
X640510Y-99500D01*
X642509Y-95501D01*
X647508Y-99500D02*
X645508D01*
X644509Y-98500D01*
Y-96501D01*
X645508Y-95501D01*
X647508D01*
X648507Y-96501D01*
Y-97501D01*
X644509D01*
X650507Y-95501D02*
Y-99500D01*
Y-97501D01*
X651507Y-96501D01*
X652506Y-95501D01*
X653506D01*
X656505Y-99500D02*
X658504D01*
X657505D01*
Y-93502D01*
X656505D01*
X662503Y-95501D02*
X664502D01*
X665502Y-96501D01*
Y-99500D01*
X662503D01*
X661503Y-98500D01*
X662503Y-97501D01*
X665502D01*
X667501Y-95501D02*
Y-98500D01*
X668501Y-99500D01*
X671500D01*
Y-100500D01*
X670500Y-101499D01*
X669501D01*
X671500Y-99500D02*
Y-95501D01*
X592526Y-15500D02*
Y-9502D01*
X596524Y-15500D01*
Y-9502D01*
X599523Y-11501D02*
X601523D01*
X602522Y-12501D01*
Y-15500D01*
X599523D01*
X598524Y-14500D01*
X599523Y-13501D01*
X602522D01*
X604522Y-15500D02*
Y-11501D01*
X605521D01*
X606521Y-12501D01*
Y-15500D01*
Y-12501D01*
X607521Y-11501D01*
X608520Y-12501D01*
Y-15500D01*
X613519D02*
X611519D01*
X610520Y-14500D01*
Y-12501D01*
X611519Y-11501D01*
X613519D01*
X614518Y-12501D01*
Y-13501D01*
X610520D01*
X551534Y-27500D02*
X553534D01*
X552534D01*
Y-21502D01*
X551534Y-22502D01*
X555533Y-39500D02*
X551534D01*
X555533Y-35501D01*
Y-34502D01*
X554533Y-33502D01*
X552534D01*
X551534Y-34502D01*
Y-46502D02*
X552534Y-45502D01*
X554533D01*
X555533Y-46502D01*
Y-47501D01*
X554533Y-48501D01*
X553534D01*
X554533D01*
X555533Y-49501D01*
Y-50500D01*
X554533Y-51500D01*
X552534D01*
X551534Y-50500D01*
X554533Y-63500D02*
Y-57502D01*
X551534Y-60501D01*
X555533D01*
Y-69502D02*
X551534D01*
Y-72501D01*
X553534Y-71501D01*
X554533D01*
X555533Y-72501D01*
Y-74500D01*
X554533Y-75500D01*
X552534D01*
X551534Y-74500D01*
X555533Y-81502D02*
X553534Y-82502D01*
X551534Y-84501D01*
Y-86500D01*
X552534Y-87500D01*
X554533D01*
X555533Y-86500D01*
Y-85501D01*
X554533Y-84501D01*
X551534D01*
Y-93502D02*
X555533D01*
Y-94502D01*
X551534Y-98500D01*
Y-99500D01*
Y-9502D02*
Y-15500D01*
X555533D01*
X558532Y-11501D02*
X560531D01*
X561531Y-12501D01*
Y-15500D01*
X558532D01*
X557532Y-14500D01*
X558532Y-13501D01*
X561531D01*
X563530Y-11501D02*
Y-14500D01*
X564530Y-15500D01*
X567529D01*
Y-16500D01*
X566529Y-17499D01*
X565530D01*
X567529Y-15500D02*
Y-11501D01*
X572528Y-15500D02*
X570528D01*
X569528Y-14500D01*
Y-12501D01*
X570528Y-11501D01*
X572528D01*
X573527Y-12501D01*
Y-13501D01*
X569528D01*
X575527Y-11501D02*
Y-15500D01*
Y-13501D01*
X576526Y-12501D01*
X577526Y-11501D01*
X578526D01*
D39*
X545426Y-141000D02*
X956919D01*
X545426Y-246000D02*
X956919D01*
X545426Y-261000D02*
X956919D01*
Y-126000D01*
X545426D02*
X956919D01*
X545426Y-261000D02*
Y-126000D01*
X893434Y-261000D02*
Y-126000D01*
X820054Y-261000D02*
Y-126000D01*
X769466Y-261000D02*
Y-126000D01*
X654500Y-261000D02*
Y-126000D01*
X600514Y-261000D02*
Y-126000D01*
X999415Y-102500D02*
Y-6500D01*
X887446Y-30500D02*
X999415D01*
X887446Y-42500D02*
X999415D01*
X887446Y-54500D02*
X999415D01*
X887446Y-66500D02*
X999415D01*
X887446Y-78500D02*
X999415D01*
X887446Y-90500D02*
X999415D01*
X887446Y-102500D02*
X999415D01*
X887446D02*
Y-6500D01*
X830460Y-30500D02*
X887446D01*
X830460Y-42500D02*
X887446D01*
X830460Y-54500D02*
X887446D01*
X830460Y-66500D02*
X887446D01*
X830460Y-78500D02*
X887446D01*
X830460Y-90500D02*
X887446D01*
X830460Y-102500D02*
X887446D01*
X830460D02*
Y-6500D01*
X765477Y-30500D02*
X830460D01*
X765477Y-42500D02*
X830460D01*
X765477Y-54500D02*
X830460D01*
X765477Y-66500D02*
X830460D01*
X765477Y-78500D02*
X830460D01*
X765477Y-90500D02*
X830460D01*
X765477Y-102500D02*
X830460D01*
X765477D02*
Y-6500D01*
X679500Y-30500D02*
X765477D01*
X679500Y-42500D02*
X765477D01*
X679500Y-54500D02*
X765477D01*
X679500Y-66500D02*
X765477D01*
X679500Y-78500D02*
X765477D01*
X679500Y-90500D02*
X765477D01*
X679500Y-102500D02*
X765477D01*
X679500D02*
Y-6500D01*
X586526Y-30500D02*
X679500D01*
X586526Y-42500D02*
X679500D01*
X586526Y-54500D02*
X679500D01*
X586526Y-66500D02*
X679500D01*
X586526Y-78500D02*
X679500D01*
X586526Y-90500D02*
X679500D01*
X586526Y-102500D02*
X679500D01*
X586526D02*
Y-6500D01*
X545534Y-30500D02*
X586526D01*
X545534Y-42500D02*
X586526D01*
X545534Y-54500D02*
X586526D01*
X545534Y-66500D02*
X586526D01*
X545534Y-78500D02*
X586526D01*
X545534Y-90500D02*
X586526D01*
X545534Y-102500D02*
X586526D01*
X545534D02*
Y-6500D01*
X999415D01*
X545534Y-18500D02*
X999415D01*
D41*
X-18079Y-196000D02*
G03*
X1606Y-215685I19685J0D01*
G01*
X289000D02*
G03*
X308685Y-196000I0J19685D01*
G01*
X308685Y3937D02*
G03*
X289000Y23622I-19685J0D01*
G01*
X1606D02*
G03*
X-18079Y3937I0J-19685D01*
G01*
X1606Y-215685D02*
X289000D01*
X308685Y-196000D02*
X308685Y3937D01*
X1606Y23622D02*
X289000D01*
X-18079Y-196000D02*
X-18079Y3937D01*
D61*
X163039Y-74499D02*
G03*
X163039Y-74499I-1000J0D01*
G01*
X153039D02*
G03*
X153039Y-74499I-1000J0D01*
G01*
X143039D02*
G03*
X143039Y-74499I-1000J0D01*
G01*
X133039D02*
G03*
X133039Y-74499I-1000J0D01*
G01*
X123039D02*
G03*
X123039Y-74499I-1000J0D01*
G01*
X113039D02*
G03*
X113039Y-74499I-1000J0D01*
G01*
X103039D02*
G03*
X103039Y-74499I-1000J0D01*
G01*
X93039D02*
G03*
X93039Y-74499I-1000J0D01*
G01*
X83039D02*
G03*
X83039Y-74499I-1000J0D01*
G01*
X73039D02*
G03*
X73039Y-74499I-1000J0D01*
G01*
X63039D02*
G03*
X63039Y-74499I-1000J0D01*
G01*
X53039D02*
G03*
X53039Y-74499I-1000J0D01*
G01*
X43039D02*
G03*
X43039Y-74499I-1000J0D01*
G01*
X33039D02*
G03*
X33039Y-74499I-1000J0D01*
G01*
X23039D02*
G03*
X23039Y-74499I-1000J0D01*
G01*
Y-174499D02*
G03*
X23039Y-174499I-1000J0D01*
G01*
X33039D02*
G03*
X33039Y-174499I-1000J0D01*
G01*
X43039D02*
G03*
X43039Y-174499I-1000J0D01*
G01*
X53039D02*
G03*
X53039Y-174499I-1000J0D01*
G01*
X63039D02*
G03*
X63039Y-174499I-1000J0D01*
G01*
X73039D02*
G03*
X73039Y-174499I-1000J0D01*
G01*
X83039D02*
G03*
X83039Y-174499I-1000J0D01*
G01*
X93039D02*
G03*
X93039Y-174499I-1000J0D01*
G01*
X103039D02*
G03*
X103039Y-174499I-1000J0D01*
G01*
X113039D02*
G03*
X113039Y-174499I-1000J0D01*
G01*
X123039D02*
G03*
X123039Y-174499I-1000J0D01*
G01*
X133039D02*
G03*
X133039Y-174499I-1000J0D01*
G01*
X143039D02*
G03*
X143039Y-174499I-1000J0D01*
G01*
X153039D02*
G03*
X153039Y-174499I-1000J0D01*
G01*
X163039D02*
G03*
X163039Y-174499I-1000J0D01*
G01*
X42984Y-39228D02*
X43484D01*
X42984D02*
Y-38228D01*
X43484D01*
Y-37728D01*
X44484D01*
Y-38228D02*
Y-37728D01*
Y-38228D02*
X44984D01*
Y-39228D02*
Y-38228D01*
X44484Y-39228D02*
X44984D01*
X44484Y-39728D02*
Y-39228D01*
X43484Y-39728D02*
X44484D01*
X43484D02*
Y-39228D01*
X151610Y-53890D02*
X152110D01*
X151610D02*
Y-52890D01*
X152110D01*
Y-52390D01*
X153110D01*
Y-52890D02*
Y-52390D01*
Y-52890D02*
X153610D01*
Y-53890D02*
Y-52890D01*
X153110Y-53890D02*
X153610D01*
X153110Y-54390D02*
Y-53890D01*
X152110Y-54390D02*
X153110D01*
X152110D02*
Y-53890D01*
X116421Y-46728D02*
X116921D01*
X116421D02*
Y-45728D01*
X116921D01*
Y-45228D01*
X117921D01*
Y-45728D02*
Y-45228D01*
Y-45728D02*
X118421D01*
Y-46728D02*
Y-45728D01*
X117921Y-46728D02*
X118421D01*
X117921Y-47228D02*
Y-46728D01*
X116921Y-47228D02*
X117921D01*
X116921D02*
Y-46728D01*
X271000Y-59500D02*
X271500D01*
X271000D02*
Y-58500D01*
X271500D01*
Y-58000D01*
X272500D01*
Y-58500D02*
Y-58000D01*
Y-58500D02*
X273000D01*
Y-59500D02*
Y-58500D01*
X272500Y-59500D02*
X273000D01*
X272500Y-60000D02*
Y-59500D01*
X271500Y-60000D02*
X272500D01*
X271500D02*
Y-59500D01*
X59000Y-23500D02*
X59500D01*
X59000D02*
Y-22500D01*
X59500D01*
Y-22000D01*
X60500D01*
Y-22500D02*
Y-22000D01*
Y-22500D02*
X61000D01*
Y-23500D02*
Y-22500D01*
X60500Y-23500D02*
X61000D01*
X60500Y-24000D02*
Y-23500D01*
X59500Y-24000D02*
X60500D01*
X59500D02*
Y-23500D01*
X152921Y-27728D02*
X153421D01*
X152921D02*
Y-26728D01*
X153421D01*
Y-26228D01*
X154421D01*
Y-26728D02*
Y-26228D01*
Y-26728D02*
X154921D01*
Y-27728D02*
Y-26728D01*
X154421Y-27728D02*
X154921D01*
X154421Y-28228D02*
Y-27728D01*
X153421Y-28228D02*
X154421D01*
X153421D02*
Y-27728D01*
X220772Y-119024D02*
X221272D01*
X220772D02*
Y-118024D01*
X221272D01*
Y-117524D01*
X222272D01*
Y-118024D02*
Y-117524D01*
Y-118024D02*
X222772D01*
Y-119024D02*
Y-118024D01*
X222272Y-119024D02*
X222772D01*
X222272Y-119524D02*
Y-119024D01*
X221272Y-119524D02*
X222272D01*
X221272D02*
Y-119024D01*
X243921Y-123724D02*
X244421D01*
X243921D02*
Y-122724D01*
X244421D01*
Y-122224D01*
X245421D01*
Y-122724D02*
Y-122224D01*
Y-122724D02*
X245921D01*
Y-123724D02*
Y-122724D01*
X245421Y-123724D02*
X245921D01*
X245421Y-124224D02*
Y-123724D01*
X244421Y-124224D02*
X245421D01*
X244421D02*
Y-123724D01*
X243921Y-113724D02*
X244421D01*
X243921D02*
Y-112724D01*
X244421D01*
Y-112224D01*
X245421D01*
Y-112724D02*
Y-112224D01*
Y-112724D02*
X245921D01*
Y-113724D02*
Y-112724D01*
X245421Y-113724D02*
X245921D01*
X245421Y-114224D02*
Y-113724D01*
X244421Y-114224D02*
X245421D01*
X244421D02*
Y-113724D01*
X248921Y-118724D02*
X249421D01*
X248921D02*
Y-117724D01*
X249421D01*
Y-117224D01*
X250421D01*
Y-117724D02*
Y-117224D01*
Y-117724D02*
X250921D01*
Y-118724D02*
Y-117724D01*
X250421Y-118724D02*
X250921D01*
X250421Y-119224D02*
Y-118724D01*
X249421Y-119224D02*
X250421D01*
X249421D02*
Y-118724D01*
X238921D02*
X239421D01*
X238921D02*
Y-117724D01*
X239421D01*
Y-117224D01*
X240421D01*
Y-117724D02*
Y-117224D01*
Y-117724D02*
X240921D01*
Y-118724D02*
Y-117724D01*
X240421Y-118724D02*
X240921D01*
X240421Y-119224D02*
Y-118724D01*
X239421Y-119224D02*
X240421D01*
X239421D02*
Y-118724D01*
X243921Y-118524D02*
X244421D01*
X243921D02*
Y-117524D01*
X244421D01*
Y-117024D01*
X245421D01*
Y-117524D02*
Y-117024D01*
Y-117524D02*
X245921D01*
Y-118524D02*
Y-117524D01*
X245421Y-118524D02*
X245921D01*
X245421Y-119024D02*
Y-118524D01*
X244421Y-119024D02*
X245421D01*
X244421D02*
Y-118524D01*
X244020Y-81075D02*
X244520D01*
X244020D02*
Y-80075D01*
X244520D01*
Y-79575D01*
X245520D01*
Y-80075D02*
Y-79575D01*
Y-80075D02*
X246020D01*
Y-81075D02*
Y-80075D01*
X245520Y-81075D02*
X246020D01*
X245520Y-81575D02*
Y-81075D01*
X244520Y-81575D02*
X245520D01*
X244520D02*
Y-81075D01*
X230634D02*
X231134D01*
X230634D02*
Y-80075D01*
X231134D01*
Y-79575D01*
X232134D01*
Y-80075D02*
Y-79575D01*
Y-80075D02*
X232634D01*
Y-81075D02*
Y-80075D01*
X232134Y-81075D02*
X232634D01*
X232134Y-81575D02*
Y-81075D01*
X231134Y-81575D02*
X232134D01*
X231134D02*
Y-81075D01*
X200421Y-21728D02*
X200921D01*
X200421D02*
Y-20728D01*
X200921D01*
Y-20228D01*
X201921D01*
Y-20728D02*
Y-20228D01*
Y-20728D02*
X202421D01*
Y-21728D02*
Y-20728D01*
X201921Y-21728D02*
X202421D01*
X201921Y-22228D02*
Y-21728D01*
X200921Y-22228D02*
X201921D01*
X200921D02*
Y-21728D01*
X11000Y-61000D02*
X12000Y-60500D01*
X13000Y-61000D01*
X12500Y-60000D02*
X13000Y-61000D01*
X12500Y-60000D02*
X13000Y-59000D01*
X12000Y-59500D02*
X13000Y-59000D01*
X11000D02*
X12000Y-59500D01*
X11000Y-59000D02*
X11500Y-60000D01*
X11000Y-61000D02*
X11500Y-60000D01*
X21000Y-61000D02*
X22000Y-60500D01*
X23000Y-61000D01*
X22500Y-60000D02*
X23000Y-61000D01*
X22500Y-60000D02*
X23000Y-59000D01*
X22000Y-59500D02*
X23000Y-59000D01*
X21000D02*
X22000Y-59500D01*
X21000Y-59000D02*
X21500Y-60000D01*
X21000Y-61000D02*
X21500Y-60000D01*
X31000Y-191500D02*
X32000Y-191000D01*
X33000Y-191500D01*
X32500Y-190500D02*
X33000Y-191500D01*
X32500Y-190500D02*
X33000Y-189500D01*
X32000Y-190000D02*
X33000Y-189500D01*
X31000D02*
X32000Y-190000D01*
X31000Y-189500D02*
X31500Y-190500D01*
X31000Y-191500D02*
X31500Y-190500D01*
X21000Y-191500D02*
X22000Y-191000D01*
X23000Y-191500D01*
X22500Y-190500D02*
X23000Y-191500D01*
X22500Y-190500D02*
X23000Y-189500D01*
X22000Y-190000D02*
X23000Y-189500D01*
X21000D02*
X22000Y-190000D01*
X21000Y-189500D02*
X21500Y-190500D01*
X21000Y-191500D02*
X21500Y-190500D01*
X-1000Y-197000D02*
X0Y-198000D01*
X1000Y-197000D01*
X0Y-196000D02*
X1000Y-197000D01*
X-1000D02*
X0Y-196000D01*
X-1000Y0D02*
X0Y-1000D01*
X1000Y0D01*
X0Y1000D02*
X1000Y0D01*
X-1000D02*
X0Y1000D01*
X288500Y-197000D02*
X289500Y-198000D01*
X290500Y-197000D01*
X289500Y-196000D02*
X290500Y-197000D01*
X288500D02*
X289500Y-196000D01*
X288500Y0D02*
X289500Y-1000D01*
X290500Y0D01*
X289500Y1000D02*
X290500Y0D01*
X288500D02*
X289500Y1000D01*
X206921Y-83724D02*
X207421Y-84224D01*
X206421Y-83724D02*
X206921D01*
X206421D02*
X206921Y-83224D01*
X206421Y-82724D02*
X206921Y-83224D01*
X206421Y-82724D02*
X206921D01*
X207421Y-82224D01*
X207921Y-82724D01*
X208421D01*
X207921Y-83224D02*
X208421Y-82724D01*
X207921Y-83224D02*
X208421Y-83724D01*
X207921D02*
X208421D01*
X207421Y-84224D02*
X207921Y-83724D01*
X206921Y-73724D02*
X207421Y-74224D01*
X206421Y-73724D02*
X206921D01*
X206421D02*
X206921Y-73224D01*
X206421Y-72724D02*
X206921Y-73224D01*
X206421Y-72724D02*
X206921D01*
X207421Y-72224D01*
X207921Y-72724D01*
X208421D01*
X207921Y-73224D02*
X208421Y-72724D01*
X207921Y-73224D02*
X208421Y-73724D01*
X207921D02*
X208421D01*
X207421Y-74224D02*
X207921Y-73724D01*
X279421Y-83724D02*
X279921Y-84224D01*
X278921Y-83724D02*
X279421D01*
X278921D02*
X279421Y-83224D01*
X278921Y-82724D02*
X279421Y-83224D01*
X278921Y-82724D02*
X279421D01*
X279921Y-82224D01*
X280421Y-82724D01*
X280921D01*
X280421Y-83224D02*
X280921Y-82724D01*
X280421Y-83224D02*
X280921Y-83724D01*
X280421D02*
X280921D01*
X279921Y-84224D02*
X280421Y-83724D01*
X279421Y-73724D02*
X279921Y-74224D01*
X278921Y-73724D02*
X279421D01*
X278921D02*
X279421Y-73224D01*
X278921Y-72724D02*
X279421Y-73224D01*
X278921Y-72724D02*
X279421D01*
X279921Y-72224D01*
X280421Y-72724D01*
X280921D01*
X280421Y-73224D02*
X280921Y-72724D01*
X280421Y-73224D02*
X280921Y-73724D01*
X280421D02*
X280921D01*
X279921Y-74224D02*
X280421Y-73724D01*
X188921Y-52228D02*
X189421Y-52728D01*
X188421Y-52228D02*
X188921D01*
X188421D02*
X188921Y-51728D01*
X188421Y-51228D02*
X188921Y-51728D01*
X188421Y-51228D02*
X188921D01*
X189421Y-50728D01*
X189921Y-51228D01*
X190421D01*
X189921Y-51728D02*
X190421Y-51228D01*
X189921Y-51728D02*
X190421Y-52228D01*
X189921D02*
X190421D01*
X189421Y-52728D02*
X189921Y-52228D01*
X188921Y-42228D02*
X189421Y-42728D01*
X188421Y-42228D02*
X188921D01*
X188421D02*
X188921Y-41728D01*
X188421Y-41228D02*
X188921Y-41728D01*
X188421Y-41228D02*
X188921D01*
X189421Y-40728D01*
X189921Y-41228D01*
X190421D01*
X189921Y-41728D02*
X190421Y-41228D01*
X189921Y-41728D02*
X190421Y-42228D01*
X189921D02*
X190421D01*
X189421Y-42728D02*
X189921Y-42228D01*
X165421Y-52228D02*
X165921Y-52728D01*
X164921Y-52228D02*
X165421D01*
X164921D02*
X165421Y-51728D01*
X164921Y-51228D02*
X165421Y-51728D01*
X164921Y-51228D02*
X165421D01*
X165921Y-50728D01*
X166421Y-51228D01*
X166921D01*
X166421Y-51728D02*
X166921Y-51228D01*
X166421Y-51728D02*
X166921Y-52228D01*
X166421D02*
X166921D01*
X165921Y-52728D02*
X166421Y-52228D01*
X165421Y-42228D02*
X165921Y-42728D01*
X164921Y-42228D02*
X165421D01*
X164921D02*
X165421Y-41728D01*
X164921Y-41228D02*
X165421Y-41728D01*
X164921Y-41228D02*
X165421D01*
X165921Y-40728D01*
X166421Y-41228D01*
X166921D01*
X166421Y-41728D02*
X166921Y-41228D01*
X166421Y-41728D02*
X166921Y-42228D01*
X166421D02*
X166921D01*
X165921Y-42728D02*
X166421Y-42228D01*
X250921Y-41224D02*
X251921Y-39224D01*
X249921D02*
X251921D01*
X249921D02*
X250921Y-41224D01*
X230921D02*
X231921Y-39224D01*
X229921D02*
X231921D01*
X229921D02*
X230921Y-41224D01*
X125862Y-9224D02*
X127862D01*
Y-7224D01*
X125862D02*
X127862D01*
X125862Y-9224D02*
Y-7224D01*
X139642Y-9224D02*
X141642D01*
Y-7224D01*
X139642D02*
X141642D01*
X139642Y-9224D02*
Y-7224D01*
X180980Y-9224D02*
X182980D01*
Y-7224D01*
X180980D02*
X182980D01*
X180980Y-9224D02*
Y-7224D01*
X167201Y-9224D02*
X169201D01*
Y-7224D01*
X167201D02*
X169201D01*
X167201Y-9224D02*
Y-7224D01*
X153421Y-9224D02*
X155421D01*
Y-7224D01*
X153421D02*
X155421D01*
X153421Y-9224D02*
Y-7224D01*
X37154Y-9228D02*
X39154D01*
Y-7228D01*
X37154D02*
X39154D01*
X37154Y-9228D02*
Y-7228D01*
X23374Y-9228D02*
X25374D01*
Y-7228D01*
X23374D02*
X25374D01*
X23374Y-9228D02*
Y-7228D01*
X67413Y-9228D02*
X69413D01*
Y-7228D01*
X67413D02*
X69413D01*
X67413Y-9228D02*
Y-7228D01*
X81193Y-9228D02*
X83193D01*
Y-7228D01*
X81193D02*
X83193D01*
X81193Y-9228D02*
Y-7228D01*
X94972Y-9228D02*
X96973D01*
Y-7228D01*
X94972D02*
X96973D01*
X94972Y-9228D02*
Y-7228D01*
X244921Y-9224D02*
X246921D01*
Y-7224D01*
X244921D02*
X246921D01*
X244921Y-9224D02*
Y-7224D01*
X231142Y-9224D02*
X233142D01*
Y-7224D01*
X231142D02*
X233142D01*
X231142Y-9224D02*
Y-7224D01*
D62*
X887446Y-22468D02*
X891415Y-18500D01*
X887446Y-28468D02*
X897415Y-18500D01*
X891415Y-30500D02*
X903415Y-18500D01*
X897415Y-30500D02*
X909415Y-18500D01*
X903415Y-30500D02*
X915415Y-18500D01*
X909415Y-30500D02*
X921415Y-18500D01*
X915415Y-30500D02*
X927415Y-18500D01*
X921415Y-30500D02*
X933415Y-18500D01*
X927415Y-30500D02*
X939415Y-18500D01*
X933415Y-30500D02*
X945415Y-18500D01*
X939415Y-30500D02*
X951415Y-18500D01*
X945415Y-30500D02*
X957415Y-18500D01*
X951415Y-30500D02*
X963415Y-18500D01*
X957415Y-30500D02*
X969415Y-18500D01*
X963415Y-30500D02*
X975415Y-18500D01*
X969415Y-30500D02*
X981415Y-18500D01*
X975415Y-30500D02*
X987415Y-18500D01*
X981415Y-30500D02*
X993415Y-18500D01*
X987415Y-30500D02*
X999415Y-18500D01*
X993415Y-30500D02*
X999415Y-24500D01*
X887446Y-34468D02*
X891415Y-30500D01*
X887446Y-40468D02*
X897415Y-30500D01*
X891415Y-42500D02*
X903415Y-30500D01*
X897415Y-42500D02*
X909415Y-30500D01*
X903415Y-42500D02*
X915415Y-30500D01*
X909415Y-42500D02*
X921415Y-30500D01*
X915415Y-42500D02*
X927415Y-30500D01*
X921415Y-42500D02*
X933415Y-30500D01*
X927415Y-42500D02*
X939415Y-30500D01*
X933415Y-42500D02*
X945415Y-30500D01*
X939415Y-42500D02*
X951415Y-30500D01*
X945415Y-42500D02*
X957415Y-30500D01*
X951415Y-42500D02*
X963415Y-30500D01*
X957415Y-42500D02*
X969415Y-30500D01*
X963415Y-42500D02*
X975415Y-30500D01*
X969415Y-42500D02*
X981415Y-30500D01*
X975415Y-42500D02*
X987415Y-30500D01*
X981415Y-42500D02*
X993415Y-30500D01*
X987415Y-42500D02*
X999415Y-30500D01*
X993415Y-42500D02*
X999415Y-36500D01*
X887446Y-46468D02*
X891415Y-42500D01*
X887446Y-52468D02*
X897415Y-42500D01*
X891415Y-54500D02*
X903415Y-42500D01*
X897415Y-54500D02*
X909415Y-42500D01*
X903415Y-54500D02*
X915415Y-42500D01*
X909415Y-54500D02*
X921415Y-42500D01*
X915415Y-54500D02*
X927415Y-42500D01*
X921415Y-54500D02*
X933415Y-42500D01*
X927415Y-54500D02*
X939415Y-42500D01*
X933415Y-54500D02*
X945415Y-42500D01*
X939415Y-54500D02*
X951415Y-42500D01*
X945415Y-54500D02*
X957415Y-42500D01*
X951415Y-54500D02*
X963415Y-42500D01*
X957415Y-54500D02*
X969415Y-42500D01*
X963415Y-54500D02*
X975415Y-42500D01*
X969415Y-54500D02*
X981415Y-42500D01*
X975415Y-54500D02*
X987415Y-42500D01*
X981415Y-54500D02*
X993415Y-42500D01*
X987415Y-54500D02*
X999415Y-42500D01*
X993415Y-54500D02*
X999415Y-48500D01*
X887446Y-58468D02*
X891415Y-54500D01*
X887446Y-64468D02*
X897415Y-54500D01*
X891415Y-66500D02*
X903415Y-54500D01*
X897415Y-66500D02*
X909415Y-54500D01*
X903415Y-66500D02*
X915415Y-54500D01*
X909415Y-66500D02*
X921415Y-54500D01*
X915415Y-66500D02*
X927415Y-54500D01*
X921415Y-66500D02*
X933415Y-54500D01*
X927415Y-66500D02*
X939415Y-54500D01*
X933415Y-66500D02*
X945415Y-54500D01*
X939415Y-66500D02*
X951415Y-54500D01*
X945415Y-66500D02*
X957415Y-54500D01*
X951415Y-66500D02*
X963415Y-54500D01*
X957415Y-66500D02*
X969415Y-54500D01*
X963415Y-66500D02*
X975415Y-54500D01*
X969415Y-66500D02*
X981415Y-54500D01*
X975415Y-66500D02*
X987415Y-54500D01*
X981415Y-66500D02*
X993415Y-54500D01*
X987415Y-66500D02*
X999415Y-54500D01*
X993415Y-66500D02*
X999415Y-60500D01*
X887446Y-70468D02*
X891415Y-66500D01*
X887446Y-76468D02*
X897415Y-66500D01*
X891415Y-78500D02*
X903415Y-66500D01*
X897415Y-78500D02*
X909415Y-66500D01*
X903415Y-78500D02*
X915415Y-66500D01*
X909415Y-78500D02*
X921415Y-66500D01*
X915415Y-78500D02*
X927415Y-66500D01*
X921415Y-78500D02*
X933415Y-66500D01*
X927415Y-78500D02*
X939415Y-66500D01*
X933415Y-78500D02*
X945415Y-66500D01*
X939415Y-78500D02*
X951415Y-66500D01*
X945415Y-78500D02*
X957415Y-66500D01*
X951415Y-78500D02*
X963415Y-66500D01*
X957415Y-78500D02*
X969415Y-66500D01*
X963415Y-78500D02*
X975415Y-66500D01*
X969415Y-78500D02*
X981415Y-66500D01*
X975415Y-78500D02*
X987415Y-66500D01*
X981415Y-78500D02*
X993415Y-66500D01*
X987415Y-78500D02*
X999415Y-66500D01*
X993415Y-78500D02*
X999415Y-72500D01*
X887446Y-82468D02*
X891415Y-78500D01*
X887446Y-88468D02*
X897415Y-78500D01*
X891415Y-90500D02*
X903415Y-78500D01*
X897415Y-90500D02*
X909415Y-78500D01*
X903415Y-90500D02*
X915415Y-78500D01*
X909415Y-90500D02*
X921415Y-78500D01*
X915415Y-90500D02*
X927415Y-78500D01*
X921415Y-90500D02*
X933415Y-78500D01*
X927415Y-90500D02*
X939415Y-78500D01*
X933415Y-90500D02*
X945415Y-78500D01*
X939415Y-90500D02*
X951415Y-78500D01*
X945415Y-90500D02*
X957415Y-78500D01*
X951415Y-90500D02*
X963415Y-78500D01*
X957415Y-90500D02*
X969415Y-78500D01*
X963415Y-90500D02*
X975415Y-78500D01*
X969415Y-90500D02*
X981415Y-78500D01*
X975415Y-90500D02*
X987415Y-78500D01*
X981415Y-90500D02*
X993415Y-78500D01*
X987415Y-90500D02*
X999415Y-78500D01*
X993415Y-90500D02*
X999415Y-84500D01*
X887446Y-94468D02*
X891415Y-90500D01*
X887446Y-100468D02*
X897415Y-90500D01*
X891415Y-102500D02*
X903415Y-90500D01*
X897415Y-102500D02*
X909415Y-90500D01*
X903415Y-102500D02*
X915415Y-90500D01*
X909415Y-102500D02*
X921415Y-90500D01*
X915415Y-102500D02*
X927415Y-90500D01*
X921415Y-102500D02*
X933415Y-90500D01*
X927415Y-102500D02*
X939415Y-90500D01*
X933415Y-102500D02*
X945415Y-90500D01*
X939415Y-102500D02*
X951415Y-90500D01*
X945415Y-102500D02*
X957415Y-90500D01*
X951415Y-102500D02*
X963415Y-90500D01*
X957415Y-102500D02*
X969415Y-90500D01*
X963415Y-102500D02*
X975415Y-90500D01*
X969415Y-102500D02*
X981415Y-90500D01*
X975415Y-102500D02*
X987415Y-90500D01*
X981415Y-102500D02*
X993415Y-90500D01*
X987415Y-102500D02*
X999415Y-90500D01*
X993415Y-102500D02*
X999415Y-96500D01*
D63*
X897934Y-129302D02*
Y-134101D01*
X900333Y-136500D01*
X902733Y-134101D01*
Y-129302D01*
X905132Y-136500D02*
X907531D01*
X906331D01*
Y-131702D01*
X905132D01*
X912329D02*
X914729D01*
X915928Y-132901D01*
Y-136500D01*
X912329D01*
X911130Y-135300D01*
X912329Y-134101D01*
X915928D01*
X918328Y-136500D02*
X923126Y-131702D01*
X925525Y-136500D02*
Y-129302D01*
X929124D01*
X930324Y-130502D01*
Y-132901D01*
X929124Y-134101D01*
X925525D01*
X933922Y-131702D02*
X936322D01*
X937521Y-132901D01*
Y-136500D01*
X933922D01*
X932723Y-135300D01*
X933922Y-134101D01*
X937521D01*
X944719Y-129302D02*
Y-136500D01*
X941120D01*
X939921Y-135300D01*
Y-132901D01*
X941120Y-131702D01*
X944719D01*
X824554Y-129302D02*
Y-136500D01*
Y-132901D01*
X829352D01*
Y-129302D01*
Y-136500D01*
X832951D02*
X835350D01*
X836550Y-135300D01*
Y-132901D01*
X835350Y-131702D01*
X832951D01*
X831752Y-132901D01*
Y-135300D01*
X832951Y-136500D01*
X838949D02*
X841348D01*
X840149D01*
Y-129302D01*
X838949D01*
X848546Y-136500D02*
X846147D01*
X844947Y-135300D01*
Y-132901D01*
X846147Y-131702D01*
X848546D01*
X849746Y-132901D01*
Y-134101D01*
X844947D01*
X859343Y-129302D02*
X864141D01*
X861742D01*
Y-136500D01*
X866540Y-131702D02*
Y-135300D01*
X867740Y-136500D01*
X871339D01*
Y-137700D01*
X870139Y-138899D01*
X868940D01*
X871339Y-136500D02*
Y-131702D01*
X873738Y-138899D02*
Y-131702D01*
X877337D01*
X878537Y-132901D01*
Y-135300D01*
X877337Y-136500D01*
X873738D01*
X884534D02*
X882135D01*
X880936Y-135300D01*
Y-132901D01*
X882135Y-131702D01*
X884534D01*
X885734Y-132901D01*
Y-134101D01*
X880936D01*
X773966Y-136500D02*
Y-129302D01*
X777565D01*
X778765Y-130502D01*
Y-132901D01*
X777565Y-134101D01*
X773966D01*
X781164Y-136500D02*
X783563D01*
X782364D01*
Y-129302D01*
X781164D01*
X788362Y-131702D02*
X790761D01*
X791960Y-132901D01*
Y-136500D01*
X788362D01*
X787162Y-135300D01*
X788362Y-134101D01*
X791960D01*
X795559Y-130502D02*
Y-131702D01*
X794360D01*
X796759D01*
X795559D01*
Y-135300D01*
X796759Y-136500D01*
X803957D02*
X801557D01*
X800358Y-135300D01*
Y-132901D01*
X801557Y-131702D01*
X803957D01*
X805156Y-132901D01*
Y-134101D01*
X800358D01*
X812354Y-129302D02*
Y-136500D01*
X808755D01*
X807555Y-135300D01*
Y-132901D01*
X808755Y-131702D01*
X812354D01*
X659000Y-129302D02*
Y-136500D01*
Y-132901D01*
X663798D01*
Y-129302D01*
Y-136500D01*
X667397D02*
X669797D01*
X670996Y-135300D01*
Y-132901D01*
X669797Y-131702D01*
X667397D01*
X666198Y-132901D01*
Y-135300D01*
X667397Y-136500D01*
X673395D02*
X675795D01*
X674595D01*
Y-129302D01*
X673395D01*
X682992Y-136500D02*
X680593D01*
X679393Y-135300D01*
Y-132901D01*
X680593Y-131702D01*
X682992D01*
X684192Y-132901D01*
Y-134101D01*
X679393D01*
X698587Y-130502D02*
X697388Y-129302D01*
X694988D01*
X693789Y-130502D01*
Y-131702D01*
X694988Y-132901D01*
X697388D01*
X698587Y-134101D01*
Y-135300D01*
X697388Y-136500D01*
X694988D01*
X693789Y-135300D01*
X700986Y-136500D02*
X703386D01*
X702186D01*
Y-131702D01*
X700986D01*
X706985D02*
X711783D01*
X706985Y-136500D01*
X711783D01*
X717781D02*
X715382D01*
X714182Y-135300D01*
Y-132901D01*
X715382Y-131702D01*
X717781D01*
X718981Y-132901D01*
Y-134101D01*
X714182D01*
X609812Y-130502D02*
X608613Y-129302D01*
X606214D01*
X605014Y-130502D01*
Y-135300D01*
X606214Y-136500D01*
X608613D01*
X609812Y-135300D01*
X613411Y-136500D02*
X615810D01*
X617010Y-135300D01*
Y-132901D01*
X615810Y-131702D01*
X613411D01*
X612212Y-132901D01*
Y-135300D01*
X613411Y-136500D01*
X619409Y-131702D02*
Y-135300D01*
X620609Y-136500D01*
X624208D01*
Y-131702D01*
X626607Y-136500D02*
Y-131702D01*
X630206D01*
X631405Y-132901D01*
Y-136500D01*
X635004Y-130502D02*
Y-131702D01*
X633805D01*
X636204D01*
X635004D01*
Y-135300D01*
X636204Y-136500D01*
X559225Y-130502D02*
X558025Y-129302D01*
X555626D01*
X554426Y-130502D01*
Y-131702D01*
X555626Y-132901D01*
X558025D01*
X559225Y-134101D01*
Y-135300D01*
X558025Y-136500D01*
X555626D01*
X554426Y-135300D01*
X561624Y-131702D02*
Y-135300D01*
X562824Y-136500D01*
X566423D01*
Y-137700D01*
X565223Y-138899D01*
X564023D01*
X566423Y-136500D02*
Y-131702D01*
X568822Y-136500D02*
Y-131702D01*
X570021D01*
X571221Y-132901D01*
Y-136500D01*
Y-132901D01*
X572421Y-131702D01*
X573620Y-132901D01*
Y-136500D01*
X576019Y-129302D02*
Y-136500D01*
X579618D01*
X580818Y-135300D01*
Y-134101D01*
Y-132901D01*
X579618Y-131702D01*
X576019D01*
X584417Y-136500D02*
X586816D01*
X588016Y-135300D01*
Y-132901D01*
X586816Y-131702D01*
X584417D01*
X583217Y-132901D01*
Y-135300D01*
X584417Y-136500D01*
X590415D02*
X592814D01*
X591614D01*
Y-129302D01*
X590415D01*
D64*
X130208Y-235601D02*
X131207Y-234601D01*
X133206D01*
X134206Y-235601D01*
Y-236600D01*
X133206Y-237600D01*
X134206Y-238600D01*
Y-239599D01*
X133206Y-240599D01*
X131207D01*
X130208Y-239599D01*
Y-238600D01*
X131207Y-237600D01*
X130208Y-236600D01*
Y-235601D01*
X131207Y-237600D02*
X133206D01*
X136205Y-235601D02*
X137205Y-234601D01*
X139205D01*
X140204Y-235601D01*
Y-236600D01*
X139205Y-237600D01*
X138205D01*
X139205D01*
X140204Y-238600D01*
Y-239599D01*
X139205Y-240599D01*
X137205D01*
X136205Y-239599D01*
X142204Y-240599D02*
Y-239599D01*
X143203D01*
Y-240599D01*
X142204D01*
X147202Y-235601D02*
X148202Y-234601D01*
X150201D01*
X151201Y-235601D01*
Y-239599D01*
X150201Y-240599D01*
X148202D01*
X147202Y-239599D01*
Y-235601D01*
X153200D02*
X154200Y-234601D01*
X156199D01*
X157199Y-235601D01*
Y-239599D01*
X156199Y-240599D01*
X154200D01*
X153200Y-239599D01*
Y-235601D01*
X336101Y-107128D02*
X337101Y-109128D01*
X339100Y-111127D01*
X341099D01*
X342099Y-110127D01*
Y-108128D01*
X341099Y-107128D01*
X340100D01*
X339100Y-108128D01*
Y-111127D01*
X337101Y-105129D02*
X336101Y-104129D01*
Y-102130D01*
X337101Y-101130D01*
X341099D01*
X342099Y-102130D01*
Y-104129D01*
X341099Y-105129D01*
X337101D01*
X342099Y-99131D02*
X341099D01*
Y-98131D01*
X342099D01*
Y-99131D01*
X336101Y-94133D02*
Y-90134D01*
X337101D01*
X341099Y-94133D01*
X342099D01*
X337101Y-88135D02*
X336101Y-87135D01*
Y-85136D01*
X337101Y-84136D01*
X338100D01*
X339100Y-85136D01*
X340100Y-84136D01*
X341099D01*
X342099Y-85136D01*
Y-87135D01*
X341099Y-88135D01*
X340100D01*
X339100Y-87135D01*
X338100Y-88135D01*
X337101D01*
X339100Y-87135D02*
Y-85136D01*
M02*
