G04*
G04 #@! TF.GenerationSoftware,Altium Limited,Altium Designer,21.2.1 (34)*
G04*
G04 Layer_Color=8388736*
%FSLAX25Y25*%
%MOIN*%
G70*
G04*
G04 #@! TF.SameCoordinates,9466BED1-F6BD-4CF9-8920-6B0B1F58636F*
G04*
G04*
G04 #@! TF.FilePolarity,Negative*
G04*
G01*
G75*
%ADD22R,0.03556X0.04343*%
%ADD23R,0.06706X0.06706*%
%ADD24R,0.04343X0.03950*%
%ADD25R,0.06902X0.03162*%
%ADD26R,0.04147X0.04540*%
%ADD27R,0.04343X0.03556*%
%ADD28O,0.08674X0.06706*%
%ADD29R,0.08674X0.06706*%
%ADD30C,0.15367*%
%ADD31R,0.06706X0.08674*%
%ADD32O,0.06706X0.08674*%
D22*
X-48008Y-30500D02*
D03*
X-41787D02*
D03*
X-48008Y-41000D02*
D03*
X-41787D02*
D03*
X46110Y-81500D02*
D03*
X39890D02*
D03*
X39713Y-60500D02*
D03*
X33492D02*
D03*
X39713Y-50500D02*
D03*
X33492D02*
D03*
Y-40500D02*
D03*
X39713D02*
D03*
X33492Y-30500D02*
D03*
X39713D02*
D03*
X26110Y-12500D02*
D03*
X19890D02*
D03*
X-27008Y-57500D02*
D03*
X-20787D02*
D03*
X-27008Y-64000D02*
D03*
X-20787D02*
D03*
D23*
X9000Y-26500D02*
D03*
X-9000D02*
D03*
D24*
X3937Y-42043D02*
D03*
Y-34957D02*
D03*
X-3937Y-38500D02*
D03*
D25*
X-10630Y-57500D02*
D03*
Y-62500D02*
D03*
Y-67500D02*
D03*
Y-72500D02*
D03*
Y-77500D02*
D03*
Y-82500D02*
D03*
Y-87500D02*
D03*
X10630Y-57500D02*
D03*
Y-62500D02*
D03*
Y-67500D02*
D03*
Y-72500D02*
D03*
Y-77500D02*
D03*
Y-82500D02*
D03*
Y-87500D02*
D03*
D26*
X33847Y-81500D02*
D03*
X27154D02*
D03*
D27*
X25500Y-57610D02*
D03*
Y-51390D02*
D03*
X19500Y-57610D02*
D03*
Y-51390D02*
D03*
D28*
X59055Y-70500D02*
D03*
Y-60500D02*
D03*
Y-50500D02*
D03*
Y-40500D02*
D03*
X-59055Y-70500D02*
D03*
Y-60500D02*
D03*
Y-50500D02*
D03*
Y-40500D02*
D03*
D29*
X59055Y-30500D02*
D03*
X-59055D02*
D03*
D30*
X51181Y-98425D02*
D03*
X-51181Y-11811D02*
D03*
D31*
X-15000Y-101500D02*
D03*
X5000Y-12500D02*
D03*
D32*
X-5000Y-101500D02*
D03*
X5000D02*
D03*
X15000D02*
D03*
X-5000Y-12500D02*
D03*
M02*
