G04*
G04 #@! TF.GenerationSoftware,Altium Limited,Altium Designer,21.2.1 (34)*
G04*
G04 Layer_Color=128*
%FSLAX25Y25*%
%MOIN*%
G70*
G04*
G04 #@! TF.SameCoordinates,9466BED1-F6BD-4CF9-8920-6B0B1F58636F*
G04*
G04*
G04 #@! TF.FilePolarity,Positive*
G04*
G01*
G75*
%ADD46C,0.00200*%
D46*
X57284Y-70500D02*
X60827D01*
X59055Y-72272D02*
Y-68728D01*
X57284Y-60500D02*
X60827D01*
X59055Y-62272D02*
Y-58728D01*
X57284Y-50500D02*
X60827D01*
X59055Y-52272D02*
Y-48728D01*
X57284Y-40500D02*
X60827D01*
X59055Y-42272D02*
Y-38728D01*
X57284Y-30500D02*
X60827D01*
X59055Y-32272D02*
Y-28728D01*
X44291Y-98425D02*
X58071D01*
X51181Y-105315D02*
Y-91535D01*
X-58071Y-11811D02*
X-44291D01*
X-51181Y-18701D02*
Y-4921D01*
X-60827Y-70500D02*
X-57284D01*
X-59055Y-72272D02*
Y-68728D01*
X-60827Y-60500D02*
X-57284D01*
X-59055Y-62272D02*
Y-58728D01*
X-60827Y-50500D02*
X-57284D01*
X-59055Y-52272D02*
Y-48728D01*
X-60827Y-40500D02*
X-57284D01*
X-59055Y-42272D02*
Y-38728D01*
X-60827Y-30500D02*
X-57284D01*
X-59055Y-32272D02*
Y-28728D01*
X-16772Y-101500D02*
X-13228D01*
X-15000Y-103272D02*
Y-99728D01*
X-6772Y-101500D02*
X-3228D01*
X-5000Y-103272D02*
Y-99728D01*
X3228Y-101500D02*
X6772D01*
X5000Y-103272D02*
Y-99728D01*
X13228Y-101500D02*
X16772D01*
X15000Y-103272D02*
Y-99728D01*
X-6772Y-12500D02*
X-3228D01*
X-5000Y-14272D02*
Y-10728D01*
X3228Y-12500D02*
X6772D01*
X5000Y-14272D02*
Y-10728D01*
X24713Y-39500D02*
X26287D01*
X25500Y-40287D02*
Y-38713D01*
X8213Y-34413D02*
X9787D01*
X9000Y-35201D02*
Y-33626D01*
X-16787Y-57500D02*
X-15213D01*
X-16000Y-58287D02*
Y-56713D01*
X-16787Y-43000D02*
X-15213D01*
X-16000Y-43787D02*
Y-42213D01*
X24713Y-48000D02*
X26287D01*
X25500Y-48787D02*
Y-47213D01*
X14713Y-57500D02*
X16287D01*
X15500Y-58287D02*
Y-56713D01*
X-27787Y-70000D02*
X-26213D01*
X-27000Y-70787D02*
Y-69213D01*
X32705Y-35500D02*
X34280D01*
X33492Y-36287D02*
Y-34713D01*
X-42575Y-35750D02*
X-41000D01*
X-41787Y-36537D02*
Y-34963D01*
X29713Y-12500D02*
X31287D01*
X30500Y-13287D02*
Y-11713D01*
M02*
