M48
;Layer_Color=9474304
;FILE_FORMAT=2:5
INCH,LZ
;TYPE=PLATED
T1F00S00C0.01575
T2F00S00C0.03543
;TYPE=NON_PLATED
T3F00S00C0.13780
%
T01
X-0027Y-007
X-0016Y-00575
Y-0043
X-0041787Y-003575
X0009Y-0034413
X00255Y-00395
Y-0048
X00155Y-00575
X0033492Y-00355
X00305Y-00125
T02
X-0015Y-01015
X-0005
X0005
X0015
X0059055Y-00705
Y-00605
Y-00505
Y-00405
Y-00305
X0005Y-00125
X-0005
X-0059055Y-00305
Y-00405
Y-00505
Y-00605
Y-00705
T03
X-0051181Y-0011811
X0051181Y-0098425
M30
