M48
;Layer_Color=9474304
;FILE_FORMAT=2:5
INCH,LZ
;TYPE=PLATED
T1F00S00C0.01575
T2F00S00C0.03000
T3F00S00C0.03150
T4F00S00C0.03543
T5F00S00C0.06299
;TYPE=NON_PLATED
T6F00S00C0.03150
T7F00S00C0.13780
%
T01
X0221772Y-0118524
X0239921Y-0118224
X0244921Y-0118024
X0249921Y-0118224
X0244921Y-0123224
Y-0113224
X024502Y-0080575
X0231634
X0272Y-0059
X0201421Y-0021228
X0153921Y-0027228
X015261Y-005339
X0117421Y-0046228
X006Y-0023
X0043984Y-0038728
T02
X0230921Y-0040224
X0250921
T03
X0279921Y-0083224
Y-0073224
X0207421
Y-0083224
X0189421Y-0051728
Y-0041728
X0165921
Y-0051728
T04
X0022Y-01905
X0032
X0022Y-006
X0012
T05
X0232142Y-0008224
X0245921
X018198Y-0008224
X0168201
X0154421
X0140642
X0126862
X0095973Y-0008228
X0082193
X0068413
X0038154
X0024374
T06
X0022039Y-0174499
X0032039
X0042039
X0052039
X0062039
X0072039
X0082039
X0092039
X0102039
X0112039
X0122039
X0132039
X0142039
X0152039
X0162039
Y-0074499
X0152039
X0142039
X0132039
X0122039
X0112039
X0102039
X0092039
X0082039
X0072039
X0062039
X0052039
X0042039
X0032039
X0022039
T07
X0Y-0197
X02895
Y0
X0
M30
